<svg width="97" height="89" viewBox="0 0 97 89" fill="none" xmlns="http://www.w3.org/2000/svg">
<mask id="path-1-inside-1_8549_128233" fill="white">
<path d="M76.7559 0C87.936 0 96.999 12.0844 96.999 26.9912C96.999 41.898 87.936 53.9824 76.7559 53.9824C70.9342 53.9824 65.6881 50.7046 61.9951 45.459C58.3022 50.7046 53.0561 53.9824 47.2344 53.9824C42.0491 53.9824 37.3199 51.3823 33.7383 47.1074C30.1567 51.3819 25.4282 53.9824 20.2432 53.9824C9.06316 53.9823 5.41208e-06 41.8979 0 26.9912C0 12.0845 9.06315 0.000167688 20.2432 0C25.428 0 30.1568 2.59984 33.7383 6.87402C37.3198 2.59948 42.0493 2.16737e-05 47.2344 0C53.0558 0 58.3022 3.27725 61.9951 8.52246C65.688 3.27723 70.9344 1.14512e-05 76.7559 0Z"/>
</mask>
<path d="M76.7559 0V-1V0ZM96.999 26.9912H97.999H96.999ZM76.7559 53.9824V54.9824V53.9824ZM61.9951 45.459L62.8128 44.8833L61.9951 43.7219L61.1774 44.8833L61.9951 45.459ZM47.2344 53.9824L47.2344 54.9824H47.2344V53.9824ZM33.7383 47.1074L34.5048 46.4652L33.7383 45.5503L32.9718 46.4652L33.7383 47.1074ZM20.2432 53.9824L20.2431 54.9824H20.2432V53.9824ZM0 26.9912H-1H0ZM20.2432 0V-1H20.2431L20.2432 0ZM33.7383 6.87402L32.9718 7.51629L33.7383 8.43105L34.5048 7.51626L33.7383 6.87402ZM47.2344 0V-1H47.2344L47.2344 0ZM61.9951 8.52246L61.1774 9.09815L61.9951 10.2595L62.8128 9.09815L61.9951 8.52246ZM76.7559 0V1C81.9606 1 86.7488 3.81052 90.27 8.50554C93.7914 13.2009 95.999 19.7332 95.999 26.9912H96.999H97.999C97.999 19.3424 95.6751 12.3791 91.87 7.30555C88.0646 2.23167 82.7312 -1 76.7559 -1V0ZM96.999 26.9912H95.999C95.999 34.2492 93.7914 40.7816 90.27 45.4769C86.7488 50.1719 81.9606 52.9824 76.7559 52.9824V53.9824V54.9824C82.7312 54.9824 88.0646 51.7507 91.87 46.6769C95.6751 41.6033 97.999 34.6401 97.999 26.9912H96.999ZM76.7559 53.9824V52.9824C71.3367 52.9824 66.3678 49.9329 62.8128 44.8833L61.9951 45.459L61.1774 46.0346C65.0084 51.4762 70.5316 54.9824 76.7559 54.9824V53.9824ZM61.9951 45.459L61.1774 44.8833C57.6224 49.9329 52.6535 52.9824 47.2344 52.9824V53.9824V54.9824C53.4586 54.9824 58.9819 51.4762 62.8128 46.0346L61.9951 45.459ZM47.2344 53.9824L47.2344 52.9824C42.4049 52.9824 37.9386 50.5637 34.5048 46.4652L33.7383 47.1074L32.9718 47.7496C36.7011 52.2009 41.6932 54.9824 47.2344 54.9824L47.2344 53.9824ZM33.7383 47.1074L32.9718 46.4652C29.538 50.5634 25.0723 52.9824 20.2432 52.9824V53.9824V54.9824C25.7841 54.9824 30.7755 52.2005 34.5048 47.7497L33.7383 47.1074ZM20.2432 53.9824L20.2432 52.9824C15.0385 52.9823 10.2503 50.1718 6.72908 45.4768C3.20763 40.7815 1 34.2491 1 26.9912H0H-1C-0.999997 34.64 1.32395 41.6032 5.12908 46.6768C8.93443 51.7506 14.2678 54.9823 20.2431 54.9824L20.2432 53.9824ZM0 26.9912H1C1 19.7333 3.20763 13.201 6.72908 8.50564C10.2503 3.81062 15.0385 1.00008 20.2432 1L20.2432 0L20.2431 -1C14.2678 -0.99991 8.93443 2.23179 5.12907 7.30565C1.32395 12.3792 -1 19.3424 -1 26.9912H0ZM20.2432 0V1C25.0722 1 29.5381 3.41847 32.9718 7.51629L33.7383 6.87402L34.5048 6.23176C30.7755 1.78121 25.7838 -1 20.2432 -1V0ZM33.7383 6.87402L34.5048 7.51626C37.9385 3.41819 42.405 1.00002 47.2344 1L47.2344 0L47.2344 -1C41.6936 -0.999977 36.7012 1.78078 32.9718 6.23179L33.7383 6.87402ZM47.2344 0V1C52.6534 1 57.6225 4.04896 61.1774 9.09815L61.9951 8.52246L62.8128 7.94677C58.9818 2.50553 53.4583 -1 47.2344 -1V0ZM61.9951 8.52246L62.8128 9.09815C66.3677 4.04895 71.3369 1.00001 76.7559 1V0V-1C70.5319 -0.999988 65.0084 2.50551 61.1774 7.94677L61.9951 8.52246Z" fill="black" mask="url(#path-1-inside-1_8549_128233)"/>
</svg>
