<svg width="83" height="89" viewBox="0 0 83 89" fill="none" xmlns="http://www.w3.org/2000/svg">
<path d="M30.7018 12.0612C30.821 10.059 29.986 8.41019 27.7193 6.76136C25.8105 5.34807 23.3848 5.02606 22.3111 5.02606C21.7519 4.96472 20.3403 4.96726 18.689 5.54522C15.0718 6.81125 14 11.0742 14 14.9066V66.1905C14 68.2944 15.7056 70 17.8095 70H79.886C81.0535 70 82 69.0535 82 67.886C81.8807 61.8795 81.6156 59.8625 79.2296 57.507C77.6788 55.8582 74.9615 54.9308 73.4106 54.9308C71.8597 54.9308 69.4737 53.8709 68.0421 52.5754C67.1078 51.7949 66.3034 50.6725 65.8114 49.5943C65.2471 48.3576 65.1644 46.9557 64.9191 45.6187C64.6643 44.2302 64.3086 42.7477 63.363 41.5807C62.5911 40.4723 61.6816 39.8159 60.6157 39.3257C59.0316 38.5972 57.2383 38.4649 55.5469 38.0417C54.6807 37.825 53.8108 37.5449 53.1299 37.2648C51.579 36.5581 49.6702 34.7915 48.9544 33.1427C48.1193 31.4939 47.4035 29.2562 47.4035 28.1962C47.4035 27.1362 46.8285 24.6058 44.7259 22.9171C42.2074 20.8942 40.9614 21.6009 38.2175 20.8942C35.3544 20.1876 32.4912 18.5387 31.7754 17.361C30.9403 16.0655 30.4632 13.71 30.7018 12.0612Z" stroke="#656565"/>
</svg>
