<svg width="87" height="80" viewBox="0 0 87 80" fill="none" xmlns="http://www.w3.org/2000/svg">
<mask id="path-2-inside-1_8209_498919" fill="white">
<path d="M0 50.5C1.00859e-06 38.9631 4.58302 27.8987 12.7409 19.7409C20.8987 11.583 31.9631 7 43.5 7C55.0369 7 66.1013 11.583 74.2591 19.7408C82.417 27.8987 87 38.9631 87 50.5L68.7718 50.5C68.7718 43.7975 66.1093 37.3695 61.3699 32.6301C56.6305 27.8907 50.2025 25.2282 43.5 25.2282C36.7975 25.2282 30.3695 27.8907 25.6301 32.6301C20.8907 37.3695 18.2282 43.7975 18.2282 50.5H0Z"/>
</mask>
<path d="M0 50.5C1.00859e-06 38.9631 4.58302 27.8987 12.7409 19.7409C20.8987 11.583 31.9631 7 43.5 7C55.0369 7 66.1013 11.583 74.2591 19.7408C82.417 27.8987 87 38.9631 87 50.5L68.7718 50.5C68.7718 43.7975 66.1093 37.3695 61.3699 32.6301C56.6305 27.8907 50.2025 25.2282 43.5 25.2282C36.7975 25.2282 30.3695 27.8907 25.6301 32.6301C20.8907 37.3695 18.2282 43.7975 18.2282 50.5H0Z" stroke="black" stroke-width="2.175" mask="url(#path-2-inside-1_8209_498919)"/>
</svg>
