<svg width="81" height="80" viewBox="0 0 81 80" fill="none" xmlns="http://www.w3.org/2000/svg">
<path d="M38.4316 4.65625C38.7256 3.61021 40.1716 3.57755 40.5371 4.55859L40.5684 4.65625L47.6523 29.8867C47.8389 30.5511 48.3369 31.0794 48.9824 31.3066L49.1133 31.3477L74.3438 38.4316C75.3898 38.7256 75.4225 40.1716 74.4414 40.5371L74.3438 40.5684L49.1133 47.6523C48.4489 47.8388 47.9206 48.3369 47.6934 48.9824L47.6523 49.1133L40.5684 74.3438C40.2744 75.3898 38.8284 75.4225 38.4629 74.4414L38.4316 74.3438L31.3477 49.1133C31.1611 48.4489 30.6631 47.9206 30.0176 47.6934L29.8867 47.6523L4.65625 40.5684C3.61021 40.2744 3.57755 38.8284 4.55859 38.4629L4.65625 38.4316L29.8867 31.3477C30.5511 31.1611 31.0794 30.6631 31.3066 30.0176L31.3477 29.8867L38.4316 4.65625Z" stroke="black"/>
</svg>
