<svg width="119" height="80" viewBox="0 0 119 80" fill="none" xmlns="http://www.w3.org/2000/svg">
<path d="M17.7018 9.06119C17.8211 7.05904 16.986 5.41019 14.7193 3.76136C12.8105 2.34807 10.3848 2.02606 9.31112 2.02606C8.75187 1.96472 7.34032 1.96726 5.689 2.54522C2.07175 3.81125 1 8.0742 1 11.9066V63.1905C1 65.2944 2.70558 67 4.80952 67H66.886C68.0535 67 69 66.0535 69 64.886C68.8807 58.8795 68.6156 56.8625 66.2296 54.507C64.6788 52.8582 61.9615 51.9308 60.4106 51.9308C58.8597 51.9308 56.4737 50.8709 55.0421 49.5754C54.1078 48.7949 53.3034 47.6725 52.8114 46.5943C52.2471 45.3576 52.1644 43.9557 51.9191 42.6187C51.6643 41.2302 51.3086 39.7477 50.363 38.5807C49.5911 37.4723 48.6816 36.8159 47.6157 36.3257C46.0316 35.5972 44.2383 35.4649 42.5469 35.0417C41.6807 34.825 40.8108 34.5449 40.1299 34.2648C38.579 33.5581 36.6702 31.7915 35.9544 30.1427C35.1193 28.4939 34.4035 26.2562 34.4035 25.1962C34.4035 24.1362 33.8285 21.6058 31.7259 19.9171C29.2074 17.8942 27.9614 18.6009 25.2175 17.8942C22.3544 17.1876 19.4912 15.5387 18.7754 14.361C17.9403 13.0655 17.4632 10.71 17.7018 9.06119Z" stroke="#222222"/>
</svg>
