<svg width="84" height="83" viewBox="0 0 84 83" fill="none" xmlns="http://www.w3.org/2000/svg">
<path d="M2.5 8.88949C2.60565 7.30472 3.55652 4.98041 4.82434 3.71259C6.6204 2.02218 7.78255 1.70523 10.8464 2.23348C12.9594 2.65609 16.9742 4.24085 19.8268 5.82561C22.6793 7.30473 27.8563 11.7421 31.4484 15.4399C35.0405 19.2433 39.0553 23.7863 42.5417 28.6462L44.9717 25.4767C46.3452 23.7863 50.4656 19.1376 54.269 15.1229C58.7064 10.5799 63.5663 6.77647 67.5811 4.7691C72.2297 2.33913 74.7654 1.70523 77.301 2.23348C79.7309 2.65609 81.1044 3.60694 81.844 5.71996C82.6892 7.83298 82.6892 9.73471 81.7383 12.7986C81.1044 15.1229 79.2027 18.9263 77.6179 21.2507C75.9275 23.575 71.5958 28.3293 67.898 31.9214C64.2002 35.4079 59.9742 39 55.9594 41.747L59.6572 44.7052C61.6646 46.1843 66.5246 50.7273 70.4337 54.742C74.9767 59.285 78.5688 64.2506 80.3649 68.0541C82.5835 72.914 82.9005 74.7101 82.1609 77.2457C81.6326 79.1475 80.1535 80.8378 78.5688 81.4717C76.8783 82 74.4484 82 71.8071 81.2605C69.4828 80.6266 64.7285 77.9853 61.242 75.344C57.7555 72.8084 52.5786 67.8428 49.726 64.462C46.8735 61.0811 44.2322 57.5946 43.7039 56.6438C42.9644 55.376 42.5417 55.5873 40.957 57.7003C40.0061 59.1794 35.5688 64.145 31.1314 68.5823C25.9545 73.9705 21.2003 77.774 17.6081 79.4644C14.5442 80.8379 10.8464 82 9.47298 82C7.99386 82 5.77519 80.9435 4.50738 79.6757C2.92261 77.8797 2.39435 76.4005 2.81696 74.0762C3.13391 72.3858 4.19043 69.005 5.35259 66.6806C6.4091 64.3563 10.2125 59.3907 13.8047 55.5873C17.2912 51.8895 22.2568 47.3465 24.6867 45.5504C27.1167 43.86 29.0184 42.1696 29.0184 41.8526C29.0184 41.6413 27.4337 40.3735 25.532 39.2114C23.6302 38.1548 18.9816 34.0345 15.1781 30.231C11.3747 26.4276 7.043 20.8281 5.45823 17.5529C3.87347 14.3834 2.5 10.4743 2.5 8.88949Z" stroke="#222222"/>
</svg>
