<svg width="314" height="286" viewBox="0 0 314 286" fill="none" xmlns="http://www.w3.org/2000/svg">
<g opacity="0.1">
<path d="M137.219 179.344V389.985M176.917 179.344V389.985" stroke="#AFB6B4" stroke-width="1.03665" stroke-linecap="round" stroke-linejoin="round"/>
<path d="M84.3984 154.465V365.107M229.741 154.465V365.107" stroke="#AFB6B4" stroke-width="1.03665" stroke-linecap="round" stroke-linejoin="round"/>
<path d="M49.1172 133.027V343.669M267.131 343.669V133.027" stroke="#AFB6B4" stroke-width="1.03665" stroke-linecap="round" stroke-linejoin="round"/>
<path d="M2 90.8984V301.54M312.144 90.8984V301.54" stroke="white" stroke-width="1.54688" stroke-linecap="round" stroke-linejoin="round"/>
<path d="M48.0652 133.025C22.6278 118.279 9.90913 110.906 5.14379 102.404C3.04793 98.6643 2 94.7806 2 90.897C2 87.0133 3.04793 83.1296 5.14379 79.3902C9.90914 70.8881 22.6278 63.5149 48.0652 48.7686L84.4009 27.7045C109.838 12.9582 122.557 5.585 137.223 2.82248C150.124 0.392503 164.021 0.392506 176.921 2.82249C191.588 5.58501 204.306 12.9582 229.744 27.7045L266.079 48.7686C291.517 63.5149 304.235 70.8881 309.001 79.3902C311.097 83.1296 312.144 87.0133 312.144 90.897C312.144 94.7806 311.097 98.6643 309.001 102.404C304.235 110.906 291.517 118.279 266.079 133.025L229.744 154.089C204.306 168.836 191.588 176.209 176.921 178.971C164.021 181.401 150.124 181.401 137.223 178.971C122.557 176.209 109.838 168.836 84.4009 154.089L48.0652 133.025Z" stroke="white" stroke-width="1.54688" stroke-linecap="round" stroke-linejoin="round"/>
</g>
</svg>
