<svg width="172" height="362" viewBox="0 0 172 362" fill="none" xmlns="http://www.w3.org/2000/svg">
<g opacity="0.3">
<g opacity="0.6">
<path d="M1 343.147L141.384 261.766C160.766 273.002 170.458 287.729 170.458 302.456" stroke="white" stroke-width="2" stroke-linecap="round" stroke-linejoin="round"/>
<path d="M141.383 165.763V3" stroke="#414947" stroke-width="4.06909" stroke-linecap="round" stroke-linejoin="round"/>
</g>
<g opacity="0.6">
<path d="M71 101V360" stroke="#AFB6B4" stroke-width="2.03454" stroke-linecap="round" stroke-linejoin="round"/>
<path d="M141 84L141 343" stroke="#AFB6B4" stroke-width="2.03454" stroke-linecap="round" stroke-linejoin="round"/>
<path d="M1 343.144C39.7658 365.617 102.618 365.617 141.384 343.144C160.766 331.908 170.458 317.18 170.458 302.453" stroke="white" stroke-width="2" stroke-linecap="round" stroke-linejoin="round"/>
<path d="M1 84V343" stroke="white" stroke-width="2" stroke-linecap="round" stroke-linejoin="round"/>
<path d="M170 44L170 302" stroke="white" stroke-width="2" stroke-linecap="round" stroke-linejoin="round"/>
<path d="M141.384 84.3817C160.766 73.1452 170.458 58.418 170.458 43.6908C170.458 28.9636 160.766 14.2365 141.384 3L1 84.3817C20.3829 95.6182 45.7874 101.236 71.1918 101.236C96.5962 101.236 122.001 95.6182 141.384 84.3817Z" stroke="white" stroke-width="2" stroke-linecap="round" stroke-linejoin="round"/>
</g>
</g>
</svg>
