<svg width="314" height="393" viewBox="0 0 314 393" fill="none" xmlns="http://www.w3.org/2000/svg">
<g opacity="0.1">
<path d="M137.078 179.344V389.985M176.776 179.344V389.985" stroke="#AFB6B4" stroke-width="1.03665" stroke-linecap="round" stroke-linejoin="round"/>
<path d="M84.2578 154.465V365.107M229.601 154.465V365.107" stroke="#AFB6B4" stroke-width="1.03665" stroke-linecap="round" stroke-linejoin="round"/>
<path d="M48.9766 133.027V343.669M266.991 343.669V133.027" stroke="#AFB6B4" stroke-width="1.03665" stroke-linecap="round" stroke-linejoin="round"/>
<path d="M312.004 301.539C312.004 305.423 310.956 309.306 308.86 313.046C304.095 321.548 291.376 328.921 265.939 343.667L229.603 364.732C204.166 379.478 191.447 386.851 176.781 389.614C163.88 392.044 149.983 392.044 137.083 389.614C122.416 386.851 109.697 379.478 84.2602 364.732L47.9246 343.667C22.4873 328.921 9.7685 321.548 5.00316 313.046C2.9073 309.306 1.85938 305.423 1.85938 301.539" stroke="white" stroke-width="2.0733" stroke-linecap="round" stroke-linejoin="round"/>
<path d="M1.85938 90.8984V301.54M312.004 90.8984V301.54" stroke="white" stroke-width="1.54688" stroke-linecap="round" stroke-linejoin="round"/>
<path d="M47.9246 133.025C22.4872 118.279 9.76851 110.906 5.00316 102.404C2.9073 98.6643 1.85937 94.7806 1.85938 90.897C1.85938 87.0133 2.9073 83.1296 5.00316 79.3902C9.76851 70.8881 22.4872 63.5149 47.9246 48.7686L84.2603 27.7045C109.698 12.9582 122.416 5.585 137.083 2.82248C149.983 0.392503 163.88 0.392506 176.781 2.82249C191.447 5.58501 204.166 12.9582 229.603 27.7045L265.939 48.7686C291.376 63.5149 304.095 70.8881 308.86 79.3902C310.956 83.1296 312.004 87.0133 312.004 90.897C312.004 94.7806 310.956 98.6643 308.86 102.404C304.095 110.906 291.376 118.279 265.939 133.025L229.603 154.089C204.166 168.836 191.447 176.209 176.781 178.971C163.88 181.401 149.983 181.401 137.083 178.971C122.416 176.209 109.698 168.836 84.2602 154.089L47.9246 133.025Z" stroke="white" stroke-width="1.54688" stroke-linecap="round" stroke-linejoin="round"/>
</g>
</svg>
