<svg width="392" height="540" viewBox="0 0 392 540" fill="none" xmlns="http://www.w3.org/2000/svg">
<g opacity="0.3">
<g opacity="0.6">
<path opacity="0.9" d="M-1.59682 293.241L-1.11084 293.358L-1.59682 293.241ZM68.1243 190.312L67.8216 189.915L68.1243 190.312ZM185.924 150.585L185.908 151.084L185.924 150.585ZM68.1216 190.31L68.5827 190.504L68.1216 190.31ZM68.1188 190.316L68.1821 190.812L68.1188 190.316ZM208.688 374.264L68.517 190.01L67.7211 190.615L207.892 374.87L208.688 374.264ZM-1.11084 293.358C8.72332 252.722 34.5706 216.467 68.4271 190.71L67.8216 189.915C33.8086 215.79 7.81279 252.233 -2.0828 293.123L-1.11084 293.358ZM68.4271 190.71C102.283 164.954 144.121 149.719 185.908 151.084L185.941 150.085C143.893 148.711 101.834 164.039 67.8216 189.915L68.4271 190.71ZM185.908 151.084C227.689 152.45 261.494 170.15 282.4 197.631L283.196 197.026C262.091 169.284 227.995 151.459 185.941 150.085L185.908 151.084ZM18.001 398.772C-2.90501 371.291 -10.9436 333.989 -1.11084 293.358L-2.0828 293.123C-11.9798 334.019 -3.89924 371.636 17.2051 399.378L18.001 398.772ZM98.1554 422.955C75.5563 393.248 60.931 352.368 55.5762 310.277C50.2213 268.185 54.1436 224.938 68.5827 190.504L67.6605 190.117C53.1375 224.751 49.213 268.184 54.5842 310.403C59.9553 352.622 74.6291 393.681 97.3595 423.56L98.1554 422.955ZM68.5827 190.504C82.9702 156.193 105.04 137.193 129.041 134.011L128.909 133.02C104.433 136.264 82.129 155.613 67.6605 190.117L68.5827 190.504ZM68.1821 190.812C105.22 186.084 147.947 193.844 187.083 210.236C226.219 226.629 261.715 251.632 284.314 281.338L285.11 280.733C262.379 250.854 226.724 225.756 187.469 209.314C148.214 192.872 105.309 185.065 68.0555 189.82L68.1821 190.812ZM-2.38541 233.982C7.09105 211.712 31.2878 195.521 68.1821 190.812L68.0555 189.82C30.9534 194.555 6.3589 210.878 -3.30556 233.591L-2.38541 233.982Z" fill="#616B68"/>
<path opacity="0.9" d="M129.035 134.015C153.211 130.81 179.551 143.63 202.235 173.447L203.031 172.842C180.219 142.856 153.561 129.755 128.904 133.023L129.035 134.015ZM16.0668 315.07C-6.62403 285.243 -11.9466 256.429 -2.39493 233.981L-3.31509 233.59C-13.057 256.484 -7.54788 285.68 15.2709 315.676L16.0668 315.07ZM92.3979 221.408L50.0453 165.736L49.2494 166.341L91.6021 222.014L92.3979 221.408Z" fill="white"/>
<path opacity="0.9" d="M285.112 280.985L284.189 280.598L285.112 280.985ZM208.406 374.718L207.801 373.922L208.406 374.718ZM97.604 423.63L97.7306 424.622L97.604 423.63ZM15.2827 315.426L16.2049 315.812L15.2827 315.426ZM202.79 172.78L202.917 173.772L202.79 172.78ZM284.189 280.598C269.75 315.033 241.631 348.186 207.801 373.922L209.012 375.514C243.047 349.622 271.426 316.207 286.034 281.371L284.189 280.598ZM207.801 373.922C173.971 399.658 134.517 417.911 97.4774 422.639L97.7306 424.622C135.201 419.84 174.977 401.406 209.012 375.514L207.801 373.922ZM281.991 197.944C296.595 217.141 298.632 246.156 284.189 280.598L286.034 281.371C300.639 246.542 298.772 216.699 283.583 196.733L281.991 197.944ZM97.4774 422.639C60.4308 427.367 33.0107 417.661 18.4068 398.465L16.815 399.675C32.0043 419.642 60.2669 429.404 97.7306 424.622L97.4774 422.639ZM18.3923 398.473C-36.7285 326.017 -22.4113 222.385 50.384 167.006L49.1731 165.414C-24.4945 221.457 -38.9942 326.342 16.8005 399.684L18.3923 398.473ZM50.384 167.006C123.179 111.627 226.875 125.482 281.995 197.938L283.587 196.727C227.792 123.385 122.841 109.372 49.1731 165.414L50.384 167.006ZM16.2049 315.812C30.6447 281.377 58.7638 248.224 92.5934 222.488L91.3824 220.897C57.3476 246.788 28.968 280.204 14.3605 315.039L16.2049 315.812ZM92.5934 222.488C126.423 196.753 165.877 178.499 202.917 173.772L202.664 171.788C165.194 176.57 125.417 195.005 91.3824 220.897L92.5934 222.488ZM202.917 173.772C239.964 169.043 267.384 178.749 281.988 197.946L283.579 196.735C268.39 176.768 240.127 167.006 202.664 171.788L202.917 173.772ZM18.4034 398.467C3.79947 379.27 1.76249 350.254 16.2049 315.812L14.3605 315.039C-0.244499 349.868 1.62233 379.711 16.8116 399.677L18.4034 398.467Z" fill="white"/>
</g>
</g>
</svg>
