<svg width="225" height="205" viewBox="0 0 225 205" fill="none" xmlns="http://www.w3.org/2000/svg">
<g opacity="0.1">
<path d="M177.275 64.5458C185.352 75.117 186.468 91.1661 178.475 110.238L179.397 110.624C187.47 91.3608 186.442 74.8962 178.069 63.9386L177.275 64.5458ZM60.4886 60.7905C68.4821 41.7171 80.7082 31.2584 93.9105 29.6063L93.7863 28.6141C80.1015 30.3266 67.6402 41.1387 59.5664 60.404L60.4886 60.7905Z" fill="#616B68"/>
<path d="M20.6615 84.7446C25.9205 72.1958 39.4127 63.0974 59.8915 60.4238C80.3703 57.7502 103.958 62.0076 125.54 71.0523C147.121 80.0969 166.697 93.9288 179.151 110.404C191.604 126.879 194.578 142.878 189.319 155.427" stroke="#616B68" stroke-width="2" stroke-linejoin="round"/>
<path d="M65.852 46.2037L65.9949 46.6828L65.9949 46.6828L65.852 46.2037ZM133.973 50.9447L134.166 50.4836L133.973 50.9447ZM185.12 96.1874L184.678 96.4215L184.678 96.4215L185.12 96.1874ZM133.97 50.9455L133.905 50.4497L133.905 50.4497L133.97 50.9455ZM133.973 50.9447L134.372 50.6432L134.372 50.6432L133.973 50.9447ZM65.9949 46.6828C87.9947 40.121 112.288 42.399 133.779 51.4058L134.166 50.4836C112.491 41.4 87.9598 39.0879 65.7091 45.7245L65.9949 46.6828ZM133.779 51.4058C155.271 60.4127 173.93 76.1353 184.678 96.4215L185.561 95.9533C174.691 75.4357 155.841 59.5672 134.166 50.4836L133.779 51.4058ZM21.1228 84.9347C28.4757 67.3898 44.0006 53.2429 65.9949 46.6828L65.7091 45.7245C43.4526 52.3628 27.6789 66.7039 20.2005 84.5482L21.1228 84.9347ZM184.678 96.4215C195.423 116.702 196.223 137.691 188.87 155.236L189.793 155.622C197.271 137.778 196.435 116.476 185.561 95.9533L184.678 96.4215ZM31.5122 129.933C39.4721 110.939 54.9279 92.6392 73.5014 78.4194C92.0751 64.1994 113.724 54.093 134.034 51.4413L133.905 50.4497C113.378 53.1295 91.5691 63.3274 72.8936 77.6254C54.2179 91.9234 38.633 110.354 30.5899 129.546L31.5122 129.933ZM134.034 51.4413C154.269 48.7996 169.26 54.0592 177.275 64.5472L178.069 63.9401C169.761 53.0677 154.348 47.7808 133.905 50.4497L134.034 51.4413ZM133.574 51.2462C145.926 67.5863 153.9 90.1075 156.786 113.321C159.672 136.534 157.462 160.386 149.502 179.379L150.424 179.765C158.467 160.574 160.68 136.538 157.778 113.197C154.877 89.8568 146.854 67.1568 134.372 50.6432L133.574 51.2462ZM93.9133 29.6073C107.009 27.9685 121.27 34.9692 133.574 51.2462L134.372 50.6432C121.941 34.1984 107.365 26.9162 93.7891 28.615L93.9133 29.6073ZM140.028 35.1967L84.0002 168.886L84.9225 169.273L140.95 35.5832L140.028 35.1967Z" fill="white"/>
<path d="M150.092 179.75L150.221 180.741L150.221 180.741L150.092 179.75ZM30.8327 129.769L31.6305 129.166L31.6305 129.166L30.8327 129.769ZM149.962 178.758C129.7 181.403 106.292 177.193 84.83 168.199L84.0569 170.043C105.759 179.138 129.526 183.443 150.221 180.741L149.962 178.758ZM84.83 168.199C63.3683 159.204 43.9528 145.468 31.6305 129.166L30.035 130.372C42.6201 147.021 62.3553 160.948 84.0569 170.043L84.83 168.199ZM31.6305 129.166C19.3049 112.861 16.5126 97.2391 21.5863 85.1326L19.7418 84.3596C14.2973 97.3507 17.4531 113.728 30.035 130.372L31.6305 129.166ZM188.4 155.042C183.326 167.149 170.23 176.112 149.962 178.758L150.221 180.741C170.911 178.04 184.8 168.806 190.244 155.815L188.4 155.042ZM21.5813 85.128C40.9476 38.9174 93.9929 17.1132 140.058 36.4185L140.831 34.5739C93.7419 14.8395 39.5278 37.1309 19.7367 84.355L21.5813 85.128ZM140.058 36.4185C186.123 55.7238 207.773 108.832 188.407 155.043L190.251 155.816C210.042 108.592 187.92 54.3084 140.831 34.5739L140.058 36.4185Z" fill="white"/>
</g>
</svg>
