<svg width="339" height="320" viewBox="0 0 339 320" fill="none" xmlns="http://www.w3.org/2000/svg">
<g opacity="0.15">
<path d="M271.493 115.748C281.364 132.971 279.785 156.955 264.418 183.571M101.305 89.3978C116.673 62.7789 136.656 49.4194 156.509 49.3591C176.203 49.2994 195.77 62.3264 210.578 88.4799M210.578 88.4799C180.971 71.3863 145.952 63.6662 112.539 69.3713C79.1262 75.0763 53.6453 93.1264 39.4592 117.697C76.9134 52.8249 159.071 30.1393 222.964 67.0278C286.857 103.916 308.289 186.41 270.835 251.282C285.021 226.711 287.913 195.619 276.147 163.83C264.381 132.041 240.186 105.574 210.578 88.4799ZM210.578 88.4799C150.228 88.9867 76.488 132.382 45.8741 185.407M210.578 88.4799C240.635 88.2275 261.702 98.6604 271.496 115.749M210.578 88.4799C240.314 140.998 239.602 226.556 208.988 279.581M223.051 66.8778L115.869 252.522M101.147 89.119C131.411 88.8649 164.854 99.3097 194.459 116.402C224.064 133.495 249.831 157.235 264.743 183.571C279.655 209.907 280.888 233.854 270.827 251.279C260.767 268.705 239.413 279.609 209.149 279.863C178.885 280.117 145.442 269.672 115.837 252.58C86.2318 235.487 60.4648 211.747 45.5529 185.411C30.6411 159.074 29.4073 135.129 39.4679 117.704C49.5286 100.278 70.8831 89.3731 101.147 89.119ZM208.58 279.146C148.23 279.653 75.2008 237.49 45.4646 184.972C30.5965 158.712 29.3668 134.837 39.398 117.462L44.6952 108.287C84.2837 50.3644 161.703 31.459 222.555 66.5917C283.406 101.724 305.744 178.223 275.377 241.468L270.078 250.646C260.047 268.02 238.755 278.893 208.58 279.146Z" stroke="white" stroke-linejoin="round"/>
</g>
<rect x="10.7969" y="40.4922" width="310.425" height="253.739" fill="url(#paint0_linear_8364_168068)"/>
<defs>
<linearGradient id="paint0_linear_8364_168068" x1="166.01" y1="40.4922" x2="166.01" y2="294.231" gradientUnits="userSpaceOnUse">
<stop stop-color="#161616" stop-opacity="0"/>
<stop offset="1" stop-color="#161616"/>
</linearGradient>
</defs>
</svg>
