<svg width="582" height="548" viewBox="0 0 582 548" fill="none" xmlns="http://www.w3.org/2000/svg">
<g opacity="0.15">
<path d="M155.443 337.891C119.569 337.778 83.4605 313.635 55.6895 265.534M350.463 95.3469C378.236 143.452 381.088 186.797 363.244 217.923C345.542 248.8 307.473 267.652 253.161 267.196M253.161 267.196C306.666 236.304 350.391 188.473 371.654 131.025C392.917 73.5767 387.692 17.3879 362.055 -27.0163C429.741 90.2196 391.009 239.3 275.543 305.964C160.078 372.627 11.6047 331.631 -56.0814 214.395C-30.4447 258.799 15.6036 291.419 75.9869 301.729C136.37 312.039 199.656 298.087 253.161 267.196ZM253.161 267.196C306.9 172.286 305.614 17.6671 250.29 -78.1579M253.161 267.196C226.397 314.464 191.033 338.008 155.439 337.896M253.161 267.196C144.098 266.28 10.8382 187.856 -44.4864 92.031M275.7 306.235L82.0041 -29.2565M351.042 95.3517C324.093 142.946 277.528 185.848 224.026 216.738C170.525 247.627 110.088 266.502 55.3956 266.043C0.703572 265.584 -37.8878 245.877 -56.0691 214.386C-74.2504 182.895 -72.0208 139.621 -45.0724 92.0271C-18.1241 44.4328 28.4413 1.53036 81.9427 -29.3587C135.444 -60.2477 195.881 -79.1233 250.574 -78.6641C305.266 -78.2049 343.856 -58.4992 362.037 -27.0082C380.219 4.48271 377.99 47.7574 351.042 95.3517ZM-43.4374 91.7848C10.301 -3.12449 142.278 -79.3212 251.341 -78.4054C305.872 -77.9475 344.35 -58.2982 362.478 -26.8997L372.051 -10.3186C426.932 103.978 386.565 242.227 276.595 305.718C166.627 369.208 26.7184 335.044 -44.8257 230.371L-54.401 213.786C-72.529 182.387 -70.3067 139.239 -43.4374 91.7848Z" stroke="white" stroke-linejoin="round"/>
</g>
<rect x="508.781" y="-2.10547" width="560.992" height="458.55" transform="rotate(120 508.781 -2.10547)" fill="url(#paint0_linear_8364_168075)"/>
<defs>
<linearGradient id="paint0_linear_8364_168075" x1="789.277" y1="-2.10547" x2="789.277" y2="456.445" gradientUnits="userSpaceOnUse">
<stop stop-color="#161616" stop-opacity="0"/>
<stop offset="1" stop-color="#161616"/>
</linearGradient>
</defs>
</svg>
