<svg width="84" height="80" viewBox="0 0 84 80" fill="none" xmlns="http://www.w3.org/2000/svg">
<path d="M54.2982 8.06119C54.179 6.05904 55.014 4.41019 57.2807 2.76136C59.1895 1.34807 61.6152 1.02606 62.6889 1.02606C63.2481 0.964718 64.6597 0.967262 66.311 1.54522C69.9282 2.81125 71 7.0742 71 10.9066V62.1905C71 64.2944 69.2944 66 67.1905 66H5.11404C3.94649 66 3 65.0535 3 63.886C3.1193 57.8795 3.3844 55.8625 5.77037 53.507C7.32125 51.8582 10.0385 50.9308 11.5894 50.9308C13.1403 50.9308 15.5263 49.8709 16.9579 48.5754C17.8922 47.7949 18.6966 46.6725 19.1886 45.5943C19.7529 44.3576 19.8356 42.9557 20.0809 41.6187C20.3357 40.2302 20.6914 38.7477 21.637 37.5807C22.4089 36.4723 23.3184 35.8159 24.3843 35.3257C25.9684 34.5972 27.7617 34.4649 29.4531 34.0417C30.3193 33.825 31.1892 33.5449 31.8701 33.2648C33.421 32.5581 35.3298 30.7915 36.0456 29.1427C36.8807 27.4939 37.5965 25.2562 37.5965 24.1962C37.5965 23.1362 38.1715 20.6058 40.2741 18.9171C42.7926 16.8942 44.0386 17.6009 46.7825 16.8942C49.6456 16.1876 52.5088 14.5387 53.2246 13.361C54.0597 12.0655 54.5368 9.71002 54.2982 8.06119Z" stroke="black"/>
</svg>
