<svg width="84" height="80" viewBox="0 0 84 80" fill="none" xmlns="http://www.w3.org/2000/svg">
<g clip-path="url(#clip0_8549_75286)">
<path d="M8.27877 6.27282C15.2192 -0.667365 26.4718 -0.666843 33.4121 6.27351L68.4498 41.3112C75.3902 48.2515 75.3907 59.5041 68.4505 66.4446C61.5101 73.385 50.2569 73.385 43.3165 66.4446L8.27877 31.4069C1.33834 24.4664 1.33834 13.2133 8.27877 6.27282Z" stroke="#272727"/>
<path d="M68.4453 6.27282C61.5049 -0.667365 50.2523 -0.666843 43.312 6.27351L8.27429 41.3112C1.33394 48.2515 1.33342 59.5041 8.2736 66.4446C15.214 73.385 26.4672 73.385 33.4077 66.4446L68.4453 31.4069C75.3858 24.4664 75.3858 13.2133 68.4453 6.27282Z" stroke="#272727"/>
</g>
<defs>
<clipPath id="clip0_8549_75286">
<rect width="83.0476" height="80" rx="24" fill="white"/>
</clipPath>
</defs>
</svg>
