<svg width="54" height="27" viewBox="0 0 54 27" fill="none" xmlns="http://www.w3.org/2000/svg">
<path fill-rule="evenodd" clip-rule="evenodd" d="M10.9403 10.7233C11.3215 10.3491 11.0723 9.69891 10.5394 9.67723L1.91969 9.32665C1.59354 9.31339 1.33594 9.04427 1.33594 8.71679L1.33594 1.9424C1.33594 1.60531 1.60833 1.33204 1.94433 1.33204L25.0633 1.33203C25.3993 1.33203 25.6717 1.6053 25.6717 1.9424L25.6717 25.1363C25.6717 25.4734 25.3994 25.7467 25.0633 25.7467H18.4806C18.1494 25.7467 17.879 25.4808 17.8723 25.1485L17.7079 16.9132C17.6972 16.3761 17.0499 16.1139 16.6704 16.4929L10.8868 22.2704C10.6511 22.5058 10.2707 22.5077 10.0327 22.2747L5.04073 17.3888C4.79627 17.1496 4.79597 16.7554 5.04007 16.5157L10.9403 10.7233Z" fill="#5B5B5B"/>
<path d="M44.6732 15.0341L44.6718 13.1983C44.6718 11.0469 42.8589 9.30291 40.6226 9.30291C38.3863 9.30291 36.5734 11.0469 36.5734 13.1983V25.1363C36.5734 25.4734 36.301 25.7467 35.965 25.7467H28.9419C28.6059 25.7467 28.3335 25.4734 28.3335 25.1363V1.9424C28.3335 1.6053 28.6059 1.33203 28.9419 1.33203H44.0468C44.3828 1.33203 44.6551 1.6053 44.6551 1.9424V4.41998C44.6551 7.11675 46.8343 9.30291 49.5223 9.30291H52.0609C52.3969 9.30291 52.6693 9.57618 52.6693 9.91328V25.1363C52.6693 25.4734 52.3969 25.7467 52.0609 25.7467H45.2816C44.9456 25.7467 44.6732 25.4734 44.6732 25.1363V15.0341Z" fill="#5B5B5B"/>
<path fill-rule="evenodd" clip-rule="evenodd" d="M10.9403 10.7233C11.3215 10.3491 11.0723 9.69891 10.5394 9.67723L1.91969 9.32665C1.59354 9.31339 1.33594 9.04427 1.33594 8.71679L1.33594 1.9424C1.33594 1.60531 1.60833 1.33204 1.94433 1.33204L25.0633 1.33203C25.3993 1.33203 25.6717 1.6053 25.6717 1.9424L25.6717 25.1363C25.6717 25.4734 25.3994 25.7467 25.0633 25.7467H18.4806C18.1494 25.7467 17.879 25.4808 17.8723 25.1485L17.7079 16.9132C17.6972 16.3761 17.0499 16.1139 16.6704 16.4929L10.8868 22.2704C10.6511 22.5058 10.2707 22.5077 10.0327 22.2747L5.04073 17.3888C4.79627 17.1496 4.79597 16.7554 5.04007 16.5157L10.9403 10.7233Z" stroke="#5B5B5B" stroke-width="1.5"/>
<path d="M44.6732 15.0341L44.6718 13.1983C44.6718 11.0469 42.8589 9.30291 40.6226 9.30291C38.3863 9.30291 36.5734 11.0469 36.5734 13.1983V25.1363C36.5734 25.4734 36.301 25.7467 35.965 25.7467H28.9419C28.6059 25.7467 28.3335 25.4734 28.3335 25.1363V1.9424C28.3335 1.6053 28.6059 1.33203 28.9419 1.33203H44.0468C44.3828 1.33203 44.6551 1.6053 44.6551 1.9424V4.41998C44.6551 7.11675 46.8343 9.30291 49.5223 9.30291H52.0609C52.3969 9.30291 52.6693 9.57618 52.6693 9.91328V25.1363C52.6693 25.4734 52.3969 25.7467 52.0609 25.7467H45.2816C44.9456 25.7467 44.6732 25.4734 44.6732 25.1363V15.0341Z" stroke="#5B5B5B" stroke-width="1.5"/>
</svg>
