<svg width="103" height="51" viewBox="0 0 103 51" fill="none" xmlns="http://www.w3.org/2000/svg">
<path d="M7.5553 51C4.9107 51 3.5884 51 2.57829 50.4859C1.68978 50.0337 0.967394 49.3121 0.514674 48.4246C0 47.4156 0 46.0948 0 43.4532V7.54682C0 4.90519 0 3.58437 0.514674 2.5754C0.967394 1.68788 1.68978 0.966308 2.57829 0.514096C3.5884 0 4.9107 0 7.5553 0H18.8576C20.0126 0 20.5901 0 21.1335 0.130325C21.6153 0.24587 22.0759 0.436447 22.4984 0.695061C22.975 0.986754 23.3833 1.39464 24.2 2.21041L50.7622 28.7428V7.54682C50.7622 4.90519 50.7622 3.58437 51.2768 2.5754C51.7296 1.68788 52.452 0.966308 53.3405 0.514096C54.3506 0 55.6729 0 58.3175 0H77.4713C91.5704 0 103 11.4167 103 25.5C103 39.5833 91.5704 51 77.4713 51H76.1739C75.0189 51 74.4415 51 73.898 50.8697C73.4162 50.7541 72.9556 50.5635 72.5331 50.3049C72.0565 50.0132 71.6482 49.6054 70.8315 48.7896L50.7622 28.7428V43.4532C50.7622 46.0948 50.7622 47.4156 50.2475 48.4246C49.7948 49.3121 49.0724 50.0337 48.1839 50.4859C47.1738 51 45.8515 51 43.2069 51H7.5553Z" fill="#575757"/>
</svg>
