<svg width="104" height="51" viewBox="0 0 104 51" fill="none" xmlns="http://www.w3.org/2000/svg">
<path d="M8.0553 51C5.4107 51 4.0884 51 3.07829 50.4859C2.18978 50.0337 1.46739 49.3121 1.01467 48.4246C0.5 47.4156 0.5 46.0948 0.5 43.4532V7.54682C0.5 4.90519 0.5 3.58437 1.01467 2.5754C1.46739 1.68788 2.18978 0.966308 3.07829 0.514096C4.0884 0 5.4107 0 8.0553 0H19.3576C20.5126 0 21.0901 0 21.6335 0.130325C22.1153 0.24587 22.5759 0.436447 22.9984 0.695061C23.475 0.986754 23.8833 1.39464 24.7 2.21041L51.2622 28.7428V7.54682C51.2622 4.90519 51.2622 3.58437 51.7768 2.5754C52.2296 1.68788 52.952 0.966308 53.8405 0.514096C54.8506 0 56.1729 0 58.8175 0H77.9713C92.0704 0 103.5 11.4167 103.5 25.5C103.5 39.5833 92.0704 51 77.9713 51H76.6739C75.5189 51 74.9415 51 74.398 50.8697C73.9162 50.7541 73.4556 50.5635 73.0331 50.3049C72.5565 50.0132 72.1482 49.6054 71.3315 48.7896L51.2622 28.7428V43.4532C51.2622 46.0948 51.2622 47.4156 50.7475 48.4246C50.2948 49.3121 49.5724 50.0337 48.6839 50.4859C47.6738 51 46.3515 51 43.7069 51H8.0553Z" fill="white"/>
</svg>
