<svg width="34" height="34" viewBox="0 0 34 34" fill="none" xmlns="http://www.w3.org/2000/svg">
<path d="M19.9668 1V7.19727C19.9668 7.60171 20.2103 7.9663 20.584 8.12109C20.9577 8.27587 21.3878 8.19029 21.6738 7.9043L26.123 3.4541L30.3184 7.64941L25.6426 12.3262C25.3567 12.6121 25.2711 13.0424 25.4258 13.416C25.5805 13.7896 25.9453 14.033 26.3496 14.0332H33V19.9668H26.5195C26.1151 19.9668 25.7505 20.2104 25.5957 20.584C25.4409 20.9577 25.5265 21.3878 25.8125 21.6738L30.2207 26.082L26.0254 30.2773L21.6738 25.9258C21.3879 25.64 20.9575 25.5543 20.584 25.709C20.2103 25.8638 19.9668 26.2293 19.9668 26.6338V33H14.0332V26.3496C14.033 25.9453 13.7896 25.5805 13.416 25.4258C13.0424 25.2711 12.6121 25.3567 12.3262 25.6426L7.69141 30.2773L3.49609 26.082L7.9043 21.6738C8.19029 21.3878 8.27587 20.9577 8.12109 20.584C7.9663 20.2103 7.60171 19.9668 7.19727 19.9668H1V14.0332H7.36621C7.77067 14.0332 8.13623 13.7897 8.29102 13.416C8.44567 13.0425 8.36002 12.6121 8.07422 12.3262L3.39746 7.64941L7.59277 3.4541L12.3262 8.1875C12.6122 8.4735 13.0423 8.55908 13.416 8.4043C13.7896 8.2495 14.0332 7.8849 14.0332 7.48047V1H19.9668Z" stroke="#383430" stroke-width="2" stroke-linejoin="round"/>
</svg>
