<svg width="36" height="34" viewBox="0 0 36 34" fill="none" xmlns="http://www.w3.org/2000/svg">
<mask id="path-1-inside-1_8364_113625" fill="white">
<path d="M5.74609 18.7916C5.74609 10.6117 12.3773 3.98047 20.5573 3.98047C28.7372 3.98047 35.3684 10.6117 35.3684 18.7916V33.022C35.3684 33.3428 35.1084 33.6028 34.7876 33.6028H20.5573C12.3773 33.6028 5.74609 26.9716 5.74609 18.7916Z"/>
</mask>
<path d="M5.74609 18.7916C5.74609 10.6117 12.3773 3.98047 20.5573 3.98047C28.7372 3.98047 35.3684 10.6117 35.3684 18.7916V33.022C35.3684 33.3428 35.1084 33.6028 34.7876 33.6028H20.5573C12.3773 33.6028 5.74609 26.9716 5.74609 18.7916Z" stroke="#383430" stroke-width="4" mask="url(#path-1-inside-1_8364_113625)"/>
<mask id="path-2-inside-2_8364_113625" fill="white">
<path d="M25.6445 12.8229C25.6445 19.9041 19.9041 25.6445 12.8229 25.6445C5.74174 25.6445 0.00131226 19.9041 0.00131226 12.8229V0.50412C0.00131226 0.226427 0.226427 0.00131226 0.50412 0.00131226H12.8229C19.9041 0.00131226 25.6445 5.74174 25.6445 12.8229Z"/>
</mask>
<path d="M25.6445 12.8229C25.6445 19.9041 19.9041 25.6445 12.8229 25.6445C5.74174 25.6445 0.00131226 19.9041 0.00131226 12.8229V0.50412C0.00131226 0.226427 0.226427 0.00131226 0.50412 0.00131226H12.8229C19.9041 0.00131226 25.6445 5.74174 25.6445 12.8229Z" stroke="#383430" stroke-width="4" mask="url(#path-2-inside-2_8364_113625)"/>
</svg>
