<svg width="38" height="38" viewBox="0 0 38 38" fill="none" xmlns="http://www.w3.org/2000/svg">
<path fill-rule="evenodd" clip-rule="evenodd" d="M1 19H5V33C5 34.0609 5.42143 35.0783 6.17157 35.8284C6.92172 36.5786 7.93913 37 9 37H13V25C13 23.9391 13.4214 22.9217 14.1716 22.1716C14.9217 21.4214 15.9391 21 17 21H21C22.0609 21 23.0783 21.4214 23.8284 22.1716C24.5786 22.9217 25 23.9391 25 25V37H29C30.0609 37 31.0783 36.5786 31.8284 35.8284C32.5786 35.0783 33 34.0609 33 33V19H37L19 1L1 19Z" fill="#5B5B5B"/>
<path d="M5 19H6C6 18.4477 5.55228 18 5 18V19ZM1 19L0.292893 18.2929C0.00689524 18.5789 -0.0786605 19.009 0.0761205 19.3827C0.230901 19.7564 0.595538 20 1 20V19ZM13 37V38C13.5523 38 14 37.5523 14 37H13ZM25 37H24C24 37.5523 24.4477 38 25 38V37ZM33 19V18C32.4477 18 32 18.4477 32 19H33ZM37 19V20C37.4045 20 37.7691 19.7564 37.9239 19.3827C38.0787 19.009 37.9931 18.5789 37.7071 18.2929L37 19ZM19 1L19.7071 0.292893C19.3166 -0.0976311 18.6834 -0.0976311 18.2929 0.292893L19 1ZM13 36C12.4477 36 12 36.4477 12 37C12 37.5523 12.4477 38 13 38V36ZM25 38C25.5523 38 26 37.5523 26 37C26 36.4477 25.5523 36 25 36V38ZM5 18H1V20H5V18ZM6 33V19H4V33H6ZM6.87868 35.1213C6.31607 34.5587 6 33.7957 6 33H4C4 34.3261 4.52678 35.5979 5.46447 36.5355L6.87868 35.1213ZM9 36C8.20435 36 7.44129 35.6839 6.87868 35.1213L5.46447 36.5355C6.40215 37.4732 7.67392 38 9 38V36ZM13 36H9V38H13V36ZM14 37V25H12V37H14ZM14 25C14 24.2044 14.3161 23.4413 14.8787 22.8787L13.4645 21.4645C12.5268 22.4021 12 23.6739 12 25H14ZM14.8787 22.8787C15.4413 22.3161 16.2044 22 17 22V20C15.6739 20 14.4021 20.5268 13.4645 21.4645L14.8787 22.8787ZM17 22H21V20H17V22ZM21 22C21.7956 22 22.5587 22.3161 23.1213 22.8787L24.5355 21.4645C23.5979 20.5268 22.3261 20 21 20V22ZM23.1213 22.8787C23.6839 23.4413 24 24.2044 24 25H26C26 23.6739 25.4732 22.4021 24.5355 21.4645L23.1213 22.8787ZM24 25V37H26V25H24ZM29 36H25V38H29V36ZM31.1213 35.1213C30.5587 35.6839 29.7956 36 29 36V38C30.3261 38 31.5979 37.4732 32.5355 36.5355L31.1213 35.1213ZM32 33C32 33.7957 31.6839 34.5587 31.1213 35.1213L32.5355 36.5355C33.4732 35.5979 34 34.3261 34 33H32ZM32 19V33H34V19H32ZM37 18H33V20H37V18ZM18.2929 1.70711L36.2929 19.7071L37.7071 18.2929L19.7071 0.292893L18.2929 1.70711ZM1.70711 19.7071L19.7071 1.70711L18.2929 0.292893L0.292893 18.2929L1.70711 19.7071ZM13 38H25V36H13V38Z" fill="#5B5B5B"/>
</svg>
