<svg width="35" height="36" viewBox="0 0 35 36" fill="none" xmlns="http://www.w3.org/2000/svg">
<path d="M17.5 0.0117188C27.165 0.0117188 35 7.84674 35 17.5117C35 27.1767 27.165 35.0117 17.5 35.0117C7.83502 35.0117 0 27.1767 0 17.5117C2.57703e-07 7.84674 7.83502 0.011719 17.5 0.0117188ZM17.499 8.17871C14.966 8.17872 14.6476 8.19006 13.6523 8.23535C12.659 8.28086 11.981 8.43821 11.3877 8.66895C10.7738 8.90734 10.2522 9.22614 9.7334 9.74512C9.21446 10.2638 8.89536 10.7849 8.65625 11.3984C8.42498 11.9919 8.26738 12.6702 8.22266 13.6631C8.17813 14.6586 8.16699 14.9771 8.16699 17.5117C8.16699 20.0465 8.17852 20.3639 8.22363 21.3594C8.26933 22.353 8.42661 23.0315 8.65723 23.625C8.8958 24.2387 9.21452 24.7596 9.7334 25.2783C10.2519 25.7973 10.7724 26.1171 11.3857 26.3555C11.9795 26.5862 12.6581 26.7435 13.6514 26.7891C14.6469 26.8344 14.9654 26.8457 17.5 26.8457C20.0349 26.8457 20.3521 26.8344 21.3477 26.7891C22.3412 26.7436 23.0204 26.5863 23.6143 26.3555C24.2279 26.1171 24.7481 25.7974 25.2666 25.2783C25.7857 24.7596 26.1046 24.2386 26.3438 23.625C26.5732 23.0314 26.7307 22.3526 26.7773 21.3594C26.8221 20.364 26.833 20.0463 26.833 17.5117C26.833 14.9771 26.8221 14.6586 26.7773 13.6631C26.7307 12.6699 26.5731 11.9917 26.3438 11.3984C26.1046 10.7847 25.7856 10.2638 25.2666 9.74512C24.7474 9.22595 24.2277 8.90714 23.6133 8.66895C23.0184 8.43818 22.34 8.28088 21.3467 8.23535C20.3512 8.19005 20.0338 8.17871 17.499 8.17871Z" fill="#575047"/>
<path d="M16.6621 9.86133C16.9105 9.86094 17.1877 9.86133 17.499 9.86133C19.991 9.86133 20.2865 9.87032 21.2705 9.91504C22.1805 9.95665 22.6749 10.1086 23.0039 10.2363C23.4393 10.4055 23.7498 10.608 24.0762 10.9346C24.4027 11.2611 24.6049 11.5725 24.7744 12.0078C24.9021 12.3364 25.0543 12.8305 25.0957 13.7402C25.1404 14.7241 25.1504 15.0202 25.1504 17.5107C25.1504 20.0015 25.1404 20.2974 25.0957 21.2812C25.0541 22.1911 24.9022 22.6851 24.7744 23.0137C24.6053 23.4492 24.4028 23.7595 24.0762 24.0859C23.7496 24.4125 23.4395 24.615 23.0039 24.7842C22.6753 24.9125 22.1805 25.0639 21.2705 25.1055C20.2867 25.1502 19.991 25.1602 17.499 25.1602C15.0069 25.1602 14.7114 25.1502 13.7275 25.1055C12.8176 25.0635 12.3233 24.9119 11.9941 24.7842C11.5587 24.615 11.2475 24.4125 10.9209 24.0859C10.5943 23.7593 10.3922 23.4484 10.2227 23.0127C10.0949 22.6841 9.94277 22.1899 9.90137 21.2803C9.85666 20.2966 9.84766 20.0009 9.84766 17.5088C9.84766 15.0164 9.85664 14.7222 9.90137 13.7383C9.94297 12.8287 10.0949 12.3349 10.2227 12.0059C10.3918 11.5705 10.5945 11.2591 10.9209 10.9326C11.2475 10.606 11.5587 10.4029 11.9941 10.2334C12.3231 10.1051 12.8176 9.95392 13.7275 9.91211C14.5885 9.87322 14.9226 9.86132 16.6621 9.85938V9.86133ZM17.2529 12.7256C14.7204 12.8538 12.7061 14.9483 12.7061 17.5127C12.7061 20.1596 14.8521 22.3046 17.499 22.3047C20.146 22.3047 22.291 20.1597 22.291 17.5127C22.2909 14.8658 20.146 12.7198 17.499 12.7197L17.2529 12.7256ZM22.3672 11.417C21.8024 11.4741 21.3613 11.9513 21.3613 12.5312C21.3614 13.1495 21.8631 13.6514 22.4814 13.6514C23.0997 13.6513 23.6015 13.1495 23.6016 12.5312C23.6016 11.9129 23.0997 11.4112 22.4814 11.4111L22.3672 11.417Z" fill="#575047"/>
<path d="M17.5018 14.3984C19.2199 14.3984 20.6129 15.7913 20.6129 17.5096C20.6129 19.2277 19.2199 20.6207 17.5018 20.6207C15.7834 20.6207 14.3906 19.2277 14.3906 17.5096C14.3906 15.7913 15.7834 14.3984 17.5018 14.3984Z" fill="#575047"/>
</svg>
