<svg width="48" height="50" viewBox="0 0 48 50" fill="none" xmlns="http://www.w3.org/2000/svg">
<path d="M0 1.558C0 0.992743 0.472262 0.534556 1.05474 0.534556H16.3484C16.9309 0.534556 17.4031 0.992743 17.4031 1.558V18.226C17.4031 19.176 18.5717 19.6289 19.2119 18.9272L35.9929 0.534118C36.4383 0.144207 37.1192 0.157137 37.5487 0.56354L46.9157 9.43088C47.3725 9.86333 47.373 10.5759 46.9167 11.009L28.0473 32.4495C27.3418 33.1194 27.7908 34.2834 28.7761 34.3393L46.2626 34.4012C46.8636 34.4353 47.3333 34.9183 47.3333 35.5026V48.2772C47.3333 48.8865 46.824 49.3804 46.1962 49.3804H16.574C16.5014 49.3958 16.4257 49.4038 16.3484 49.4038H14.0759C12.7803 49.4038 11.73 48.3535 11.73 47.0578V39.5454C11.73 38.2497 10.6796 37.1994 9.38396 37.1994H2.34599C1.05034 37.1994 0 36.149 0 34.8534V1.558Z" fill="#B6BDAD"/>
</svg>
