<svg width="38" height="48" viewBox="0 0 38 48" fill="none" xmlns="http://www.w3.org/2000/svg">
<path d="M1.04895 0C0.469631 0 0 0.450058 0 1.00523V34.6983C0 36.347 1.34072 37.6814 2.98945 37.6736L6.31294 37.6578C7.96167 37.65 9.30239 38.9844 9.30239 40.6332V45.0246C9.30239 46.6679 10.6345 48 12.2777 48L36.4511 48C37.0304 48 37.5 47.5499 37.5 46.9948V32.0471C37.5 31.3631 36.8026 30.8788 36.1243 31.0919H20.283C18.6398 31.0919 17.3077 29.7598 17.3077 28.1165V1.00524C17.3077 0.450059 16.8381 0 16.2587 0H1.04895Z" fill="#978163"/>
</svg>
