<svg width="35" height="36" viewBox="0 0 35 36" fill="none" xmlns="http://www.w3.org/2000/svg">
<path d="M17.5 0.0117188C27.165 0.0117188 35 7.84674 35 17.5117C35 27.1767 27.165 35.0117 17.5 35.0117C7.83502 35.0117 0 27.1767 0 17.5117C2.57703e-07 7.84674 7.83502 0.011719 17.5 0.0117188ZM22.1025 14.2266C19.9972 14.2266 19.0547 15.383 18.5283 16.1943V14.5068H14.5615C14.6138 15.6258 14.5615 26.4229 14.5615 26.4229H18.5283V19.7676C18.5283 19.4117 18.5535 19.0567 18.6582 18.8018C18.9448 18.0903 19.5977 17.3535 20.6934 17.3535C22.1289 17.3535 22.703 18.4458 22.7031 20.0469V26.4219H26.6689V19.5898C26.6689 15.9299 24.7122 14.2266 22.1025 14.2266ZM8.40137 26.4219H12.3672V14.5059H8.40137V26.4219ZM10.4111 8.76172C9.05443 8.76172 8.16699 9.65197 8.16699 10.8203C8.16718 11.9643 9.02808 12.8799 10.3594 12.8799H10.3848C11.7673 12.8798 12.6287 11.9642 12.6289 10.8203C12.6032 9.65211 11.7676 8.76192 10.4111 8.76172Z" fill="#575047"/>
</svg>
