<svg width="35" height="36" viewBox="0 0 35 36" fill="none" xmlns="http://www.w3.org/2000/svg">
<path d="M17.5 0.0117188C27.165 0.0117188 35 7.84674 35 17.5117C35 27.1767 27.165 35.0117 17.5 35.0117C7.83502 35.0117 0 27.1767 0 17.5117C2.57703e-07 7.84674 7.83502 0.011719 17.5 0.0117188Z" fill="#575047"/>
<path d="M18.8452 17.9553C18.8452 21.2487 16.1936 23.9187 12.9225 23.9187C9.65145 23.9187 7 21.2495 7 17.9553C7 14.6611 9.65165 11.9922 12.9225 11.9922C16.1934 11.9922 18.8452 14.6619 18.8452 17.9553ZM25.3425 17.9553C25.3425 21.0557 24.0166 23.5687 22.3812 23.5687C20.7457 23.5687 19.4198 21.0548 19.4198 17.9553C19.4198 14.8558 20.7457 12.3419 22.3812 12.3419C24.0166 12.3419 25.3425 14.8558 25.3425 17.9553ZM28 17.9553C28 20.7331 27.5336 22.9847 26.9584 22.9847C26.3833 22.9847 25.9169 20.7323 25.9169 17.9553C25.9169 15.1784 26.3833 12.9259 26.9586 12.9259C27.534 12.9259 28 15.1778 28 17.9553Z" fill="#1C1C1C" fill-opacity="0.74"/>
</svg>
