<svg width="386" height="252" viewBox="0 0 386 252" fill="none" xmlns="http://www.w3.org/2000/svg">
<path opacity="0.31" d="M93.8916 281.867C93.9085 281.887 93.9245 281.908 93.941 281.928C97.045 285.637 101.762 287.728 108.033 288.148L383.449 306.575L383.752 306.596L383.975 306.573C384.311 306.485 384.65 306.146 384.797 305.955C384.852 305.883 384.882 305.818 384.918 305.752L385.017 305.726L384.995 305.583C385.021 305.503 385.042 305.424 385.039 305.344L385.038 305.31L373.966 29.2823C373.95 28.8862 373.925 28.4973 373.896 28.1132C373.888 28.0153 373.879 27.9182 373.871 27.821C373.825 27.2915 373.764 26.7759 373.692 26.2694C373.682 26.1985 373.678 26.1232 373.667 26.0531C373.66 26.0052 373.648 25.9621 373.641 25.9146C373.549 25.3197 373.438 24.7409 373.31 24.1785C373.291 24.0953 373.27 24.0139 373.25 23.9311C372.963 22.7384 372.594 21.6187 372.141 20.5759C372.124 20.5368 372.108 20.4959 372.091 20.4565C371.866 19.9499 371.62 19.4634 371.356 18.9926C371.322 18.9318 371.287 18.871 371.253 18.8109C370.986 18.3482 370.702 17.902 370.396 17.4755C370.366 17.4336 370.334 17.3932 370.303 17.3513C369.986 16.9188 369.653 16.5017 369.296 16.1072C369.292 16.1023 369.288 16.0969 369.284 16.0921C368.935 15.7073 368.561 15.345 368.174 14.9967C368.113 14.9415 368.053 14.8854 367.99 14.8313C367.682 14.5633 367.367 14.3027 367.036 14.0573C366.973 14.011 366.904 13.9712 366.84 13.9256C366.796 13.8935 366.757 13.8559 366.713 13.8246L234.624 -79C232.333 -80.7513 229.386 -81.8076 225.809 -82.1747C225.765 -82.1797 225.72 -82.1836 225.676 -82.1883C225.253 -82.2296 224.822 -82.2632 224.38 -82.2855C224.256 -82.2915 224.129 -82.2947 224.003 -82.3C223.621 -82.3137 223.238 -82.3258 222.844 -82.3256C222.612 -82.3263 222.372 -82.3185 222.137 -82.3137C221.826 -82.3076 221.52 -82.3048 221.202 -82.2907C220.673 -82.2666 220.132 -82.2296 219.582 -82.1821C219.541 -82.1785 219.502 -82.1772 219.46 -82.1737C218.828 -82.1172 218.18 -82.0436 217.521 -81.956C217.444 -81.9459 217.364 -81.9318 217.287 -81.9213C216.722 -81.8437 216.149 -81.756 215.565 -81.656C215.517 -81.6477 215.471 -81.6422 215.423 -81.634L37.614 -50.7552L37.603 -50.7532L37.5458 -50.7414L37.3045 -50.6479L37.119 -50.3704L37.1117 -50.3591L37.0789 -50.1934L37.0222 -49.9709L37.0332 -49.9611L36.8662 -49.1162L1.48205 126.566C-0.176955 134.799 0.4444 141.142 3.30872 145.495C3.32586 145.521 3.33877 145.55 3.35591 145.576L92.879 280.512C92.9082 280.557 92.9446 280.595 92.9745 280.639C93.2627 281.066 93.5679 281.476 93.8916 281.867ZM371.749 25.5111C371.839 25.9778 371.924 26.4496 371.99 26.9386C372.02 27.1623 372.043 27.392 372.068 27.6197C372.126 28.1568 372.173 28.7033 372.202 29.2659C372.212 29.4434 372.222 29.621 372.229 29.8008C372.247 30.3262 372.257 30.8586 372.251 31.403C372.251 31.4589 372.25 31.5144 372.25 31.5707C372.225 33.2202 372.078 34.964 371.834 36.7803L371.189 23.2409C371.352 23.7656 371.501 24.3036 371.626 24.8637C371.673 25.0743 371.707 25.2961 371.749 25.5111ZM3.5069 141.963C3.3491 141.538 3.21018 141.099 3.08489 140.647C3.06169 140.563 3.036 140.481 3.01392 140.397C2.88747 139.915 2.77875 139.418 2.68779 138.906C2.65599 138.723 2.63415 138.531 2.60684 138.344C2.56322 138.053 2.52414 137.757 2.49098 137.457C2.45598 137.12 2.42593 136.779 2.40438 136.43C2.39802 136.33 2.39391 136.228 2.38866 136.128C2.25114 133.407 2.51778 130.327 3.19665 126.891C4.08782 122.384 5.68164 117.37 7.92371 111.932L8.70847 113.05L3.57621 142.145C3.56971 142.129 3.56177 142.114 3.556 142.099C3.53907 142.054 3.5231 142.008 3.5069 141.963ZM217.475 -80.1791C217.574 -80.1923 217.674 -80.2061 217.773 -80.2189C218.323 -80.2898 218.863 -80.349 219.392 -80.3975C219.452 -80.4027 219.512 -80.4095 219.571 -80.4143C220.767 -80.5181 221.912 -80.5667 223.002 -80.5562C223.022 -80.5559 223.042 -80.5541 223.064 -80.5538C223.543 -80.5485 224.01 -80.5297 224.468 -80.502C224.726 -80.4858 224.975 -80.4611 225.226 -80.4379C225.435 -80.4194 225.645 -80.4013 225.85 -80.3779C226.161 -80.341 226.466 -80.2967 226.766 -80.2488C226.892 -80.229 227.017 -80.2098 227.14 -80.1879C227.481 -80.1273 227.814 -80.0603 228.141 -79.9851C228.205 -79.9706 228.268 -79.955 228.331 -79.9402C230.285 -79.4676 231.99 -78.7267 233.434 -77.7121C234.524 -76.9456 235.457 -76.0209 236.237 -74.9454C236.306 -74.8497 236.367 -74.7465 236.434 -74.6487C236.434 -74.6501 236.435 -74.6475 236.434 -74.6487L220.951 -72.7522L212.106 -79.1696C212.336 -79.2233 212.574 -79.2873 212.802 -79.3378C212.886 -79.3564 212.973 -79.3779 213.056 -79.3961C213.898 -79.5795 214.719 -79.7387 215.519 -79.8764C215.659 -79.9009 215.799 -79.9241 215.938 -79.9475C216.458 -80.0335 216.971 -80.1114 217.475 -80.1791ZM368.606 18.1221C368.668 18.2033 368.722 18.2919 368.782 18.3745L361.012 12.8965C361.131 12.9362 361.25 12.9753 361.368 13.0164C361.572 13.0879 361.779 13.1579 361.978 13.2356C362.109 13.2873 362.236 13.3459 362.365 13.3998L367.943 17.3318C368.019 17.4187 368.102 17.4994 368.176 17.5874C368.323 17.7626 368.467 17.94 368.606 18.1221ZM368.054 304.408L136.272 282.56C136.529 282.465 136.79 282.362 137.048 282.264C137.956 281.919 138.872 281.56 139.797 281.188C140.073 281.076 140.348 280.968 140.626 280.854C141.768 280.386 142.921 279.898 144.086 279.39C144.346 279.276 144.61 279.156 144.871 279.041C145.827 278.618 146.791 278.181 147.763 277.731C148.099 277.576 148.433 277.422 148.771 277.263C149.966 276.702 151.17 276.126 152.386 275.526C152.55 275.445 152.717 275.359 152.881 275.277C153.961 274.741 155.05 274.187 156.146 273.621C156.517 273.43 156.889 273.237 157.262 273.042C158.353 272.471 159.451 271.887 160.557 271.288C160.738 271.19 160.915 271.097 161.096 270.998C162.349 270.315 163.614 269.61 164.884 268.891C165.267 268.674 165.653 268.453 166.038 268.233C167.053 267.653 168.074 267.062 169.1 266.46C169.422 266.271 169.742 266.086 170.065 265.895C171.346 265.137 172.636 264.362 173.932 263.571C174.298 263.347 174.667 263.119 175.033 262.893C176.053 262.265 177.077 261.628 178.104 260.981C178.498 260.734 178.889 260.489 179.284 260.238C179.988 259.791 180.696 259.337 181.404 258.88L380.315 305.257L368.054 304.408ZM366.933 16.2842L363.809 14.0826C363.839 14.0982 363.869 14.1134 363.898 14.129C364.093 14.234 364.29 14.3382 364.478 14.4506C364.672 14.5652 364.857 14.6886 365.043 14.8103C365.231 14.9338 365.42 15.0549 365.601 15.1854C365.765 15.3045 365.917 15.4361 366.076 15.5607C366.371 15.7929 366.659 16.0322 366.933 16.2842ZM369.601 19.5964C369.796 19.9278 369.972 20.2777 370.145 20.6292L371.151 40.7821C370.05 46.1293 368.133 52.0742 365.439 58.5321L343.298 41.7854L338.847 13.6259C338.957 13.5984 339.067 13.5713 339.176 13.5442C339.576 13.4463 339.978 13.3458 340.371 13.2556C340.739 13.171 341.099 13.0962 341.461 13.0185C341.842 12.9371 342.225 12.8531 342.599 12.7793C342.964 12.7065 343.322 12.6435 343.681 12.5784C344.038 12.5137 344.396 12.4468 344.746 12.3894C345.112 12.3288 345.468 12.2785 345.827 12.2264C346.158 12.178 346.492 12.1267 346.817 12.0853C347.179 12.0388 347.531 12.0024 347.886 11.964C348.196 11.9309 348.509 11.8943 348.813 11.8671C349.169 11.8353 349.517 11.8138 349.867 11.7901C350.155 11.7711 350.446 11.7488 350.729 11.7353C351.08 11.7187 351.422 11.7127 351.764 11.7048C352.034 11.699 352.305 11.6903 352.569 11.6899C352.911 11.6894 353.244 11.699 353.577 11.7076C353.83 11.7145 354.085 11.7184 354.332 11.7308C354.662 11.7468 354.982 11.7726 355.303 11.7985C355.542 11.8175 355.784 11.8331 356.019 11.8576C356.334 11.8905 356.64 11.933 356.945 11.975C357.173 12.006 357.403 12.0348 357.626 12.0713C357.925 12.1203 358.215 12.179 358.504 12.2375C358.722 12.2818 358.942 12.3227 359.156 12.3717C359.436 12.4367 359.707 12.5114 359.978 12.5852C360.042 12.6023 360.106 12.6207 360.169 12.6382L369.242 19.0343C369.363 19.2203 369.487 19.4034 369.601 19.5964ZM383.216 302.571L315.359 137.94C316.622 136.42 317.874 134.897 319.114 133.373C319.287 133.16 319.461 132.948 319.634 132.735C321.481 130.457 323.301 128.175 325.093 125.889L341.002 174.248L383.216 302.571ZM186.771 -69.4498C187.073 -69.6012 187.377 -69.7567 187.677 -69.9051C188.183 -70.155 188.683 -70.3954 189.184 -70.6373C189.484 -70.7824 189.787 -70.9319 190.086 -71.074C190.578 -71.3082 191.065 -71.5319 191.552 -71.7583C191.856 -71.8989 192.162 -72.0441 192.464 -72.1821C192.934 -72.3973 193.4 -72.6026 193.867 -72.8097C194.18 -72.9487 194.496 -73.092 194.807 -73.2277C195.262 -73.4261 195.712 -73.6147 196.163 -73.8057C196.478 -73.9391 196.796 -74.0769 197.108 -74.2067C197.556 -74.3925 197.997 -74.5681 198.44 -74.7458C198.75 -74.8704 199.062 -74.9995 199.37 -75.1201C199.807 -75.292 200.239 -75.4532 200.671 -75.6174C200.979 -75.7342 201.289 -75.855 201.594 -75.9678C202.015 -76.1233 202.429 -76.2686 202.844 -76.4163C203.156 -76.5272 203.469 -76.6423 203.779 -76.7487C204.188 -76.8899 204.591 -77.0212 204.995 -77.155C205.302 -77.2563 205.611 -77.3623 205.916 -77.4591C206.314 -77.5867 206.707 -77.7041 207.1 -77.824C207.405 -77.9168 207.711 -78.0132 208.013 -78.1017C208.397 -78.2142 208.775 -78.3161 209.155 -78.4213C209.422 -78.4954 209.691 -78.5727 209.956 -78.643L218.49 -72.4512L184.507 -68.2969C184.748 -68.4217 184.991 -68.5505 185.232 -68.6738C185.748 -68.9384 186.259 -69.1937 186.771 -69.4498ZM329.469 117.752C328.768 118.682 328.065 119.614 327.347 120.55C326.471 121.694 325.582 122.843 324.682 123.997L301.085 103.31L276.826 44.4551C276.989 44.3464 277.153 44.2344 277.316 44.1261C277.722 43.8553 278.126 43.591 278.531 43.3228C279.196 42.8834 279.861 42.4432 280.524 42.0116C280.933 41.7441 281.341 41.4828 281.75 41.2183C282.401 40.7962 283.054 40.3735 283.703 39.9587C284.121 39.6925 284.536 39.4318 284.952 39.1678C285.588 38.7662 286.223 38.3631 286.855 37.9685C287.278 37.7046 287.697 37.4471 288.119 37.1869C288.743 36.8007 289.367 36.4138 289.988 36.0357C290.408 35.7795 290.825 35.5304 291.243 35.2779C291.858 34.9061 292.475 34.5331 293.087 34.1693C293.511 33.9173 293.932 33.6722 294.354 33.4238C294.956 33.0692 295.559 32.7137 296.158 32.3668C296.582 32.1214 297.002 31.8829 297.424 31.6416C298.015 31.3027 298.607 30.9624 299.195 30.6316C299.624 30.3896 300.05 30.1549 300.477 29.9173C301.051 29.5979 301.626 29.2767 302.197 28.9647C302.629 28.7279 303.058 28.4984 303.488 28.2664C304.05 27.9631 304.611 27.6587 305.169 27.3632C305.597 27.136 306.022 26.9166 306.448 26.6935C307.001 26.4041 307.555 26.1138 308.104 25.8322C308.531 25.6128 308.954 25.4014 309.379 25.1867C309.92 24.9135 310.463 24.6381 311 24.3727C311.427 24.1618 311.848 23.9579 312.272 23.7522C312.801 23.4948 313.331 23.236 313.855 22.9859C314.28 22.7835 314.7 22.5892 315.122 22.3919C315.373 22.2751 315.622 22.1593 315.872 22.044L341.631 41.528L349.249 89.1361C343.773 97.9278 337.386 107.211 330.145 116.86C329.922 117.157 329.693 117.455 329.469 117.752ZM165.283 54.3625C165.462 54.1773 165.64 53.992 165.818 53.8064C167.672 51.8764 169.512 49.9343 171.336 47.9802C171.471 47.8348 171.607 47.6908 171.742 47.5458C175.613 43.3897 179.408 39.1839 183.111 34.9431C183.256 34.7771 183.4 34.6109 183.545 34.4445C185.263 32.4717 186.96 30.4912 188.637 28.5049C188.821 28.2872 189.003 28.0697 189.187 27.852C190.855 25.8685 192.5 23.8792 194.121 21.8855C194.264 21.7102 194.408 21.535 194.55 21.3597C196.252 19.2596 197.93 17.1559 199.577 15.0488L251.913 60.9323C251.595 61.1742 251.277 61.4203 250.959 61.6641C249.698 62.6304 248.437 63.6048 247.173 64.5915C246.993 64.7322 246.813 64.8699 246.633 65.0109C245.219 66.1164 243.804 67.2384 242.387 68.3676C241.976 68.6961 241.565 69.026 241.154 69.3556C239.986 70.2924 238.817 71.2374 237.647 72.19C237.341 72.4388 237.036 72.6845 236.73 72.9343C235.316 74.091 233.901 75.2599 232.486 76.4384C232.103 76.7562 231.722 77.0772 231.34 77.3968C230.195 78.3546 229.05 79.3203 227.905 80.2918C227.541 80.6002 227.178 80.9066 226.815 81.2165C225.393 82.4289 223.971 83.6515 222.55 84.8843C222.237 85.1559 221.924 85.4312 221.611 85.7042C220.434 86.7291 219.259 87.7606 218.084 88.7987C217.698 89.1402 217.311 89.4809 216.925 89.8238C215.495 91.0935 214.066 92.3708 212.639 93.6599C212.445 93.8349 212.252 94.0127 212.058 94.1884C210.793 95.3336 209.53 96.4871 208.269 97.6468C207.879 98.0048 207.49 98.3631 207.101 98.7223C206.228 99.5291 205.356 100.34 204.485 101.153L161.501 58.254C162.769 56.964 164.028 55.6652 165.283 54.3625ZM198.641 14.1874L176.609 5.35468L198.669 14.1518C198.66 14.1635 198.65 14.1753 198.641 14.1874ZM114.798 -19.1276L196.978 13.8159L198.463 14.4108C196.905 16.4002 195.325 18.387 193.717 20.3697C193.571 20.5501 193.423 20.7297 193.277 20.9101C191.66 22.8979 190.019 24.8811 188.356 26.8591C188.158 27.0944 187.959 27.3303 187.761 27.5656C186.105 29.5278 184.428 31.4842 182.731 33.4329C182.557 33.6333 182.383 33.8343 182.208 34.0344C180.399 36.1061 178.569 38.1696 176.718 40.223C176.636 40.3127 176.555 40.4026 176.474 40.4927C174.65 42.5127 172.805 44.5224 170.945 46.5212C170.724 46.7585 170.502 46.9944 170.281 47.2313C168.549 49.0858 166.801 50.9303 165.042 52.7633C164.775 53.0414 164.506 53.3204 164.239 53.5981C163.028 54.8532 161.805 56.0948 160.584 57.3383L98.5696 -4.55457C103.94 -9.56807 109.363 -14.4376 114.798 -19.1276ZM145.037 74.3536C145.173 74.2257 145.309 74.0965 145.445 73.9682C146.543 72.9354 147.637 71.8958 148.729 70.8514C149.002 70.5912 149.274 70.3312 149.546 70.0698C152.813 66.9339 156.054 63.7488 159.26 60.521C159.395 60.3845 159.53 60.2479 159.665 60.1115C160.202 59.5701 160.739 59.0289 161.273 58.4857L204.247 101.375C203.809 101.785 203.369 102.193 202.931 102.604C202.884 102.649 202.836 102.692 202.789 102.737C201.356 104.084 199.928 105.442 198.502 106.806C198.133 107.159 197.764 107.513 197.395 107.867C196.153 109.06 194.914 110.259 193.678 111.465C193.524 111.615 193.368 111.763 193.214 111.914C193.18 111.947 193.146 111.982 193.112 112.015C190.697 114.376 188.296 116.758 185.911 119.16C185.826 119.246 185.74 119.332 185.656 119.418L143.908 75.4096C144.284 75.0577 144.661 74.7066 145.037 74.3536ZM253.216 61.344C253.59 61.0599 253.965 60.7722 254.338 60.4895C254.71 60.2082 255.082 59.9317 255.454 59.6516C256.192 59.0972 256.928 58.542 257.665 57.995C258.043 57.7135 258.421 57.4364 258.8 57.1563C259.529 56.6166 260.259 56.0768 260.987 55.5445C261.368 55.2656 261.748 54.992 262.128 54.7157C262.847 54.1933 263.566 53.6705 264.283 53.155C264.676 52.8722 265.068 52.5946 265.462 52.3144C266.165 51.8118 266.869 51.3084 267.57 50.8139C267.967 50.5337 268.362 50.2593 268.758 49.982C269.453 49.4945 270.147 49.0071 270.839 48.528C271.241 48.2487 271.642 47.976 272.044 47.6993C272.724 47.2312 273.405 46.7623 274.083 46.3016C274.495 46.0216 274.905 45.7474 275.316 45.47C275.64 45.2519 275.964 45.0345 276.287 44.8179L300.142 102.483L253.216 61.344ZM317.929 21.1068C318.435 20.8806 318.942 20.6527 319.443 20.4339C319.866 20.2488 320.284 20.0722 320.704 19.8935C321.193 19.6841 321.684 19.4732 322.17 19.2716C322.593 19.0958 323.011 18.9284 323.43 18.7582C323.905 18.566 324.38 18.3719 324.85 18.1871C325.27 18.0213 325.685 17.8644 326.102 17.7048C326.565 17.5277 327.029 17.3485 327.488 17.1788C327.903 17.0251 328.312 16.8802 328.723 16.7327C329.174 16.5707 329.626 16.4068 330.073 16.2525C330.486 16.1095 330.892 15.9755 331.301 15.8388C331.738 15.6929 332.176 15.5454 332.609 15.4064C333.015 15.276 333.415 15.1544 333.818 15.0306C334.245 14.899 334.673 14.7659 335.095 14.642C335.494 14.5248 335.888 14.4157 336.283 14.3051C336.6 14.2162 336.918 14.127 337.233 14.0425L341.448 40.3861L316.693 21.662C317.107 21.4728 317.517 21.2913 317.929 21.1068ZM274.763 44.476C273.678 45.2097 272.589 45.9522 271.497 46.7044C271.121 46.9634 270.746 47.2196 270.369 47.4808C269.006 48.4266 267.638 49.385 266.265 50.3588C265.962 50.5738 265.657 50.794 265.353 51.011C264.222 51.8171 263.088 52.6328 261.952 53.4581C261.54 53.7566 261.128 54.0556 260.715 54.357C259.325 55.3728 257.933 56.3976 256.536 57.4403C256.356 57.5747 256.176 57.7121 255.997 57.8465C254.786 58.752 253.574 59.6681 252.36 60.5932L199.914 14.6146C200.802 13.4754 201.677 12.3421 202.537 11.2144C202.67 11.0413 202.798 10.8695 202.929 10.6964C207.331 4.91352 211.369 -0.709456 215.035 -6.14235L275.605 43.9047C275.325 44.0923 275.043 44.2869 274.763 44.476ZM300.609 102.893L276.52 44.6612C276.544 44.6448 276.569 44.6282 276.593 44.6122L300.619 102.901L300.609 102.893ZM316.41 21.7933L341.511 40.7786L341.568 41.1353L316.154 21.9124C316.239 21.8731 316.325 21.8322 316.41 21.7933ZM275.844 43.7461L215.189 -6.37043L215.246 -6.45516L275.934 43.6851L275.844 43.7461ZM301.092 104.048L302.45 107.342L301.084 104.041L301.092 104.048ZM314.704 21.249C313.704 21.7197 312.696 22.2044 311.68 22.7024C311.375 22.8522 311.07 23.0002 310.764 23.1526C309.534 23.7623 308.296 24.3885 307.046 25.0371C306.844 25.1427 306.638 25.2528 306.435 25.3588C305.353 25.9248 304.263 26.5053 303.167 27.0989C302.825 27.2835 302.484 27.4682 302.141 27.6557C300.861 28.3562 299.574 29.0689 298.275 29.8062C298.211 29.8425 298.146 29.8804 298.082 29.9166C296.84 30.6235 295.586 31.3515 294.328 32.0916C293.961 32.3066 293.595 32.523 293.228 32.741C292.073 33.426 290.913 34.1225 289.746 34.8341C289.56 34.9473 289.376 35.0573 289.19 35.1709C287.869 35.9802 286.539 36.8098 285.203 37.6519C284.83 37.8875 284.456 38.1267 284.081 38.3646C282.992 39.0564 281.9 39.7594 280.802 40.4729C280.492 40.6742 280.184 40.8717 279.873 41.0749C278.644 41.8794 277.41 42.6947 276.17 43.5254L215.4 -6.68369C223.565 -18.8401 229.836 -30.0244 234.031 -39.8616L314.776 21.2145C314.752 21.2261 314.728 21.2375 314.704 21.249ZM214.425 -7.48898L171.009 -43.3598L232.897 -40.2479C228.69 -30.533 222.469 -19.4729 214.425 -7.48898ZM214.271 -7.26125L214.213 -7.17652L170.383 -43.3914L170.551 -43.383L214.271 -7.26125ZM214.059 -6.94878C211.176 -2.67274 208.072 1.71383 204.734 6.20376C204.678 6.27935 204.623 6.35413 204.567 6.43009C203.777 7.49165 202.969 8.56085 202.154 9.63284C201.999 9.83681 201.847 10.0391 201.691 10.2442C200.762 11.461 199.819 12.684 198.859 13.9134C198.855 13.9178 198.851 13.9225 198.848 13.927L115.163 -19.4418C121.496 -24.8976 127.842 -30.1133 134.138 -35.031C134.151 -35.0408 134.164 -35.0515 134.176 -35.0617C136.047 -36.5218 137.911 -37.9554 139.77 -39.362C139.786 -39.3736 139.801 -39.3859 139.817 -39.3976C140.681 -40.0511 141.543 -40.6968 142.403 -41.3382C142.481 -41.3961 142.559 -41.4556 142.637 -41.5135C143.471 -42.1337 144.303 -42.7467 145.133 -43.3555C145.235 -43.4298 145.337 -43.5057 145.437 -43.5793C145.897 -43.9154 146.354 -44.2441 146.812 -44.5768L169.925 -43.4146L214.059 -6.94878ZM147.167 -44.8338C147.177 -44.8411 147.187 -44.8487 147.197 -44.8556L169.462 -43.7968L169.57 -43.7072L147.167 -44.8338ZM147.553 -45.1142C147.662 -45.1925 147.771 -45.2725 147.88 -45.3507C147.994 -45.4334 148.11 -45.5178 148.224 -45.6C149.002 -46.1591 149.778 -46.7104 150.552 -47.2588C150.702 -47.3654 150.853 -47.4744 151.004 -47.5803C151.762 -48.1163 152.518 -48.6437 153.274 -49.169C153.436 -49.2818 153.599 -49.3969 153.761 -49.5089C154.515 -50.032 155.266 -50.546 156.018 -51.058C156.178 -51.1675 156.339 -51.28 156.499 -51.3888C157.195 -51.8615 157.887 -52.3256 158.579 -52.7887L169.109 -44.089L147.553 -45.1142ZM113.121 -19.7996C113.118 -19.7974 113.116 -19.7953 113.114 -19.7931C112.763 -19.4894 112.413 -19.1878 112.062 -18.8829C110.928 -17.8954 109.794 -16.9007 108.662 -15.8987C108.315 -15.5926 107.97 -15.2847 107.625 -14.9775C106.693 -14.1482 105.761 -13.3145 104.83 -12.4755C104.52 -12.1971 104.211 -11.9199 103.902 -11.6405C102.763 -10.6093 101.625 -9.57069 100.49 -8.52609C100.143 -8.20676 99.7966 -7.88559 99.4496 -7.56478C98.758 -6.92571 98.0675 -6.28405 97.3774 -5.63977L38.5622 -49.6876L113.121 -19.7996ZM98.3316 -4.33298L160.357 57.5703C159.876 58.0599 159.401 58.5554 158.918 59.0426C158.685 59.2775 158.454 59.5135 158.22 59.7483C156.3 61.6815 154.367 63.6001 152.423 65.5011C152.137 65.7809 151.85 66.0584 151.563 66.3374C150.668 67.2083 149.772 68.0763 148.873 68.9406C148.419 69.3771 147.964 69.8125 147.508 70.2475C146.686 71.0334 145.861 71.8157 145.035 72.5949C144.671 72.9378 144.309 73.2834 143.945 73.6251C143.65 73.9022 143.354 74.1741 143.059 74.45L86.3104 7.2296C90.2753 3.30246 94.2886 -0.554617 98.3316 -4.33298ZM95.669 115.483C95.8406 115.359 96.0113 115.237 96.1826 115.112C97.3792 114.239 98.5799 113.352 99.783 112.456C100.069 112.242 100.356 112.026 100.643 111.811C101.643 111.062 102.646 110.305 103.649 109.54C103.904 109.346 104.159 109.153 104.414 108.958C105.626 108.03 106.841 107.09 108.058 106.14C108.281 105.966 108.503 105.79 108.725 105.616C109.758 104.806 110.792 103.989 111.826 103.164C112.118 102.931 112.41 102.699 112.702 102.465C113.934 101.479 115.166 100.485 116.399 99.4778C116.484 99.4078 116.57 99.337 116.655 99.2673C117.809 98.3241 118.963 97.3696 120.118 96.4089C120.41 96.1659 120.701 95.9227 120.993 95.679C122.189 94.6792 123.385 93.6731 124.581 92.6549C124.62 92.6224 124.659 92.5896 124.699 92.556C125.948 91.4925 127.196 90.417 128.445 89.3342C128.717 89.0983 128.988 88.8615 129.261 88.6242C130.343 87.6819 131.424 86.7333 132.505 85.7777C132.684 85.6192 132.863 85.4625 133.042 85.3036C134.284 84.2018 135.525 83.0912 136.765 81.972C136.99 81.7681 137.216 81.5625 137.441 81.3583C138.498 80.4012 139.553 79.4383 140.607 78.469C140.85 78.2454 141.093 78.0224 141.337 77.7984C142.117 77.0783 142.896 76.3539 143.674 75.6274L185.431 119.647C183.195 121.903 180.974 124.176 178.77 126.465C178.577 126.665 178.385 126.865 178.193 127.065C175.982 129.367 173.788 131.683 171.614 134.013C171.444 134.194 171.274 134.376 171.105 134.557C168.821 137.01 166.557 139.476 164.32 141.955C164.297 141.981 164.274 142.006 164.251 142.031C161.985 144.543 159.746 147.068 157.533 149.602C157.402 149.752 157.273 149.902 157.143 150.052C155.063 152.439 153.008 154.836 150.98 157.24C150.775 157.483 150.572 157.725 150.368 157.968C148.374 160.339 146.407 162.716 144.469 165.099C144.303 165.304 144.135 165.509 143.968 165.714C142.02 168.117 140.101 170.524 138.213 172.935L92.8908 117.485C93.8148 116.825 94.7408 116.158 95.669 115.483ZM186.419 120.224C186.74 119.9 187.06 119.573 187.381 119.25C187.665 118.966 187.95 118.684 188.233 118.4C189.037 117.596 189.84 116.792 190.647 115.992C190.927 115.714 191.21 115.439 191.49 115.162C192.301 114.361 193.113 113.559 193.928 112.763C194.223 112.475 194.519 112.189 194.814 111.901C195.616 111.12 196.418 110.339 197.223 109.563C197.529 109.267 197.837 108.975 198.144 108.68C198.941 107.914 199.739 107.147 200.54 106.386C200.842 106.098 201.146 105.813 201.449 105.526C202.254 104.762 203.06 103.999 203.868 103.24C204.174 102.952 204.482 102.667 204.79 102.379C204.861 102.313 204.932 102.247 205.002 102.181L274.127 180.78C268.923 185.967 263.649 191.057 258.329 196.029L186.419 120.224ZM205.24 101.96C205.895 101.348 206.549 100.735 207.205 100.128C207.516 99.8396 207.828 99.5545 208.139 99.2681C208.946 98.5238 209.752 97.7799 210.56 97.0415C210.859 96.7686 211.158 96.4987 211.457 96.2269C212.278 95.4791 213.099 94.7316 213.922 93.9901C214.22 93.7213 214.519 93.4555 214.818 93.1874C215.64 92.4496 216.461 91.7121 217.283 90.9806C217.604 90.6958 217.925 90.4146 218.245 90.1309C219.046 89.4213 219.847 88.7122 220.649 88.0086C220.988 87.7111 221.329 87.4169 221.668 87.1204C222.454 86.434 223.24 85.7476 224.026 85.0675C224.365 84.7739 224.705 84.4846 225.044 84.1926C225.831 83.5143 226.619 82.8357 227.406 82.1645C227.744 81.8765 228.081 81.5933 228.418 81.3068C229.207 80.636 229.997 79.9659 230.786 79.3022C231.133 79.0099 231.481 78.7218 231.828 78.4309C232.605 77.7804 233.382 77.1297 234.159 76.4858C234.519 76.1878 234.878 75.8942 235.237 75.598C236.004 74.9651 236.772 74.3316 237.539 73.7053C237.896 73.4135 238.252 73.1263 238.609 72.836C239.378 72.2113 240.146 71.5867 240.913 70.9686C241.273 70.6794 241.632 70.3944 241.992 70.1067C242.754 69.496 243.516 68.8855 244.277 68.2818C244.644 67.9912 245.009 67.7057 245.375 67.4174C246.131 66.8206 246.888 66.2235 247.644 65.6338C248.005 65.3517 248.365 65.075 248.726 64.7944C249.482 64.2065 250.239 63.6188 250.995 63.0379C251.361 62.7566 251.726 62.4809 252.091 62.2014C252.317 62.028 252.544 61.8563 252.77 61.684L300.617 103.632L314.351 136.832C301.924 151.809 288.402 166.537 274.343 180.564L205.24 101.96ZM314.719 136.388L301.558 104.456L324.344 124.434C321.222 128.43 318.007 132.417 314.719 136.388ZM315.055 21.0805L234.142 -40.123C234.175 -40.2015 234.208 -40.2796 234.241 -40.3573L315.309 20.9601C315.224 20.999 315.139 21.0408 315.055 21.0805ZM233.017 -40.517L170.655 -43.6527L170.542 -43.746L233.122 -40.77C233.085 -40.6845 233.053 -40.6028 233.017 -40.517ZM170.197 -43.6759L170.028 -43.684L169.917 -43.7754L170.086 -43.7674L170.197 -43.6759ZM169.564 -44.0673L158.816 -52.9479C158.845 -52.9672 158.874 -52.9873 158.904 -53.007L169.732 -44.0593L169.564 -44.0673ZM138.909 173.881L153.3 181.637L138.899 173.895C138.902 173.891 138.906 173.886 138.909 173.881ZM139.081 173.662C139.946 172.557 140.816 171.451 141.693 170.347C141.845 170.156 142 169.966 142.152 169.775C142.929 168.8 143.707 167.826 144.494 166.854C144.666 166.64 144.841 166.427 145.014 166.214C145.785 165.264 146.558 164.313 147.338 163.364C147.496 163.171 147.658 162.98 147.817 162.787C148.613 161.819 149.412 160.853 150.218 159.889C150.444 159.617 150.675 159.347 150.902 159.076C151.645 158.191 152.388 157.306 153.137 156.422C153.39 156.124 153.647 155.827 153.901 155.529C154.631 154.673 155.36 153.817 156.096 152.963C156.361 152.656 156.629 152.35 156.896 152.043C157.624 151.202 158.352 150.36 159.087 149.522C159.37 149.197 159.658 148.874 159.943 148.55C160.667 147.727 161.39 146.904 162.119 146.084C162.37 145.801 162.623 145.521 162.875 145.24C163.641 144.38 164.408 143.521 165.181 142.665C165.438 142.38 165.698 142.096 165.955 141.812C166.725 140.962 167.494 140.112 168.269 139.265C168.55 138.959 168.834 138.654 169.115 138.347C169.872 137.524 170.628 136.7 171.389 135.88C171.67 135.578 171.953 135.278 172.234 134.976C173.001 134.154 173.769 133.33 174.541 132.51C174.81 132.224 175.081 131.941 175.351 131.656C176.138 130.824 176.924 129.991 177.716 129.163C177.985 128.881 178.255 128.602 178.524 128.321C179.321 127.491 180.117 126.66 180.918 125.833C181.189 125.553 181.463 125.274 181.735 124.995C182.533 124.174 183.331 123.353 184.133 122.536C184.432 122.232 184.732 121.931 185.03 121.628C185.418 121.235 185.806 120.843 186.194 120.451L258.095 196.246C248.42 205.279 238.602 213.918 228.81 222.021L139.081 173.662ZM334.539 13.4453C334.528 13.4489 334.517 13.4518 334.506 13.455C333.433 13.7796 332.341 14.1351 331.238 14.506C330.958 14.6002 330.676 14.6973 330.394 14.7949C329.428 15.1275 328.454 15.4759 327.466 15.8423C327.308 15.9014 327.151 15.9566 326.991 16.0168C325.864 16.4403 324.721 16.89 323.568 17.3569C323.287 17.4711 323.002 17.5895 322.719 17.7063C321.755 18.1034 320.782 18.5151 319.8 18.9416C319.555 19.0477 319.312 19.1508 319.066 19.2588C317.919 19.7636 316.761 20.2864 315.592 20.8295L234.351 -40.6191C235.568 -43.5272 236.607 -46.3195 237.45 -48.9768C238.385 -51.8537 239.096 -54.5765 239.589 -57.1419L336.21 12.9622C335.655 13.1193 335.101 13.2754 334.539 13.4453ZM238.528 -57.9118C238.034 -55.0337 237.225 -51.9151 236.13 -48.5921C235.318 -46.1811 234.347 -43.6588 233.234 -41.0394L170.189 -44.0376L159.14 -53.1658C159.169 -53.1855 159.199 -53.2055 159.228 -53.2251C159.928 -53.6918 160.625 -54.1497 161.322 -54.6061C161.526 -54.7409 161.732 -54.8784 161.937 -55.0117C162.613 -55.4528 163.285 -55.8846 163.957 -56.3161C164.179 -56.4589 164.403 -56.6049 164.624 -56.7466C165.292 -57.173 165.956 -57.5902 166.62 -58.007C166.842 -58.1464 167.065 -58.2889 167.285 -58.4269C167.923 -58.8251 168.557 -59.214 169.191 -59.6026C169.438 -59.7547 169.687 -59.9103 169.934 -60.0609C170.545 -60.4335 171.152 -60.7965 171.759 -61.1603C172.023 -61.3185 172.289 -61.4807 172.553 -61.637C173.144 -61.9892 173.732 -62.3315 174.319 -62.6748C174.595 -62.8354 174.871 -63.0004 175.146 -63.1591C175.721 -63.4922 176.291 -63.8159 176.862 -64.1401C177.145 -64.301 177.429 -64.466 177.711 -64.6239C178.269 -64.9384 178.822 -65.2434 179.376 -65.5494C179.667 -65.7102 179.959 -65.8746 180.249 -66.0328C180.797 -66.3329 181.34 -66.6228 181.884 -66.9145C182.147 -67.0556 182.412 -67.2002 182.674 -67.3391L219.491 -71.7243L238.528 -57.9118ZM97.0847 -5.36598C96.9186 -5.21103 96.7531 -5.056 96.5874 -4.90068C96.3222 -4.65254 96.0571 -4.40606 95.7923 -4.1568C94.6521 -3.08448 93.5156 -2.00461 92.3816 -0.919994C92.0378 -0.591359 91.6954 -0.261811 91.3531 0.0675839C90.3747 1.00749 89.3989 1.95132 88.4257 2.90018C88.2547 3.06655 88.0826 3.23029 87.9119 3.39703C87.8741 3.43396 87.8368 3.47204 87.799 3.50897C86.954 4.33538 86.1112 5.1647 85.2702 5.99745L38.5322 -49.365L97.0847 -5.36598ZM219.163 -71.963L183.36 -67.6984C183.511 -67.7777 183.661 -67.8554 183.812 -67.9343L218.817 -72.2137L219.163 -71.963ZM59.7696 35.4099L75.6207 96.3557L42.669 56.0416C48.0805 49.1129 53.8068 42.2153 59.7696 35.4099ZM69.7728 72.7789L76.1188 96.965L76.0367 96.8656L69.7728 72.7789ZM60.1399 34.9901C68.4097 25.5726 77.1284 16.3345 86.0958 7.44222L142.816 74.6761C142.091 75.3525 141.367 76.0297 140.641 76.7005C140.192 77.1152 139.742 77.5275 139.293 77.94C138.502 78.6667 137.71 79.3902 136.916 80.1098C136.494 80.493 136.072 80.8775 135.649 81.2588C134.539 82.2615 133.425 83.2575 132.312 84.2469C131.903 84.6099 131.494 84.9691 131.084 85.3303C130.271 86.0478 129.457 86.7624 128.644 87.4725C128.2 87.8588 127.757 88.2459 127.314 88.63C126.186 89.6076 125.058 90.5804 123.929 91.5428C123.621 91.8049 123.312 92.0637 123.004 92.325C122.099 93.0925 121.194 93.855 120.29 94.6125C119.855 94.9766 119.42 95.3394 118.986 95.7006C118.042 96.4857 117.098 97.265 116.154 98.0383C115.882 98.2622 115.609 98.4887 115.336 98.7112C114.2 99.6384 113.066 100.553 111.932 101.462C111.523 101.79 111.115 102.116 110.707 102.441C109.822 103.145 108.939 103.844 108.056 104.537C107.719 104.803 107.38 105.071 107.042 105.334C105.894 106.232 104.746 107.119 103.6 107.997C103.242 108.272 102.884 108.542 102.526 108.815C101.639 109.49 100.754 110.16 99.8707 110.822C99.5108 111.092 99.151 111.363 98.7918 111.631C97.6387 112.49 96.4888 113.34 95.3418 114.177C95.0701 114.375 94.7999 114.569 94.5286 114.766C93.7161 115.355 92.907 115.937 92.098 116.515L76.5354 97.475L60.1399 34.9901ZM92.6671 117.645L138.04 173.155C138.034 173.163 138.028 173.171 138.022 173.178L92.645 117.66C92.6521 117.655 92.6596 117.65 92.6671 117.645ZM131.227 183.997L186.696 253.621C186.676 253.635 186.655 253.649 186.635 253.662L131.182 184.057C131.197 184.037 131.212 184.018 131.227 183.997ZM131.394 183.769C132.634 182.094 133.895 180.41 135.187 178.712C135.272 178.601 135.352 178.493 135.436 178.382C136.514 176.968 137.614 175.545 138.728 174.115L207.084 210.863L228.426 222.337C214.36 233.957 200.358 244.468 186.924 253.468L131.394 183.769ZM144.6 -44.9633L138.513 -45.269L144.621 -44.9785C144.614 -44.973 144.607 -44.968 144.6 -44.9633ZM144.247 -44.7057C143.292 -44.0056 142.335 -43.2992 141.376 -42.5839C141.108 -42.3839 140.839 -42.1792 140.57 -41.9781C139.646 -41.2853 138.72 -40.5857 137.792 -39.8793C137.394 -39.5758 136.995 -39.2718 136.596 -38.9657C135.486 -38.1149 134.374 -37.2566 133.261 -36.387C132.951 -36.145 132.64 -35.8988 132.331 -35.6553C131.424 -34.9441 130.518 -34.2271 129.61 -33.5037C129.222 -33.1949 128.834 -32.8868 128.446 -32.5757C127.323 -31.6758 126.2 -30.7685 125.075 -29.8515C124.748 -29.5845 124.42 -29.314 124.092 -29.0451C123.188 -28.3039 122.283 -27.5567 121.378 -26.8047C121.002 -26.4924 120.627 -26.1813 120.251 -25.8671C119.124 -24.9254 117.997 -23.9759 116.87 -23.0179C116.525 -22.7248 116.181 -22.4292 115.836 -22.1343C115.051 -21.4638 114.266 -20.79 113.482 -20.1118L110.094 -21.4628L38.8889 -49.8558L39.5656 -49.9694L144.247 -44.7057ZM131.015 184.286L186.407 253.815C184.302 255.222 182.212 256.589 180.137 257.918L98.3182 238.687C104.955 223.129 116.032 204.587 131.015 184.286ZM153.862 -51.5433C153.473 -51.2749 153.082 -51.0049 152.692 -50.7335C151.702 -50.046 150.709 -49.3509 149.712 -48.6453C149.401 -48.4244 149.089 -48.2022 148.778 -47.9802C147.817 -47.2953 146.854 -46.6017 145.888 -45.9012C145.583 -45.6795 145.278 -45.46 144.972 -45.2372L41.4274 -50.1612L156.07 -53.052C155.336 -52.5538 154.6 -52.0518 153.862 -51.5433ZM38.0655 -49.4918L85.0554 6.20893C84.0011 7.25381 82.9507 8.305 81.903 9.35959C81.7162 9.54724 81.5306 9.73601 81.3441 9.92403C79.4946 11.7908 77.6571 13.6713 75.8324 15.5643C75.6489 15.7546 75.4652 15.9445 75.2821 16.1352C73.3457 18.1504 71.423 20.1781 69.5201 22.2193C69.4556 22.2881 69.392 22.3578 69.3279 22.427C67.4598 24.4328 65.6109 26.4498 63.7797 28.4768C63.6032 28.672 63.4274 28.8671 63.2517 29.0623C62.0413 30.4056 60.8374 31.7521 59.6451 33.1034L38.026 -49.2905L38.0655 -49.4918ZM98.2058 238.944L179.815 258.125C179.777 258.15 179.738 258.175 179.699 258.2L98.1109 239.177C98.1439 239.098 98.1724 239.022 98.2058 238.944ZM156.491 -53.3375L95.0939 -51.789L156.943 -53.6452C156.792 -53.5438 156.641 -53.4397 156.491 -53.3375ZM42.4973 56.2643L75.7858 96.9912L75.8023 97.0537L42.4809 56.2854C42.4865 56.2785 42.4917 56.2712 42.4973 56.2643ZM76.2024 97.5007L76.2863 97.6035L76.3027 97.6659L76.2184 97.5628L76.2024 97.5007ZM76.7028 98.1129L91.8752 116.676C91.8681 116.681 91.8604 116.686 91.8533 116.691L76.7192 98.1754L76.7028 98.1129ZM84.5393 123.286C85.7064 122.499 86.8762 121.703 88.0525 120.89C88.0667 120.88 88.0811 120.87 88.0953 120.86C89.2627 120.052 90.436 119.228 91.6118 118.395C91.8815 118.204 92.151 118.013 92.4215 117.82L137.848 173.399C136.743 174.814 135.656 176.223 134.585 177.624C133.692 178.793 132.821 179.952 131.953 181.11C131.806 181.305 131.654 181.503 131.507 181.699C131.222 182.081 130.94 182.462 130.656 182.843L83.672 123.87C83.961 123.676 84.2502 123.481 84.5393 123.286ZM98.0049 239.435L179.377 258.407C162.26 269.316 146.268 277.543 132.501 282.205L123.399 281.348L96.6095 242.891C97.0499 241.756 97.5138 240.605 98.0049 239.435ZM178.897 -67.1668L125.954 -60.8608L179.282 -67.3802C179.154 -67.31 179.026 -67.2378 178.897 -67.1668ZM176.801 -65.9963C176.494 -65.8228 176.185 -65.6454 175.877 -65.4689C175.009 -64.9736 174.137 -64.4684 173.26 -63.9536C173.008 -63.8053 172.757 -63.661 172.504 -63.5112C171.457 -62.8918 170.403 -62.2568 169.343 -61.611C169.004 -61.4041 168.663 -61.1942 168.322 -60.9848C167.432 -60.4371 166.538 -59.8809 165.64 -59.3156C165.393 -59.1598 165.148 -59.0083 164.9 -58.8515C163.836 -58.1764 162.764 -57.4866 161.69 -56.7876C161.321 -56.5474 160.951 -56.3049 160.58 -56.0618C159.648 -55.4502 158.713 -54.831 157.774 -54.2017C157.638 -54.1108 157.504 -54.0239 157.368 -53.9326L42.6624 -50.4912L46.1387 -51.0764L178.261 -66.8133C177.775 -66.5431 177.29 -66.2723 176.801 -65.9963ZM91.6298 116.852C91.3033 117.084 90.9771 117.317 90.6513 117.548C89.5017 118.362 88.3549 119.169 87.214 119.959C87.129 120.018 87.0439 120.075 86.9589 120.134C85.8564 120.896 84.759 121.644 83.6649 122.383C83.4963 122.497 83.3285 122.609 83.1599 122.722L76.8869 98.8134L91.6298 116.852ZM83.4437 124.022L130.488 183.071C130.474 183.091 130.459 183.111 130.444 183.131L83.3855 124.062C83.4049 124.049 83.424 124.035 83.4437 124.022ZM123.605 281.643L131.85 282.42C131.633 282.492 131.415 282.566 131.199 282.636L123.824 281.957L123.605 281.643ZM197.662 -76.2561C197.503 -76.1911 197.341 -76.1225 197.181 -76.0567C196.332 -75.7071 195.474 -75.3442 194.609 -74.9684C194.387 -74.8719 194.166 -74.7778 193.944 -74.6799C192.966 -74.2489 191.98 -73.8032 190.983 -73.3394C190.772 -73.2414 190.56 -73.1387 190.349 -73.0396C189.494 -72.6378 188.632 -72.2232 187.764 -71.7975C187.529 -71.6815 187.295 -71.569 187.059 -71.452C186.055 -70.954 185.042 -70.4399 184.021 -69.9117C183.759 -69.7761 183.495 -69.6361 183.233 -69.499C182.374 -69.0495 181.511 -68.5898 180.641 -68.1197C180.405 -67.9915 180.169 -67.8671 179.932 -67.7375L52.7246 -52.1856L199.153 -76.8478C198.658 -76.654 198.163 -76.4594 197.662 -76.2561ZM37.9024 -48.6668L59.2783 33.5213C58.8218 34.04 58.367 34.5591 57.913 35.0789C57.8137 35.1929 57.7133 35.3064 57.614 35.4203C55.7883 37.5144 53.9861 39.6171 52.2084 41.7258C52.0862 41.8709 51.9656 42.0153 51.8437 42.1608C50.1473 44.1776 48.4742 46.2011 46.8251 48.2281C46.6751 48.4129 46.5245 48.5974 46.3748 48.7825C44.9932 50.4859 43.6306 52.1929 42.2861 53.902L37.8586 -48.4443L37.9024 -48.6668ZM76.47 98.3037L82.9197 122.883C82.8866 122.906 82.8535 122.927 82.8211 122.95L76.3837 98.198L76.47 98.3037ZM33.7757 148.295L31.6804 145.31L31.695 144.843L34.0574 148.209C33.963 148.238 33.8693 148.267 33.7757 148.295ZM33.4985 148.377C32.8494 148.567 32.2026 148.754 31.5675 148.923L31.6661 145.766L33.4985 148.377ZM37.2424 148.354C37.3963 148.302 37.5475 148.255 37.7021 148.202C38.6161 147.89 39.5433 147.557 40.4792 147.208C40.7216 147.118 40.9659 147.024 41.2091 146.931C41.9725 146.641 42.7429 146.339 43.5203 146.026C43.7516 145.933 43.9813 145.842 44.2138 145.747C45.1739 145.354 46.1436 144.944 47.1244 144.515C47.3383 144.422 47.5556 144.323 47.771 144.228C48.5811 143.87 49.3979 143.5 50.2208 143.118C50.4963 142.991 50.7717 142.865 51.049 142.735C52.0573 142.26 53.0731 141.774 54.1003 141.267C54.225 141.206 54.3517 141.141 54.4768 141.078C55.3998 140.62 56.3307 140.147 57.2673 139.663C57.567 139.508 57.8675 139.352 58.1688 139.195C59.1163 138.699 60.0698 138.192 61.0308 137.671C61.1508 137.606 61.2696 137.544 61.3899 137.479C62.4568 136.897 63.5334 136.296 64.6165 135.684C64.9161 135.515 65.2176 135.342 65.5187 135.17C66.4092 134.661 67.305 134.143 68.2054 133.614C68.4413 133.475 68.6758 133.34 68.9124 133.2C70.0096 132.551 71.1136 131.887 72.2237 131.21C72.4966 131.043 72.7708 130.872 73.0448 130.704C73.9473 130.149 74.8542 129.584 75.7654 129.011C76.0573 128.827 76.3477 128.646 76.6404 128.46C77.7713 127.742 78.9075 127.013 80.0498 126.268C80.2463 126.139 80.4447 126.007 80.6416 125.878C81.4777 125.331 82.3161 124.777 83.1576 124.215L130.276 183.359C115.232 203.668 104.082 222.186 97.2964 237.843L35.0002 149.077C35.7396 148.848 36.4867 148.608 37.2424 148.354ZM125.475 284.327L124.029 282.251L130.549 282.851C128.839 283.396 127.164 283.886 125.528 284.314C125.51 284.319 125.493 284.322 125.475 284.327ZM260.563 195.946C260.864 195.663 261.165 195.377 261.466 195.093C262.613 194.012 263.757 192.926 264.9 191.834C265.322 191.431 265.745 191.026 266.167 190.621C267.534 189.308 268.898 187.99 270.257 186.663C270.3 186.622 270.342 186.581 270.385 186.539C270.415 186.51 270.444 186.48 270.475 186.45C272.023 184.938 273.562 183.413 275.098 181.883L383.061 304.645L259.401 197.032C259.788 196.67 260.176 196.309 260.563 195.946ZM325.297 125.63C325.335 125.582 325.373 125.534 325.41 125.486L346.387 189.739L325.297 125.63ZM42.0244 54.2337C41.9475 54.3316 41.8703 54.4291 41.794 54.527L39.9141 5.45033L42.0244 54.2337ZM34.1117 67.405C34.1793 67.3118 34.2463 67.2185 34.3143 67.1249C35.1238 66.0106 35.9445 64.8912 36.7826 63.7643C36.8569 63.6638 36.9337 63.563 37.0085 63.4628C37.7756 62.4332 38.557 61.3971 39.3475 60.357C39.5683 60.0664 39.7901 59.7755 40.0128 59.4839C40.7676 58.4963 41.5328 57.5045 42.3085 56.5083L75.9672 97.6886L82.5795 123.112C81.634 123.745 80.6914 124.37 79.7534 124.985C79.5491 125.119 79.3435 125.256 79.1392 125.39C78.0036 126.131 76.8745 126.856 75.7499 127.57C75.4516 127.759 75.1542 127.945 74.8563 128.133C73.9436 128.708 73.0347 129.274 72.1299 129.831C71.8656 129.994 71.6001 130.159 71.3362 130.32C70.2227 131 69.1157 131.666 68.0159 132.317C67.7822 132.455 67.5512 132.589 67.3183 132.725C66.4086 133.26 65.5038 133.784 64.604 134.298C64.3178 134.461 64.0317 134.626 63.7467 134.787C62.6561 135.404 61.5711 136.01 60.4964 136.596C60.3839 136.657 60.273 136.715 60.1609 136.776C59.1864 137.305 58.2203 137.819 57.2598 138.321C56.9753 138.47 56.6916 138.617 56.4085 138.763C55.4399 139.265 54.4766 139.755 53.5223 140.228C53.4274 140.276 53.3308 140.325 53.2355 140.372C52.1994 140.884 51.1755 141.374 50.1579 141.852C49.8932 141.977 49.6304 142.098 49.3677 142.22C48.5243 142.611 47.6881 142.989 46.859 143.356C46.6618 143.443 46.4629 143.534 46.2668 143.619C45.2785 144.051 44.3012 144.464 43.3337 144.861C43.1124 144.952 42.8943 145.038 42.6741 145.126C41.8848 145.445 41.1034 145.751 40.3288 146.046C40.0941 146.134 39.8586 146.226 39.6251 146.312C38.6847 146.663 37.7542 146.998 36.8364 147.311C36.6885 147.362 36.544 147.407 36.3972 147.456C35.7003 147.691 35.0136 147.909 34.3306 148.122L31.7092 144.387L32.6496 114.245L34.1117 67.405ZM31.29 149.001C31.284 149.003 31.2773 149.005 31.271 149.006C31.1785 149.031 31.0914 149.049 30.9997 149.073L31.1376 145.012L31.4029 145.391L31.29 149.001ZM34.7266 149.164L97.1697 238.14C97.1256 238.242 97.0822 238.344 97.0385 238.446L34.4461 149.251C34.539 149.223 34.6337 149.192 34.7266 149.164ZM96.3662 243.535C96.4088 243.423 96.4493 243.313 96.4923 243.202L123.042 281.313L122.656 281.277L96.3662 243.535ZM123.248 281.61L123.467 281.924L123.082 281.889L122.862 281.573L123.248 281.61ZM123.671 282.218L125.189 284.397C125.085 284.423 124.985 284.445 124.881 284.472L123.287 282.183L123.671 282.218ZM31.4173 144.934L31.1531 144.558L31.169 144.094L31.4319 144.468L31.4173 144.934ZM33.3855 149.562C33.5649 149.511 33.7454 149.457 33.926 149.403C33.9539 149.395 33.9822 149.387 34.0108 149.378C34.0624 149.362 34.1151 149.345 34.1675 149.33L96.9117 238.742C96.4983 239.713 96.103 240.672 95.7238 241.62L31.8897 149.985C32.3852 149.849 32.8821 149.71 33.3855 149.562ZM93.3331 277.864C93.2663 277.735 93.2039 277.601 93.1401 277.47C93.0001 277.182 92.8747 276.882 92.7493 276.582C92.611 276.25 92.4769 275.915 92.3557 275.569C92.2708 275.327 92.194 275.077 92.1177 274.827C92.0103 274.477 91.9064 274.125 91.8158 273.762C91.7368 273.444 91.6685 273.117 91.6023 272.789C91.5417 272.492 91.4811 272.197 91.4306 271.892C91.3499 271.395 91.2836 270.885 91.2301 270.365C91.2153 270.226 91.1968 270.089 91.1838 269.948C90.5778 263.033 92.3339 254.19 96.2488 243.846L107.385 259.833L122.298 281.243L93.7333 278.551C93.599 278.322 93.4569 278.101 93.3331 277.864ZM275.313 181.668C276.053 180.931 276.791 180.194 277.526 179.453C277.751 179.228 277.973 179.001 278.198 178.775C280.38 176.572 282.549 174.353 284.702 172.119C284.962 171.849 285.222 171.579 285.482 171.308C287.642 169.06 289.784 166.797 291.909 164.521C292.11 164.307 292.311 164.093 292.511 163.878C294.798 161.422 297.064 158.953 299.304 156.471C299.327 156.445 299.35 156.42 299.372 156.395C301.603 153.922 303.807 151.436 305.987 148.94C306.177 148.723 306.364 148.505 306.553 148.289C308.586 145.953 310.595 143.61 312.579 141.26C312.803 140.994 313.027 140.728 313.251 140.462C313.833 139.769 314.415 139.076 314.993 138.382L383.708 304.489L383.797 305.045C383.793 305.048 383.791 305.051 383.787 305.054L275.313 181.668ZM325.615 125.226C325.657 125.173 325.699 125.12 325.741 125.067C326.687 123.855 327.618 122.648 328.54 121.446C328.906 120.968 329.265 120.494 329.627 120.018C330.149 119.332 330.669 118.646 331.183 117.964C331.668 117.319 332.147 116.677 332.625 116.036C332.951 115.598 333.274 115.161 333.597 114.725C334.205 113.903 334.809 113.083 335.404 112.267C335.407 112.262 335.409 112.258 335.412 112.255C340.651 105.07 345.395 98.1164 349.618 91.4446L359.771 154.891L383.293 301.899L325.615 125.226ZM350.469 87.1532L343.478 42.9257L365.117 59.2934C361.519 67.7814 356.603 77.1327 350.469 87.1532ZM41.5316 54.8598C41.4423 54.9742 41.3514 55.088 41.2624 55.202C40.2094 56.5499 39.1777 57.8893 38.1627 59.2222C37.6752 59.862 37.2045 60.4957 36.7256 61.1323C36.2208 61.8029 35.7104 62.4762 35.216 63.1426C34.8737 63.6039 34.5397 64.0615 34.2019 64.5206L37.6587 -46.2578L41.5316 54.8598ZM33.7625 67.8875C33.7832 67.8593 33.8039 67.8311 33.8246 67.8021L31.4461 144.012L31.1842 143.639L33.5003 75.5814L33.7625 67.8875ZM94.1094 279.198C94.0354 279.085 93.9747 278.96 93.9037 278.844L122.505 281.539L122.725 281.856L94.1267 279.223C94.1212 279.214 94.1152 279.206 94.1094 279.198ZM183.236 257.697C183.544 257.496 183.854 257.29 184.162 257.088C185.242 256.38 186.324 255.662 187.411 254.934C187.489 254.882 187.567 254.832 187.645 254.779L373.81 303.439L182.16 258.393C182.519 258.161 182.877 257.932 183.236 257.697ZM230.846 222.234C231.292 221.863 231.738 221.492 232.185 221.118C233.43 220.077 234.675 219.028 235.921 217.97C236.127 217.794 236.333 217.622 236.54 217.446C237.952 216.243 239.363 215.027 240.774 213.804C241.207 213.429 241.639 213.052 242.071 212.675C243.199 211.692 244.326 210.704 245.452 209.709C245.8 209.402 246.148 209.097 246.495 208.788C247.897 207.544 249.298 206.29 250.697 205.028C251.085 204.678 251.472 204.325 251.86 203.974C252.966 202.97 254.072 201.961 255.176 200.947C255.578 200.577 255.981 200.208 256.383 199.837C257.303 198.987 258.222 198.132 259.139 197.276L383.471 305.367C383.47 305.369 383.467 305.372 383.466 305.373L230.202 222.772C230.416 222.594 230.631 222.413 230.846 222.234ZM365.227 59.0317L343.417 42.5336L343.36 42.1775L365.328 58.7937C365.295 58.8729 365.261 58.9529 365.227 59.0317ZM237.307 -73.1494C237.405 -72.9537 237.51 -72.7649 237.601 -72.5615C237.703 -72.332 237.788 -72.0876 237.88 -71.849C238.316 -70.71 238.65 -69.4755 238.853 -68.1221C238.916 -67.702 238.96 -67.267 239.001 -66.8294C239.013 -66.7033 239.029 -66.5807 239.04 -66.4535C239.068 -66.0954 239.08 -65.7256 239.094 -65.3562C239.103 -65.0968 239.115 -64.8387 239.116 -64.5731C239.119 -64.3086 239.114 -64.0374 239.11 -63.7678C239.101 -63.3186 239.088 -62.8673 239.06 -62.4032C239.054 -62.297 239.047 -62.1895 239.04 -62.0829C238.988 -61.3409 238.907 -60.5774 238.807 -59.7975L221.962 -72.0187L236.964 -73.8057C237.086 -73.593 237.196 -73.3708 237.307 -73.1494ZM9.58312 108.092L8.91104 111.901L8.30058 111.031C8.70886 110.064 9.13421 109.085 9.58312 108.092ZM10.0369 107.102C10.1195 106.923 10.1994 106.745 10.2831 106.565C10.3301 106.464 10.378 106.363 10.4253 106.262L9.34251 112.516L9.13424 112.219L10.0369 107.102ZM10.864 105.339C11.0341 104.983 11.201 104.628 11.3758 104.269C11.5038 104.007 11.6377 103.741 11.7682 103.477C12.2 102.602 12.6465 101.717 13.107 100.825C13.3527 100.349 13.5999 99.8722 13.8538 99.391C14.073 98.9752 14.2944 98.5579 14.5199 98.1389C14.8935 97.4425 15.2756 96.7412 15.6667 96.035C15.8328 95.7341 15.9989 95.4333 16.1684 95.1306C16.6322 94.3013 17.108 93.4653 17.5946 92.6232C17.7689 92.3217 17.9455 92.0178 18.1228 91.7149C18.604 90.8898 19.0948 90.0598 19.5969 89.2231C19.6941 89.0614 19.7874 88.9014 19.8857 88.7393C20.4933 87.7321 21.1185 86.7159 21.7555 85.6924C21.8952 85.4679 22.0379 85.2419 22.1792 85.0166C22.7412 84.12 23.3136 83.2175 23.8987 82.3085C24.009 82.137 24.1173 81.9666 24.2288 81.7947C24.9147 80.7329 25.6166 79.6628 26.3334 78.5847C26.4542 78.4029 26.5784 78.2193 26.7007 78.0368C27.3246 77.1024 27.9612 76.1613 28.6081 75.2153C28.7533 75.0023 28.8974 74.7905 29.0441 74.5768C29.7959 73.4829 30.5611 72.3825 31.3428 71.2734C31.445 71.1288 31.5502 70.9821 31.6532 70.8368C32.2498 69.9935 32.8598 69.1428 33.4739 68.2913L32.7147 90.5978L30.9222 143.265L9.56705 112.836L10.864 105.339ZM30.9066 143.719L30.8911 144.184L9.43342 113.606L9.50077 113.218L30.9066 143.719ZM30.8751 144.639L30.7222 149.14C30.1191 149.293 29.518 149.444 28.9322 149.576C28.82 149.601 28.7123 149.622 28.6013 149.646C27.9145 149.797 27.2359 149.938 26.5739 150.06C26.5419 150.066 26.5106 150.071 26.4783 150.077C16.7207 151.854 9.66561 150.461 5.82552 145.982C5.77064 145.918 5.71903 145.85 5.66527 145.785C5.44034 145.51 5.22557 145.225 5.02347 144.929C4.9786 144.863 4.93313 144.796 4.88901 144.73C4.65606 144.372 4.44029 143.999 4.23986 143.614L9.36725 113.989L30.8751 144.639ZM96.2688 281.789C95.8939 281.437 95.5415 281.063 95.2071 280.671C95.1555 280.61 95.107 280.546 95.0565 280.484C94.8012 280.174 94.5616 279.85 94.331 279.517L122.93 282.15L124.595 284.541C124.005 284.689 123.412 284.839 122.836 284.969C122.595 285.024 122.362 285.07 122.124 285.122C121.467 285.264 120.816 285.399 120.179 285.519C119.952 285.561 119.729 285.599 119.504 285.64C118.828 285.759 118.16 285.869 117.506 285.962C117.36 285.983 117.213 286.005 117.069 286.024C107.699 287.293 100.653 285.876 96.3063 281.823C96.2938 281.811 96.2809 281.801 96.2688 281.789ZM181.838 258.6L234.07 270.877L181.726 258.673C181.763 258.649 181.801 258.625 181.838 258.6ZM187.952 254.576C188.036 254.519 188.119 254.464 188.203 254.408L276.455 277.708L187.952 254.576ZM236.807 -74.0646L221.633 -72.2573L221.279 -72.5148L236.601 -74.388C236.67 -74.2805 236.74 -74.1747 236.807 -74.0646ZM8.1755 111.33L8.84388 112.282L8.7754 112.669L8.04879 111.634C8.09058 111.533 8.13296 111.431 8.1755 111.33ZM9.06685 112.6L9.27646 112.898L9.20899 113.288L8.99871 112.988L9.06685 112.6ZM9.14305 113.67L4.03431 143.186C3.94297 142.995 3.85985 142.796 3.77561 142.598L8.93177 113.368L9.14305 113.67ZM31.3136 150.144C31.4113 150.118 31.5108 150.089 31.6093 150.062L95.6017 241.925C95.5591 242.034 95.5145 242.143 95.4719 242.251L72.7105 209.575L31.3136 150.144ZM188.504 254.203C188.574 254.155 188.644 254.106 188.714 254.059C189.996 253.194 191.281 252.319 192.573 251.426C192.762 251.296 192.952 251.165 193.141 251.033C194.41 250.154 195.684 249.26 196.961 248.355C197.406 248.041 197.85 247.724 198.296 247.405C199.407 246.613 200.521 245.812 201.637 245.001C201.95 244.775 202.261 244.551 202.574 244.323C203.941 243.325 205.313 242.313 206.687 241.289C207.117 240.969 207.547 240.645 207.978 240.322C209.043 239.524 210.11 238.718 211.178 237.904C211.584 237.594 211.991 237.287 212.398 236.975C213.777 235.919 215.158 234.851 216.542 233.77C216.915 233.48 217.289 233.184 217.662 232.891C218.762 232.028 219.863 231.158 220.964 230.28C221.402 229.931 221.839 229.583 222.277 229.232C223.678 228.11 225.08 226.978 226.483 225.834C226.726 225.635 226.969 225.433 227.212 225.234C228.082 224.522 228.952 223.809 229.823 223.088L383.016 305.444L382.428 305.403L188.504 254.203ZM371.371 39.678L370.452 21.2513C370.605 21.5992 370.736 21.9682 370.871 22.334L371.626 38.2116C371.549 38.6951 371.464 39.1836 371.371 39.678ZM356.7 10.3976C356.295 10.3558 355.884 10.3216 355.466 10.2952C355.352 10.2878 355.242 10.2766 355.127 10.2707C354.611 10.2427 354.082 10.23 353.546 10.2247C353.361 10.2231 353.174 10.2248 352.987 10.2254C352.579 10.2276 352.165 10.2361 351.746 10.2508C351.57 10.2567 351.396 10.2611 351.219 10.2696C350.647 10.2964 350.067 10.3335 349.475 10.3838C349.335 10.3958 349.19 10.4122 349.049 10.4252C348.564 10.4706 348.073 10.5233 347.575 10.5837C347.382 10.6072 347.188 10.6312 346.992 10.6569C346.428 10.7313 345.857 10.8141 345.277 10.9078C345.198 10.9206 345.121 10.9305 345.042 10.9435C344.383 11.0526 343.71 11.1766 343.031 11.3099C342.848 11.3453 342.663 11.3841 342.479 11.4218C341.929 11.5337 341.372 11.654 340.808 11.7817C340.642 11.8196 340.478 11.8552 340.311 11.8945C339.76 12.0231 339.202 12.1598 338.639 12.3035L338.302 12.3871L264.121 -41.4309L239.911 -58.9965C240.478 -62.6718 240.565 -65.9958 240.128 -68.9112C239.926 -70.2557 239.605 -71.4958 239.186 -72.6471L357.035 10.4296C356.925 10.4171 356.811 10.409 356.7 10.3976ZM34.4749 46.9651L33.9145 64.9137C33.8969 64.9383 33.8791 64.9622 33.8614 64.9868L33.9519 62.3251L34.4749 46.9651ZM25.2857 151.469C25.3135 151.464 25.3419 151.459 25.3697 151.454C25.9182 151.36 26.4722 151.26 27.0378 151.147C27.262 151.102 27.4914 151.05 27.7179 151.003C28.1221 150.917 28.5237 150.835 28.9362 150.739C29.6075 150.584 30.2881 150.418 30.9804 150.236C30.9979 150.232 31.0154 150.226 31.0328 150.222L34.0667 154.578L95.3503 242.557C90.5024 254.957 88.6523 265.337 90.0583 273.104L8.43602 150.086C12.5574 152.211 18.201 152.668 25.2857 151.469ZM135.683 282.781L257.731 294.286L135.087 282.994C135.287 282.922 135.483 282.856 135.683 282.781ZM358.325 10.6125C358.088 10.5743 357.855 10.5341 357.614 10.5014L238.997 -73.1162C238.932 -73.2789 238.87 -73.4445 238.801 -73.6035C238.782 -73.6467 238.767 -73.6933 238.748 -73.7361L358.432 10.6281C358.397 10.6221 358.36 10.6185 358.325 10.6125ZM37.3618 -45.9311L36.0956 -8.73117L33.5732 65.3813C33.495 65.4885 33.417 65.5948 33.3392 65.7016C33.0326 66.1222 32.72 66.5449 32.4178 66.9633C31.6779 67.9862 30.9559 69.0017 30.239 70.0146C30.086 70.2308 29.93 70.4485 29.7785 70.6633C28.9427 71.8509 28.1257 73.0291 27.3223 74.202C27.3178 74.2086 27.3125 74.2161 27.3076 74.223C21.1509 83.2098 15.9673 91.7385 11.8509 99.6377L34.82 -33.0734L37.3618 -45.9311ZM11.4321 100.445C11.322 100.66 11.2064 100.877 11.0975 101.09L22.9375 33.9669L11.4321 100.445ZM129.117 284.99C129.265 284.945 129.419 284.891 129.568 284.845C130.476 284.565 131.394 284.271 132.323 283.959C132.507 283.897 132.688 283.84 132.872 283.777C133.401 283.596 133.938 283.403 134.473 283.213L354.444 303.465L352.422 303.325L129.117 284.99ZM359.07 10.7416L284.311 -41.9554L359.381 10.8054C359.277 10.7844 359.175 10.7615 359.07 10.7416ZM10.6706 101.927C10.0775 103.107 9.51031 104.271 8.96717 105.421L31.5514 -16.5398L31.7001 -17.2914L10.6706 101.927ZM128.383 285.205L273.37 297.11L127.396 285.489C127.724 285.396 128.052 285.303 128.383 285.205ZM358.968 140.925L350.839 89.496C356.965 79.6617 361.938 70.4594 365.683 62.0444L383.46 294.038L383.566 296.542L358.968 140.925ZM8.49841 106.44C8.29605 106.877 8.09119 107.316 7.89629 107.748L24.7062 18.9122L8.49841 106.44ZM365.918 61.5198C366.015 61.2999 366.12 61.0743 366.215 60.8559L376.329 197.396L365.918 61.5198ZM7.41207 108.83C6.99852 109.771 6.59355 110.705 6.21618 111.622L21.8314 32.6298L7.41207 108.83ZM366.45 60.3006C368.537 55.4503 370.211 50.8689 371.441 46.5967L381.605 250.382L383.05 284.399L366.45 60.3006ZM120.087 287.229C120.797 287.096 121.518 286.948 122.25 286.788C122.451 286.744 122.653 286.7 122.857 286.654C123.741 286.453 124.635 286.239 125.549 286C125.903 285.908 126.265 285.801 126.622 285.703L318.17 300.952L202.935 292.969L120.087 287.229ZM371.673 45.739C371.764 45.4105 371.853 45.0833 371.938 44.7585L378.55 183.602L371.673 45.739ZM372.172 43.8839C372.376 43.0742 372.563 42.2765 372.733 41.4908L378.305 172.677L372.172 43.8839Z" fill="white" fill-opacity="0.68"/>
</svg>
