<svg width="261" height="232" viewBox="0 0 261 232" fill="none" xmlns="http://www.w3.org/2000/svg">
<g opacity="0.05">
<path d="M204.836 54.1123C226.447 54.5688 247.959 69.4187 264.077 98.8984L265.502 98.119C249.222 68.3426 227.271 52.9611 204.87 52.4878L204.836 54.1123ZM81.7012 198.615C65.5817 169.132 64.692 143.006 75.975 124.566L74.5891 123.718C62.8936 142.832 63.9939 169.615 80.2756 199.394L81.7012 198.615Z" fill="white"/>
<path d="M71.7523 273.465C61.147 254.068 63.2678 227.713 80.6287 198.997C97.9895 170.281 127.303 144.642 160.663 126.403C194.022 108.164 231.428 97.3241 264.972 98.2075C298.516 99.0909 321.847 111.53 332.453 130.927" stroke="white" stroke-width="3.24955" stroke-linejoin="round"/>
<path d="M68.6211 177.009L69.3744 177.313L68.6211 177.009ZM143.684 95.3081L143.295 94.5953L143.295 94.5953L143.684 95.3081ZM252.977 76.212L253.128 75.4137L253.128 75.4137L252.977 76.212ZM143.681 95.3127L144.376 95.733L144.376 95.733L143.681 95.3127ZM143.676 95.307L143.698 94.4949L143.698 94.4949L143.676 95.307ZM69.3744 177.313C83.3393 142.725 110.854 114.184 144.074 96.0209L143.295 94.5953C109.791 112.913 81.992 141.722 67.8678 176.705L69.3744 177.313ZM144.074 96.0209C177.295 77.8575 216.172 70.0986 252.827 77.0103L253.128 75.4137C216.055 68.4231 176.798 76.2772 143.295 94.5953L144.074 96.0209ZM72.4707 273.065C57.643 245.945 55.4131 211.892 69.3744 177.313L67.8678 176.705C53.74 211.696 55.9643 246.262 71.0451 273.845L72.4707 273.065ZM252.827 77.0103C289.472 83.9203 316.936 104.177 331.764 131.297L333.19 130.517C318.109 102.935 290.21 82.406 253.128 75.4137L252.827 77.0103ZM140.142 305.479C124.09 276.121 116.516 237.945 117.283 199.947C118.05 161.948 127.158 124.213 144.376 95.733L142.986 94.8924C125.584 123.675 116.43 161.706 115.659 199.914C114.887 238.122 122.497 276.593 138.716 306.259L140.142 305.479ZM144.376 95.733C161.53 67.3604 183.404 53.6531 204.845 54.106L204.879 52.4816C182.652 52.012 160.316 66.2272 142.986 94.8924L144.376 95.733ZM143.655 96.1191C176.924 96.9953 213.606 109.695 246.009 129.558C278.412 149.42 306.462 176.401 322.514 205.76L323.939 204.98C307.72 175.314 279.44 148.144 246.858 128.172C214.277 108.2 177.32 95.3804 143.698 94.4949L143.655 96.1191ZM75.9783 124.552C87.1705 106.261 110.515 95.2464 143.655 96.1191L143.698 94.4949C110.216 93.6132 86.1947 104.742 74.5924 123.704L75.9783 124.552ZM129.824 71.6559L242.81 278.305L244.235 277.525L131.25 70.8764L129.824 71.6559Z" fill="white"/>
<path d="M139.242 306.188L139.284 304.564L139.284 304.564L139.242 306.188ZM322.194 204.558C305.017 232.971 275.945 258.429 242.771 276.567L244.33 279.418C277.875 261.078 307.431 235.258 324.975 206.239L322.194 204.558ZM242.771 276.567C209.597 294.705 172.475 305.438 139.284 304.564L139.199 307.812C173.097 308.705 210.785 297.759 244.33 279.418L242.771 276.567ZM139.284 304.564C106.085 303.69 83.4177 291.403 73.1861 272.689L70.3349 274.248C81.3141 294.329 105.31 306.92 139.199 307.812L139.284 304.564ZM331.035 131.71C341.267 150.424 339.376 176.138 322.194 204.558L324.975 206.239C342.515 177.228 344.866 150.232 333.887 130.151L331.035 131.71ZM73.1723 272.692C34.1183 201.262 60.1926 111.801 131.397 72.8704L129.838 70.0192C57.0509 109.815 30.4106 201.255 70.321 274.251L73.1723 272.692ZM131.397 72.8704C202.601 33.9395 291.986 60.2734 331.04 131.703L333.891 130.144C293.981 57.1479 202.625 30.2229 129.838 70.0192L131.397 72.8704Z" fill="white"/>
</g>
</svg>
