<svg width="67" height="32" viewBox="0 0 67 32" fill="none" xmlns="http://www.w3.org/2000/svg">
<path fill-rule="evenodd" clip-rule="evenodd" d="M12.5127 12.348C13.0093 11.862 12.6847 11.0176 11.9904 10.9895L0.760521 10.5342C0.335605 10.517 1.91132e-06 10.1675 1.83017e-06 9.74226L1.51267e-07 0.944977C6.77246e-08 0.507221 0.354872 0.15235 0.792628 0.15235L30.9124 0.152344C31.3502 0.152344 31.7051 0.507216 31.7051 0.944972L31.7051 31.0648C31.7051 31.5025 31.3502 31.8574 30.9124 31.8574H22.3364C21.9048 31.8574 21.5525 31.5121 21.5439 31.0807L21.3297 20.3863C21.3157 19.6887 20.4724 19.3482 19.978 19.8404L12.443 27.3431C12.136 27.6488 11.6403 27.6513 11.3302 27.3487L4.82666 21.0039C4.50817 20.6932 4.50778 20.1812 4.8258 19.87L12.5127 12.348Z" fill="#7E7367"/>
<path d="M56.1618 17.9451C56.1613 17.9451 56.1609 17.9447 56.1609 17.9442V15.562C56.1609 12.7682 53.799 10.5034 50.8855 10.5034C47.972 10.5034 45.6101 12.7682 45.6101 15.562V31.0648C45.6101 31.5025 45.2552 31.8574 44.8175 31.8574H35.6676C35.2299 31.8574 34.875 31.5025 34.875 31.0648V0.944972C34.875 0.507216 35.2299 0.152344 35.6676 0.152344H55.3465C55.7843 0.152344 56.1392 0.507215 56.1392 0.94497V4.16238C56.1392 7.66443 58.9781 10.5034 62.4802 10.5034H65.7874C66.2252 10.5034 66.5801 10.8583 66.5801 11.296V31.0648C66.5801 31.5025 66.2252 31.8574 65.7874 31.8574H56.9553C56.5176 31.8574 56.1627 31.5025 56.1627 31.0648V17.946C56.1627 17.9455 56.1623 17.9451 56.1618 17.9451Z" fill="#7E7367"/>
</svg>
