<svg width="74" height="61" viewBox="0 0 74 61" fill="none" xmlns="http://www.w3.org/2000/svg">
<path d="M0.00700599 37.9201C-0.0569683 37.3857 0.324328 36.9007 0.858666 36.8367L35.1853 32.772L43.7527 31.746L71.6816 28.4526C72.216 28.3886 72.7011 28.7699 72.7651 29.3042L73.3443 34.1419C73.4082 34.6762 73.0269 35.1613 72.4926 35.2253L43.6678 38.6259L30.2739 40.23L1.6696 43.6094C1.13524 43.6734 0.650177 43.2921 0.5862 42.7577L0.00700599 37.9201Z" fill="#1F1F1F"/>
<path d="M16.8399 7.95384C16.5804 7.48237 16.7523 6.88979 17.2237 6.63029L21.4923 4.28084C21.9638 4.02134 22.5564 4.19317 22.8159 4.66463L33.5142 23.5175C33.7737 23.989 33.6019 24.5816 33.1304 24.8411L28.8618 27.1906C28.3904 27.4501 27.7978 27.2782 27.5383 26.8068L16.8399 7.95384ZM36.3903 39.5505C36.1307 39.079 36.3026 38.4864 36.7741 38.2269L41.0427 35.8775C41.5141 35.618 42.1067 35.7898 42.3662 36.2613L43.6678 38.6259L53.3727 56.2572C53.6322 56.7287 53.4603 57.3212 52.9889 57.5807L48.7203 59.9302C48.2488 60.1897 47.6562 60.0179 47.3967 59.5464L37.5561 41.6686L36.3903 39.5505Z" fill="#1F1F1F"/>
<path d="M56.4732 1.75439C56.9778 1.94144 57.2352 2.50215 57.0482 3.00676L56.2015 5.29086L55.8624 6.19844C52.5113 15.0853 48.4517 23.6241 43.7527 31.746C41.7964 35.1274 39.7292 38.4366 37.5561 41.6686C34.7898 45.783 31.852 49.7722 28.7529 53.626C28.4467 54.0068 27.8837 54.0506 27.5205 53.7238L23.713 50.2987C23.3751 49.9948 23.3345 49.4797 23.6187 49.1251C25.9329 46.2371 28.1528 43.2705 30.2739 40.23C31.9754 37.7908 33.6134 35.304 35.1853 32.772C41.0038 23.3998 45.9177 13.4085 49.8055 2.92016L50.6525 0.635913C50.8396 0.13136 51.4003 -0.126019 51.9049 0.0610166L56.4732 1.75439Z" fill="#1F1F1F"/>
</svg>
