<svg width="96" height="73" viewBox="0 0 96 73" fill="none" xmlns="http://www.w3.org/2000/svg">
<path d="M0.00700599 49.9201C-0.0569683 49.3857 0.324328 48.9007 0.858666 48.8367L35.1853 44.772L43.7527 43.746L71.6817 40.4526C72.216 40.3886 72.7011 40.7699 72.7651 41.3042L73.3443 46.1419C73.4082 46.6762 73.0269 47.1613 72.4926 47.2253L43.6678 50.6259L30.2739 52.23L1.6696 55.6094C1.13524 55.6734 0.650177 55.2921 0.5862 54.7577L0.00700599 49.9201Z" fill="#1F1F1F"/>
<path d="M16.8399 19.9538C16.5804 19.4824 16.7523 18.8898 17.2237 18.6303L21.4923 16.2808C21.9638 16.0213 22.5564 16.1932 22.8159 16.6646L33.5142 35.5175C33.7737 35.989 33.6019 36.5816 33.1304 36.8411L28.8618 39.1906C28.3904 39.4501 27.7978 39.2782 27.5383 38.8068L16.8399 19.9538ZM36.3903 51.5505C36.1307 51.079 36.3026 50.4864 36.7741 50.2269L41.0427 47.8775C41.5141 47.618 42.1067 47.7898 42.3662 48.2613L43.6678 50.6259L53.3727 68.2572C53.6322 68.7287 53.4603 69.3212 52.9889 69.5808L48.7203 71.9302C48.2488 72.1897 47.6562 72.0179 47.3967 71.5464L37.5561 53.6686L36.3903 51.5505Z" fill="#1F1F1F"/>
<path d="M56.4732 13.7544C56.9778 13.9414 57.2352 14.5021 57.0482 15.0068L56.2015 17.2909L55.8624 18.1984C52.5113 27.0853 48.4517 35.6241 43.7527 43.746C41.7964 47.1274 39.7292 50.4366 37.5561 53.6686C34.7898 57.783 31.852 61.7722 28.7529 65.626C28.4467 66.0068 27.8837 66.0506 27.5205 65.7238L23.713 62.2987C23.3751 61.9948 23.3345 61.4797 23.6187 61.1251C25.9329 58.2371 28.1528 55.2705 30.2739 52.23C31.9754 49.7908 33.6134 47.304 35.1853 44.772C41.0038 35.3998 45.9177 25.4085 49.8055 14.9202L50.6525 12.6359C50.8396 12.1314 51.4003 11.874 51.9049 12.061L56.4732 13.7544Z" fill="#1F1F1F"/>
<path d="M76.776 16V4.8H78.376V16H76.776ZM73.368 6.336V4.8H81.784V6.336H73.368ZM88.1083 16L88.1243 15.664L92.7643 4.8H94.3003V5.136L89.6603 16H88.1083ZM83.0523 16V4.8H84.6523V16H83.0523ZM88.1243 16L83.4683 5.136V4.8H85.0203L89.6603 15.664V16H88.1243ZM93.1163 16V4.8H94.7163V16H93.1163Z" fill="#1F1F1F"/>
</svg>
