<svg width="38" height="37" viewBox="0 0 38 37" fill="none" xmlns="http://www.w3.org/2000/svg">
<path d="M8.58642 21.9648H15.0282V36.4214H0V19.8659C0 13.0967 1.26904 8.39762 3.62134 5.28283C5.95557 2.19196 9.43376 0.561238 14.0946 0.0910244C14.0942 0.0910609 14.0949 0.0909879 14.0946 0.0910244L15.0282 0V7.2378L14.4353 7.32038L14.432 7.32085C11.985 7.67425 10.3224 8.97886 9.3031 11.0104C8.30679 12.9961 7.93481 15.651 7.93481 18.7402V21.3133V21.9648H8.58642ZM37.2005 7.32038L37.1972 7.32085C34.7501 7.67425 33.0876 8.97886 32.0682 11.0104C31.0719 12.9961 30.7 15.651 30.7 18.7402V21.3133V21.9648H31.3516H37.7934V36.4214H22.7652V19.8659C22.7652 13.0967 24.0341 8.39762 26.3865 5.28283C28.7207 2.19196 32.199 0.561231 36.8597 0.0910205C36.8594 0.0910557 36.8601 0.0909853 36.8597 0.0910205L37.7934 0V7.2378L37.2005 7.32038Z" fill="#C1B4AF"/>
</svg>
