<svg width="35" height="40" viewBox="0 0 35 40" fill="none" xmlns="http://www.w3.org/2000/svg">
<path d="M0.196783 28.5875L0.196783 38.1419C0.196783 39.0085 0.901607 39.7109 1.77105 39.7109H12.5941C13.4636 39.7109 14.1684 39.0085 14.1684 38.1419L14.1684 15.9797C14.1684 15.1131 14.8732 14.4106 15.7427 14.4106H32.8628C33.7323 14.4106 34.4371 13.7082 34.4371 12.8416V2.05469C34.4371 1.18815 33.7323 0.485677 32.8628 0.485677L28.3927 0.485677C27.3489 0.485677 26.3479 0.898942 25.6098 1.63456L1.34951 25.8138C0.611432 26.5495 0.196783 27.5472 0.196783 28.5875Z" fill="#54736C"/>
<path d="M0 2.25081C0 1.16764 0.881029 0.289551 1.96783 0.289551L11.807 0.289551C12.8938 0.289551 13.7748 1.16764 13.7748 2.25081V12.0571C13.7748 13.1403 12.8938 14.0184 11.807 14.0184H1.96783C0.881029 14.0184 0 13.1403 0 12.0571L0 2.25081Z" fill="#54736C"/>
</svg>
