<svg width="34" height="44" viewBox="0 0 34 44" fill="none" xmlns="http://www.w3.org/2000/svg">
<path d="M0.5 42.7143C0.5 43.2863 0.963704 43.75 1.53571 43.75H10.5304C11.1113 43.75 11.5787 43.2722 11.5658 42.6913L11.2913 30.3068C11.2675 29.2352 12.6878 28.8377 13.2237 29.766L21.0343 43.2944C21.197 43.5762 21.4977 43.7498 21.8231 43.7498L32.2269 43.7498C32.9318 43.7498 33.3695 42.9835 33.0114 42.3764L23.0774 25.5301C22.7632 24.9974 22.9854 24.3125 23.5249 24.01C27.3996 21.8376 30.0178 17.6931 30.0178 12.9375C30.0178 5.93039 24.3335 0.25 17.3214 0.25H1.53571C0.963705 0.25 0.5 0.713704 0.5 1.28571V7.59709C0.5 8.1691 0.963705 8.63281 1.53571 8.63281H15.3414C17.7724 8.63281 19.7431 10.6036 19.7431 13.0346C19.7431 15.4656 17.7724 17.4364 15.3414 17.4364H1.53571C0.963704 17.4364 0.5 17.9001 0.5 18.4721V42.7143Z" fill="#54736C"/>
</svg>
