<svg width="36" height="39" viewBox="0 0 36 39" fill="none" xmlns="http://www.w3.org/2000/svg">
<path d="M32.2431 0.252809C32.7375 0.252809 33.1269 0.641555 33.1269 1.10726V10.888C33.1269 11.3537 32.7375 11.7425 32.2431 11.7425H20.2743C19.9079 11.7425 19.5552 11.8842 19.2942 12.1385L9.12773 22.0423C8.78202 22.3791 8.21883 22.3791 7.87312 22.0423L3.81694 18.0909C-2.93206 11.5162 1.83365 0.252809 11.4097 0.252809L32.2431 0.252809ZM3.19618 38.7472C2.70179 38.7472 2.31237 38.3584 2.31237 37.8927L2.31237 28.112C2.31237 27.6463 2.70179 27.2575 3.19618 27.2575L20.5612 27.2575C21.3223 27.2575 21.9506 26.6548 21.9506 25.8975V17.1009C21.9506 16.6316 22.3413 16.2511 22.8196 16.2788C26.1196 16.4703 29.2057 17.5104 31.4614 19.3804C33.7107 21.2452 35.1476 23.9449 35.1476 27.4968C35.1476 33.704 29.9803 38.7472 23.5922 38.7472L3.19618 38.7472Z" fill="#5E5E5E" stroke="#5E5E5E" stroke-width="0.505618"/>
</svg>
