<svg width="39" height="50" viewBox="0 0 39 50" fill="none" xmlns="http://www.w3.org/2000/svg">
<path d="M18.9253 29.9685L17.5269 29.9685C19.9674 29.9685 21.9458 32.1635 21.9458 34.8711C21.9458 37.5787 19.9674 39.7736 17.5269 39.7736L1.82887 39.7736C1.30451 39.7736 0.879428 40.1987 0.879428 40.723L0.879429 48.8006C0.879429 49.3249 1.30451 49.75 1.82887 49.75L37.6436 49.75C38.1679 49.75 38.593 49.3249 38.593 48.8006L38.5937 28.7939L29.5517 28.7939L29.551 21.235C29.5509 20.7107 29.1259 20.2857 28.6016 20.2857L1.82886 20.2857C1.3045 20.2857 0.879427 20.7108 0.879427 21.2351L0.879427 29.0174C0.879428 29.5417 1.30451 29.9668 1.82886 29.9668L15.4452 29.9668L18.9253 29.9685Z" fill="#5E5E5E"/>
<path d="M20.5435 9.93336L21.9418 9.93336C19.5013 9.93336 17.5229 12.1283 17.5229 14.8359C17.5229 17.5435 19.5013 19.7385 21.9418 19.7385L37.6399 19.7384C38.1642 19.7384 38.5893 20.1635 38.5893 20.6879L38.5893 28.7654C38.5893 29.2898 38.1642 29.7148 37.6399 29.7148L1.82517 29.7148C1.30082 29.7148 0.875746 29.2898 0.875727 28.7654L0.875034 9.70825C0.875015 9.18388 1.3001 8.75878 1.82447 8.75878L2.3542 8.75878C6.53117 8.75878 9.91738 5.37286 9.91775 1.19589V1.19589C9.9178 0.673769 10.3411 0.25053 10.8632 0.25053L37.6399 0.250528C38.1642 0.250528 38.5893 0.675606 38.5893 1.19997L38.5893 8.98392C38.5893 9.50828 38.1642 9.93336 37.6399 9.93336L24.0235 9.93336L20.5435 9.93336Z" fill="#5E5E5E"/>
</svg>
