<svg width="34" height="30" viewBox="0 0 34 30" fill="none" xmlns="http://www.w3.org/2000/svg">
<path d="M16.5703 18.7812C25.1696 18.7812 32.1414 11.8102 32.1416 3.21094V1.09863C32.1416 1.04401 32.0966 1 32.042 1H1.09863C1.04416 1.00018 1.00005 1.04412 1 1.09863V3.21094C1.00019 11.8101 7.97115 18.7811 16.5703 18.7812Z" stroke="#838383" stroke-width="2"/>
<path d="M16.5703 11.1875C25.1696 11.1875 32.1414 18.1585 32.1416 26.7578V28.8701C32.1416 28.9247 32.0966 28.9688 32.042 28.9688H1.09863C1.04416 28.9686 1.00005 28.9246 1 28.8701V26.7578C1.00019 18.1587 7.97115 11.1877 16.5703 11.1875Z" stroke="#838383" stroke-width="2"/>
</svg>
