<svg width="97" height="89" viewBox="0 0 97 89" fill="none" xmlns="http://www.w3.org/2000/svg">
<path d="M43.1416 4.07227C43.6645 2.95752 45.2176 2.92251 45.8047 3.96777L45.8584 4.07227L49.792 12.459C50.461 13.885 52.2557 14.3342 53.5137 13.4277L53.6338 13.3359L60.8174 7.48633C61.7722 6.70894 63.1863 7.35137 63.2617 8.54785L63.2646 8.66504L63.1699 17.9277C63.1539 19.5031 64.5766 20.6874 66.1035 20.416L66.251 20.3848L75.2607 18.2314C76.4581 17.9453 77.4536 19.1375 77.0029 20.248L76.9541 20.3555L72.8506 28.6602C72.1527 30.0723 72.9201 31.7554 74.4131 32.1738L74.5605 32.2109L83.6123 34.1797C84.8151 34.4415 85.1943 35.9469 84.3066 36.752L84.2168 36.8281L76.916 42.5293C75.6745 43.4989 75.6349 45.3494 76.7988 46.374L76.916 46.4707L84.2168 52.1719C85.1871 52.9298 84.8753 54.4513 83.7256 54.791L83.6123 54.8203L74.5605 56.7891C73.0213 57.124 72.1832 58.774 72.7871 60.2021L72.8506 60.3398L76.9541 68.6445C77.4996 69.7484 76.5593 70.9837 75.376 70.791L75.2607 70.7686L66.251 68.6152C64.7188 68.2492 63.2482 69.372 63.1729 70.9209L63.1699 71.0723L63.2646 80.335C63.2772 81.5662 61.8936 82.2709 60.9111 81.584L60.8174 81.5137L53.6338 75.6641C52.4122 74.6697 50.6002 75.0436 49.8604 76.4062L49.792 76.541L45.8584 84.9277C45.3355 86.0425 43.7824 86.0775 43.1953 85.0322L43.1416 84.9277L39.208 76.541C38.539 75.115 36.7443 74.6658 35.4863 75.5723L35.3662 75.6641L28.1826 81.5137C27.2278 82.2911 25.8137 81.6486 25.7383 80.4521L25.7354 80.335L25.8301 71.0723C25.8461 69.4969 24.4234 68.3126 22.8965 68.584L22.749 68.6152L13.7393 70.7686C12.5419 71.0547 11.5464 69.8625 11.9971 68.752L12.0459 68.6445L16.1494 60.3398C16.8472 58.9277 16.0799 57.2446 14.5869 56.8262L14.4395 56.7891L5.3877 54.8203C4.18492 54.5585 3.80569 53.0531 4.69336 52.248L4.7832 52.1719L12.084 46.4707C13.3255 45.5011 13.3651 43.6506 12.2012 42.626L12.084 42.5293L4.7832 36.8281C3.81292 36.0702 4.12475 34.5487 5.27441 34.209L5.3877 34.1797L14.4395 32.2109C15.9787 31.876 16.8168 30.226 16.2129 28.7979L16.1494 28.6602L12.0459 20.3555C11.5004 19.2516 12.4408 18.0163 13.624 18.209L13.7393 18.2314L22.749 20.3848C24.2812 20.7508 25.7518 19.628 25.8271 18.0791L25.8301 17.9277L25.7354 8.66504C25.7228 7.43382 27.1064 6.72906 28.0889 7.41602L28.1826 7.48633L35.3662 13.3359C36.5878 14.3303 38.3998 13.9564 39.1396 12.5938L39.208 12.459L43.1416 4.07227Z" stroke="black"/>
</svg>
