<svg width="97" height="100" viewBox="0 0 97 100" fill="none" xmlns="http://www.w3.org/2000/svg">
<mask id="path-1-inside-1_8549_101755" fill="white">
<path d="M20.2441 78C9.06402 78 0.000977091 65.9156 0.000977742 51.0088C0.000986023 36.102 9.06403 24.0176 20.2441 24.0176C26.0658 24.0176 31.3119 27.2954 35.0049 32.541C38.6978 27.2954 43.9439 24.0176 49.7656 24.0176C54.9509 24.0176 59.6801 26.6177 63.2617 30.8926C66.8433 26.6181 71.5718 24.0176 76.7568 24.0176C87.9368 24.0177 97 36.1021 97 51.0088C97 65.9155 87.9368 77.9998 76.7568 78C71.572 78 66.8432 75.4002 63.2617 71.126C59.6802 75.4005 54.9507 78 49.7656 78C43.9442 78 38.6978 74.7227 35.0049 69.4775C31.312 74.7228 26.0656 78 20.2441 78Z"/>
</mask>
<path d="M20.2441 78L20.2441 79L20.2441 78ZM0.000977742 51.0088L-0.999022 51.0088L0.000977742 51.0088ZM20.2441 24.0176L20.2441 23.0176L20.2441 24.0176ZM35.0049 32.541L34.1872 33.1167L35.0049 34.2781L35.8226 33.1167L35.0049 32.541ZM49.7656 24.0176L49.7656 23.0176L49.7656 23.0176L49.7656 24.0176ZM63.2617 30.8926L62.4952 31.5348L63.2617 32.4497L64.0282 31.5348L63.2617 30.8926ZM76.7568 24.0176L76.7569 23.0176L76.7568 23.0176L76.7568 24.0176ZM97 51.0088L98 51.0088L97 51.0088ZM76.7568 78L76.7568 79L76.7569 79L76.7568 78ZM63.2617 71.126L64.0282 70.4837L63.2617 69.5689L62.4952 70.4837L63.2617 71.126ZM49.7656 78L49.7656 79L49.7656 79L49.7656 78ZM35.0049 69.4775L35.8226 68.9018L35.0049 67.7405L34.1872 68.9019L35.0049 69.4775ZM20.2441 78L20.2441 77C15.0394 77 10.2512 74.1895 6.73002 69.4945C3.20858 64.7991 1.00098 58.2668 1.00098 51.0088L0.000977742 51.0088L-0.999022 51.0088C-0.999023 58.6576 1.3249 65.6209 5.13001 70.6944C8.93536 75.7683 14.2688 79 20.2441 79L20.2441 78ZM0.000977742 51.0088L1.00098 51.0088C1.00098 43.7508 3.20858 37.2184 6.73002 32.5231C10.2512 27.8281 15.0394 25.0176 20.2441 25.0176L20.2441 24.0176L20.2441 23.0176C14.2688 23.0176 8.93536 26.2493 5.13001 31.3231C1.3249 36.3967 -0.999022 43.3599 -0.999022 51.0088L0.000977742 51.0088ZM20.2441 24.0176L20.2441 25.0176C25.6633 25.0176 30.6322 28.067 34.1872 33.1167L35.0049 32.541L35.8226 31.9654C31.9916 26.5238 26.4684 23.0176 20.2441 23.0176L20.2441 24.0176ZM35.0049 32.541L35.8226 33.1167C39.3776 28.0671 44.3465 25.0176 49.7656 25.0176L49.7656 24.0176L49.7656 23.0176C43.5414 23.0176 38.0181 26.5238 34.1872 31.9653L35.0049 32.541ZM49.7656 24.0176L49.7656 25.0176C54.5951 25.0176 59.0614 27.4363 62.4952 31.5348L63.2617 30.8926L64.0282 30.2504C60.2989 25.7991 55.3068 23.0176 49.7656 23.0176L49.7656 24.0176ZM63.2617 30.8926L64.0282 31.5348C67.462 27.4366 71.9277 25.0176 76.7568 25.0176L76.7568 24.0176L76.7568 23.0176C71.2159 23.0176 66.2245 25.7995 62.4952 30.2503L63.2617 30.8926ZM76.7568 24.0176L76.7568 25.0176C81.9615 25.0177 86.7497 27.8282 90.2709 32.5232C93.7924 37.2185 96 43.7509 96 51.0088L97 51.0088L98 51.0088C98 43.36 95.676 36.3968 91.8709 31.3232C88.0656 26.2494 82.7322 23.0177 76.7569 23.0176L76.7568 24.0176ZM97 51.0088L96 51.0088C96 58.2667 93.7924 64.799 90.2709 69.4944C86.7497 74.1894 81.9615 76.9999 76.7568 77L76.7568 78L76.7569 79C82.7322 78.9999 88.0656 75.7682 91.8709 70.6943C95.6761 65.6208 98 58.6576 98 51.0088L97 51.0088ZM76.7568 78L76.7568 77C71.9278 77 67.4619 74.5815 64.0282 70.4837L63.2617 71.126L62.4952 71.7682C66.2245 76.2188 71.2162 79 76.7568 79L76.7568 78ZM63.2617 71.126L62.4952 70.4837C59.0615 74.5818 54.595 77 49.7656 77L49.7656 78L49.7656 79C55.3064 79 60.2988 76.2192 64.0282 71.7682L63.2617 71.126ZM49.7656 78L49.7656 77C44.3466 77 39.3775 73.951 35.8226 68.9018L35.0049 69.4775L34.1872 70.0532C38.0182 75.4945 43.5417 79 49.7656 79L49.7656 78ZM35.0049 69.4775L34.1872 68.9019C30.6323 73.951 25.6631 77 20.2441 77L20.2441 78L20.2441 79C26.4681 79 31.9916 75.4945 35.8226 70.0532L35.0049 69.4775Z" fill="black" mask="url(#path-1-inside-1_8549_101755)"/>
</svg>
