<svg width="951" height="1189" viewBox="0 0 951 1189" fill="none" xmlns="http://www.w3.org/2000/svg">
<g clip-path="url(#clip0_3714_8784)">
<g opacity="0.6">
<path d="M448.931 1113.5L449.061 1114.09L449.061 1114.09L448.931 1113.5ZM225.708 1081.91L225.437 1082.45L225.708 1081.91ZM67.1513 921.637L67.703 921.39L67.703 921.39L67.1513 921.637ZM225.703 1081.91L225.668 1081.3L225.668 1081.3L225.703 1081.91ZM225.707 1081.91L226.212 1081.57L226.212 1081.57L225.707 1081.91ZM413.693 706.509L225.168 1081.64L226.249 1082.18L414.774 707.052L413.693 706.509ZM448.8 1112.91C374.687 1129.28 294.962 1116.03 225.98 1081.37L225.437 1082.45C294.631 1117.22 374.639 1130.53 449.061 1114.09L448.8 1112.91ZM225.98 1081.37C156.998 1046.7 98.796 990.627 67.703 921.39L66.5997 921.885C97.8221 991.41 156.242 1047.67 225.437 1082.45L225.98 1081.37ZM67.703 921.39C36.6128 852.159 38.5176 782.89 66.6798 726.853L65.5991 726.31C37.259 782.701 35.3742 852.353 66.5997 921.885L67.703 921.39ZM605.517 997.651C577.354 1053.69 522.907 1096.55 448.8 1112.91L449.061 1114.09C523.49 1097.66 578.257 1054.59 606.597 998.194L605.517 997.651ZM581.063 847.798C550.638 908.337 495.646 964.764 431.306 1007.04C366.965 1049.31 293.333 1077.39 225.668 1081.3L225.738 1082.51C293.665 1078.59 367.499 1050.41 431.97 1008.05C496.44 965.689 551.601 909.114 582.143 848.341L581.063 847.798ZM225.668 1081.3C158.247 1085.2 109.587 1064.36 85.2064 1027.67L84.1991 1028.34C108.902 1065.51 158.064 1086.42 225.738 1082.51L225.668 1081.3ZM226.212 1081.57C188.971 1024.94 167.569 949.101 163.098 872.246C158.627 795.391 171.091 717.591 201.516 657.052L200.435 656.509C169.893 717.282 157.41 795.305 161.89 872.316C166.37 949.327 187.817 1025.39 225.201 1082.24L226.212 1081.57ZM353.023 1162.29C309.047 1164.6 263.307 1137.98 226.212 1081.57L225.201 1082.24C262.435 1138.86 308.531 1165.83 353.086 1163.5L353.023 1162.29Z" fill="#616B68"/>
<path d="M85.2102 1027.67C60.6508 990.712 60.5889 937.465 91.1263 876.701L90.0456 876.158C59.3934 937.15 59.3183 990.892 84.2029 1028.34L85.2102 1027.67ZM470.675 1067.45C440.128 1128.23 397.346 1159.96 353.021 1162.28L353.085 1163.49C397.997 1161.13 441.094 1129 471.756 1067.99L470.675 1067.45ZM257.288 1017.71L200.325 1131.05L201.406 1131.6L258.368 1018.25L257.288 1017.71Z" fill="white"/>
<path d="M200.58 656.177L200.51 654.97L200.51 654.97L200.58 656.177ZM414.386 706.478L413.843 707.559L413.843 707.559L414.386 706.478ZM582.332 848.03L581.322 848.695L581.322 848.695L582.332 848.03ZM471.616 1068.33L471.685 1069.54L471.685 1069.54L471.616 1068.33ZM89.8636 876.479L90.8742 875.815L90.8742 875.815L89.8636 876.479ZM200.65 657.385C268.384 653.472 344.899 672.91 413.843 707.559L414.929 705.397C345.706 670.609 268.768 651.027 200.51 654.97L200.65 657.385ZM413.843 707.559C482.787 742.207 544.043 792.007 581.322 848.695L583.343 847.366C545.776 790.24 484.152 740.186 414.929 705.397L413.843 707.559ZM67.2402 727.136C87.0131 687.792 132.908 661.298 200.65 657.385L200.51 654.97C132.261 658.912 85.3768 685.661 65.0789 726.05L67.2402 727.136ZM581.322 848.695C618.604 905.389 624.731 958.028 604.958 997.372L607.119 998.458C627.417 958.069 620.905 904.485 583.343 847.366L581.322 848.695ZM604.971 997.381C530.684 1145.2 350.083 1204.54 201.581 1129.91L200.495 1132.07C350.181 1207.29 532.241 1147.49 607.132 998.467L604.971 997.381ZM201.581 1129.91C53.0792 1055.27 -7.07169 874.942 67.2147 727.126L65.0533 726.04C-9.83761 875.058 50.8086 1056.84 200.495 1132.07L201.581 1129.91ZM471.546 1067.13C403.812 1071.04 327.297 1051.6 258.353 1016.95L257.267 1019.11C326.49 1053.9 403.428 1073.48 471.685 1069.54L471.546 1067.13ZM258.353 1016.95C189.409 982.302 128.153 932.502 90.8742 875.815L88.8531 877.144C126.42 934.269 188.044 984.324 257.267 1019.11L258.353 1016.95ZM90.8742 875.815C53.5914 819.12 47.4653 766.482 67.2381 727.138L65.0768 726.051C44.7788 766.44 51.2909 820.025 88.8531 877.144L90.8742 875.815ZM604.956 997.373C585.183 1036.72 539.287 1063.21 471.546 1067.13L471.685 1069.54C539.935 1065.6 586.819 1038.85 607.117 998.459L604.956 997.373Z" fill="white"/>
<path d="M410.47 541.172L194.578 942.114" stroke="url(#paint0_linear_3714_8784)" stroke-width="2.41895" stroke-linecap="round"/>
<path d="M602.169 610.719L489.687 821.168" stroke="url(#paint1_linear_3714_8784)" stroke-width="2.41895" stroke-linecap="round"/>
<path d="M207.88 647L95.3984 857.449" stroke="url(#paint2_linear_3714_8784)" stroke-width="2.41895" stroke-linecap="round"/>
<path d="M302.829 404.5L112.336 752.225" stroke="url(#paint3_linear_3714_8784)" stroke-width="2.41895" stroke-linecap="round"/>
<path d="M680.18 624.023L489.687 971.748" stroke="url(#paint4_linear_3714_8784)" stroke-width="2.41895" stroke-linecap="round"/>
<path d="M629.377 809.07L478.797 1073.95" stroke="url(#paint5_linear_3714_8784)" stroke-width="2.41895" stroke-linecap="round"/>
</g>
<g opacity="0.6">
<path d="M827.909 222.587C852.398 259.67 852.307 313.219 821.548 374.424L822.628 374.967C853.5 313.538 853.731 259.494 828.919 221.921L827.909 222.587ZM442.239 183.8C473.001 122.59 515.922 90.5618 560.296 88.0898L560.229 86.8822C515.268 89.3869 472.034 121.822 441.159 183.257L442.239 183.8Z" fill="#616B68"/>
<path d="M306.544 254.132C326.719 213.988 373.231 187.081 441.299 182.925C509.367 178.769 586.103 198.151 655.142 232.848C724.182 267.544 785.525 317.555 822.807 374.656C860.09 431.757 866.253 485.137 846.079 525.28" stroke="#616B68" stroke-width="2.41895" stroke-linejoin="round"/>
<path d="M687.432 168.656C565.275 174.704 397.157 270.857 330.031 405.109C372.363 464.978 410.479 496.205 498.149 546.618L687.432 168.656Z" fill="#8E9684"/>
<path d="M463.607 137.261L463.74 137.851L463.74 137.851L463.607 137.261ZM686.931 168.351L687.203 167.811L686.931 168.351ZM845.143 329.006L845.695 328.76L845.695 328.76L845.143 329.006ZM686.926 168.352L686.963 168.956L686.963 168.956L686.926 168.352ZM686.929 168.35L687.436 168.02L687.436 168.02L686.929 168.35ZM463.74 137.851C537.969 121.172 617.723 134.246 686.66 168.891L687.203 167.811C618.051 133.058 538.012 119.923 463.474 136.671L463.74 137.851ZM686.66 168.891C755.597 203.536 813.68 259.733 844.59 329.251L845.695 328.76C814.656 258.953 756.355 202.563 687.203 167.811L686.66 168.891ZM306.529 254.219C334.889 197.789 389.517 154.528 463.74 137.851L463.474 136.671C388.929 153.421 333.984 196.895 305.449 253.675L306.529 254.219ZM844.59 329.251C875.497 398.763 873.381 468.414 845.022 524.843L846.102 525.386C874.638 468.606 876.737 398.574 845.695 328.76L844.59 329.251ZM330.538 404.809C361.175 343.848 416.389 286.947 480.916 244.249C545.443 201.551 619.226 173.091 686.963 168.956L686.89 167.748C618.89 171.9 544.905 200.457 480.248 243.241C415.592 286.025 360.211 343.073 329.458 404.266L330.538 404.809ZM686.963 168.956C754.438 164.836 803.067 185.626 827.364 222.418L828.373 221.751C803.754 184.471 754.618 163.613 686.89 167.748L686.963 168.956ZM686.423 168.681C723.524 225.504 744.715 301.694 748.957 378.953C753.198 456.211 740.485 534.472 709.849 595.433L710.93 595.976C741.683 534.782 754.414 456.3 750.164 378.886C745.914 301.473 724.681 225.063 687.436 168.02L686.423 168.681ZM559.754 87.9179C603.772 85.4658 649.469 112.083 686.423 168.681L687.436 168.02C650.342 111.209 604.289 84.2257 559.687 86.7103L559.754 87.9179ZM711.402 118.312L496.471 545.984L497.552 546.527L712.482 118.855L711.402 118.312Z" fill="white"/>
<path d="M711.327 596.488L711.253 595.281L711.253 595.281L711.327 596.488ZM497.483 546.565L496.94 547.646L496.94 547.646L497.483 546.565ZM329.818 404.757L330.831 404.096L330.831 404.096L329.818 404.757ZM711.253 595.281C643.448 599.421 566.925 580.11 498.026 545.485L496.94 547.646C566.12 582.413 643.069 601.867 711.4 597.695L711.253 595.281ZM498.026 545.485C429.128 510.859 367.969 460.976 330.831 404.096L328.805 405.418C366.232 462.74 427.76 512.879 496.94 547.646L498.026 545.485ZM330.831 404.096C293.689 347.21 287.713 294.301 307.628 254.676L305.466 253.59C285.031 294.252 291.382 348.102 328.805 405.418L330.831 404.096ZM845.001 524.738C825.087 564.363 779.064 591.141 711.253 595.281L711.4 597.695C779.725 593.524 826.727 566.486 847.162 525.825L845.001 524.738ZM307.611 254.666C382.42 105.812 563.368 45.6086 711.767 120.188L712.853 118.027C563.254 42.8443 380.855 103.538 305.45 253.58L307.611 254.666ZM711.767 120.188C860.166 194.768 919.831 375.894 845.023 524.748L847.184 525.834C922.589 375.792 862.452 193.209 712.853 118.027L711.767 120.188Z" fill="white"/>
<path d="M327.611 220.057C270.739 290.014 303.422 370.839 330.03 403.898C436.464 221.872 581.601 192.239 686.221 167.445C528.989 96.0859 395.948 135.999 327.611 220.057Z" fill="#D9D9D9" fill-opacity="0.52"/>
<path d="M816.245 207.359C780.929 170.108 716.867 166.439 689.25 169.261C837.774 243.765 887.604 383.338 862.81 490.377C902.723 371.848 860.391 253.924 816.245 207.359Z" fill="#B7A694"/>
</g>
<path d="M226.016 1083.63L416.508 705.664C477.95 739.529 560.436 803.027 582.811 848.987C477.829 1025.57 301.205 1078.99 226.016 1083.63Z" fill="#FCF8EF" fill-opacity="0.12"/>
</g>
<defs>
<linearGradient id="paint0_linear_3714_8784" x1="315.526" y1="718.36" x2="202.44" y2="928.205" gradientUnits="userSpaceOnUse">
<stop stop-color="#7D8276"/>
<stop offset="1" stop-opacity="0"/>
</linearGradient>
<linearGradient id="paint1_linear_3714_8784" x1="552.702" y1="703.723" x2="493.104" y2="813.498" gradientUnits="userSpaceOnUse">
<stop stop-color="#55493D"/>
<stop offset="1" stop-opacity="0"/>
</linearGradient>
<linearGradient id="paint2_linear_3714_8784" x1="158.413" y1="740.004" x2="98.8145" y2="849.779" gradientUnits="userSpaceOnUse">
<stop stop-color="#54736C"/>
<stop offset="1" stop-opacity="0"/>
</linearGradient>
<linearGradient id="paint3_linear_3714_8784" x1="175.351" y1="634.78" x2="115.752" y2="744.555" gradientUnits="userSpaceOnUse">
<stop stop-color="white"/>
<stop offset="1" stop-opacity="0"/>
</linearGradient>
<linearGradient id="paint4_linear_3714_8784" x1="552.702" y1="854.303" x2="493.103" y2="964.078" gradientUnits="userSpaceOnUse">
<stop stop-color="white"/>
<stop offset="1" stop-opacity="0"/>
</linearGradient>
<linearGradient id="paint5_linear_3714_8784" x1="541.812" y1="956.501" x2="482.213" y2="1066.28" gradientUnits="userSpaceOnUse">
<stop stop-color="white"/>
<stop offset="1" stop-opacity="0"/>
</linearGradient>
<clipPath id="clip0_3714_8784">
<rect width="951" height="1189" rx="24" fill="white"/>
</clipPath>
</defs>
</svg>
