<svg width="506" height="610" viewBox="0 0 506 610" fill="none" xmlns="http://www.w3.org/2000/svg">
<g opacity="0.52">
<g opacity="0.6">
<path d="M220.961 551.259L220.93 550.953L220.93 550.953L220.961 551.259ZM110.025 521.981L109.856 522.237L109.856 522.237L110.025 521.981ZM39.4433 431.526L39.7367 431.433L39.7367 431.433L39.4433 431.526ZM110.024 521.979L110.006 522.287L110.006 522.287L110.024 521.979ZM110.027 521.979L109.752 522.116L109.752 522.116L110.027 521.979ZM227.413 343.454L109.766 521.81L110.279 522.149L227.927 343.793L227.413 343.454ZM220.93 550.953C182.497 554.805 142.992 543.358 110.195 521.724L109.856 522.237C142.755 543.938 182.398 555.434 220.992 551.565L220.93 550.953ZM110.195 521.724C77.3969 500.09 51.3238 468.281 39.7367 431.433L39.1498 431.618C50.785 468.619 76.9571 500.537 109.856 522.237L110.195 521.724ZM39.7367 431.433C28.1507 394.59 33.2431 359.694 50.8176 333.051L50.304 332.712C32.6185 359.523 27.5134 394.614 39.1498 431.618L39.7367 431.433ZM307.009 502.04C289.435 528.684 259.36 547.101 220.93 550.953L220.992 551.565C259.589 547.696 289.837 529.191 307.523 502.379L307.009 502.04ZM303.585 424.844C284.599 453.627 253.441 478.868 218.402 496.397C183.364 513.927 144.475 523.731 110.043 521.672L110.006 522.287C144.571 524.353 183.568 514.513 218.678 496.948C253.787 479.383 285.039 454.077 304.099 425.183L303.585 424.844ZM110.043 521.672C75.7349 519.621 52.3839 506.189 42.2486 486.193L41.6998 486.471C51.9687 506.73 75.5695 520.228 110.006 522.287L110.043 521.672ZM110.303 521.841C94.8568 490.999 88.5613 451.39 90.8836 412.28C93.2059 373.17 104.144 334.592 123.13 305.808L122.616 305.47C103.557 334.364 92.5964 373.054 90.2694 412.244C87.9424 451.433 94.2469 491.155 109.752 522.116L110.303 521.841ZM169.583 570.195C147.219 568.74 125.688 552.562 110.303 521.841L109.752 522.116C125.195 552.953 146.884 569.335 169.543 570.809L169.583 570.195Z" fill="#616B68"/>
<path d="M42.2507 486.188C32.0413 466.046 35.1845 439.13 54.2412 410.24L53.7276 409.901C34.5993 438.9 31.3574 466.057 41.7019 486.466L42.2507 486.188ZM234.699 529.277C215.637 558.177 192.123 571.66 169.581 570.194L169.541 570.808C192.381 572.294 216.079 558.624 235.213 529.616L234.699 529.277ZM129.814 491.417L94.2663 545.307L94.7799 545.646L130.327 491.755L129.814 491.417Z" fill="white"/>
<path d="M122.704 305.306L122.667 305.921L122.667 305.921L122.704 305.306ZM227.765 343.476L227.426 343.989L227.426 343.989L227.765 343.476ZM304.208 425.031L304.759 424.756L304.759 424.756L304.208 425.031ZM94.635 545.307L94.2962 545.82L94.635 545.307ZM235.121 529.772L235.157 529.158L235.157 529.158L235.121 529.772ZM53.6158 410.047L54.166 409.772L54.166 409.772L53.6158 410.047ZM122.667 305.921C157.134 307.981 194.647 322.367 227.426 343.989L228.104 342.962C195.192 321.253 157.473 306.769 122.74 304.692L122.667 305.921ZM227.426 343.989C260.206 365.612 288.197 394.433 303.658 425.307L304.759 424.756C289.178 393.644 261.016 364.672 228.104 342.962L227.426 343.989ZM51.081 333.221C63.4202 314.514 88.196 303.86 122.667 305.921L122.74 304.692C88.0112 302.616 62.7205 313.34 50.0538 332.543L51.081 333.221ZM303.658 425.307C319.122 456.184 319.08 483.153 306.74 501.86L307.768 502.537C320.434 483.334 320.338 455.864 304.759 424.756L303.658 425.307ZM306.754 501.862C260.396 572.142 165.579 591.366 94.9738 544.793L94.2962 545.82C165.465 592.765 261.046 573.391 307.781 502.54L306.754 501.862ZM94.9738 544.793C24.3681 498.22 4.7181 403.491 51.0761 333.211L50.0489 332.534C3.31377 403.385 23.1276 498.876 94.2962 545.82L94.9738 544.793ZM235.157 529.158C200.691 527.097 163.178 512.711 130.398 491.089L129.72 492.116C162.632 513.826 200.351 528.31 235.084 530.386L235.157 529.158ZM130.398 491.089C97.6182 469.467 69.6274 440.645 54.166 409.772L53.0657 410.323C68.6466 441.435 96.8082 470.407 129.72 492.116L130.398 491.089ZM54.166 409.772C38.7027 378.895 38.7447 351.925 51.0839 333.219L50.0567 332.541C37.39 351.744 37.4866 379.215 53.0657 410.323L54.166 409.772ZM306.743 501.858C294.404 520.564 269.628 531.219 235.157 529.158L235.084 530.386C269.813 532.463 295.104 521.738 307.771 502.535L306.743 501.858Z" fill="white"/>
<path d="M235.646 259.691L102.628 449.462" stroke="url(#paint0_linear_3724_2)" stroke-width="1.23105" stroke-linecap="round"/>
<path d="M328.381 306.276L258.985 405.934" stroke="url(#paint1_linear_3724_2)" stroke-width="1.23105" stroke-linecap="round"/>
<path d="M126.943 301.112L57.5471 400.77" stroke="url(#paint2_linear_3724_2)" stroke-width="1.23105" stroke-linecap="round"/>
<path d="M189.387 184.201L72.3786 348.589" stroke="url(#paint3_linear_3724_2)" stroke-width="1.23105" stroke-linecap="round"/>
<path d="M367.02 317.646L250.011 482.034" stroke="url(#paint4_linear_3724_2)" stroke-width="1.23105" stroke-linecap="round"/>
<path d="M330.316 408.149L238.42 533.044" stroke="url(#paint5_linear_3724_2)" stroke-width="1.23105" stroke-linecap="round"/>
</g>
<g opacity="0.6">
<path d="M465.616 123.568C475.782 143.77 472.543 170.829 453.348 199.929L453.862 200.268C473.127 171.061 476.466 143.761 466.165 123.291L465.616 123.568ZM273.009 80.9694C292.206 51.8669 315.808 38.2385 338.383 39.6346L338.421 39.0205C315.548 37.6059 291.763 51.4212 272.496 80.6306L273.009 80.9694Z" fill="#616B68"/>
<path d="M200.236 108.43C212.826 89.3438 237.938 78.5175 272.588 80.4751C307.238 82.4327 344.866 96.8036 377.691 118.456C410.516 140.108 438.538 169.041 453.977 200.123C469.416 231.206 469.348 258.552 456.759 277.638" stroke="#616B68" stroke-width="1.23105" stroke-linejoin="round"/>
<path d="M286.58 58.7251L286.611 59.0311L286.611 59.0311L286.58 58.7251ZM397.597 87.7526L397.767 87.4958L397.597 87.7526ZM467.982 178.382L468.275 178.291L468.275 178.291L467.982 178.382ZM397.597 87.7528L397.58 88.06L397.58 88.06L397.597 87.7528ZM397.594 87.7534L397.318 87.8903L397.594 87.7534ZM286.611 59.0311C325.122 55.0267 364.652 66.3895 397.428 88.0094L397.767 87.4958C364.888 65.8087 325.219 54.3981 286.548 58.4191L286.611 59.0311ZM397.428 88.0094C430.204 109.629 456.21 141.495 467.688 178.473L468.275 178.291C456.75 141.159 430.645 109.183 397.767 87.4958L397.428 88.0094ZM200.217 108.472C217.915 81.6428 248.104 63.035 286.611 59.0311L286.548 58.4191C247.873 62.4405 217.511 81.1373 199.704 108.134L200.217 108.472ZM467.688 178.473C479.165 215.448 473.942 250.525 456.245 277.354L456.759 277.693C474.566 250.697 479.802 215.426 468.275 178.291L467.688 178.473ZM203.377 186.014C222.495 157.03 253.794 131.564 288.952 113.83C324.11 96.0968 363.098 86.1119 397.58 88.06L397.615 87.4457C362.999 85.49 323.904 95.5119 288.675 113.281C253.446 131.05 222.054 156.581 202.863 185.675L203.377 186.014ZM397.58 88.06C431.928 90.0006 455.267 103.407 465.353 123.451L465.903 123.174C455.683 102.865 432.092 89.3936 397.615 87.4457L397.58 88.06ZM397.318 87.8903C412.682 118.821 418.85 158.592 416.388 197.893C413.925 237.193 402.834 275.989 383.716 304.973L384.229 305.312C403.421 276.217 414.534 237.31 417.002 197.931C419.469 158.552 413.293 118.668 397.869 87.6165L397.318 87.8903ZM338.113 39.5196C360.507 40.9046 382.015 57.0817 397.318 87.8903L397.869 87.6165C382.509 56.692 360.842 40.3088 338.151 38.9055L338.113 39.5196ZM412.953 63.9185L278.827 267.256L279.34 267.595L413.466 64.2573L412.953 63.9185Z" fill="white"/>
<path d="M384.405 305.593L384.37 306.207L384.37 306.207L384.405 305.593ZM203.016 185.945L202.465 186.218L203.016 185.945ZM384.44 304.979C349.923 303.029 312.399 288.707 279.641 267.099L278.963 268.126C311.855 289.822 349.586 304.242 384.37 306.207L384.44 304.979ZM279.641 267.099C246.883 245.491 218.946 216.633 203.567 185.671L202.465 186.218C217.964 217.421 246.071 246.43 278.963 268.126L279.641 267.099ZM203.567 185.671C188.186 154.706 188.321 127.608 200.748 108.768L199.721 108.091C186.968 127.424 186.968 155.019 202.465 186.218L203.567 185.671ZM456.244 277.299C443.816 296.139 418.959 306.929 384.44 304.979L384.37 306.207C419.151 308.172 444.519 297.31 457.271 277.977L456.244 277.299ZM200.742 108.762C247.426 37.9884 342.469 18.3486 413.026 64.8895L413.703 63.8623C342.576 16.9452 246.771 36.7464 199.715 108.084L200.742 108.762ZM413.026 64.8895C483.582 111.43 502.94 206.531 456.256 277.305L457.283 277.982C504.339 206.644 484.83 110.779 413.703 63.8623L413.026 64.8895Z" fill="white"/>
</g>
</g>
<defs>
<linearGradient id="paint0_linear_3724_2" x1="177.096" y1="343.585" x2="107.431" y2="442.901" gradientUnits="userSpaceOnUse">
<stop stop-color="#7D8276"/>
<stop offset="1" stop-opacity="0"/>
</linearGradient>
<linearGradient id="paint1_linear_3724_2" x1="297.835" y1="350.333" x2="261.168" y2="402.261" gradientUnits="userSpaceOnUse">
<stop stop-color="#55493D"/>
<stop offset="1" stop-opacity="0"/>
</linearGradient>
<linearGradient id="paint2_linear_3724_2" x1="96.3976" y1="345.169" x2="59.7309" y2="397.097" gradientUnits="userSpaceOnUse">
<stop stop-color="#54736C"/>
<stop offset="1" stop-opacity="0"/>
</linearGradient>
<linearGradient id="paint3_linear_3724_2" x1="111.229" y1="292.987" x2="74.5624" y2="344.916" gradientUnits="userSpaceOnUse">
<stop stop-color="white"/>
<stop offset="1" stop-opacity="0"/>
</linearGradient>
<linearGradient id="paint4_linear_3724_2" x1="288.862" y1="426.432" x2="252.195" y2="478.361" gradientUnits="userSpaceOnUse">
<stop stop-color="white"/>
<stop offset="1" stop-opacity="0"/>
</linearGradient>
<linearGradient id="paint5_linear_3724_2" x1="277.27" y1="477.442" x2="240.603" y2="529.371" gradientUnits="userSpaceOnUse">
<stop stop-color="white"/>
<stop offset="1" stop-opacity="0"/>
</linearGradient>
</defs>
</svg>
