<svg width="73" height="75" viewBox="0 0 73 75" fill="none" xmlns="http://www.w3.org/2000/svg">
<path d="M35.1416 2.07227C35.6645 0.957523 37.2176 0.922511 37.8047 1.96777L37.8584 2.07227L41.0244 8.82227C41.6934 10.2484 43.4881 10.6977 44.7461 9.79102L44.8662 9.69922L50.6484 4.99121C51.6033 4.21415 53.0164 4.85636 53.0918 6.05273L53.0947 6.16992L53.0195 13.625C53.0035 15.2003 54.4253 16.3844 55.9521 16.1133L56.1006 16.082L63.3516 14.3496C64.5489 14.0635 65.5442 15.2547 65.0938 16.3652L65.0449 16.4727L61.7422 23.1572C61.0443 24.5696 61.8122 26.2529 63.3057 26.6709L63.4521 26.707L70.7373 28.293C71.9405 28.5547 72.32 30.0603 71.4316 30.8652L71.3418 30.9404L65.4658 35.5293C64.2241 36.499 64.1853 38.3494 65.3496 39.374L65.4658 39.4707L71.3418 44.0596C72.312 44.8174 72.0009 46.3387 70.8516 46.6787L70.7373 46.707L63.4521 48.293C61.9128 48.6279 61.0756 50.2769 61.6797 51.7051L61.7422 51.8428L65.0449 58.5273C65.5904 59.6312 64.6501 60.8665 63.4668 60.6738L63.3516 60.6504L56.1006 58.918C54.5683 58.5518 53.0978 59.6747 53.0225 61.2236L53.0195 61.375L53.0947 68.8301C53.1072 70.0612 51.7246 70.7657 50.7422 70.0791L50.6484 70.0088L44.8662 65.3008C43.6446 64.3062 41.8327 64.6801 41.0928 66.043L41.0244 66.1777L37.8584 72.9277C37.3355 74.0425 35.7824 74.0775 35.1953 73.0322L35.1416 72.9277L31.9756 66.1777C31.3066 64.7516 29.5119 64.3023 28.2539 65.209L28.1338 65.3008L22.3516 70.0088C21.3967 70.7858 19.9836 70.1436 19.9082 68.9473L19.9053 68.8301L19.9805 61.375C19.9965 59.7997 18.5747 58.6156 17.0479 58.8867L16.8994 58.918L9.64844 60.6504C8.45112 60.9365 7.45582 59.7453 7.90625 58.6348L7.95508 58.5273L11.2578 51.8428C11.9557 50.4304 11.1878 48.7471 9.69434 48.3291L9.54785 48.293L2.2627 46.707C1.05955 46.4453 0.679967 44.9397 1.56836 44.1348L1.6582 44.0596L7.53418 39.4707C8.77589 38.501 8.81474 36.6506 7.65039 35.626L7.53418 35.5293L1.6582 30.9404C0.687964 30.1826 0.99914 28.6613 2.14844 28.3213L2.2627 28.293L9.54785 26.707C11.0872 26.3721 11.9244 24.7231 11.3203 23.2949L11.2578 23.1572L7.95508 16.4727C7.40958 15.3688 8.34994 14.1335 9.5332 14.3262L9.64844 14.3496L16.8994 16.082C18.4317 16.4482 19.9022 15.3253 19.9775 13.7764L19.9805 13.625L19.9053 6.16992C19.8928 4.93883 21.2754 4.2343 22.2578 4.9209L22.3516 4.99121L28.1338 9.69922C29.3554 10.6938 31.1673 10.3199 31.9072 8.95703L31.9756 8.82227L35.1416 2.07227Z" stroke="black"/>
</svg>
