<svg width="81" height="80" viewBox="0 0 81 80" fill="none" xmlns="http://www.w3.org/2000/svg">
<path d="M10.3425 10.2728C17.2829 3.33263 28.5355 3.33316 35.4759 10.2735L70.5136 45.3112C77.4539 52.2515 77.4544 63.5041 70.5142 70.4446C63.5738 77.385 52.3206 77.385 45.3802 70.4446L10.3425 35.4069C3.40206 28.4664 3.40206 17.2133 10.3425 10.2728Z" stroke="black"/>
<path d="M70.5091 10.2728C63.5686 3.33263 52.3161 3.33316 45.3757 10.2735L10.338 45.3112C3.39766 52.2515 3.39714 63.5041 10.3373 70.4446C17.2778 77.385 28.5309 77.385 35.4714 70.4446L70.5091 35.4069C77.4495 28.4664 77.4495 17.2133 70.5091 10.2728Z" stroke="black"/>
</svg>
