<svg width="69" height="66" viewBox="0 0 69 66" fill="none" xmlns="http://www.w3.org/2000/svg">
<path d="M34.5 0.5C40.5544 0.5 45.5 5.64104 45.5 12.0303V12.1133C45.5001 12.3879 45.7225 12.6113 45.9971 12.6133C46.2373 12.6149 46.4397 12.4466 46.4893 12.2207L46.5 12.1201C46.5899 6.01224 51.2003 1.08801 56.9404 0.786133L57.5 0.771484C63.5542 0.771744 68.5 5.91269 68.5 12.3018V64C68.5 64.8284 67.8284 65.5 67 65.5H2C1.17157 65.5 0.500002 64.8284 0.5 64V12.0303C0.5 5.6412 5.4458 0.500263 11.5 0.5C17.3261 0.5 22.1266 5.26007 22.4805 11.3125L22.5 11.9014C22.5028 12.1754 22.726 12.3964 23 12.3965C23.2398 12.3965 23.4408 12.2277 23.4893 12.002L23.5 11.9014C23.5659 5.57173 28.4862 0.500002 34.5 0.5Z" stroke="black" stroke-linejoin="round"/>
</svg>
