<svg width="360" height="306" viewBox="0 0 360 306" fill="none" xmlns="http://www.w3.org/2000/svg">
<g style="mix-blend-mode:multiply" opacity="0.45">
<path d="M179.875 104.559C79.29 104.559 0.5 81.5935 0.5 52.2821C0.5 22.9656 79.29 0 179.875 0C280.46 0 359.25 22.9656 359.25 52.2821C359.25 81.5935 280.46 104.559 179.875 104.559ZM179.875 3.84126C84.8542 3.84126 4.57535 26.0233 4.57535 52.2821C4.57535 78.5358 84.8487 100.718 179.875 100.718C274.901 100.718 355.175 78.5358 355.175 52.2821C355.175 26.0233 274.901 3.84126 179.875 3.84126Z" fill="#6D6D6D" fill-opacity="0.45"/>
<path d="M179.875 154.921C79.29 154.921 0.5 131.955 0.5 102.638C0.5 93.02 9.09062 83.719 25.3431 75.7445C26.3212 75.258 27.5658 75.6165 28.0928 76.5589C28.6145 77.5013 28.2176 78.6588 27.2232 79.1505C12.4053 86.4181 4.57535 94.5411 4.57535 102.638C4.57535 128.897 84.8487 151.079 179.875 151.079C274.901 151.079 355.175 128.897 355.175 102.638C355.175 94.5462 347.35 86.4284 332.543 79.1607C331.543 78.669 331.152 77.5115 331.673 76.5691C332.2 75.6268 333.445 75.2682 334.423 75.7548C350.665 83.7292 359.25 93.0251 359.25 102.638C359.25 131.955 280.46 154.921 179.875 154.921Z" fill="#6D6D6D" fill-opacity="0.45"/>
<path d="M179.875 205.282C79.29 205.282 0.5 182.316 0.5 153C0.5 123.683 79.29 100.718 179.875 100.718C280.46 100.718 359.25 123.683 359.25 153C359.25 182.316 280.46 205.282 179.875 205.282ZM179.875 104.559C84.8542 104.559 4.57535 126.741 4.57535 153C4.57535 179.259 84.8487 201.441 179.875 201.441C274.901 201.441 355.175 179.259 355.175 153C355.175 126.741 274.901 104.559 179.875 104.559Z" fill="#6D6D6D" fill-opacity="0.45"/>
<path d="M179.875 255.638C79.29 255.638 0.5 232.673 0.5 203.356C0.5 174.04 79.29 151.079 179.875 151.079C280.46 151.079 359.25 174.04 359.25 203.356C359.25 232.673 280.46 255.638 179.875 255.638ZM179.875 154.921C84.8542 154.921 4.57535 177.103 4.57535 203.361C4.57535 229.615 84.8487 251.802 179.875 251.802C274.901 251.802 355.175 229.62 355.175 203.361C355.175 177.103 274.901 154.921 179.875 154.921Z" fill="#6D6D6D" fill-opacity="0.45"/>
<path d="M179.875 306C79.29 306 0.5 283.034 0.5 253.718C0.5 244.099 9.09062 234.798 25.3431 226.824C26.3212 226.337 27.5658 226.701 28.0928 227.638C28.6145 228.581 28.2176 229.738 27.2232 230.23C12.4053 237.497 4.57535 245.62 4.57535 253.718C4.57535 279.972 84.8487 302.159 179.875 302.159C274.901 302.159 355.175 279.977 355.175 253.718C355.175 245.626 347.35 237.503 332.543 230.235C331.543 229.743 331.152 228.586 331.673 227.643C332.2 226.701 333.445 226.348 334.423 226.829C350.665 234.803 359.25 244.099 359.25 253.718C359.25 283.034 280.46 306 179.875 306Z" fill="#6D6D6D" fill-opacity="0.45"/>
</g>
</svg>
