<svg width="359" height="306" viewBox="0 0 359 306" fill="none" xmlns="http://www.w3.org/2000/svg">
<g style="mix-blend-mode:multiply" opacity="0.45">
<path d="M179 4.39453C81.947 4.39453 2.98625 71.0566 2.98625 153C2.98625 234.943 81.947 301.605 179 301.605C276.053 301.605 355.014 234.938 355.014 153C355.014 71.0566 276.053 4.39453 179 4.39453ZM179 305C80.2986 305 0 237.363 0 153C0 68.6367 80.2986 0 179 0C277.702 0 358 68.6367 358 153C358 237.369 277.702 305 179 305Z" fill="#6D6D6D" fill-opacity="0.45"/>
<path d="M179 86.3633C77.9454 86.3633 0.591655 140.5 2.98625 194.49C2.98625 252.481 77.9494 301.611 179 301.611C280.051 301.611 355.014 252.481 355.014 194.49C354.239 139 280.055 86.3633 179 86.3633ZM179 305C89.2136 305 0 257.707 0 194.484C0 131.256 84 82.9629 179 82.9629C270 81 358 131.256 358 194.484C358 257.713 268.787 305 179 305Z" fill="#6D6D6D" fill-opacity="0.45"/>
<path d="M179 170.332C73.9478 170.332 2.98625 201.932 2.98625 235.975C2.98625 270.012 73.9478 301.611 179 301.611C284.053 301.611 355.014 270.012 355.014 235.975C355.014 201.932 284.053 170.332 179 170.332ZM179 305C98.1285 305 0 278.051 0 235.969C0 193.881 98.1325 165.932 179 165.932C259.868 165.932 358 193.881 358 235.969C358 278.057 259.872 305 179 305Z" fill="#6D6D6D" fill-opacity="0.45"/>
<path d="M179 253.295C69.9462 253.295 2.98625 267.363 2.98625 277.453C2.98625 287.543 69.9462 301.605 179 301.605C288.054 301.605 355.014 287.543 355.014 277.453C355.014 267.363 288.054 253.295 179 253.295ZM179 305C107.047 305 0 298.395 0 277.453C0 256.506 107.047 248.9 179 248.9C250.953 248.9 358 256.506 358 277.453C358 298.4 250.953 305 179 305Z" fill="#6D6D6D" fill-opacity="0.45"/>
<path d="M356.507 305H1.49313C0.668921 305 0 305.016 0 303.803C0 302.59 0.668921 301.605 1.49313 301.605H356.507C357.331 301.605 358 302.59 358 303.803C358 305.016 357.331 305 356.507 305Z" fill="#6D6D6D" fill-opacity="0.45"/>
</g>
</svg>
