<svg width="360" height="306" viewBox="0 0 360 306" fill="none" xmlns="http://www.w3.org/2000/svg">
<g style="mix-blend-mode:multiply" opacity="0.45">
<path d="M51.6913 286.309C11.0625 245.68 35.337 155.297 105.807 84.8258C176.276 14.3549 266.658 -9.91994 307.286 30.7096C347.915 71.3391 323.64 161.722 253.171 232.193C182.705 302.66 92.32 326.939 51.6913 286.309ZM304.535 33.4614C265.423 -5.65084 177.51 18.6315 108.566 87.5776C39.6206 156.524 15.3389 244.438 54.4504 283.55C93.5619 322.662 181.47 298.383 250.419 229.434C319.367 160.484 343.646 72.5736 304.535 33.4614Z" fill="#6D6D6D" fill-opacity="0.45"/>
<path d="M51.6913 286.309C29.1965 263.814 67.7069 190.055 139.371 118.39C211.034 46.7255 284.792 8.21436 307.286 30.7096C329.781 53.2048 291.267 126.959 219.603 198.624C147.943 270.286 74.1861 308.804 51.6913 286.309ZM304.535 33.4614C284.281 13.2072 209.91 53.3607 142.13 121.142C74.3492 188.924 34.1966 263.296 54.4504 283.55C74.7005 303.801 149.071 263.647 216.851 195.865C284.632 128.084 324.785 53.7118 304.535 33.4614Z" fill="#6D6D6D" fill-opacity="0.45"/>
<path d="M51.6913 286.309C50.9308 285.549 50.9308 284.314 51.6913 283.554L304.531 30.7096C305.291 29.9491 306.526 29.9491 307.286 30.7096C308.047 31.4701 308.047 32.7045 307.286 33.465L54.4467 286.309C53.6862 287.07 52.4518 287.07 51.6913 286.309Z" fill="#6D6D6D" fill-opacity="0.45"/>
<path d="M105.808 232.191C35.3406 161.723 11.0685 71.3403 51.6984 30.7096C78.0956 4.31192 127.263 4.43977 180.027 31.0383C180.982 31.5159 181.368 32.6879 180.89 33.6578C180.405 34.6131 179.237 35.0025 178.271 34.5212C127.068 8.70515 79.6238 8.30171 54.4574 33.4686C15.3448 72.5819 39.6243 160.495 108.567 229.44C177.51 298.384 265.422 322.664 304.535 283.55C329.701 258.383 329.294 210.942 303.482 159.735C302.997 158.772 303.383 157.6 304.345 157.115C305.312 156.634 306.476 157.012 306.965 157.978C333.559 210.747 333.687 259.915 307.294 286.309C266.656 326.933 176.276 302.66 105.808 232.191Z" fill="#6D6D6D" fill-opacity="0.45"/>
</g>
</svg>
