<svg width="81" height="81" viewBox="0 0 81 81" fill="none" xmlns="http://www.w3.org/2000/svg">
<path d="M52.2982 8.06119C52.179 6.05904 53.014 4.41019 55.2807 2.76136C57.1895 1.34807 59.6152 1.02606 60.6889 1.02606C61.2481 0.964718 62.6597 0.967262 64.311 1.54522C67.9282 2.81125 69 7.0742 69 10.9066V62.1905C69 64.2944 67.2944 66 65.1905 66H3.11404C1.94649 66 1 65.0535 1 63.886C1.1193 57.8795 1.3844 55.8625 3.77037 53.507C5.32125 51.8582 8.03855 50.9308 9.58943 50.9308C11.1403 50.9308 13.5263 49.8709 14.9579 48.5754C15.8922 47.7949 16.6966 46.6725 17.1886 45.5943C17.7529 44.3576 17.8356 42.9557 18.0809 41.6187C18.3357 40.2302 18.6914 38.7477 19.637 37.5807C20.4089 36.4723 21.3184 35.8159 22.3843 35.3257C23.9684 34.5972 25.7617 34.4649 27.4531 34.0417C28.3193 33.825 29.1892 33.5449 29.8701 33.2648C31.421 32.5581 33.3298 30.7915 34.0456 29.1427C34.8807 27.4939 35.5965 25.2562 35.5965 24.1962C35.5965 23.1362 36.1715 20.6058 38.2741 18.9171C40.7926 16.8942 42.0386 17.6009 44.7825 16.8942C47.6456 16.1876 50.5088 14.5387 51.2246 13.361C52.0597 12.0655 52.5368 9.71002 52.2982 8.06119Z" stroke="#222222"/>
</svg>
