<svg width="936" height="490" viewBox="0 0 936 490" fill="none" xmlns="http://www.w3.org/2000/svg">
<g opacity="0.3">
<path d="M394.319 452.231L724.669 268.26L1086.33 157.907" stroke="#616B68" stroke-width="1.5" stroke-linecap="round" stroke-linejoin="round"/>
<path d="M394.32 452.227L755.981 341.874L1086.33 157.902" stroke="black" stroke-width="2" stroke-linecap="round" stroke-linejoin="round"/>
<path d="M394.32 452.227L755.981 341.874L1086.33 157.902" stroke="black" stroke-opacity="0.2" stroke-width="2" stroke-linecap="round" stroke-linejoin="round"/>
<path d="M394.32 452.227L755.981 341.874L1086.33 157.902" stroke="black" stroke-opacity="0.2" stroke-width="2" stroke-linecap="round" stroke-linejoin="round"/>
<path d="M555.59 -129.277L755.981 341.878" stroke="black" stroke-width="2" stroke-linecap="round" stroke-linejoin="round"/>
<path d="M555.59 -129.277L755.981 341.878" stroke="black" stroke-opacity="0.2" stroke-width="2" stroke-linecap="round" stroke-linejoin="round"/>
<path d="M555.59 -129.277L755.981 341.878" stroke="black" stroke-opacity="0.2" stroke-width="2" stroke-linecap="round" stroke-linejoin="round"/>
<path d="M1086.33 157.905L555.591 -129.279L394.321 452.229" stroke="black" stroke-width="2" stroke-linecap="round" stroke-linejoin="round"/>
<path d="M1086.33 157.905L555.591 -129.279L394.321 452.229" stroke="black" stroke-opacity="0.2" stroke-width="2" stroke-linecap="round" stroke-linejoin="round"/>
<path d="M1086.33 157.905L555.591 -129.279L394.321 452.229" stroke="black" stroke-opacity="0.2" stroke-width="2" stroke-linecap="round" stroke-linejoin="round"/>
</g>
<g opacity="0.3">
<path d="M496.012 -106.192L271.489 32.7696L15.6546 98.1129" stroke="#616B68" stroke-width="1.5" stroke-linecap="round" stroke-linejoin="round"/>
<path d="M496.012 -106.191L240.177 -40.8481L15.6539 98.1134" stroke="black" stroke-width="2" stroke-linecap="round" stroke-linejoin="round"/>
<path d="M496.012 -106.191L240.177 -40.8481L15.6539 98.1134" stroke="black" stroke-opacity="0.2" stroke-width="2" stroke-linecap="round" stroke-linejoin="round"/>
<path d="M496.012 -106.191L240.177 -40.8481L15.6539 98.1134" stroke="black" stroke-opacity="0.2" stroke-width="2" stroke-linecap="round" stroke-linejoin="round"/>
<path d="M379.117 285.836L240.174 -40.8442" stroke="black" stroke-width="2" stroke-linecap="round" stroke-linejoin="round"/>
<path d="M379.117 285.836L240.174 -40.8442" stroke="black" stroke-opacity="0.2" stroke-width="2" stroke-linecap="round" stroke-linejoin="round"/>
<path d="M379.117 285.836L240.174 -40.8442" stroke="black" stroke-opacity="0.2" stroke-width="2" stroke-linecap="round" stroke-linejoin="round"/>
<path d="M15.6517 98.1134L379.118 285.832L496.01 -106.191" stroke="black" stroke-width="2" stroke-linecap="round" stroke-linejoin="round"/>
<path d="M15.6517 98.1134L379.118 285.832L496.01 -106.191" stroke="black" stroke-opacity="0.2" stroke-width="2" stroke-linecap="round" stroke-linejoin="round"/>
<path d="M15.6517 98.1134L379.118 285.832L496.01 -106.191" stroke="black" stroke-opacity="0.2" stroke-width="2" stroke-linecap="round" stroke-linejoin="round"/>
</g>
</svg>
