<svg width="84" height="80" viewBox="0 0 84 80" fill="none" xmlns="http://www.w3.org/2000/svg">
<path d="M34.5 7.5C40.5544 7.5 45.5 12.641 45.5 19.0303V19.1133C45.5001 19.3879 45.7225 19.6113 45.9971 19.6133C46.2373 19.6149 46.4397 19.4466 46.4893 19.2207L46.5 19.1201C46.5899 13.0122 51.2003 8.08801 56.9404 7.78613L57.5 7.77148C63.5542 7.77174 68.5 12.9127 68.5 19.3018V71C68.5 71.8284 67.8284 72.5 67 72.5H2C1.17157 72.5 0.500002 71.8284 0.5 71V19.0303C0.5 12.6412 5.4458 7.50026 11.5 7.5C17.3261 7.5 22.1266 12.2601 22.4805 18.3125L22.5 18.9014C22.5028 19.1754 22.726 19.3964 23 19.3965C23.2398 19.3965 23.4408 19.2277 23.4893 19.002L23.5 18.9014C23.5659 12.5717 28.4862 7.5 34.5 7.5Z" stroke="#222222" stroke-linejoin="round"/>
</svg>
