<svg width="98" height="90" viewBox="0 0 98 90" fill="none" xmlns="http://www.w3.org/2000/svg">
<path fill-rule="evenodd" clip-rule="evenodd" d="M46.4166 11.9335C41.1557 9.80983 35.352 9.43114 29.8598 10.8531C24.3675 12.2751 19.4768 15.4227 15.9075 19.8325C12.3382 24.2424 10.2788 29.6816 10.0325 35.3496C9.78611 41.0176 11.3658 46.615 14.539 51.3179C17.7123 56.0208 22.3114 59.5808 27.6596 61.474C33.0077 63.3672 38.8223 63.4935 44.2477 61.8343C49.673 60.1752 54.4224 56.8182 57.7968 52.2575C61.1713 47.6968 62.9925 42.1734 62.9925 36.5H72C72 44.1023 69.5595 51.5038 65.0377 57.6151C60.516 63.7264 54.1518 68.2247 46.8819 70.448C39.6119 72.6713 31.8203 72.502 24.6538 69.9652C17.4873 67.4283 11.3244 62.6579 7.07229 56.356C2.82016 50.054 0.703379 42.5536 1.0335 34.9585C1.36362 27.3633 4.1232 20.0748 8.90609 14.1656C13.689 8.25641 20.2425 4.03868 27.6021 2.13321C34.9617 0.227731 42.7386 0.735165 49.7882 3.58082L46.4166 11.9335Z" stroke="black"/>
</svg>
