<svg width="82" height="81" viewBox="0 0 82 81" fill="none" xmlns="http://www.w3.org/2000/svg">
<path d="M1 6.85468C1.08978 5.50795 1.89783 3.53275 2.97522 2.45536C4.50152 1.01884 5.4891 0.749504 8.09279 1.19841C9.88843 1.55754 13.3002 2.90427 15.7243 4.251C18.1484 5.50795 22.5477 9.27881 25.6003 12.4212C28.6529 15.6533 32.0646 19.514 35.0274 23.644L37.0924 20.9505C38.2596 19.514 41.7611 15.5635 44.9933 12.1518C48.7641 8.29119 52.8941 5.05904 56.3058 3.35318C60.2562 1.28819 62.411 0.749504 64.5658 1.19841C66.6308 1.55754 67.7979 2.36557 68.4264 4.16122C69.1447 5.95686 69.1447 7.57295 68.3366 10.1766C67.7979 12.1518 66.1819 15.384 64.8351 17.3592C63.3986 19.3344 59.7175 23.3746 56.5752 26.4272C53.4328 29.39 49.8415 32.4426 46.4298 34.7769L49.5722 37.2908C51.278 38.5478 55.408 42.4084 58.7299 45.8201C62.5906 49.6808 65.6432 53.9005 67.1695 57.1327C69.0549 61.2627 69.3242 62.789 68.6957 64.9437C68.2468 66.5598 66.9899 67.9963 65.6432 68.535C64.2066 68.9839 62.1417 68.984 59.8971 68.3555C57.9219 67.8168 53.8817 65.5722 50.9189 63.3277C47.9561 61.1729 43.5568 56.9531 41.1326 54.0801C38.7085 51.2071 36.464 48.2443 36.015 47.4362C35.3866 46.3588 35.0274 46.5384 33.6807 48.3341C32.8727 49.591 29.1018 53.8108 25.331 57.5816C20.9316 62.1605 16.8915 65.3927 13.8389 66.8292C11.2352 67.9963 8.0928 68.9839 6.92563 68.9839C5.66868 68.9839 3.78326 68.0861 2.70587 67.0088C1.35914 65.4825 0.910221 64.2255 1.26935 62.2503C1.5387 60.8138 2.43653 57.9407 3.42413 55.9655C4.32195 53.9903 7.55411 49.7706 10.6067 46.5384C13.5695 43.396 17.7893 39.5354 19.8543 38.0091C21.9192 36.5726 23.5353 35.1361 23.5353 34.8667C23.5353 34.6872 22.1886 33.6098 20.5725 32.6222C18.9564 31.7244 15.006 28.2228 11.7739 24.9907C8.5417 21.7585 4.86064 17.0001 3.5139 14.2168C2.16717 11.5234 1 8.20141 1 6.85468Z" stroke="black"/>
</svg>
