<svg width="80" height="81" viewBox="0 0 80 81" fill="none" xmlns="http://www.w3.org/2000/svg">
<path d="M38.1416 2.07227C38.6645 0.957523 40.2176 0.922511 40.8047 1.96777L40.8584 2.07227L44.0244 8.82227C44.6934 10.2484 46.4881 10.6977 47.7461 9.79102L47.8662 9.69922L53.6484 4.99121C54.6033 4.21415 56.0164 4.85636 56.0918 6.05273L56.0947 6.16992L56.0195 13.625C56.0035 15.2003 57.4253 16.3844 58.9521 16.1133L59.1006 16.082L66.3516 14.3496C67.5489 14.0635 68.5442 15.2547 68.0938 16.3652L68.0449 16.4727L64.7422 23.1572C64.0443 24.5696 64.8122 26.2529 66.3057 26.6709L66.4521 26.707L73.7373 28.293C74.9405 28.5547 75.32 30.0603 74.4316 30.8652L74.3418 30.9404L68.4658 35.5293C67.2241 36.499 67.1853 38.3494 68.3496 39.374L68.4658 39.4707L74.3418 44.0596C75.312 44.8174 75.0009 46.3387 73.8516 46.6787L73.7373 46.707L66.4521 48.293C64.9128 48.6279 64.0756 50.2769 64.6797 51.7051L64.7422 51.8428L68.0449 58.5273C68.5904 59.6312 67.6501 60.8665 66.4668 60.6738L66.3516 60.6504L59.1006 58.918C57.5683 58.5518 56.0978 59.6747 56.0225 61.2236L56.0195 61.375L56.0947 68.8301C56.1072 70.0612 54.7246 70.7657 53.7422 70.0791L53.6484 70.0088L47.8662 65.3008C46.6446 64.3062 44.8327 64.6801 44.0928 66.043L44.0244 66.1777L40.8584 72.9277C40.3355 74.0425 38.7824 74.0775 38.1953 73.0322L38.1416 72.9277L34.9756 66.1777C34.3066 64.7516 32.5119 64.3023 31.2539 65.209L31.1338 65.3008L25.3516 70.0088C24.3967 70.7858 22.9836 70.1436 22.9082 68.9473L22.9053 68.8301L22.9805 61.375C22.9965 59.7997 21.5747 58.6156 20.0479 58.8867L19.8994 58.918L12.6484 60.6504C11.4511 60.9365 10.4558 59.7453 10.9062 58.6348L10.9551 58.5273L14.2578 51.8428C14.9557 50.4304 14.1878 48.7471 12.6943 48.3291L12.5479 48.293L5.2627 46.707C4.05955 46.4453 3.67997 44.9397 4.56836 44.1348L4.6582 44.0596L10.5342 39.4707C11.7759 38.501 11.8147 36.6506 10.6504 35.626L10.5342 35.5293L4.6582 30.9404C3.68796 30.1826 3.99914 28.6613 5.14844 28.3213L5.2627 28.293L12.5479 26.707C14.0872 26.3721 14.9244 24.7231 14.3203 23.2949L14.2578 23.1572L10.9551 16.4727C10.4096 15.3688 11.3499 14.1335 12.5332 14.3262L12.6484 14.3496L19.8994 16.082C21.4317 16.4482 22.9022 15.3253 22.9775 13.7764L22.9805 13.625L22.9053 6.16992C22.8928 4.93883 24.2754 4.2343 25.2578 4.9209L25.3516 4.99121L31.1338 9.69922C32.3554 10.6938 34.1673 10.3199 34.9072 8.95703L34.9756 8.82227L38.1416 2.07227Z" stroke="black"/>
</svg>
