<svg width="84" height="80" viewBox="0 0 84 80" fill="none" xmlns="http://www.w3.org/2000/svg">
<g clip-path="url(#clip0_8549_22268)">
<mask id="path-2-inside-1_8549_22268" fill="white">
<path d="M81 51.5C82.1046 51.5 83.005 50.604 82.9518 49.5008C82.7219 44.7338 81.6712 40.037 79.841 35.6186C77.7554 30.5836 74.6986 26.0087 70.8449 22.1551C66.9913 18.3014 62.4164 15.2446 57.3814 13.159C52.3463 11.0734 46.9499 10 41.5 10C36.0501 10 30.6536 11.0734 25.6186 13.159C20.5836 15.2446 16.0087 18.3014 12.1551 22.1551C8.30144 26.0087 5.24457 30.5836 3.159 35.6186C1.32883 40.0371 0.278089 44.7338 0.0481823 49.5008C-0.00502864 50.604 0.895431 51.5 2 51.5H17.3073C18.4119 51.5 19.298 50.6028 19.3974 49.5027C19.5989 47.273 20.137 45.0827 20.9966 43.0072C22.1119 40.3147 23.7466 37.8682 25.8074 35.8074C27.8682 33.7466 30.3147 32.1119 33.0072 30.9966C35.6998 29.8814 38.5856 29.3073 41.5 29.3073C44.4144 29.3073 47.3002 29.8813 49.9928 30.9966C52.6853 32.1119 55.1318 33.7466 57.1926 35.8074C59.2534 37.8682 60.8881 40.3147 62.0034 43.0072C62.863 45.0827 63.4011 47.273 63.6026 49.5027C63.702 50.6028 64.5881 51.5 65.6927 51.5H81Z"/>
</mask>
<path d="M81 51.5C82.1046 51.5 83.005 50.604 82.9518 49.5008C82.7219 44.7338 81.6712 40.037 79.841 35.6186C77.7554 30.5836 74.6986 26.0087 70.8449 22.1551C66.9913 18.3014 62.4164 15.2446 57.3814 13.159C52.3463 11.0734 46.9499 10 41.5 10C36.0501 10 30.6536 11.0734 25.6186 13.159C20.5836 15.2446 16.0087 18.3014 12.1551 22.1551C8.30144 26.0087 5.24457 30.5836 3.159 35.6186C1.32883 40.0371 0.278089 44.7338 0.0481823 49.5008C-0.00502864 50.604 0.895431 51.5 2 51.5H17.3073C18.4119 51.5 19.298 50.6028 19.3974 49.5027C19.5989 47.273 20.137 45.0827 20.9966 43.0072C22.1119 40.3147 23.7466 37.8682 25.8074 35.8074C27.8682 33.7466 30.3147 32.1119 33.0072 30.9966C35.6998 29.8814 38.5856 29.3073 41.5 29.3073C44.4144 29.3073 47.3002 29.8813 49.9928 30.9966C52.6853 32.1119 55.1318 33.7466 57.1926 35.8074C59.2534 37.8682 60.8881 40.3147 62.0034 43.0072C62.863 45.0827 63.4011 47.273 63.6026 49.5027C63.702 50.6028 64.5881 51.5 65.6927 51.5H81Z" stroke="black" stroke-width="2" mask="url(#path-2-inside-1_8549_22268)"/>
</g>
<defs>
<clipPath id="clip0_8549_22268">
<rect width="83.0476" height="80" rx="24" fill="white"/>
</clipPath>
</defs>
</svg>
