<svg width="1150" height="1059" viewBox="0 0 1150 1059" fill="none" xmlns="http://www.w3.org/2000/svg">
<path opacity="0.9" d="M72.6723 498.923C134.632 362.092 247.276 249.415 381.526 176.544M386.166 174.046C520.902 102.096 676.908 70.1298 825.11 93.7987M843.479 97.0264C995.85 126.263 1110.15 210.096 1172.36 322.434C1008.54 23.5703 633.364 -87.3157 331.205 74.5661M66.4746 904.24C12.1395 792.246 7.48187 654.92 65.257 515.998M357.027 1056.2C224.482 809.518 236.01 416.798 382.486 177.512M385.24 173.056C451.185 67.4083 532.805 10.3919 614.761 1.54786M386.442 175.382C666.638 184.955 1000.34 391.813 1132.89 638.489M111.697 272.417C164.239 208.819 256.771 172.063 381.209 175.226M670.546 2.98966C752.344 16.1136 830.947 77.8799 890.734 187.822M114.856 605.517C56.1952 495.017 48.0302 395.353 82.1461 319.816M1134.06 639.094C1059.91 758.757 935.926 865.38 795.322 941.078C654.718 1016.77 497.497 1061.54 356.882 1057.5M1175.83 328.978C1218.37 410.11 1207.93 519.576 1134.4 638.541M356.232 1057.48C217.83 1053.35 121.34 1002.64 76.6019 923.665M74.3042 919.588C-88.1551 617.238 25.8517 239.761 328.899 75.8073M116.366 605.57C190.447 487.048 313.36 381.449 452.704 306.216M455.02 304.969C594.544 230.073 750.319 185.64 889.944 189.112M892.965 189.195C1033.73 193.4 1131.13 245.792 1174.82 327.1M74.3305 919.574C30.6408 838.257 40.6687 728.021 114.77 608.138M453.334 307.364L793.557 940.54C653.433 1015.76 496.958 1060.19 357.037 1056.2L358.182 1055.58C291.837 932.108 261.626 771.888 266.476 612.642C268.516 545.674 276.755 478.904 291.102 415.137C340.819 374.839 395.663 338.5 453.334 307.364ZM75.4843 918.955C32.093 838.195 41.9267 728.474 115.885 608.824C116.024 608.599 116.163 608.374 116.303 608.149L117.424 607.547C117.308 607.332 117.193 607.117 117.078 606.902C159.737 538.463 218.736 474.304 287.824 417.806C273.882 480.774 265.868 546.585 263.859 612.562C259.008 771.858 289.153 932.27 355.517 1056.15C215.42 1051.8 118.812 999.565 75.4949 918.95L75.4843 918.955ZM452.085 305.063C395.289 335.727 341.209 371.436 292.039 411.014C311.668 325.522 342.318 245.558 383.769 177.923L452.085 305.063ZM454.4 303.816L386.087 176.68C465.313 179.346 548.863 197.829 630.946 228.565C570.849 247.809 511.271 273.288 454.4 303.816ZM455.64 306.122C513.384 275.126 573.904 249.358 634.897 230.054C695.958 253.224 756.153 283.15 813.096 318.363C948.505 402.098 1065.4 515.65 1131.75 639.123L1132.87 638.517C1059.07 757.564 935.795 863.744 795.863 939.298L455.64 306.122ZM1133.69 637.203C1067.01 513.494 949.922 399.895 814.473 316.136C758.371 281.443 699.098 251.857 638.926 228.789C724.102 202.238 810.102 188.336 890.662 190.44C890.775 190.651 890.889 190.862 891.003 191.073L892.108 190.479C892.372 190.487 892.635 190.495 892.899 190.502C1033.4 194.694 1130.28 246.967 1173.67 327.727L1173.69 327.722C1217 408.336 1207.28 517.805 1133.69 637.203ZM113.658 607.447C51.9672 707.251 34.4768 800.59 55.558 876.27C13.1458 770.014 13.4557 643.965 66.4658 516.501C68.3679 511.927 70.3265 507.379 72.3405 502.857C81.1159 536.087 94.9322 570.888 114.057 606.803C113.923 607.018 113.79 607.232 113.658 607.447ZM64.0482 515.496C17.5027 627.415 11.3703 738.355 39.0661 835.93C-18.0204 674.56 -4.09911 500.508 68.9111 353.139C57.3957 396.281 57.8169 445.475 71.2917 498.798C68.7941 504.325 66.379 509.891 64.0482 515.496ZM73.0369 494.972C59.0256 437.461 60.4122 385 75.6137 340.001C90.9714 310.755 108.694 282.63 128.686 255.946C182.365 203.793 267.645 174.081 378.903 176.482C246.432 248.892 135.136 360.065 73.0369 494.972ZM381.622 173.927C275.817 171.17 192.805 197.196 137.726 244.175C189.001 179.031 254.161 123.046 331.733 81.0798L381.622 173.927ZM383.928 172.687L334.038 79.8386C411.759 38.2021 494.319 14.6495 576.861 7.73173C507.363 27.8521 439.937 82.829 383.928 172.687ZM387.56 171.821C446.863 77.6197 518.599 22.7821 591.626 6.67133C624.939 4.6775 658.201 5.38047 691.094 8.68491C736.957 20.8001 781.424 48.55 821.618 91.927C674.941 69.4336 520.932 101.103 387.56 171.821ZM825.768 92.5782C788.764 51.953 748.009 24.4942 705.72 10.3285C868.561 30.5736 1021.1 114.684 1124.12 250.969C1058.07 174.332 962.39 118.51 843.726 95.7407C837.754 94.5948 831.767 93.541 825.768 92.5782ZM843.232 98.3121C978.889 124.342 1084.23 193.726 1149.4 287.922C1097.98 228.381 1010.42 191.389 892.977 187.885C892.733 187.878 892.489 187.871 892.246 187.864C872.844 152.078 851.442 121.343 828.571 95.6888C833.467 96.502 838.355 97.3762 843.232 98.3121ZM889.222 187.785C807.774 185.861 720.895 200.179 634.975 227.284C552.548 196.095 468.529 177.179 388.747 174.155C522.679 103.131 677.422 71.6528 824.452 95.0196C847.698 120.662 869.477 151.584 889.222 187.785ZM380.191 178.762C338.734 247.056 308.188 327.648 288.748 413.675C218.787 470.489 158.956 535.152 115.657 604.235C96.377 567.803 82.6124 532.583 74.0534 499.047C135.619 363.363 247.157 251.471 380.191 178.762Z" stroke="url(#paint0_linear_3734_9104)" stroke-width="2.61832" stroke-linejoin="round"/>
<defs>
<linearGradient id="paint0_linear_3734_9104" x1="933.432" y1="774.85" x2="428.605" y2="190.523" gradientUnits="userSpaceOnUse">
<stop stop-color="#FCFBF9"/>
<stop offset="1" stop-color="#C4C4B9"/>
</linearGradient>
</defs>
</svg>
