<svg width="324" height="276" viewBox="0 0 324 276" fill="none" xmlns="http://www.w3.org/2000/svg">
<path d="M161.789 94.3082C71.0655 94.3082 0 73.5941 0 47.1564C0 20.7141 71.0655 0 161.789 0C252.513 0 323.578 20.7141 323.578 47.1564C323.578 73.5941 252.513 94.3082 161.789 94.3082ZM161.789 3.46467C76.0842 3.46467 3.6758 23.472 3.6758 47.1564C3.6758 70.8363 76.0793 90.8436 161.789 90.8436C247.499 90.8436 319.903 70.8363 319.903 47.1564C319.903 23.472 247.499 3.46467 161.789 3.46467Z" fill="#6B5B4D"/>
<path d="M161.789 139.732C71.0655 139.732 0 119.018 0 92.5759C0 83.9004 7.7484 75.5113 22.4075 68.3186C23.2897 67.8797 24.4123 68.2031 24.8877 69.0531C25.3582 69.9031 25.0002 70.9471 24.1033 71.3906C10.7381 77.9458 3.6758 85.2724 3.6758 92.5759C3.6758 116.26 76.0793 136.268 161.789 136.268C247.499 136.268 319.903 116.26 319.903 92.5759C319.903 85.277 312.845 77.955 299.49 71.3998C298.588 70.9564 298.235 69.9124 298.705 69.0624C299.181 68.2124 300.303 67.889 301.186 68.3278C315.835 75.5205 323.578 83.905 323.578 92.5759C323.578 119.018 252.513 139.732 161.789 139.732Z" fill="#6B5B4D"/>
<path d="M161.789 185.156C71.0655 185.156 0 164.442 0 138C0 111.558 71.0655 90.8436 161.789 90.8436C252.513 90.8436 323.578 111.558 323.578 138C323.578 164.442 252.513 185.156 161.789 185.156ZM161.789 94.3082C76.0842 94.3082 3.6758 114.316 3.6758 138C3.6758 161.684 76.0793 181.692 161.789 181.692C247.499 181.692 319.903 161.684 319.903 138C319.903 114.316 247.499 94.3082 161.789 94.3082Z" fill="#6B5B4D"/>
<path d="M161.789 230.576C71.0655 230.576 0 209.862 0 183.419C0 156.977 71.0655 136.268 161.789 136.268C252.513 136.268 323.578 156.977 323.578 183.419C323.578 209.862 252.513 230.576 161.789 230.576ZM161.789 139.732C76.0842 139.732 3.6758 159.74 3.6758 183.424C3.6758 207.104 76.0793 227.116 161.789 227.116C247.499 227.116 319.903 207.109 319.903 183.424C319.903 159.74 247.499 139.732 161.789 139.732Z" fill="#6B5B4D"/>
<path d="M161.789 276C71.0655 276 0 255.286 0 228.844C0 220.168 7.7484 211.779 22.4075 204.586C23.2897 204.147 24.4123 204.475 24.8877 205.321C25.3582 206.171 25.0002 207.215 24.1033 207.658C10.7381 214.213 3.6758 221.54 3.6758 228.844C3.6758 252.523 76.0793 272.535 161.789 272.535C247.499 272.535 319.903 252.528 319.903 228.844C319.903 221.545 312.845 214.218 299.49 207.663C298.588 207.219 298.235 206.175 298.705 205.325C299.181 204.475 300.303 204.157 301.186 204.591C315.835 211.784 323.578 220.168 323.578 228.844C323.578 255.286 252.513 276 161.789 276Z" fill="#6B5B4D"/>
</svg>
