<svg width="357" height="723" viewBox="0 0 357 723" fill="none" xmlns="http://www.w3.org/2000/svg">
<path opacity="0.04" d="M58.3571 149.752L58.3621 149.749C60.1434 148.801 62.4376 149.495 63.413 151.359C64.3725 153.217 63.6414 155.504 61.8061 156.475C61.1854 156.801 60.5698 157.127 59.9595 157.454C57.2465 156.045 54.6178 154.617 52.0755 153.173C54.11 152.023 56.2039 150.882 58.3571 149.752ZM470.306 211.102C560.712 207.512 642.915 194.784 705.575 176.257C730.495 168.89 752.349 160.598 770.409 151.585C769.693 154.165 770.845 156.978 773.299 158.269L773.299 158.27C773.49 158.37 773.679 158.47 773.869 158.57C757.076 167.096 737.174 174.952 714.6 181.992C665.144 197.415 602.967 208.888 532.809 214.922C512.595 213.186 491.723 211.901 470.306 211.102ZM418 212.136C453.455 212.136 487.743 213.447 520.405 215.925C487.743 218.403 453.455 219.714 418 219.714C382.545 219.714 348.257 218.403 315.595 215.925C348.257 213.447 382.545 212.136 418 212.136ZM470.306 220.748C491.723 219.95 512.595 218.665 532.809 216.929C602.967 222.963 665.144 234.436 714.6 249.86C737.111 256.881 756.966 264.714 773.73 273.214C770.896 274.696 767.958 276.161 764.919 277.606C747.98 269.618 728.021 262.232 705.575 255.595C642.915 237.067 560.712 224.339 470.306 220.748ZM303.191 216.929C323.406 218.665 344.278 219.95 365.695 220.748C275.293 224.339 193.091 237.068 130.429 255.595C107.982 262.232 88.0227 269.619 71.0828 277.607C68.0433 276.161 65.1048 274.697 62.2703 273.214C79.0338 264.714 98.8886 256.881 121.4 249.86C170.856 234.436 233.033 222.963 303.191 216.929ZM60.0961 274.329C62.8853 275.809 65.7756 277.271 68.7637 278.713C65.776 280.156 62.8863 281.617 60.0974 283.097C57.3165 281.654 54.6241 280.192 52.0221 278.713C54.6237 277.233 57.3157 275.772 60.0961 274.329ZM62.2716 284.212C65.1057 282.73 68.0438 281.265 71.0828 279.82C88.0214 287.807 107.979 295.194 130.425 301.83C193.085 320.358 275.286 333.086 365.691 336.677C344.274 337.475 323.401 338.76 303.185 340.496C233.029 334.461 170.854 322.989 121.4 307.565C98.8892 300.544 79.0348 292.711 62.2716 284.212ZM50.0148 279.868C52.5788 281.344 55.2306 282.802 57.9679 284.241C52.0297 287.472 46.5705 290.788 41.6217 294.18C20.5398 308.63 8.49684 324.625 8.49684 341.5C8.49684 358.375 20.5389 374.37 41.6199 388.82C46.5664 392.211 52.0228 395.525 57.9579 398.755C55.2211 400.193 52.5699 401.651 50.0063 403.127C43.768 399.49 38.0726 395.747 32.9505 391.908C12.1883 376.345 1 359.32 1 341.5C1 323.68 12.1883 306.655 32.9505 291.092C38.0749 287.251 43.7731 283.506 50.0148 279.868ZM52.0136 404.282C54.615 402.803 57.3069 401.342 60.0873 399.899C62.8793 401.381 65.7724 402.844 68.7637 404.288C65.7761 405.73 62.8863 407.192 60.0974 408.671C57.3135 407.227 54.6182 405.764 52.0136 404.282ZM71.0828 403.181C68.0401 401.734 65.0986 400.268 62.2614 398.784C79.0267 390.283 98.8846 382.45 121.4 375.429C170.854 360.007 233.029 348.536 303.185 342.503C323.402 344.239 344.276 345.524 365.696 346.323C275.293 349.914 193.091 362.642 130.429 381.169C107.982 387.806 88.0227 395.193 71.0828 403.181ZM62.2716 409.786C65.1057 408.304 68.0438 406.84 71.0828 405.394C88.0214 413.382 107.979 420.768 130.425 427.405C204.983 449.45 307.208 463.285 418 463.285C528.792 463.285 631.017 449.45 705.575 427.405C728.021 420.768 747.98 413.382 764.919 405.394C767.958 406.839 770.896 408.303 773.73 409.786C756.966 418.286 737.111 426.119 714.6 433.139C639.522 456.555 535.128 470.863 418 470.863C300.872 470.863 196.478 456.555 121.4 433.139C98.8892 426.119 79.0348 418.286 62.2716 409.786ZM775.904 408.671C773.115 407.191 770.225 405.73 767.238 404.287C770.228 402.843 773.121 401.38 775.913 399.899C778.693 401.342 781.385 402.803 783.986 404.282C781.382 405.763 778.687 407.227 775.904 408.671ZM773.739 398.784C770.902 400.268 767.961 401.734 764.919 403.181C747.98 395.193 728.021 387.806 705.575 381.169C642.915 362.642 560.712 349.913 470.306 346.323C491.724 345.524 512.598 344.239 532.815 342.503C602.971 348.536 665.146 360.007 714.6 375.429C737.115 382.45 756.973 390.283 773.739 398.784ZM785.994 403.127C783.43 401.651 780.779 400.193 778.042 398.755C783.977 395.525 789.434 392.211 794.38 388.82C815.461 374.37 827.503 358.375 827.503 341.5C827.503 324.625 815.461 308.63 794.38 294.18C789.431 290.788 783.972 287.471 778.033 284.24C780.77 282.802 783.422 281.344 785.985 279.868C792.227 283.506 797.925 287.251 803.049 291.092C823.812 306.655 835 323.68 835 341.5C835 359.32 823.812 376.345 803.049 391.908C797.927 395.747 792.232 399.49 785.994 403.127ZM783.978 278.713C781.376 280.192 778.684 281.654 775.904 283.096C773.115 281.616 770.225 280.155 767.238 278.713C770.225 277.27 773.115 275.809 775.904 274.329C778.684 275.772 781.376 277.233 783.978 278.713ZM764.919 279.819C767.958 281.265 770.896 282.729 773.73 284.211C756.966 292.711 737.111 300.544 714.6 307.565C665.146 322.989 602.971 334.461 532.815 340.496C512.599 338.76 491.726 337.475 470.309 336.677C560.714 333.086 642.915 320.358 705.575 301.83C728.021 295.194 747.98 287.807 764.919 279.819ZM418 337.711C453.457 337.711 487.747 339.022 520.41 341.5C487.747 343.978 453.457 345.289 418 345.289C382.543 345.289 348.253 343.978 315.59 341.5C348.253 339.022 382.543 337.711 418 337.711ZM785.985 277.557C783.422 276.081 780.77 274.624 778.033 273.185C783.972 269.954 789.431 266.638 794.38 263.245C815.461 248.795 827.503 232.8 827.503 215.925C827.503 205.517 822.797 195.184 813.816 185.214C805.529 176.015 793.563 167.079 778.152 158.607C780.828 157.199 783.422 155.772 785.932 154.328C818.304 173.094 835 194.317 835 215.925C835 233.745 823.812 250.77 803.049 266.333C797.925 270.175 792.227 273.919 785.985 277.557ZM783.919 153.176C781.377 154.62 778.748 156.048 776.035 157.457C775.438 157.137 774.837 156.818 774.23 156.499C772.386 155.529 771.663 153.243 772.626 151.382C773.602 149.519 775.895 148.827 777.676 149.775L777.681 149.777C779.818 150.9 781.898 152.033 783.919 153.176ZM803.049 140.764C797.91 144.616 792.193 148.371 785.93 152.019C783.567 150.666 781.128 149.329 778.611 148.007C778.378 147.883 778.139 147.777 777.897 147.689C783.888 144.435 789.393 141.094 794.38 137.676C815.461 123.228 827.503 107.235 827.503 90.3636C827.503 73.4886 815.461 57.4939 794.38 43.0435C773.262 28.5677 742.848 15.4792 705.575 4.45853C631.017 -17.5867 528.792 -31.422 418 -31.422C307.214 -31.422 204.989 -17.5867 130.429 4.45853C93.1559 15.4792 62.741 28.5677 41.6217 43.0435C20.5398 57.4938 8.49684 73.4885 8.49684 90.3636C8.49684 107.235 20.539 123.228 41.62 137.676C46.6032 141.092 52.104 144.43 58.0904 147.682C57.8649 147.766 57.6427 147.866 57.4249 147.982C54.8935 149.311 52.4398 150.656 50.0647 152.016C43.8035 148.369 38.0886 144.615 32.9505 140.764C12.1882 125.203 1 108.18 1 90.3636C1 72.5439 12.1883 55.5188 32.9505 39.9555C53.6989 24.4026 83.855 10.4335 121.4 -1.27593C196.478 -24.6911 300.872 -39 418 -39C535.128 -39 639.522 -24.6911 714.6 -1.27593C752.145 10.4335 782.301 24.4026 803.049 39.9555C823.812 55.5188 835 72.5439 835 90.3636C835 108.18 823.812 125.203 803.049 140.764ZM778.033 409.815C780.773 408.375 783.427 406.915 785.994 405.438C792.232 409.074 797.927 412.816 803.049 416.656C823.812 432.218 835 449.242 835 467.062C835 484.881 823.812 501.906 803.049 517.47C797.912 521.321 792.198 525.075 785.937 528.721C783.573 527.367 781.13 526.028 778.611 524.705C778.384 524.585 778.152 524.483 777.917 524.397C783.901 521.146 789.399 517.809 794.38 514.394C815.461 499.944 827.503 483.949 827.503 467.074C827.503 450.199 815.461 434.205 794.38 419.754C789.431 416.362 783.972 413.046 778.033 409.815ZM777.681 526.475C779.821 527.6 781.903 528.734 783.926 529.878C781.384 531.323 778.756 532.75 776.044 534.16C775.444 533.839 774.839 533.518 774.23 533.198C772.388 532.228 771.664 529.945 772.624 528.084C773.597 526.223 775.892 525.533 777.68 526.475L777.681 526.475ZM773.299 534.968C773.493 535.069 773.685 535.171 773.878 535.273C757.083 543.801 737.178 551.66 714.6 558.701C639.522 582.116 535.128 596.425 418 596.425C300.872 596.425 196.478 582.116 121.4 558.701C98.8254 551.661 78.9223 543.803 62.1292 535.276C62.3316 535.169 62.5346 535.062 62.7382 534.955L62.7412 534.954C65.1622 533.673 66.3259 530.892 65.6436 528.326C83.6932 537.329 105.529 545.613 130.424 552.975C204.983 575.022 307.208 588.86 418 588.86C528.792 588.86 631.017 575.025 705.575 552.979C730.492 545.612 752.343 537.321 770.402 528.309C769.701 530.882 770.853 533.68 773.299 534.967L773.299 534.968ZM57.8452 535.313C42.4416 543.78 30.4798 552.712 22.1933 561.908C13.2059 571.882 8.49684 582.221 8.49684 592.636C8.49684 609.508 20.539 625.501 41.6199 639.951C62.7382 654.426 93.1519 667.515 130.424 678.537C204.983 700.583 307.208 714.422 418 714.422C528.792 714.422 631.017 700.587 705.575 678.541C742.848 667.521 773.262 654.432 794.38 639.956C815.461 625.506 827.503 609.511 827.503 592.636C827.503 582.228 822.797 571.892 813.816 561.919C805.53 552.719 793.567 543.781 778.161 535.31C780.836 533.901 783.43 532.475 785.94 531.031C818.307 549.795 835 571.018 835 592.636C835 610.456 823.812 627.481 803.049 643.044C782.301 658.597 752.145 672.566 714.6 684.276C639.522 707.691 535.128 722 418 722C300.872 722 196.478 707.691 121.4 684.276C83.855 672.566 53.6989 658.597 32.9505 643.044C12.1883 627.481 1 610.456 1 592.636C1 571.024 17.6946 549.796 50.0655 531.034C52.5755 532.478 55.1694 533.904 57.8452 535.313ZM61.8088 533.184C61.1884 533.51 60.5731 533.836 59.9629 534.163C57.25 532.754 54.6214 531.326 52.0791 529.881C54.1124 528.732 56.2052 527.592 58.3571 526.463L58.3621 526.46C60.1395 525.514 62.4355 526.214 63.4129 528.07C64.3721 529.927 63.6422 532.212 61.8088 533.184ZM57.4224 524.694C54.8932 526.022 52.4415 527.366 50.0683 528.725C43.8057 525.077 38.0896 521.322 32.9505 517.47C12.1883 501.906 1 484.881 1 467.062C1 449.242 12.1883 432.218 32.9505 416.656C38.0726 412.816 43.768 409.074 50.0063 405.438C52.573 406.916 55.2276 408.375 57.9679 409.816C52.0297 413.046 46.5705 416.362 41.6217 419.754C20.5398 434.205 8.49684 450.199 8.49684 467.074C8.49684 483.946 20.539 499.939 41.6199 514.389C46.6023 517.804 52.1022 521.142 58.0874 524.394C57.8621 524.479 57.64 524.579 57.4224 524.694ZM57.9666 273.185C55.2298 274.624 52.5784 276.081 50.0148 277.557C43.7731 273.919 38.0749 270.175 32.9505 266.333C12.1883 250.77 1 233.745 1 215.925C1 194.314 17.6934 173.087 50.062 154.325C52.572 155.769 55.1659 157.195 57.8418 158.604C42.4398 167.07 30.4792 176.001 22.1933 185.197C13.2059 195.171 8.49684 205.51 8.49684 215.925C8.49684 232.8 20.5389 248.795 41.6199 263.245C46.5688 266.638 52.0282 269.954 57.9666 273.185ZM365.694 211.102C344.277 211.901 323.405 213.186 303.191 214.922C233.033 208.888 170.856 197.415 121.4 181.992C98.8239 174.951 78.9196 167.094 62.1257 158.567C62.3293 158.459 62.5335 158.352 62.7382 158.244L62.7412 158.243C65.1634 156.961 66.327 154.179 65.6426 151.611C83.6924 160.614 105.528 168.897 130.425 176.257C193.085 194.784 275.288 207.512 365.694 211.102Z" fill="#6B5B4D" stroke="#D5C9BC" stroke-width="2"/>
</svg>
