<svg width="276" height="276" viewBox="0 0 276 276" fill="none" xmlns="http://www.w3.org/2000/svg">
<path d="M18.423 257.577C-19.589 219.565 3.12208 135.003 69.053 69.0709C134.984 3.13886 219.544 -19.5726 257.556 18.4401C295.568 56.4528 272.857 141.014 206.926 206.946C140.998 272.875 56.435 295.59 18.423 257.577ZM254.982 21.0147C218.389 -15.5784 136.139 7.13996 71.6342 71.6455C7.12981 136.151 -15.588 218.403 21.0045 254.996C57.5969 291.589 139.843 268.874 204.351 204.365C268.859 139.856 291.574 57.6078 254.982 21.0147Z" fill="#6B5B4D"/>
<path d="M18.423 257.577C-2.62296 236.531 33.4072 167.523 100.455 100.474C167.503 33.4245 236.51 -2.60623 257.556 18.4401C278.602 39.4865 242.568 108.491 175.52 175.54C108.476 242.586 39.469 278.624 18.423 257.577ZM254.982 21.0147C236.032 2.06506 166.451 39.6324 103.036 103.048C39.6217 166.464 2.05517 236.046 21.0045 254.996C39.9503 273.942 109.531 236.375 172.946 172.959C236.36 109.543 273.927 39.9609 254.982 21.0147Z" fill="#6B5B4D"/>
<path d="M18.423 257.577C17.7115 256.866 17.7115 255.711 18.4231 255L254.978 18.4402C255.69 17.7286 256.845 17.7286 257.556 18.4401C258.268 19.1517 258.268 20.3066 257.556 21.0181L21.001 257.577C20.2894 258.289 19.1345 258.289 18.423 257.577Z" fill="#6B5B4D"/>
<path d="M69.0544 206.945C3.12544 141.015 -19.5834 56.4539 18.4297 18.4401C43.1267 -6.25733 89.1276 -6.13771 138.493 18.7477C139.387 19.1946 139.748 20.291 139.301 21.1985C138.847 22.0922 137.754 22.4565 136.85 22.0063C88.9453 -2.14704 44.5565 -2.5245 21.011 21.0214C-15.5825 57.6156 7.13321 139.867 71.6357 204.371C136.138 268.874 218.388 291.59 254.982 254.996C278.527 231.45 278.146 187.064 253.997 139.155C253.543 138.255 253.904 137.158 254.804 136.704C255.708 136.254 256.798 136.608 257.255 137.512C282.137 186.882 282.256 232.883 257.563 257.578C219.543 295.584 134.983 272.875 69.0544 206.945Z" fill="#6B5B4D"/>
</svg>
