<svg width="448" height="672" viewBox="0 0 448 672" fill="none" xmlns="http://www.w3.org/2000/svg">
<path opacity="0.03" d="M363.892 -3.45071C361.988 -4.41085 360.085 -5.35691 358.185 -6.28889C361.03 -7.76897 363.874 -9.21968 366.716 -10.6409C366.93 -10.5331 367.145 -10.4251 367.359 -10.3169L367.362 -10.3154C369.231 -9.38103 370.005 -7.07506 369.06 -5.14844M363.892 -3.45071C363.893 -3.45006 363.895 -3.44941 363.896 -3.44876L363.446 -2.55583L363.891 -3.45094C363.892 -3.45086 363.892 -3.45078 363.892 -3.45071ZM363.892 -3.45071C365.799 -2.50099 368.102 -3.26881 369.06 -5.14844M369.06 -5.14844C369.059 -5.14657 369.058 -5.1447 369.057 -5.14283L369.954 -4.70107L369.063 -5.15376C369.062 -5.15199 369.061 -5.15021 369.06 -5.14844ZM364.481 -11.7577C361.639 -10.3274 358.795 -8.86771 355.95 -7.37885C231.648 -67.675 116.79 -67.5761 55.0938 -5.87843C6.13474 43.0815 -3.01407 122.435 21.3776 210.768C28.942 238.162 39.7365 266.443 53.5862 294.981C52.1384 297.748 50.7182 300.513 49.3257 303.277C33.7143 271.758 21.7398 240.472 13.6174 210.227C-10.6827 119.743 -0.464076 38.7981 49.6527 -11.3196C114.294 -75.9623 234.598 -76.3438 364.481 -11.7577ZM55.8268 295.015C86.6147 236.428 129.83 177.414 184.098 123.145C238.371 68.8708 297.391 25.6507 355.985 -5.13844C358.318 -4.00139 360.655 -2.84288 362.995 -1.6629L363 -1.66072C363.498 -1.41247 364.015 -1.24158 364.536 -1.14342C305.047 29.5109 244.834 73.273 189.539 128.569C134.321 183.787 90.6052 243.91 59.9577 303.319C58.552 300.549 57.175 297.781 55.8268 295.015ZM50.44 305.514C51.8242 302.75 53.2364 299.983 54.6764 297.215C56.0327 299.98 57.4176 302.746 58.8309 305.514C57.4174 308.283 56.0323 311.049 54.6759 313.814C53.2361 311.046 51.824 308.279 50.44 305.514ZM55.8262 316.014C57.1746 313.248 58.5517 310.48 59.9576 307.71C74.1887 335.3 91.2384 363.043 110.95 390.378C109.426 392.643 107.923 394.9 106.439 397.149C86.9952 370.355 70.0787 343.139 55.8262 316.014ZM107.696 398.876C109.177 396.627 110.678 394.37 112.199 392.105C113.931 394.492 115.683 396.875 117.455 399.255C115.948 401.524 114.462 403.786 112.995 406.039C111.209 403.655 109.442 401.267 107.696 398.876ZM118.632 397.486C116.864 395.107 115.116 392.724 113.388 390.338C152.573 332.286 204.94 269.102 267.496 206.545C356.48 117.559 446.733 49.1899 521.68 10.0555C559.159 -9.51456 592.758 -21.7457 620.424 -25.6167C630.49 -27.0252 639.746 -27.3242 648.106 -26.4779C654.259 -22.8262 660.116 -18.7512 665.653 -14.2464C653.009 -19.939 636.233 -20.648 616.401 -17.0473C589.223 -12.1129 556.037 0.956142 519.221 20.8333C445.575 60.5941 357.197 127.707 272.937 211.968C210.819 274.087 158.022 338.444 118.632 397.486ZM114.274 407.741C115.738 405.488 117.222 403.226 118.726 400.956C138.518 427.369 160.797 453.328 185.419 478.319L179.987 483.752C155.79 459.194 133.844 433.699 114.274 407.741ZM181.392 485.175L186.825 479.742C187.728 480.654 188.634 481.565 189.543 482.474C190.446 483.377 191.351 484.277 192.257 485.174L186.824 490.607C185.915 489.707 185.008 488.804 184.102 487.897C183.195 486.991 182.292 486.084 181.392 485.175ZM193.671 483.76C192.765 482.863 191.86 481.963 190.957 481.06C190.048 480.15 189.142 479.24 188.239 478.328L673.614 -7.05599C674.612 -6.24718 675.565 -5.38934 676.472 -4.48212C677.379 -3.57491 678.237 -2.62182 679.046 -1.62365L193.671 483.76ZM188.247 492.013L193.679 486.58C218.666 511.2 244.62 533.477 271.027 553.268C268.758 554.771 266.498 556.255 264.246 557.718C238.291 538.15 212.801 516.206 188.247 492.013ZM265.947 558.997C268.199 557.531 270.46 556.045 272.729 554.539C275.109 556.312 277.492 558.064 279.879 559.797C277.615 561.317 275.36 562.817 273.112 564.297C270.72 562.551 268.332 560.784 265.947 558.997ZM281.646 558.607C279.26 556.879 276.877 555.131 274.497 553.362C333.539 513.971 397.897 461.171 460.016 399.051C544.275 314.789 611.387 226.409 651.149 152.764C671.026 115.947 684.096 82.7623 689.032 55.585C692.633 35.7526 691.926 18.977 686.234 6.33448C690.739 11.8715 694.815 17.729 698.467 23.8826C699.313 32.2428 699.014 41.4988 697.605 51.5658C693.733 79.2315 681.501 112.829 661.93 150.308C622.794 225.254 554.423 315.506 465.439 404.492C402.883 467.049 339.699 519.42 281.646 558.607ZM274.839 565.555C277.086 564.072 279.342 562.569 281.606 561.046C308.942 580.761 336.687 597.814 364.278 612.048C361.511 613.453 358.746 614.829 355.983 616.176C328.855 601.921 301.636 585.002 274.839 565.555ZM358.183 617.326C360.944 615.971 363.708 614.587 366.473 613.175C369.24 614.588 372.005 615.972 374.768 617.328C372.003 618.766 369.24 620.177 366.478 621.56C363.714 620.176 360.949 618.765 358.183 617.326ZM376.968 616.178C374.204 614.83 371.437 613.453 368.669 612.048C428.077 581.4 488.201 537.681 543.422 482.459C598.723 427.158 642.486 366.94 673.141 307.448C673.239 307.981 673.414 308.509 673.671 309.018L674.564 308.568L673.671 309.018C674.846 311.349 676 313.677 677.132 316.001C646.343 374.599 603.122 433.623 548.846 487.9C494.576 542.17 435.559 585.389 376.968 616.178ZM368.715 622.674C371.476 621.283 374.239 619.865 377.002 618.418C405.55 632.275 433.84 643.075 461.244 650.642C549.576 675.034 628.927 665.885 677.886 616.925C739.587 555.223 739.673 440.359 679.373 316.036C680.861 313.191 682.321 310.347 683.751 307.504C748.341 437.41 747.964 557.728 683.327 622.367C633.202 672.475 552.254 682.689 461.769 658.387C431.523 650.263 400.235 638.287 368.715 622.674ZM682.635 305.27C681.213 308.112 679.763 310.956 678.283 313.801C677.355 311.909 676.413 310.014 675.457 308.118C674.501 306.22 675.26 303.911 677.155 302.954C679.069 302.001 681.362 302.751 682.325 304.655C682.428 304.86 682.532 305.065 682.635 305.27ZM694.49 1.18398C734.829 51.7042 741.712 126.921 719.338 210.225C711.231 240.411 699.287 271.633 683.719 303.09C682.106 300.718 678.99 299.86 676.353 301.12C691.67 270.492 703.49 240.11 711.599 210.745C731.621 138.243 729.046 71.7926 700.409 23.2316C699.539 15.0561 697.586 7.67338 694.49 1.18398ZM271.179 658.392C187.876 680.768 112.657 673.886 62.1379 633.547C68.6428 636.65 76.0455 638.605 84.2445 639.472C132.801 668.087 199.234 670.655 271.714 650.639C299.115 643.072 327.403 632.273 355.949 618.416C358.714 619.863 361.478 621.283 364.24 622.674C332.718 638.29 301.428 650.268 271.179 658.392ZM271.327 565.47C250.493 579.114 230.38 591 211.263 600.983C173.785 620.555 140.186 632.788 112.521 636.661C102.477 638.067 93.2398 638.368 84.8946 637.529C78.7266 633.871 72.8559 629.788 67.3071 625.273C79.9494 630.964 96.7246 631.672 116.557 628.07C143.733 623.135 176.917 610.065 213.733 590.187C229.899 581.459 246.774 571.413 264.161 560.157C266.546 561.948 268.934 563.719 271.327 565.47ZM182.687 489.312C183.594 490.218 184.501 491.121 185.41 492.021L59.3491 618.084C58.3509 617.276 57.3979 616.418 56.4907 615.511C56.4868 615.507 56.483 615.503 56.4792 615.499C55.5762 614.595 54.7222 613.646 53.9169 612.652L179.978 486.589C180.878 487.498 181.781 488.405 182.687 489.312ZM55.0765 616.925C55.9835 617.832 56.9009 618.725 57.8286 619.605L55.0672 622.366C53.568 623.866 51.134 623.866 49.6349 622.367C48.1359 620.867 48.1359 618.433 49.635 616.934L52.3965 614.173C53.2762 615.1 54.1695 616.018 55.0765 616.925ZM80.031 636.894C69.3396 635.164 60.2754 631.378 53.0404 625.45C54.2982 625.302 55.5169 624.745 56.4814 623.781L59.2902 620.972C65.7361 626.917 72.6645 632.22 80.031 636.894ZM48.2208 615.52C47.2563 616.484 46.6997 617.703 46.5512 618.961C40.6233 611.725 36.8368 602.66 35.1058 591.967C39.7804 599.335 45.084 606.264 51.0296 612.711L48.2208 615.52ZM32.5285 587.753C33.3951 595.953 35.3503 603.357 38.4543 609.863C-1.88458 559.342 -8.76807 484.125 13.6058 400.821C21.7306 370.57 33.7089 339.278 49.3256 307.752C50.7179 310.516 52.1379 313.281 53.5856 316.048C39.731 344.593 28.9328 372.879 21.3661 400.279C1.34991 472.761 3.91604 539.195 32.5285 587.753ZM46.7265 604.691C42.2118 599.142 38.1288 593.271 34.471 587.103C33.632 578.758 33.933 569.522 35.3382 559.479C39.2091 531.813 51.44 498.214 71.0097 460.734C80.993 441.614 92.8787 421.498 106.524 400.661C108.274 403.053 110.045 405.442 111.835 407.826C100.579 425.213 90.5334 442.09 81.8054 458.257C61.9287 495.074 48.8599 528.26 43.9257 555.438C40.3251 575.271 41.0341 592.047 46.7265 604.691ZM370.909 -4.37887C372.138 -7.01938 371.261 -10.1421 368.902 -11.7284C400.359 -27.2968 431.582 -39.2418 461.768 -47.3495C545.071 -69.7237 620.287 -62.8401 670.806 -22.5003C664.316 -25.5968 656.933 -27.5501 648.757 -28.4199C600.196 -57.0562 533.746 -59.6295 461.245 -39.6071C431.893 -31.5011 401.524 -19.6866 370.909 -4.37887ZM652.974 -25.8387C663.639 -24.103 672.683 -20.3196 679.904 -14.4034C678.646 -14.2549 677.428 -13.6983 676.463 -12.7337L673.673 -9.94325C667.239 -15.8768 660.325 -21.171 652.974 -25.8387ZM675.134 -8.57642L677.877 -11.3195C679.376 -12.8187 681.81 -12.8187 683.31 -11.3196C684.809 -9.82055 684.809 -7.38643 683.309 -5.88723L680.566 -3.14413C679.687 -4.07187 678.793 -4.98931 677.886 -5.89632C676.979 -6.80334 676.062 -7.69669 675.134 -8.57642ZM681.933 -1.68255L684.724 -4.47303C685.688 -5.4376 686.245 -6.6563 686.393 -7.91413C692.309 -0.692982 696.092 8.35022 697.828 19.0146C693.16 11.6644 687.866 4.75068 681.933 -1.68255Z" fill="#6B5B4D" stroke="#E9ECE4" stroke-width="2"/>
</svg>
