<svg width="80" height="80" viewBox="0 0 80 80" fill="none" xmlns="http://www.w3.org/2000/svg">
<mask id="path-1-inside-1_8212_47893" fill="white">
<path d="M73.0399 40.0199C73.0399 58.2564 58.2564 73.0399 40.0199 73.0399C21.7835 73.0399 7 58.2564 7 40.0199C7 21.7835 21.7835 7 40.0199 7C58.2564 7 73.0399 21.7835 73.0399 40.0199ZM20.8366 40.0199C20.8366 50.6146 29.4253 59.2033 40.0199 59.2033C50.6146 59.2033 59.2033 50.6146 59.2033 40.0199C59.2033 29.4253 50.6146 20.8366 40.0199 20.8366C29.4253 20.8366 20.8366 29.4253 20.8366 40.0199Z"/>
</mask>
<path d="M73.0399 40.0199C73.0399 58.2564 58.2564 73.0399 40.0199 73.0399C21.7835 73.0399 7 58.2564 7 40.0199C7 21.7835 21.7835 7 40.0199 7C58.2564 7 73.0399 21.7835 73.0399 40.0199ZM20.8366 40.0199C20.8366 50.6146 29.4253 59.2033 40.0199 59.2033C50.6146 59.2033 59.2033 50.6146 59.2033 40.0199C59.2033 29.4253 50.6146 20.8366 40.0199 20.8366C29.4253 20.8366 20.8366 29.4253 20.8366 40.0199Z" stroke="black" stroke-width="1.651" mask="url(#path-1-inside-1_8212_47893)"/>
</svg>
