<svg width="81" height="80" viewBox="0 0 81 80" fill="none" xmlns="http://www.w3.org/2000/svg">
<path d="M38.4316 11.6562C38.7256 10.6102 40.1716 10.5775 40.5371 11.5586L40.5684 11.6562L46.1172 31.4209C46.3036 32.085 46.8021 32.6134 47.4473 32.8408L47.5791 32.8828L67.3438 38.4316C68.3898 38.7256 68.4225 40.1716 67.4414 40.5371L67.3438 40.5684L47.5791 46.1172C46.915 46.3036 46.3866 46.8021 46.1592 47.4473L46.1172 47.5791L40.5684 67.3438C40.2744 68.3898 38.8284 68.4225 38.4629 67.4414L38.4316 67.3438L32.8828 47.5791C32.6964 46.915 32.1979 46.3866 31.5527 46.1592L31.4209 46.1172L11.6562 40.5684C10.6102 40.2744 10.5775 38.8284 11.5586 38.4629L11.6562 38.4316L31.4209 32.8828C32.085 32.6964 32.6134 32.1979 32.8408 31.5527L32.8828 31.4209L38.4316 11.6562Z" stroke="black"/>
</svg>
