<svg width="84" height="80" viewBox="0 0 84 80" fill="none" xmlns="http://www.w3.org/2000/svg">
<path d="M42.0014 3L42.0266 2.50064L42.011 2.49985L41.9954 2.50004L42.0014 3ZM45.5952 4.87207L46.0044 4.5848L46.0028 4.58256L45.5952 4.87207ZM48.0336 9.70898L47.5612 9.87277L47.5642 9.88149L47.5676 9.8901L48.0336 9.70898ZM49.4418 19.2676L48.9422 19.2878L48.9423 19.2883L49.4418 19.2676ZM49.4946 21.748L48.9946 21.7508L49.0016 23.0051L49.8594 22.09L49.4946 21.748ZM50.0922 21.1123L49.7345 20.7629L49.7293 20.7684L50.0922 21.1123ZM59.3149 13.9385L59.5385 14.3858L59.5465 14.3816L59.3149 13.9385ZM66.0483 12.1826L65.9463 12.6721L65.9544 12.6738L65.9626 12.6752L66.0483 12.1826ZM69.1957 14.5977L68.7238 14.7628L68.7274 14.7732L68.7315 14.7834L69.1957 14.5977ZM69.1225 19.502L68.645 19.3538L68.6424 19.362L68.6401 19.3704L69.1225 19.502ZM66.268 25.3574L66.6724 25.6515L66.6768 25.6454L66.6811 25.6391L66.268 25.3574ZM60.0434 32.2461L59.6916 31.8908L58.7931 32.7803L60.057 32.7459L60.0434 32.2461ZM61.3471 32.2197L61.3411 31.7198H61.3411L61.3471 32.2197ZM72.3354 33.5381L72.1768 34.0123L72.183 34.0143L72.3354 33.5381ZM78.062 36.2646L78.4343 35.931L78.4232 35.9185L78.4112 35.9069L78.062 36.2646ZM79.5034 39.9219L80.0033 39.931L80.0034 39.9235L80.0033 39.9159L79.5034 39.9219ZM77.3217 43.623L77.6041 44.0359L77.6149 44.028L77.3217 43.623ZM71.1948 46.3359L71.0517 45.8569L71.0448 45.8589L71.0379 45.8612L71.1948 46.3359ZM60.8041 47.4443L60.7958 47.9443L60.8029 47.9443L60.8041 47.4443ZM60.1743 47.4297L60.1848 46.9298L58.9401 46.9034L59.8209 47.7834L60.1743 47.4297ZM61.2914 48.5596L60.9332 48.9084L60.9379 48.9131L61.2914 48.5596ZM68.1713 57.7822L68.6262 57.5746L68.6235 57.5687L68.1713 57.7822ZM69.4155 64.1504L68.9354 64.0104L68.9337 64.0166L69.4155 64.1504ZM66.9272 67.0781L67.0763 67.5554L67.0949 67.5496L67.1129 67.5424L66.9272 67.0781ZM62.2426 66.9316L62.3774 66.4501L62.3742 66.4493L62.2426 66.9316ZM54.9233 62.833L55.2253 62.4344L55.2174 62.4286L54.9233 62.833ZM49.8959 58.4365L50.2468 58.0803L49.3432 57.1901L49.3964 58.4575L49.8959 58.4365ZM49.9164 58.9102L50.4164 58.8983L50.4161 58.8907L49.9164 58.9102ZM48.6069 70.5195L48.1306 70.3671L48.128 70.3757L48.6069 70.5195ZM45.1596 76.5654L44.8806 76.1505L44.8737 76.1551L44.867 76.16L45.1596 76.5654ZM41.2319 77.1299L41.4434 76.6768L41.4335 76.6722L41.4233 76.668L41.2319 77.1299ZM37.7739 73.6514L38.2135 73.4132L38.2094 73.4056L38.205 73.3981L37.7739 73.6514ZM35.5786 67.5186L35.0856 67.6024L35.0869 67.6099L35.0884 67.6174L35.5786 67.5186ZM34.9936 57.5352L34.4936 57.5264L34.4936 57.5339L34.9936 57.5352ZM35.0014 57.1943L35.5013 57.2049L35.5279 55.9401L34.6438 56.8449L35.0014 57.1943ZM34.0629 58.1484L33.7093 57.7948L33.7024 57.802L34.0629 58.1484ZM24.6938 65.6875L24.8984 66.1438L24.9067 66.1399L24.6938 65.6875ZM19.058 67.4443V67.9443H19.0581L19.058 67.4443ZM15.6176 65.834L15.2427 66.1648L15.253 66.1765L15.2641 66.1875L15.6176 65.834ZM14.4467 61.9541L13.9553 61.8619L13.9548 61.8647L14.4467 61.9541ZM16.2036 56.8311L16.6508 57.0547L16.6549 57.0464L16.6587 57.038L16.2036 56.8311ZM22.059 49.1455L22.4225 49.4888L22.4228 49.4885L22.059 49.1455ZM23.4272 47.7422L23.7807 48.0958L24.6433 47.2332L23.4235 47.2422L23.4272 47.7422ZM22.4536 47.748L22.4542 47.248L22.4476 47.2481L22.4536 47.748ZM11.0483 46.2285L10.8791 46.6991L10.8852 46.7012L11.0483 46.2285ZM5.6225 42.6699L6.05803 42.4243L6.05481 42.4187L5.6225 42.6699ZM5.26606 38.8438L4.8204 38.6171L4.81159 38.6344L4.80416 38.6523L5.26606 38.8438ZM8.64399 35.5947L8.89432 36.0276L8.89723 36.0258L8.64399 35.5947ZM16.6899 33.2207L16.7641 33.7153L16.7738 33.7136L16.6899 33.2207ZM24.1371 32.6836L24.1407 33.1836L25.3672 33.1749L24.4842 32.3236L24.1371 32.6836ZM23.0102 31.5791L22.6566 31.9327L23.0102 31.5791ZM16.2768 22.7959L16.7269 22.5781L16.724 22.5723L16.2768 22.7959ZM14.227 16.7939L13.7281 16.7607L13.727 16.7774L13.727 16.7941L14.227 16.7939ZM15.8373 13.207L15.4947 12.8429L15.4891 12.8481L15.4838 12.8535L15.8373 13.207ZM20.0092 12.1826L20.1073 11.6922L20.0942 11.6899L20.0092 12.1826ZM26.2309 14.6709L25.9881 15.108L25.9944 15.1115L26.0007 15.1148L26.2309 14.6709ZM34.2827 21.332L34.6462 20.9887L34.6413 20.9836L34.2827 21.332ZM34.6166 21.6895L34.2519 22.0315L35.1335 22.9715L35.1166 21.6829L34.6166 21.6895ZM34.6147 21.5674L35.1148 21.5614L35.1144 21.5514L34.6147 21.5674ZM35.7651 9.59668L35.2957 9.42426L35.2926 9.43296L35.7651 9.59668ZM38.4457 4.33691L38.088 3.9876L38.088 3.98762L38.4457 4.33691ZM42.0014 3L41.9762 3.49936C42.7667 3.53931 43.3511 3.66578 43.838 3.91294C44.3205 4.15781 44.7472 4.54153 45.1875 5.16158L45.5952 4.87207L46.0028 4.58256C45.4956 3.86835 44.9539 3.3579 44.2906 3.02123C43.6319 2.68686 42.8932 2.54443 42.0266 2.50064L42.0014 3ZM45.5952 4.87207L45.1859 5.15933C45.8448 6.09799 46.9873 8.21727 47.5612 9.87277L48.0336 9.70898L48.5061 9.5452C47.9005 7.79867 46.7146 5.59665 46.0044 4.58481L45.5952 4.87207ZM48.0336 9.70898L47.5676 9.8901C47.8659 10.6576 48.1751 12.0931 48.4282 13.8211C48.6795 15.5357 48.8696 17.4957 48.9422 19.2878L49.4418 19.2676L49.9414 19.2473C49.8672 17.4182 49.6737 15.4234 49.4177 13.6762C49.1637 11.9424 48.8422 10.4092 48.4997 9.52786L48.0336 9.70898ZM49.4418 19.2676L48.9423 19.2883C48.9744 20.0644 48.9898 20.8987 48.9946 21.7508L49.4946 21.748L49.9946 21.7453C49.9898 20.8854 49.9742 20.0385 49.9414 19.2469L49.4418 19.2676ZM49.4946 21.748L49.8594 22.09C50.06 21.876 50.2578 21.6645 50.4552 21.4562L50.0922 21.1123L49.7293 20.7684C49.5296 20.9792 49.3294 21.1932 49.1298 21.4061L49.4946 21.748ZM50.0922 21.1123L50.4499 21.4617C53.5014 18.3375 56.8242 15.7428 59.5385 14.3857L59.3149 13.9385L59.0913 13.4913C56.2428 14.9155 52.8314 17.5924 49.7345 20.7629L50.0922 21.1123ZM59.3149 13.9385L59.5465 14.3816C62.7476 12.7083 64.3696 12.3437 65.9463 12.6721L66.0483 12.1826L66.1502 11.6931C64.2139 11.2898 62.3225 11.8021 59.0833 13.4954L59.3149 13.9385ZM66.0483 12.1826L65.9626 12.6752C66.7619 12.8142 67.3355 13.0318 67.7612 13.351C68.1791 13.6643 68.4935 14.1048 68.7238 14.7628L69.1957 14.5977L69.6677 14.4325C69.3856 13.6266 68.968 13.006 68.3611 12.551C67.7621 12.1018 67.0181 11.8438 66.134 11.69L66.0483 12.1826ZM69.1957 14.5977L68.7315 14.7834C69.2619 16.1094 69.2813 17.3033 68.645 19.3538L69.1225 19.502L69.6 19.6502C70.2812 17.4553 70.3007 16.0137 69.66 14.412L69.1957 14.5977ZM69.1225 19.502L68.6401 19.3704C68.2195 20.9124 66.9314 23.4968 65.8549 25.0758L66.268 25.3574L66.6811 25.6391C67.8003 23.9977 69.147 21.3121 69.6049 19.6335L69.1225 19.502ZM66.268 25.3574L65.8636 25.0633C64.7939 26.5341 62.1244 29.4822 59.6916 31.8908L60.0434 32.2461L60.3952 32.6014C62.838 30.1829 65.554 27.1893 66.6724 25.6515L66.268 25.3574ZM60.0434 32.2461L60.057 32.7459C60.4936 32.734 60.9275 32.7248 61.3531 32.7197L61.3471 32.2197L61.3411 31.7198C60.9094 31.7249 60.4702 31.7343 60.0298 31.7463L60.0434 32.2461ZM61.3471 32.2197L61.3531 32.7197C65.0513 32.6755 69.8606 33.2376 72.1768 34.0123L72.3354 33.5381L72.494 33.0639C70.0292 32.2396 65.0951 31.6749 61.3411 31.7198L61.3471 32.2197ZM72.3354 33.5381L72.183 34.0143C73.3311 34.3818 74.5459 34.8636 75.5672 35.3464C76.6099 35.8394 77.3863 36.3037 77.7127 36.6224L78.062 36.2646L78.4112 35.9069C77.9521 35.4586 77.0342 34.9339 75.9946 34.4424C74.9335 33.9408 73.6778 33.4428 72.4878 33.0619L72.3354 33.5381ZM78.062 36.2646L77.6896 36.5983C78.0084 36.9541 78.3378 37.5041 78.5892 38.123C78.8406 38.7419 78.9969 39.388 79.0034 39.9279L79.5034 39.9219L80.0033 39.9159C79.9949 39.2138 79.7977 38.441 79.5157 37.7467C79.2337 37.0523 78.8498 36.3946 78.4343 35.931L78.062 36.2646ZM79.5034 39.9219L79.0034 39.9127C78.9884 40.7312 78.884 41.2408 78.6233 41.6873C78.3548 42.1472 77.8889 42.5952 77.0285 43.218L77.3217 43.623L77.6149 44.028C78.4993 43.3878 79.1086 42.8394 79.4868 42.1916C79.8729 41.5304 79.987 40.821 80.0033 39.931L79.5034 39.9219ZM77.3217 43.623L77.0394 43.2104C75.8636 44.0147 73.1871 45.219 71.0517 45.8569L71.1948 46.3359L71.3379 46.815C73.5347 46.1588 76.3155 44.9172 77.604 44.0357L77.3217 43.623ZM71.1948 46.3359L71.0379 45.8612C70.0359 46.1921 68.3769 46.4675 66.4958 46.6579C64.6253 46.8471 62.5733 46.9488 60.8054 46.9443L60.8041 47.4443L60.8029 47.9443C62.6065 47.9489 64.6929 47.8454 66.5965 47.6528C68.4893 47.4613 70.2398 47.1779 71.3516 46.8107L71.1948 46.3359ZM60.8041 47.4443L60.8124 46.9444C60.6032 46.9409 60.4065 46.9345 60.1848 46.9298L60.1743 47.4297L60.1637 47.9296C60.3656 47.9338 60.5888 47.9408 60.7958 47.9443L60.8041 47.4443ZM60.1743 47.4297L59.8209 47.7834C60.1996 48.1618 60.5728 48.5383 60.9332 48.9084L61.2914 48.5596L61.6497 48.2108C61.2851 47.8364 60.9084 47.4564 60.5277 47.076L60.1743 47.4297ZM61.2914 48.5596L60.9379 48.9131C64.0566 52.0318 66.5058 55.4263 67.7192 57.9957L68.1713 57.7822L68.6235 57.5687C67.3482 54.8683 64.8209 51.3819 61.645 48.206L61.2914 48.5596ZM68.1713 57.7822L67.7165 57.9899C68.4836 59.6703 68.9002 60.7763 69.0709 61.6646C69.2365 62.526 69.1732 63.1953 68.9355 64.0104L69.4155 64.1504L69.8955 64.2904C70.1701 63.3489 70.2532 62.5175 70.0529 61.4758C69.8578 60.4608 69.3961 59.2611 68.6262 57.5746L68.1713 57.7822ZM69.4155 64.1504L68.9337 64.0166C68.605 65.1998 67.6796 66.2386 66.7415 66.6139L66.9272 67.0781L67.1129 67.5424C68.3704 67.0393 69.494 65.7357 69.8972 64.2842L69.4155 64.1504ZM66.9272 67.0781L66.7781 66.6009C65.7228 66.9307 64.1412 66.944 62.3774 66.4502L62.2426 66.9316L62.1078 67.4131C64.0037 67.9439 65.7894 67.9575 67.0763 67.5554L66.9272 67.0781ZM62.2426 66.9316L62.3742 66.4493C61.6303 66.2464 60.4479 65.7042 59.1287 64.9673C57.8195 64.236 56.412 63.3335 55.2252 62.4345L54.9233 62.833L54.6214 63.2316C55.8499 64.1623 57.2971 65.0896 58.6411 65.8403C59.9751 66.5855 61.2448 67.1778 62.1111 67.414L62.2426 66.9316ZM54.9233 62.833L55.2174 62.4286C53.7919 61.3919 51.9343 59.7427 50.2468 58.0803L49.8959 58.4365L49.545 58.7927C51.2494 60.4717 53.1469 62.1593 54.6292 63.2374L54.9233 62.833ZM49.8959 58.4365L49.3964 58.4575C49.4033 58.6222 49.4107 58.7719 49.4168 58.9296L49.9164 58.9102L50.4161 58.8907C50.41 58.7343 50.4019 58.5677 50.3955 58.4156L49.8959 58.4365ZM49.9164 58.9102L49.4166 58.922C49.5202 63.2877 49.0557 67.477 48.1307 70.3671L48.6069 70.5195L49.0831 70.6719C50.0538 67.6389 50.5215 63.3288 50.4163 58.8983L49.9164 58.9102ZM48.6069 70.5195L48.128 70.3757C47.0889 73.8355 46.217 75.2518 44.8806 76.1505L45.1596 76.5654L45.4386 76.9803C47.0801 75.8765 48.0344 74.1641 49.0857 70.6634L48.6069 70.5195ZM45.1596 76.5654L44.867 76.16C44.2092 76.6348 43.6527 76.8931 43.1266 76.9746C42.6103 77.0546 42.0751 76.9717 41.4434 76.6768L41.2319 77.1299L41.0204 77.5829C41.794 77.9441 42.53 78.079 43.2798 77.9628C44.0198 77.8481 44.7245 77.4961 45.4522 76.9709L45.1596 76.5654ZM41.2319 77.1299L41.4233 76.668C40.1041 76.1212 39.2361 75.3009 38.2135 73.4132L37.7739 73.6514L37.3342 73.8895C38.4288 75.9101 39.4469 76.9312 41.0404 77.5918L41.2319 77.1299ZM37.7739 73.6514L38.205 73.3981C37.3955 72.02 36.4464 69.2931 36.0687 67.4197L35.5786 67.5186L35.0884 67.6174C35.4811 69.5648 36.4616 72.4044 37.3427 73.9046L37.7739 73.6514ZM35.5786 67.5186L36.0715 67.4347C35.7446 65.5138 35.4846 61.0982 35.4936 57.5364L34.9936 57.5352L34.4936 57.5339C34.4846 61.1152 34.7444 65.5976 35.0856 67.6024L35.5786 67.5186ZM34.9936 57.5352L35.4935 57.5439C35.4955 57.4293 35.4987 57.3274 35.5013 57.2049L35.0014 57.1943L34.5015 57.1838C34.4993 57.2891 34.4956 57.4144 34.4937 57.5264L34.9936 57.5352ZM35.0014 57.1943L34.6438 56.8449C34.331 57.165 34.0213 57.483 33.7094 57.7949L34.0629 58.1484L34.4165 58.502C34.7335 58.185 35.0481 57.8619 35.359 57.5438L35.0014 57.1943ZM34.0629 58.1484L33.7024 57.802C30.129 61.5213 26.8859 64.1033 24.4809 65.2351L24.6938 65.6875L24.9067 66.1399C27.4789 64.9294 30.8238 62.2414 34.4235 58.4949L34.0629 58.1484ZM24.6938 65.6875L24.4893 65.2312C23.4465 65.6987 22.294 66.1309 21.2877 66.4454C20.2588 66.767 19.4481 66.9443 19.058 66.9443L19.058 67.4443L19.0581 67.9443C19.6197 67.9443 20.5656 67.7188 21.586 67.3999C22.6291 67.0739 23.8187 66.6277 24.8983 66.1438L24.6938 65.6875ZM19.058 67.4443V66.9443C18.6477 66.9443 18.0831 66.7924 17.4958 66.5161C16.9148 66.2427 16.3617 65.8709 15.9712 65.4804L15.6176 65.834L15.2641 66.1875C15.7519 66.6754 16.4067 67.1088 17.0701 67.4209C17.7273 67.7302 18.4437 67.9443 19.058 67.9443V67.4443ZM15.6176 65.834L15.9925 65.5032C15.4688 64.9096 15.1511 64.403 14.9878 63.8818C14.826 63.3654 14.8026 62.7919 14.9387 62.0435L14.4467 61.9541L13.9548 61.8647C13.7981 62.7266 13.8111 63.4708 14.0335 64.1808C14.2544 64.8859 14.6685 65.5141 15.2427 66.1648L15.6176 65.834ZM14.4467 61.9541L14.9382 62.0463C15.1496 60.9189 15.8673 58.6216 16.6508 57.0547L16.2036 56.8311L15.7563 56.6074C14.9297 58.2607 14.1832 60.6469 13.9553 61.8619L14.4467 61.9541ZM16.2036 56.8311L16.6587 57.038C16.9994 56.2884 17.8105 55.0643 18.87 53.6759C19.9213 52.2982 21.1909 50.7929 22.4225 49.4888L22.059 49.1455L21.6955 48.8022C20.4385 50.1332 19.1463 51.6654 18.0751 53.0692C17.012 54.4623 16.1396 55.7634 15.7484 56.6242L16.2036 56.8311ZM22.059 49.1455L22.4228 49.4885C22.8468 49.0388 23.3053 48.5711 23.7807 48.0958L23.4272 47.7422L23.0737 47.3886C22.5941 47.8681 22.1282 48.3433 21.6952 48.8025L22.059 49.1455ZM23.4272 47.7422L23.4235 47.2422C23.0924 47.2446 22.7716 47.2485 22.4542 47.248L22.4536 47.748L22.4529 48.248C22.776 48.2485 23.1059 48.2446 23.4309 48.2422L23.4272 47.7422ZM22.4536 47.748L22.4476 47.2481C18.0373 47.3009 13.8975 46.6827 11.2114 45.7559L11.0483 46.2285L10.8852 46.7012C13.7083 47.6752 17.9686 48.3018 22.4595 48.248L22.4536 47.748ZM11.0483 46.2285L11.2175 45.758C9.47917 45.133 8.39675 44.6583 7.6419 44.16C6.90981 43.6767 6.47516 43.1638 6.058 42.4243L5.6225 42.6699L5.18701 42.9156C5.66885 43.7698 6.20564 44.4101 7.09096 44.9946C7.95352 45.564 9.1345 46.0717 10.8791 46.699L11.0483 46.2285ZM5.6225 42.6699L6.05481 42.4187C5.43777 41.3568 5.34107 39.9687 5.72796 39.0352L5.26606 38.8438L4.80416 38.6523C4.28556 39.9035 4.43325 41.6185 5.19019 42.9211L5.6225 42.6699ZM5.26606 38.8438L5.71172 39.0704C6.21291 38.0851 7.30859 36.9447 8.89432 36.0275L8.64399 35.5947L8.39366 35.1619C6.68952 36.1475 5.43174 37.4152 4.8204 38.6171L5.26606 38.8438ZM8.64399 35.5947L8.89723 36.0258C9.56214 35.6353 10.7761 35.168 12.2249 34.7388C13.6628 34.3129 15.2917 33.9362 16.7641 33.7152L16.6899 33.2207L16.6156 32.7262C15.0914 32.9551 13.417 33.3428 11.9409 33.78C10.4757 34.214 9.16502 34.7088 8.39074 35.1636L8.64399 35.5947ZM16.6899 33.2207L16.7738 33.7136C18.7063 33.3847 21.5515 33.202 24.1407 33.1836L24.1371 32.6836L24.1336 32.1836C21.5176 32.2022 18.6129 32.3862 16.606 32.7278L16.6899 33.2207ZM24.1371 32.6836L24.4842 32.3236C24.1035 31.9566 23.7273 31.5891 23.3638 31.2255L23.0102 31.5791L22.6566 31.9327C23.0257 32.3017 23.4064 32.6736 23.7901 33.0436L24.1371 32.6836ZM23.0102 31.5791L23.3638 31.2255C20.7487 28.6105 17.7909 24.7767 16.7269 22.5781L16.2768 22.7959L15.8267 23.0137C16.959 25.3533 20.0021 29.2781 22.6566 31.9327L23.0102 31.5791ZM16.2768 22.7959L16.724 22.5723C16.185 21.4942 15.6811 20.2885 15.313 19.2205C14.9373 18.1302 14.7271 17.2502 14.727 16.7938L14.227 16.7939L13.727 16.7941C13.7271 17.4359 13.993 18.4591 14.3676 19.5463C14.75 20.6559 15.2709 21.9021 15.8296 23.0195L16.2768 22.7959ZM14.227 16.7939L14.7259 16.8272C14.7577 16.3506 14.9211 15.7306 15.1885 15.1182C15.4559 14.5058 15.8091 13.9424 16.1909 13.5606L15.8373 13.207L15.4838 12.8535C14.9873 13.35 14.5719 14.0311 14.272 14.7181C13.9721 15.4051 13.7695 16.1394 13.7281 16.7607L14.227 16.7939ZM15.8373 13.207L16.18 13.5711C16.7761 13.0101 17.2137 12.7288 17.7151 12.6035C18.2316 12.4744 18.8775 12.4949 19.9243 12.6753L20.0092 12.1826L20.0942 11.6899C19.0183 11.5044 18.2004 11.4515 17.4727 11.6333C16.73 11.819 16.1428 12.2329 15.4947 12.8429L15.8373 13.207ZM20.0092 12.1826L19.9112 12.6729C21.3081 12.9523 24.0399 14.0257 25.9881 15.108L26.2309 14.6709L26.4737 14.2338C24.4694 13.1203 21.6381 11.9985 20.1073 11.6923L20.0092 12.1826ZM26.2309 14.6709L26.0007 15.1148C26.9376 15.6005 28.2935 16.5954 29.7438 17.8086C31.1859 19.0149 32.6921 20.4123 33.924 21.6804L34.2827 21.332L34.6413 20.9836C33.3846 19.69 31.853 18.2692 30.3855 17.0416C28.9261 15.8208 27.5005 14.766 26.4611 14.227L26.2309 14.6709ZM34.2827 21.332L33.9192 21.6753C34.0312 21.794 34.1339 21.9057 34.2519 22.0315L34.6166 21.6895L34.9814 21.3474C34.8747 21.2337 34.7565 21.1056 34.6462 20.9887L34.2827 21.332ZM34.6166 21.6895L35.1166 21.6829C35.1158 21.6226 35.1153 21.6147 35.1147 21.5614L34.6147 21.5674L34.1147 21.5734C34.1151 21.6014 34.1164 21.6749 34.1167 21.696L34.6166 21.6895ZM34.6147 21.5674L35.1144 21.5514C34.9496 16.3963 35.3672 12.2718 36.2375 9.76039L35.7651 9.59668L35.2926 9.43296C34.3618 12.1191 33.9489 16.3905 34.1149 21.5834L34.6147 21.5674ZM35.7651 9.59668L36.2344 9.76907C36.6285 8.6963 37.1245 7.56969 37.6025 6.63001C38.0914 5.66919 38.531 4.96527 38.8035 4.68621L38.4457 4.33691L38.088 3.98762C37.6957 4.3894 37.1961 5.22359 36.7113 6.17657C36.2157 7.15068 35.7037 8.31354 35.2957 9.42429L35.7651 9.59668ZM38.4457 4.33691L38.8035 4.68623C39.0902 4.39257 39.5934 4.09464 40.2013 3.86746C40.8029 3.64267 41.4552 3.50658 42.0074 3.49996L42.0014 3L41.9954 2.50004C41.3056 2.5083 40.5381 2.67408 39.8513 2.93073C39.1709 3.18499 38.5172 3.54809 38.088 3.9876L38.4457 4.33691Z" fill="black"/>
</svg>
