<svg width="84" height="80" viewBox="0 0 84 80" fill="none" xmlns="http://www.w3.org/2000/svg">
<path d="M42.0048 3L42.0301 2.50064L42.0145 2.49985L41.9988 2.50004L42.0048 3ZM45.5986 4.87207L46.0078 4.5848L46.0062 4.58256L45.5986 4.87207ZM48.0371 9.70898L47.5646 9.87277L47.5677 9.88149L47.571 9.8901L48.0371 9.70898ZM49.4453 19.2676L48.9457 19.2878L48.9457 19.2883L49.4453 19.2676ZM49.4951 21.4854L48.9951 21.4897L49.0059 22.7347L49.8592 21.828L49.4951 21.4854ZM49.8652 21.0928L49.5074 20.7434L49.5022 20.7489L49.8652 21.0928ZM59.0878 13.9189L59.3115 14.3662L59.3195 14.3621L59.0878 13.9189ZM65.8212 12.1631L65.7193 12.6526L65.7274 12.6543L65.7356 12.6557L65.8212 12.1631ZM68.9687 14.5781L68.4968 14.7433L68.5004 14.7536L68.5045 14.7638L68.9687 14.5781ZM68.8955 19.4824L68.4179 19.3342L68.4154 19.3425L68.4131 19.3508L68.8955 19.4824ZM66.041 25.3379L66.4453 25.632L66.4498 25.6258L66.4541 25.6196L66.041 25.3379ZM59.789 32.2539L59.4374 31.8984L58.534 32.7919L59.8041 32.7537L59.789 32.2539ZM61.3505 32.2197L61.3446 31.7198H61.3445L61.3505 32.2197ZM72.3388 33.5381L72.1802 34.0123L72.1864 34.0143L72.3388 33.5381ZM78.0654 36.2646L78.4377 35.931L78.4266 35.9185L78.4147 35.9069L78.0654 36.2646ZM79.5068 39.9219L80.0067 39.931L80.0068 39.9235L80.0067 39.9159L79.5068 39.9219ZM77.3251 43.623L77.6075 44.0359L77.6183 44.028L77.3251 43.623ZM71.1982 46.3359L71.0551 45.8569L71.0482 45.8589L71.0414 45.8612L71.1982 46.3359ZM60.8076 47.4443L60.7993 47.9443L60.8063 47.9443L60.8076 47.4443ZM59.9619 47.4258L59.9733 46.9259L58.7259 46.8975L59.6084 47.7794L59.9619 47.4258ZM61.0644 48.54L60.7061 48.8889L60.7108 48.8936L61.0644 48.54ZM67.9443 57.7627L68.3992 57.555L68.3964 57.5492L67.9443 57.7627ZM69.1884 64.1309L68.7084 63.9908L68.7067 63.997L69.1884 64.1309ZM66.7001 67.0586L66.8493 67.5358L66.8678 67.53L66.8859 67.5228L66.7001 67.0586ZM62.0156 66.9121L62.1504 66.4306L62.1471 66.4297L62.0156 66.9121ZM54.6962 62.8135L54.9982 62.4149L54.9903 62.4091L54.6962 62.8135ZM49.9081 58.6523L50.2572 58.2944L49.3575 57.4171L49.4086 58.6727L49.9081 58.6523ZM49.9199 58.9102L50.4198 58.8983L50.4195 58.8907L49.9199 58.9102ZM48.6103 70.5195L48.134 70.3671L48.1314 70.3757L48.6103 70.5195ZM45.163 76.5654L44.884 76.1505L44.8771 76.1551L44.8704 76.16L45.163 76.5654ZM41.2353 77.1299L41.4468 76.6768L41.4369 76.6722L41.4268 76.668L41.2353 77.1299ZM37.7773 73.6514L38.2169 73.4132L38.2128 73.4056L38.2084 73.3981L37.7773 73.6514ZM35.582 67.5186L35.0891 67.6024L35.0903 67.6099L35.0918 67.6174L35.582 67.5186ZM34.997 57.5352L34.497 57.5264L34.497 57.5339L34.997 57.5352ZM35.0107 56.9336L35.5105 56.9455L35.541 55.6706L34.6521 56.5851L35.0107 56.9336ZM33.8359 58.1289L33.4823 57.7753L33.4753 57.7825L33.8359 58.1289ZM24.4667 65.668L24.6713 66.1243L24.6796 66.1204L24.4667 65.668ZM18.831 67.4248V67.9248H18.8311L18.831 67.4248ZM15.3906 65.8145L15.0156 66.1453L15.026 66.157L15.037 66.168L15.3906 65.8145ZM14.2197 61.9346L13.7282 61.8424L13.7277 61.8451L14.2197 61.9346ZM15.9765 56.8115L16.4237 57.0351L16.4279 57.0269L16.4317 57.0184L15.9765 56.8115ZM21.832 49.126L22.1955 49.4693L22.1958 49.469L21.832 49.126ZM23.1796 47.7441L23.5333 48.0976L24.3925 47.2378L23.177 47.2441L23.1796 47.7441ZM22.457 47.748L22.4577 47.248L22.451 47.2481L22.457 47.748ZM11.0517 46.2285L10.8825 46.6991L10.8886 46.7012L11.0517 46.2285ZM5.62592 42.6699L6.06145 42.4243L6.05823 42.4187L5.62592 42.6699ZM5.26947 38.8438L4.82381 38.6171L4.81501 38.6344L4.80758 38.6523L5.26947 38.8438ZM8.6474 35.5947L8.89774 36.0276L8.90065 36.0258L8.6474 35.5947ZM16.6933 33.2207L16.7676 33.7153L16.7772 33.7136L16.6933 33.2207ZM23.9326 32.6855L23.9378 33.1855L25.159 33.1728L24.2795 32.3255L23.9326 32.6855ZM22.7831 31.5596L22.4296 31.9131L22.7831 31.5596ZM16.0497 22.7764L16.4999 22.5585L16.497 22.5528L16.0497 22.7764ZM13.9999 16.7744L13.5011 16.7412L13.4999 16.7578L13.4999 16.7745L13.9999 16.7744ZM15.6103 13.1875L15.2676 12.8234L15.2621 12.8286L15.2567 12.8339L15.6103 13.1875ZM19.7822 12.1631L19.8803 11.6726L19.8671 11.6704L19.7822 12.1631ZM26.0038 14.6514L25.761 15.0884L25.7673 15.0919L25.7737 15.0952L26.0038 14.6514ZM34.0556 21.3125L34.4192 20.9692L34.4142 20.9641L34.0556 21.3125ZM34.624 21.9209L34.2584 22.262L35.1436 23.2108L35.1239 21.9133L34.624 21.9209ZM34.6181 21.5674L35.1182 21.5614L35.1179 21.5514L34.6181 21.5674ZM35.7685 9.59668L35.2991 9.42426L35.2961 9.43296L35.7685 9.59668ZM38.4492 4.33691L38.0914 3.9876L38.0914 3.98762L38.4492 4.33691ZM42.0048 3L41.9796 3.49936C42.7701 3.53931 43.3545 3.66578 43.8415 3.91294C44.3239 4.15781 44.7506 4.54153 45.1909 5.16158L45.5986 4.87207L46.0062 4.58256C45.499 3.86835 44.9574 3.3579 44.2941 3.02123C43.6353 2.68686 42.8966 2.54443 42.0301 2.50064L42.0048 3ZM45.5986 4.87207L45.1893 5.15933C45.8482 6.09799 46.9907 8.21727 47.5646 9.87277L48.0371 9.70898L48.5095 9.5452C47.904 7.79867 46.7181 5.59665 46.0078 4.58481L45.5986 4.87207ZM48.0371 9.70898L47.571 9.8901C47.8693 10.6576 48.1785 12.0931 48.4317 13.8211C48.6829 15.5357 48.873 17.4957 48.9457 19.2878L49.4453 19.2676L49.9448 19.2473C49.8707 17.4182 49.6771 15.4234 49.4211 13.6762C49.1671 11.9424 48.8456 10.4092 48.5031 9.52786L48.0371 9.70898ZM49.4453 19.2676L48.9457 19.2883C48.9745 19.9842 48.9884 20.7275 48.9951 21.4897L49.4951 21.4854L49.995 21.481C49.9883 20.7131 49.9743 19.958 49.9448 19.2469L49.4453 19.2676ZM49.4951 21.4854L49.8592 21.828C49.9833 21.6961 50.1058 21.5658 50.2282 21.4366L49.8652 21.0928L49.5022 20.7489C49.3784 20.8796 49.2544 21.0115 49.1309 21.1427L49.4951 21.4854ZM49.8652 21.0928L50.2229 21.4421C53.2744 18.318 56.5972 15.7233 59.3114 14.3662L59.0878 13.9189L58.8642 13.4717C56.0157 14.896 52.6043 17.5728 49.5075 20.7434L49.8652 21.0928ZM59.0878 13.9189L59.3195 14.3621C62.5206 12.6888 64.1426 12.3242 65.7193 12.6526L65.8212 12.1631L65.9232 11.6736C63.9868 11.2703 62.0955 11.7826 58.8562 13.4758L59.0878 13.9189ZM65.8212 12.1631L65.7356 12.6557C66.5349 12.7947 67.1084 13.0123 67.5342 13.3315C67.952 13.6448 68.2665 14.0853 68.4968 14.7433L68.9687 14.5781L69.4406 14.4129C69.1586 13.6071 68.741 12.9865 68.1341 12.5314C67.535 12.0823 66.791 11.8242 65.9069 11.6705L65.8212 12.1631ZM68.9687 14.5781L68.5045 14.7638C69.0349 16.0898 69.0543 17.2838 68.4179 19.3342L68.8955 19.4824L69.373 19.6306C70.0541 17.4358 70.0736 15.9942 69.4329 14.3924L68.9687 14.5781ZM68.8955 19.4824L68.4131 19.3508C67.9924 20.8929 66.7044 23.4773 65.6278 25.0562L66.041 25.3379L66.4541 25.6196C67.5732 23.9781 68.92 21.2926 69.3778 19.614L68.8955 19.4824ZM66.041 25.3379L65.6366 25.0438C64.5628 26.5202 61.8773 29.4851 59.4374 31.8984L59.789 32.2539L60.1406 32.6094C62.5908 30.1859 65.3228 27.1754 66.4453 25.632L66.041 25.3379ZM59.789 32.2539L59.8041 32.7537C60.3271 32.7379 60.8477 32.7258 61.3565 32.7197L61.3505 32.2197L61.3445 31.7198C60.8281 31.7259 60.3013 31.7383 59.774 31.7541L59.789 32.2539ZM61.3505 32.2197L61.3565 32.7197C65.0547 32.6755 69.8641 33.2376 72.1802 34.0123L72.3388 33.5381L72.4974 33.0639C70.0326 32.2396 65.0986 31.6749 61.3446 31.7198L61.3505 32.2197ZM72.3388 33.5381L72.1864 34.0143C73.3345 34.3818 74.5493 34.8636 75.5706 35.3464C76.6133 35.8394 77.3897 36.3037 77.7161 36.6224L78.0654 36.2646L78.4147 35.9069C77.9555 35.4586 77.0377 34.9339 75.998 34.4424C74.937 33.9408 73.6812 33.4428 72.4912 33.0619L72.3388 33.5381ZM78.0654 36.2646L77.693 36.5983C78.0119 36.9541 78.3412 37.5041 78.5926 38.123C78.844 38.7419 79.0003 39.388 79.0068 39.9279L79.5068 39.9219L80.0067 39.9159C79.9983 39.2138 79.8011 38.441 79.5191 37.7467C79.2371 37.0523 78.8532 36.3946 78.4377 35.931L78.0654 36.2646ZM79.5068 39.9219L79.0069 39.9127C78.9919 40.7312 78.8874 41.2408 78.6267 41.6873C78.3582 42.1472 77.8923 42.5952 77.0319 43.218L77.3251 43.623L77.6183 44.028C78.5027 43.3878 79.112 42.8394 79.4903 42.1916C79.8764 41.5304 79.9904 40.821 80.0067 39.931L79.5068 39.9219ZM77.3251 43.623L77.0428 43.2104C75.867 44.0147 73.1906 45.219 71.0551 45.8569L71.1982 46.3359L71.3413 46.815C73.5381 46.1588 76.3189 44.9172 77.6074 44.0357L77.3251 43.623ZM71.1982 46.3359L71.0414 45.8612C70.0393 46.1921 68.3803 46.4675 66.4992 46.6579C64.6287 46.8471 62.5768 46.9488 60.8088 46.9443L60.8076 47.4443L60.8063 47.9443C62.6099 47.9489 64.6964 47.8454 66.5999 47.6528C68.4927 47.4613 70.2433 47.1779 71.355 46.8107L71.1982 46.3359ZM60.8076 47.4443L60.8159 46.9444C60.5393 46.9398 60.2607 46.9325 59.9733 46.9259L59.9619 47.4258L59.9505 47.9257C60.2332 47.9321 60.5186 47.9396 60.7993 47.9443L60.8076 47.4443ZM59.9619 47.4258L59.6084 47.7794C59.9823 48.1531 60.3508 48.5239 60.7062 48.8888L61.0644 48.54L61.4226 48.1912C61.0627 47.8216 60.6905 47.4471 60.3153 47.0721L59.9619 47.4258ZM61.0644 48.54L60.7108 48.8936C63.8296 52.0123 66.2788 55.4067 67.4922 57.9762L67.9443 57.7627L68.3964 57.5492C67.1212 54.8487 64.5938 51.3624 61.4179 48.1865L61.0644 48.54ZM67.9443 57.7627L67.4894 57.9703C68.2566 59.6508 68.6731 60.7568 68.8439 61.645C69.0095 62.5065 68.9462 63.1757 68.7084 63.9909L69.1884 64.1309L69.6684 64.2709C69.943 63.3293 70.0262 62.498 69.8259 61.4562C69.6308 60.4413 69.1691 59.2416 68.3991 57.555L67.9443 57.7627ZM69.1884 64.1309L68.7067 63.997C68.3779 65.1803 67.4525 66.2191 66.5144 66.5944L66.7001 67.0586L66.8859 67.5228C68.1434 67.0197 69.2669 65.7162 69.6702 64.2647L69.1884 64.1309ZM66.7001 67.0586L66.551 66.5814C65.4957 66.9111 63.9142 66.9245 62.1504 66.4306L62.0156 66.9121L61.8808 67.3936C63.7766 67.9244 65.5624 67.938 66.8493 67.5358L66.7001 67.0586ZM62.0156 66.9121L62.1471 66.4297C61.4032 66.2268 60.2209 65.6846 58.9017 64.9478C57.5924 64.2164 56.185 63.314 54.9982 62.4149L54.6962 62.8135L54.3943 63.212C55.6229 64.1427 57.07 65.0701 58.414 65.8208C59.7481 66.566 61.0177 67.1582 61.884 67.3945L62.0156 66.9121ZM54.6962 62.8135L54.9903 62.4091C53.632 61.4212 51.8804 59.8771 50.2572 58.2944L49.9081 58.6523L49.5591 59.0103C51.1988 60.6092 52.989 62.1901 54.4021 63.2178L54.6962 62.8135ZM49.9081 58.6523L49.4086 58.6727C49.4134 58.7929 49.416 58.8211 49.4202 58.9296L49.9199 58.9102L50.4195 58.8907C50.417 58.828 50.4098 58.6839 50.4077 58.632L49.9081 58.6523ZM49.9199 58.9102L49.42 58.922C49.5236 63.2877 49.0591 67.477 48.1341 70.3671L48.6103 70.5195L49.0865 70.6719C50.0573 67.6389 50.5249 63.3288 50.4197 58.8983L49.9199 58.9102ZM48.6103 70.5195L48.1314 70.3757C47.0923 73.8355 46.2204 75.2518 44.884 76.1505L45.163 76.5654L45.442 76.9803C47.0835 75.8765 48.0378 74.1641 49.0892 70.6634L48.6103 70.5195ZM45.163 76.5654L44.8704 76.16C44.2126 76.6348 43.6561 76.8931 43.13 76.9746C42.6137 77.0546 42.0785 76.9717 41.4468 76.6768L41.2353 77.1299L41.0238 77.5829C41.7974 77.9441 42.5334 78.079 43.2832 77.9628C44.0232 77.8481 44.7279 77.4961 45.4557 76.9709L45.163 76.5654ZM41.2353 77.1299L41.4268 76.668C40.1075 76.1212 39.2395 75.3009 38.2169 73.4132L37.7773 73.6514L37.3376 73.8895C38.4322 75.9101 39.4503 76.9312 41.0438 77.5918L41.2353 77.1299ZM37.7773 73.6514L38.2084 73.3981C37.3989 72.02 36.4498 69.2931 36.0721 67.4197L35.582 67.5186L35.0918 67.6174C35.4845 69.5648 36.465 72.4044 37.3462 73.9046L37.7773 73.6514ZM35.582 67.5186L36.0749 67.4347C35.748 65.5138 35.488 61.0982 35.497 57.5364L34.997 57.5352L34.497 57.5339C34.488 61.1152 34.7479 65.5976 35.0891 67.6024L35.582 67.5186ZM34.997 57.5352L35.4969 57.5439C35.5004 57.3464 35.5057 57.149 35.5105 56.9455L35.0107 56.9336L34.5108 56.9217C34.5061 57.1211 34.5006 57.3247 34.4971 57.5264L34.997 57.5352ZM35.0107 56.9336L34.6521 56.5851C34.2638 56.9847 33.8736 57.3841 33.4823 57.7754L33.8359 58.1289L34.1894 58.4825C34.5859 58.086 34.9801 57.6825 35.3692 57.2821L35.0107 56.9336ZM33.8359 58.1289L33.4753 57.7825C29.9019 61.5017 26.6588 64.0838 24.2538 65.2156L24.4667 65.668L24.6796 66.1204C27.2519 64.9099 30.5968 62.2219 34.1964 58.4753L33.8359 58.1289ZM24.4667 65.668L24.2622 65.2117C23.2194 65.6792 22.0669 66.1114 21.0607 66.4259C20.0318 66.7475 19.221 66.9248 18.8309 66.9248L18.831 67.4248L18.8311 67.9248C19.3927 67.9247 20.3385 67.6993 21.359 67.3804C22.4021 67.0543 23.5916 66.6082 24.6713 66.1242L24.4667 65.668ZM18.831 67.4248V66.9248C18.4206 66.9248 17.856 66.7729 17.2688 66.4966C16.6877 66.2231 16.1346 65.8514 15.7441 65.4609L15.3906 65.8145L15.037 66.168C15.5249 66.6558 16.1796 67.0892 16.843 67.4014C17.5002 67.7107 18.2167 67.9248 18.831 67.9248V67.4248ZM15.3906 65.8145L15.7655 65.4836C15.2417 64.8901 14.924 64.3835 14.7607 63.8623C14.599 63.3459 14.5755 62.7724 14.7116 62.024L14.2197 61.9346L13.7277 61.8451C13.571 62.707 13.5841 63.4513 13.8065 64.1612C14.0274 64.8663 14.4415 65.4945 15.0156 66.1453L15.3906 65.8145ZM14.2197 61.9346L14.7111 62.0267C14.9225 60.8994 15.6402 58.6021 16.4237 57.0351L15.9765 56.8115L15.5293 56.5879C14.7027 58.2412 13.9561 60.6273 13.7282 61.8424L14.2197 61.9346ZM15.9765 56.8115L16.4317 57.0184C16.7724 56.2689 17.5834 55.0448 18.643 53.6563C19.6943 52.2787 20.9639 50.7733 22.1955 49.4693L21.832 49.126L21.4685 48.7827C20.2115 50.1136 18.9193 51.6459 17.848 53.0497C16.7849 54.4427 15.9126 55.7439 15.5213 56.6046L15.9765 56.8115ZM21.832 49.126L22.1958 49.469C22.6133 49.0261 23.0651 48.5661 23.5333 48.0976L23.1796 47.7441L22.826 47.3907C22.3542 47.8627 21.895 48.3302 21.4682 48.783L21.832 49.126ZM23.1796 47.7441L23.177 47.2441C22.929 47.2454 22.6942 47.2484 22.4577 47.248L22.457 47.748L22.4563 48.248C22.6965 48.2484 22.9444 48.2454 23.1822 48.2441L23.1796 47.7441ZM22.457 47.748L22.451 47.2481C18.0407 47.3009 13.9009 46.6827 11.2148 45.7559L11.0517 46.2285L10.8886 46.7012C13.7117 47.6752 17.972 48.3018 22.463 48.248L22.457 47.748ZM11.0517 46.2285L11.2209 45.758C9.48259 45.133 8.40017 44.6583 7.64532 44.16C6.91323 43.6767 6.47857 43.1638 6.06142 42.4243L5.62592 42.6699L5.19042 42.9156C5.67227 43.7698 6.20906 44.4101 7.09438 44.9946C7.95694 45.564 9.13791 46.0717 10.8825 46.699L11.0517 46.2285ZM5.62592 42.6699L6.05823 42.4187C5.44119 41.3568 5.34448 39.9687 5.73137 39.0352L5.26947 38.8438L4.80758 38.6523C4.28898 39.9035 4.43667 41.6185 5.19361 42.9211L5.62592 42.6699ZM5.26947 38.8438L5.71514 39.0704C6.21632 38.0851 7.31201 36.9447 8.89774 36.0275L8.6474 35.5947L8.39707 35.1619C6.69294 36.1475 5.43516 37.4152 4.82381 38.6171L5.26947 38.8438ZM8.6474 35.5947L8.90065 36.0258C9.56556 35.6353 10.7795 35.168 12.2283 34.7388C13.6662 34.3129 15.2952 33.9362 16.7675 33.7152L16.6933 33.2207L16.6191 32.7262C15.0948 32.9551 13.4204 33.3428 11.9443 33.78C10.4791 34.214 9.16844 34.7088 8.39416 35.1636L8.6474 35.5947ZM16.6933 33.2207L16.7772 33.7136C18.6581 33.3935 21.404 33.2119 23.9378 33.1855L23.9326 32.6855L23.9273 32.1856C21.3676 32.2123 18.5633 32.3953 16.6094 32.7278L16.6933 33.2207ZM23.9326 32.6855L24.2795 32.3255C23.8911 31.9513 23.5073 31.5767 23.1367 31.206L22.7831 31.5596L22.4296 31.9131C22.8058 32.2894 23.1943 32.6686 23.5857 33.0456L23.9326 32.6855ZM22.7831 31.5596L23.1367 31.206C20.5216 28.5909 17.5638 24.7571 16.4998 22.5586L16.0497 22.7764L15.5997 22.9942C16.7319 25.3338 19.7751 29.2586 22.4296 31.9131L22.7831 31.5596ZM16.0497 22.7764L16.497 22.5528C15.9579 21.4746 15.454 20.269 15.086 19.201C14.7103 18.1106 14.5001 17.2307 14.4999 16.7743L13.9999 16.7744L13.4999 16.7745C13.5001 17.4164 13.7659 18.4396 14.1406 19.5268C14.5229 20.6363 15.0438 21.8826 15.6025 23L16.0497 22.7764ZM13.9999 16.7744L14.4988 16.8077C14.5306 16.331 14.6941 15.7111 14.9614 15.0987C15.2288 14.4862 15.582 13.9229 15.9638 13.5411L15.6103 13.1875L15.2567 12.8339C14.7602 13.3305 14.3449 14.0116 14.045 14.6986C13.745 15.3855 13.5425 16.1199 13.5011 16.7412L13.9999 16.7744ZM15.6103 13.1875L15.953 13.5516C16.5491 12.9906 16.9866 12.7093 17.4881 12.584C18.0046 12.4549 18.6505 12.4753 19.6972 12.6558L19.7822 12.1631L19.8671 11.6704C18.7913 11.4849 17.9734 11.432 17.2457 11.6138C16.5029 11.7994 15.9158 12.2134 15.2676 12.8234L15.6103 13.1875ZM19.7822 12.1631L19.6841 12.6534C21.0811 12.9328 23.8128 14.0061 25.761 15.0884L26.0038 14.6514L26.2467 14.2143C24.2424 13.1008 21.411 11.979 19.8802 11.6728L19.7822 12.1631ZM26.0038 14.6514L25.7737 15.0952C26.7105 15.581 28.0665 16.5758 29.5168 17.7891C30.9589 18.9954 32.4651 20.3928 33.697 21.6609L34.0556 21.3125L34.4142 20.9641C33.1575 19.6704 31.626 18.2497 30.1584 17.022C28.6991 15.8013 27.2734 14.7465 26.234 14.2075L26.0038 14.6514ZM34.0556 21.3125L33.6921 21.6558C33.8791 21.8538 34.0651 22.0548 34.2584 22.262L34.624 21.9209L34.9896 21.5798C34.8 21.3766 34.6089 21.1701 34.4191 20.9692L34.0556 21.3125ZM34.624 21.9209L35.1239 21.9133C35.122 21.7886 35.1195 21.6798 35.1181 21.5614L34.6181 21.5674L34.1181 21.5734C34.1195 21.6903 34.1223 21.8173 34.124 21.9285L34.624 21.9209ZM34.6181 21.5674L35.1179 21.5514C34.953 16.3963 35.3707 12.2718 36.2409 9.76039L35.7685 9.59668L35.2961 9.43296C34.3652 12.1191 33.9523 16.3905 34.1184 21.5834L34.6181 21.5674ZM35.7685 9.59668L36.2378 9.76907C36.6319 8.6963 37.1279 7.56969 37.606 6.63001C38.0948 5.66919 38.5345 4.96527 38.8069 4.68621L38.4492 4.33691L38.0914 3.98762C37.6991 4.3894 37.1995 5.22359 36.7147 6.17657C36.2191 7.15068 35.7071 8.31354 35.2992 9.42429L35.7685 9.59668ZM38.4492 4.33691L38.8069 4.68623C39.0936 4.39257 39.5968 4.09464 40.2047 3.86746C40.8063 3.64267 41.4587 3.50658 42.0108 3.49996L42.0048 3L41.9988 2.50004C41.309 2.5083 40.5415 2.67408 39.8547 2.93073C39.1743 3.18499 38.5206 3.54809 38.0914 3.9876L38.4492 4.33691Z" fill="black"/>
</svg>
