<svg width="80" height="80" viewBox="0 0 80 80" fill="none" xmlns="http://www.w3.org/2000/svg">
<g clip-path="url(#clip0_8209_445942)">
<mask id="path-1-inside-1_8209_445942" fill="white">
<path d="M63.3047 18C72.5254 18 80.0009 27.9665 80.001 40.2607C80.001 52.5551 72.5254 62.5215 63.3047 62.5215C58.5034 62.5214 54.1765 59.8184 51.1309 55.4922C48.0851 59.8183 43.7584 62.5215 38.957 62.5215C34.6803 62.5214 30.7801 60.3766 27.8262 56.8506C24.8722 60.3765 20.9721 62.5215 16.6953 62.5215C7.47471 62.5212 0 52.5549 0 40.2607C5.17974e-05 27.9666 7.47475 18.0002 16.6953 18C20.9718 18 24.8723 20.1444 27.8262 23.6699C30.78 20.1443 34.6806 18.0001 38.957 18C43.7581 18 48.0851 20.7027 51.1309 25.0283C54.1765 20.7026 58.5037 18.0001 63.3047 18Z"/>
</mask>
<path d="M63.3047 18V17H63.3047L63.3047 18ZM80.001 40.2607H81.001V40.2607L80.001 40.2607ZM63.3047 62.5215L63.3047 63.5215H63.3047V62.5215ZM51.1309 55.4922L51.9486 54.9165L51.1309 53.7551L50.3132 54.9165L51.1309 55.4922ZM38.957 62.5215L38.957 63.5215H38.957V62.5215ZM27.8262 56.8506L28.5927 56.2084L27.8262 55.2934L27.0596 56.2084L27.8262 56.8506ZM16.6953 62.5215L16.6953 63.5215H16.6953V62.5215ZM0 40.2607L-1 40.2607V40.2607H0ZM16.6953 18V17H16.6953L16.6953 18ZM27.8262 23.6699L27.0597 24.3121L27.8262 25.227L28.5927 24.3121L27.8262 23.6699ZM38.957 18V17H38.957L38.957 18ZM51.1309 25.0283L50.3132 25.604L51.1309 26.7653L51.9485 25.604L51.1309 25.0283ZM63.3047 18V19C67.5297 19 71.4312 21.2811 74.3106 25.12C77.1902 28.9593 79.001 34.3091 79.001 40.2607L80.001 40.2607L81.001 40.2607C81.0009 33.9181 79.0739 28.1375 75.9106 23.92C72.747 19.7022 68.3004 17 63.3047 17V18ZM80.001 40.2607H79.001C79.001 46.2124 77.1903 51.5622 74.3106 55.4015C71.4312 59.2404 67.5298 61.5215 63.3047 61.5215V62.5215V63.5215C68.3004 63.5215 72.747 60.8193 75.9106 56.6015C79.0739 52.384 81.001 46.6034 81.001 40.2607H80.001ZM63.3047 62.5215L63.3047 61.5215C58.9059 61.5214 54.8562 59.0467 51.9486 54.9165L51.1309 55.4922L50.3132 56.0678C53.4969 60.5901 58.1009 63.5213 63.3047 63.5215L63.3047 62.5215ZM51.1309 55.4922L50.3132 54.9165C47.4054 59.0467 43.3559 61.5215 38.957 61.5215V62.5215V63.5215C44.1609 63.5215 48.7648 60.59 51.9485 56.0679L51.1309 55.4922ZM38.957 62.5215L38.9571 61.5215C35.0362 61.5214 31.3989 59.5581 28.5927 56.2084L27.8262 56.8506L27.0596 57.4928C30.1613 61.1952 34.3244 63.5214 38.957 63.5215L38.957 62.5215ZM27.8262 56.8506L27.0596 56.2084C24.2534 59.558 20.6161 61.5215 16.6953 61.5215V62.5215V63.5215C21.328 63.5215 25.491 61.1951 28.5927 57.4928L27.8262 56.8506ZM16.6953 62.5215L16.6953 61.5215C12.4704 61.5214 8.56912 59.2403 5.68994 55.4013C2.81052 51.5621 1 46.2124 1 40.2607H0H-1C-1 46.6033 0.926839 52.3838 4.08993 56.6013C7.25325 60.8191 11.6997 63.5214 16.6953 63.5215L16.6953 62.5215ZM0 40.2607L1 40.2607C1.00003 34.3091 2.81055 28.9594 5.68997 25.1202C8.56915 21.2812 12.4704 19.0001 16.6953 19L16.6953 18L16.6953 17C11.6997 17.0001 7.25327 19.7024 4.08996 23.9202C0.926874 28.1377 -0.999973 33.9182 -1 40.2607L0 40.2607ZM16.6953 18V19C20.616 19 24.2536 20.963 27.0597 24.3121L27.8262 23.6699L28.5927 23.0277C25.491 19.3258 21.3276 17 16.6953 17V18ZM27.8262 23.6699L28.5927 24.3121C31.3987 20.963 35.0364 19.0001 38.9571 19L38.957 18L38.957 17C34.3248 17.0001 30.1613 19.3256 27.0596 23.0277L27.8262 23.6699ZM38.957 18V19C43.3556 19 47.4055 21.4744 50.3132 25.604L51.1309 25.0283L51.9485 24.4526C48.7648 19.9309 44.1605 17 38.957 17V18ZM51.1309 25.0283L51.9485 25.604C54.8561 21.4744 58.9061 19.0001 63.3047 19L63.3047 18L63.3047 17C58.1013 17.0001 53.4969 19.9308 50.3132 24.4526L51.1309 25.0283Z" fill="black" mask="url(#path-1-inside-1_8209_445942)"/>
</g>
<defs>
<clipPath id="clip0_8209_445942">
<rect width="80" height="80" fill="white"/>
</clipPath>
</defs>
</svg>
