<svg width="803" height="719" viewBox="0 0 803 719" fill="none" xmlns="http://www.w3.org/2000/svg">
<g opacity="0.21">
<path d="M811.921 248.121L762.996 329.763M811.921 248.121L794.464 243.048M811.921 248.121L870.646 86.2944M762.996 329.763L847.977 431.328M762.996 329.763L794.464 243.048M220.883 249.107L329.047 203.666M329.047 203.666L309.031 101.991M329.047 203.666L360.515 116.952M309.031 101.991L360.515 116.952M309.031 101.991L356.087 -27.6788M360.515 116.952L463.913 147M360.515 116.952L423.237 -55.8895M463.913 147L572.068 101.552M463.913 147L558.103 -112.556M572.068 101.552L657.038 203.119M572.068 101.552L666.258 -158.004M657.038 203.119L794.464 243.048M657.038 203.119L751.228 -56.4371M794.464 243.048L857.186 70.2074" stroke="#616B68" stroke-width="2" stroke-linejoin="round"/>
<path d="M701.997 431.568L847.977 431.328L942.167 171.773M701.997 431.568L653.084 513.215M701.997 431.568L796.187 172.012M653.084 513.215L519.976 431.872M653.084 513.215L747.274 253.66M519.976 431.872L374.001 432.119M519.976 431.872L614.166 172.316M374.001 432.119L353.997 330.446M374.001 432.119L468.191 172.564M353.997 330.446L220.883 249.107L315.073 -10.4485M353.997 330.446L448.187 70.8901M906.111 -11.4351L857.186 70.2074L942.167 171.773M906.111 -11.4351L751.228 -56.4371L666.258 -158.004L558.103 -112.556L403.221 -157.565M906.111 -11.4351L870.646 86.2944M942.167 171.773L796.187 172.012M796.187 172.012L747.274 253.66M747.274 253.66L614.166 172.316M614.166 172.316L468.191 172.564M468.191 172.564L448.187 70.8901M448.187 70.8901L315.073 -10.4485M315.073 -10.4485L423.237 -55.8895L403.221 -157.565M403.221 -157.565L356.087 -27.6788" stroke="black" stroke-width="2" stroke-linejoin="round"/>
<path d="M701.997 431.568L847.977 431.328L942.167 171.773M701.997 431.568L653.084 513.215M701.997 431.568L796.187 172.012M653.084 513.215L519.976 431.872M653.084 513.215L747.274 253.66M519.976 431.872L374.001 432.119M519.976 431.872L614.166 172.316M374.001 432.119L353.997 330.446M374.001 432.119L468.191 172.564M353.997 330.446L220.883 249.107L315.073 -10.4485M353.997 330.446L448.187 70.8901M906.111 -11.4351L857.186 70.2074L942.167 171.773M906.111 -11.4351L751.228 -56.4371L666.258 -158.004L558.103 -112.556L403.221 -157.565M906.111 -11.4351L870.646 86.2944M942.167 171.773L796.187 172.012M796.187 172.012L747.274 253.66M747.274 253.66L614.166 172.316M614.166 172.316L468.191 172.564M468.191 172.564L448.187 70.8901M448.187 70.8901L315.073 -10.4485M315.073 -10.4485L423.237 -55.8895L403.221 -157.565M403.221 -157.565L356.087 -27.6788" stroke="black" stroke-opacity="0.2" stroke-width="2" stroke-linejoin="round"/>
<path d="M701.997 431.568L847.977 431.328L942.167 171.773M701.997 431.568L653.084 513.215M701.997 431.568L796.187 172.012M653.084 513.215L519.976 431.872M653.084 513.215L747.274 253.66M519.976 431.872L374.001 432.119M519.976 431.872L614.166 172.316M374.001 432.119L353.997 330.446M374.001 432.119L468.191 172.564M353.997 330.446L220.883 249.107L315.073 -10.4485M353.997 330.446L448.187 70.8901M906.111 -11.4351L857.186 70.2074L942.167 171.773M906.111 -11.4351L751.228 -56.4371L666.258 -158.004L558.103 -112.556L403.221 -157.565M906.111 -11.4351L870.646 86.2944M942.167 171.773L796.187 172.012M796.187 172.012L747.274 253.66M747.274 253.66L614.166 172.316M614.166 172.316L468.191 172.564M468.191 172.564L448.187 70.8901M448.187 70.8901L315.073 -10.4485M315.073 -10.4485L423.237 -55.8895L403.221 -157.565M403.221 -157.565L356.087 -27.6788" stroke="black" stroke-opacity="0.2" stroke-width="2" stroke-linejoin="round"/>
</g>
</svg>
