<svg width="158" height="153" viewBox="0 0 158 153" fill="none" xmlns="http://www.w3.org/2000/svg">
<path opacity="0.68" d="M-19.4515 51.5602C-19.4602 51.5691 -19.4692 51.5776 -19.4777 51.5863C-21.0671 53.222 -21.8195 55.5357 -21.7126 58.498L-17.0143 188.581L-17.0095 188.724L-16.9881 188.828C-16.9306 188.981 -16.7548 189.124 -16.658 189.184C-16.6218 189.206 -16.5899 189.217 -16.5573 189.23L-16.5401 189.276L-16.4743 189.259C-16.4353 189.267 -16.3971 189.273 -16.3599 189.268L-16.3438 189.266L112.597 170.7C112.782 170.673 112.964 170.643 113.142 170.611C113.188 170.602 113.233 170.593 113.278 170.585C113.524 170.538 113.763 170.484 113.997 170.426C114.03 170.417 114.065 170.412 114.098 170.404C114.12 170.398 114.139 170.39 114.161 170.384C114.436 170.312 114.702 170.233 114.96 170.145C114.998 170.132 115.035 170.118 115.073 170.105C115.618 169.913 116.126 169.685 116.593 169.422C116.61 169.412 116.629 169.403 116.647 169.393C116.873 169.263 117.09 169.124 117.298 168.977C117.324 168.959 117.351 168.939 117.378 168.92C117.582 168.773 117.778 168.618 117.963 168.454C117.981 168.437 117.998 168.42 118.016 168.404C118.204 168.235 118.384 168.058 118.551 167.871C118.553 167.869 118.556 167.867 118.558 167.865C118.721 167.683 118.873 167.49 119.018 167.291C119.041 167.26 119.064 167.229 119.087 167.197C119.197 167.04 119.304 166.879 119.403 166.712C119.422 166.68 119.437 166.646 119.456 166.614C119.469 166.591 119.484 166.571 119.497 166.549L156.64 100.093C157.35 98.9332 157.703 97.4999 157.702 95.804C157.702 95.7833 157.702 95.7621 157.702 95.7412C157.701 95.5405 157.696 95.3368 157.685 95.1286C157.682 95.0699 157.677 95.01 157.673 94.9507C157.661 94.7712 157.648 94.5906 157.629 94.4058C157.618 94.297 157.603 94.1851 157.589 94.0746C157.571 93.9295 157.555 93.7858 157.533 93.6375C157.496 93.3903 157.453 93.1386 157.404 92.8826C157.4 92.8635 157.398 92.8453 157.394 92.8262C157.337 92.5322 157.271 92.2319 157.198 91.927C157.189 91.8913 157.179 91.8546 157.17 91.8187C157.106 91.5575 157.038 91.293 156.962 91.0239C156.956 91.0017 156.951 90.9807 156.945 90.9584L133.847 9.04848L133.846 9.04342L133.837 9.01716L133.782 8.90851L133.643 8.83491L133.637 8.83206L133.558 8.8247L133.451 8.80888L133.446 8.81451L133.042 8.77712L48.9198 0.689853C44.9774 0.310502 42.0321 0.909241 40.1291 2.46369C40.1178 2.47298 40.1047 2.48045 40.0935 2.48974L-18.8649 51.0195C-18.8845 51.0354 -18.9008 51.0544 -18.92 51.0705C-19.1062 51.2264 -19.2837 51.3894 -19.4515 51.5602ZM114.259 169.477C114.044 169.542 113.827 169.605 113.601 169.66C113.498 169.684 113.391 169.706 113.285 169.729C113.036 169.782 112.782 169.831 112.52 169.872C112.437 169.885 112.354 169.899 112.27 169.911C112.024 169.945 111.775 169.975 111.52 169.999C111.493 170.001 111.467 170.004 111.441 170.006C110.666 170.074 109.841 170.09 108.977 170.063L115.297 169.105C115.059 169.207 114.813 169.302 114.557 169.388C114.46 169.421 114.358 169.447 114.259 169.477ZM41.7957 2.38553C41.987 2.29096 42.1865 2.20449 42.3923 2.12384C42.4304 2.10891 42.4676 2.09289 42.5063 2.07843C42.7263 1.99576 42.9542 1.92068 43.1897 1.85323C43.274 1.82945 43.3631 1.80991 43.4493 1.78805C43.584 1.75346 43.7207 1.72082 43.86 1.69071C44.0163 1.65798 44.175 1.62734 44.3374 1.60035C44.384 1.59252 44.4315 1.58567 44.4784 1.57834C45.7481 1.38201 47.2055 1.35791 48.8502 1.50989C51.0076 1.70958 53.4368 2.2143 56.0963 3.00256L55.6099 3.42483L41.7134 2.42687C41.7208 2.42303 41.7271 2.41862 41.7342 2.41516C41.7545 2.40503 41.7753 2.39531 41.7957 2.38553ZM156.362 91.9913C156.373 92.0374 156.384 92.0836 156.395 92.1292C156.455 92.384 156.509 92.6344 156.557 92.8802C156.563 92.9078 156.569 92.9358 156.574 92.9632C156.681 93.5193 156.759 94.0538 156.807 94.5655C156.808 94.5753 156.808 94.5847 156.809 94.5948C156.829 94.8199 156.843 95.0398 156.852 95.2563C156.857 95.3777 156.858 95.4958 156.859 95.6146C156.86 95.7136 156.862 95.8131 156.861 95.9104C156.859 96.0581 156.853 96.203 156.845 96.3463C156.842 96.4061 156.839 96.466 156.834 96.5249C156.823 96.6873 156.807 96.8471 156.788 97.004C156.784 97.0347 156.78 97.0649 156.776 97.0954C156.649 98.0349 156.384 98.8702 155.978 99.5969C155.671 100.145 155.283 100.628 154.816 101.046C154.774 101.083 154.729 101.117 154.686 101.153C154.687 101.152 154.686 101.153 154.686 101.153L153.047 93.9816L155.629 89.5218C155.665 89.6274 155.706 89.7359 155.741 89.8404C155.754 89.8787 155.768 89.9183 155.781 89.9564C155.908 90.3428 156.022 90.7201 156.125 91.0885C156.144 91.1533 156.161 91.2175 156.179 91.2818C156.245 91.5217 156.306 91.7583 156.362 91.9913ZM117.573 167.645C117.538 167.678 117.499 167.708 117.463 167.74L119.656 163.83C119.643 163.888 119.631 163.946 119.617 164.003C119.593 164.102 119.571 164.202 119.544 164.299C119.526 164.364 119.504 164.426 119.486 164.489L117.911 167.296C117.874 167.336 117.84 167.379 117.803 167.418C117.728 167.495 117.651 167.571 117.573 167.645ZM-16.7436 181.255L-17.7238 71.4732C-17.6665 71.5891 -17.6055 71.7067 -17.5469 71.823C-17.3412 72.2323 -17.1287 72.6445 -16.9091 73.0602C-16.8431 73.1846 -16.7793 73.3082 -16.7122 73.4332C-16.4375 73.9458 -16.153 74.4634 -15.858 74.9852C-15.792 75.1016 -15.7231 75.2194 -15.6564 75.3363C-15.4115 75.7644 -15.1599 76.1956 -14.9019 76.6297C-14.8128 76.7795 -14.7242 76.9291 -14.6334 77.0799C-14.3123 77.6132 -13.9838 78.1498 -13.6433 78.6914C-13.5974 78.7643 -13.5492 78.8382 -13.5028 78.9113C-13.1989 79.3919 -12.8865 79.876 -12.5679 80.3628C-12.46 80.5275 -12.3514 80.6926 -12.2419 80.858C-11.9212 81.342 -11.5944 81.8289 -11.2596 82.3188C-11.2049 82.3988 -11.1526 82.4777 -11.0975 82.5576C-10.7165 83.1124 -10.3243 83.6713 -9.92582 84.2323C-9.80545 84.4016 -9.68322 84.5718 -9.56139 84.7417C-9.24007 85.1899 -8.91331 85.6401 -8.58127 86.0924C-8.47708 86.2341 -8.37467 86.3752 -8.26937 86.5175C-7.85178 87.0818 -7.42566 87.6491 -6.99179 88.2189C-6.8692 88.3798 -6.74414 88.5415 -6.62048 88.7026C-6.27674 89.1505 -5.92817 89.5997 -5.57504 90.0506C-5.44 90.2231 -5.30587 90.3949 -5.16941 90.5677C-4.9254 90.8766 -4.67797 91.1866 -4.42947 91.4967L-16.5479 187.048L-16.7436 181.255ZM118.354 166.772L119.235 165.199C119.229 165.214 119.224 165.229 119.218 165.243C119.178 165.34 119.139 165.437 119.095 165.531C119.051 165.628 119.002 165.72 118.954 165.813C118.905 165.908 118.857 166.002 118.805 166.093C118.757 166.176 118.702 166.254 118.652 166.335C118.557 166.484 118.459 166.631 118.354 166.772ZM116.929 168.183C116.783 168.291 116.628 168.39 116.471 168.489L107.067 169.937C104.505 169.679 101.624 169.068 98.464 168.117L105.247 156.92L118.24 153.468C118.258 153.519 118.276 153.569 118.294 153.618C118.36 153.801 118.426 153.985 118.488 154.165C118.545 154.334 118.598 154.499 118.652 154.665C118.708 154.84 118.766 155.015 118.819 155.187C118.871 155.355 118.918 155.52 118.966 155.685C119.013 155.849 119.062 156.014 119.106 156.175C119.152 156.344 119.193 156.509 119.235 156.675C119.274 156.828 119.314 156.982 119.349 157.132C119.388 157.3 119.422 157.463 119.458 157.628C119.488 157.771 119.52 157.916 119.548 158.058C119.58 158.223 119.607 158.386 119.635 158.548C119.658 158.683 119.683 158.818 119.703 158.95C119.727 159.114 119.747 159.274 119.767 159.434C119.783 159.56 119.8 159.687 119.813 159.811C119.83 159.971 119.841 160.128 119.854 160.285C119.863 160.404 119.873 160.523 119.879 160.64C119.888 160.796 119.891 160.947 119.894 161.099C119.897 161.212 119.902 161.326 119.902 161.438C119.901 161.587 119.896 161.732 119.891 161.878C119.888 161.986 119.885 162.095 119.879 162.202C119.871 162.344 119.857 162.483 119.844 162.622C119.833 162.726 119.825 162.831 119.812 162.934C119.795 163.068 119.773 163.199 119.752 163.33C119.747 163.361 119.742 163.391 119.736 163.422L117.176 167.988C117.094 168.053 117.014 168.121 116.929 168.183ZM-15.1473 188.278L58.7895 148.473C59.5637 148.992 60.3387 149.505 61.1138 150.013C61.2221 150.084 61.3301 150.155 61.4384 150.226C62.5964 150.982 63.7551 151.725 64.914 152.455L43.0007 162.26L-15.1473 188.278ZM149.842 78.1087C149.928 78.243 150.015 78.378 150.099 78.5117C150.241 78.7368 150.378 78.9599 150.516 79.1832C150.598 79.3169 150.683 79.4517 150.764 79.5849C150.898 79.8046 151.027 80.0219 151.156 80.2396C151.237 80.3753 151.32 80.5118 151.399 80.6466C151.523 80.8571 151.642 81.0657 151.762 81.2744C151.842 81.4146 151.925 81.5557 152.003 81.6952C152.118 81.8991 152.229 82.1008 152.34 82.3033C152.418 82.4446 152.498 82.5869 152.574 82.7273C152.683 82.9282 152.787 83.1268 152.891 83.3259C152.965 83.4652 153.041 83.6054 153.112 83.744C153.214 83.9407 153.31 84.1352 153.408 84.33C153.478 84.4687 153.55 84.6086 153.617 84.7463C153.711 84.9358 153.799 85.1231 153.888 85.3107C153.955 85.4515 154.025 85.5931 154.09 85.733C154.176 85.9181 154.257 86.1008 154.339 86.2838C154.401 86.4229 154.466 86.5629 154.526 86.7012C154.605 86.8819 154.68 87.0603 154.755 87.2391C154.813 87.3773 154.873 87.5165 154.929 87.6535C155.001 87.8284 155.067 88.0009 155.135 88.1741C155.182 88.2958 155.232 88.4182 155.277 88.539L152.786 92.8419L149.191 77.1025C149.262 77.2095 149.334 77.3176 149.403 77.4242C149.552 77.6535 149.697 77.8809 149.842 78.1087ZM68.9428 154.114C68.4725 153.83 68.0017 153.545 67.5276 153.254C66.9486 152.898 66.3664 152.537 65.7815 152.171L74.3424 140.1L100.774 125.869C100.833 125.94 100.894 126.012 100.953 126.083C101.099 126.261 101.243 126.437 101.388 126.614C101.627 126.905 101.865 127.195 102.1 127.485C102.245 127.664 102.387 127.843 102.531 128.022C102.761 128.307 102.991 128.593 103.217 128.877C103.362 129.06 103.504 129.242 103.648 129.425C103.867 129.703 104.087 129.982 104.303 130.259C104.447 130.445 104.588 130.629 104.731 130.814C104.942 131.088 105.154 131.362 105.361 131.635C105.502 131.82 105.639 132.003 105.778 132.187C105.982 132.458 106.187 132.729 106.387 132.999C106.526 133.185 106.661 133.371 106.798 133.557C106.994 133.822 107.19 134.088 107.381 134.352C107.517 134.539 107.649 134.724 107.783 134.91C107.97 135.171 108.159 135.433 108.342 135.692C108.477 135.882 108.607 136.07 108.739 136.259C108.917 136.513 109.096 136.767 109.27 137.02C109.402 137.211 109.53 137.401 109.66 137.592C109.829 137.84 109.999 138.089 110.165 138.336C110.292 138.526 110.416 138.715 110.541 138.904C110.703 139.149 110.867 139.395 111.025 139.639C111.149 139.829 111.269 140.017 111.39 140.206C111.544 140.446 111.7 140.687 111.85 140.926C111.97 141.116 112.086 141.304 112.203 141.493C112.349 141.729 112.496 141.965 112.639 142.199C112.754 142.388 112.866 142.576 112.979 142.764C113.046 142.876 113.112 142.988 113.178 143.099L105.287 156.126L83.3241 162.005C78.9349 159.863 74.2708 157.317 69.3939 154.387C69.244 154.297 69.0928 154.204 68.9428 154.114ZM90.7237 74.0272C90.8192 74.1019 90.9148 74.1766 91.0104 74.251C92.0056 75.0273 93.0057 75.7963 94.0107 76.5573C94.0854 76.6137 94.1596 76.6705 94.2341 76.7267C96.3711 78.341 98.5278 79.9177 100.696 81.4492C100.781 81.5092 100.866 81.5686 100.951 81.6284C101.96 82.3387 102.971 83.039 103.984 83.7292C104.095 83.8048 104.206 83.8801 104.317 83.9554C105.328 84.6418 106.341 85.3171 107.355 85.9812C107.444 86.0395 107.533 86.0986 107.622 86.1566C108.69 86.8536 109.758 87.5385 110.826 88.2089L91.8386 114.981C91.7097 114.844 91.5788 114.706 91.4491 114.569C90.9347 114.025 90.4165 113.48 89.8925 112.935C89.8178 112.858 89.7445 112.78 89.6696 112.702C89.0825 112.093 88.4877 111.483 87.8894 110.873C87.7154 110.696 87.5407 110.52 87.3661 110.342C86.8702 109.84 86.3703 109.337 85.8667 108.835C85.7352 108.703 85.6052 108.572 85.4732 108.441C84.8622 107.834 84.2452 107.226 83.6239 106.62C83.4563 106.456 83.2872 106.292 83.1188 106.129C82.6141 105.638 82.1056 105.147 81.5944 104.657C81.4322 104.502 81.2709 104.346 81.1079 104.191C80.4703 103.583 79.828 102.975 79.1808 102.368C79.0383 102.235 78.894 102.101 78.7507 101.967C78.213 101.465 77.6722 100.964 77.1283 100.463C76.9494 100.298 76.7709 100.134 76.5914 99.9691C75.9265 99.3598 75.2581 98.7512 74.5843 98.1445C74.4928 98.0619 74.4 97.9799 74.3082 97.8974C73.7097 97.3595 73.1075 96.8229 72.5024 96.2876C72.3156 96.1221 72.1287 95.9569 71.9414 95.792C71.5206 95.4213 71.098 95.0517 70.6744 94.6825L88.715 72.4416C89.3815 72.9738 90.0518 73.5016 90.7237 74.0272ZM111.185 87.7283L114.261 76.9657L111.203 87.7398C111.197 87.7362 111.191 87.7322 111.185 87.7283ZM122.75 46.7856L111.278 86.93L111.071 87.6554C110.063 87.021 109.054 86.3761 108.046 85.7181C107.955 85.6582 107.863 85.5976 107.771 85.5377C106.761 84.8755 105.751 84.2018 104.743 83.5177C104.623 83.4362 104.502 83.3545 104.382 83.2726C103.382 82.5912 102.383 81.8992 101.386 81.1976C101.284 81.1255 101.181 81.0538 101.079 80.9816C100.02 80.2331 98.9629 79.4748 97.9101 78.7058C97.864 78.672 97.8179 78.6382 97.7718 78.6046C96.7358 77.8468 95.7038 77.0789 94.6761 76.3032C94.5541 76.211 94.4327 76.1183 94.3108 76.0259C93.357 75.3033 92.4072 74.5731 91.4621 73.8365C91.3187 73.7246 91.1749 73.6123 91.0316 73.5002C90.3842 72.9933 89.7426 72.4797 89.1001 71.9669L115.128 39.8793C117.74 42.1558 120.287 44.4633 122.75 46.7856ZM80.3656 65.4987C80.4322 65.5564 80.4993 65.6139 80.5661 65.6714C81.1037 66.1362 81.6444 66.5993 82.1872 67.0609C82.3225 67.1761 82.4576 67.2911 82.5934 67.406C84.2226 68.7866 85.8737 70.1525 87.5431 71.5002C87.6137 71.557 87.6842 71.6135 87.7548 71.6703C88.0348 71.8958 88.3146 72.1216 88.5953 72.3459L70.5588 94.5817C70.3454 94.3958 70.1326 94.2094 69.9185 94.0238C69.8953 94.0039 69.8725 93.9836 69.8493 93.9636C69.1481 93.3567 68.4417 92.7525 67.7331 92.1499C67.5495 91.9936 67.3656 91.8379 67.1817 91.682C66.5616 91.157 65.9392 90.634 65.314 90.1128C65.2361 90.0475 65.1591 89.9818 65.0809 89.9168C65.0635 89.9023 65.0457 89.8882 65.0283 89.8737C63.8039 88.8552 62.5702 87.8446 61.328 86.8421C61.2835 86.8064 61.2389 86.7705 61.1945 86.7348L79.8155 65.0201C79.9988 65.1797 80.1817 65.3393 80.3656 65.4987ZM91.7085 115.613C91.86 115.774 92.0131 115.936 92.1638 116.098C92.3137 116.258 92.4614 116.419 92.6108 116.58C92.9066 116.899 93.2027 117.218 93.495 117.537C93.6454 117.701 93.7937 117.865 93.9434 118.029C94.2319 118.345 94.5205 118.661 94.8054 118.977C94.9547 119.142 95.1014 119.307 95.2494 119.472C95.5293 119.784 95.8094 120.096 96.0859 120.407C96.2376 120.578 96.3868 120.748 96.5373 120.919C96.8072 121.225 97.0774 121.531 97.3433 121.836C97.494 122.008 97.6419 122.18 97.7911 122.352C98.0534 122.655 98.3157 122.957 98.5739 123.258C98.7245 123.433 98.8717 123.608 99.021 123.783C99.2736 124.08 99.5265 124.376 99.7754 124.672C99.9267 124.852 100.075 125.031 100.225 125.21C100.343 125.351 100.461 125.493 100.578 125.634L74.6845 139.617L91.7085 115.613ZM113.718 144.019C113.848 144.245 113.98 144.472 114.107 144.696C114.214 144.886 114.317 145.073 114.421 145.261C114.543 145.481 114.666 145.701 114.784 145.919C114.887 146.109 114.986 146.297 115.086 146.485C115.199 146.699 115.313 146.912 115.423 147.124C115.521 147.313 115.614 147.5 115.709 147.688C115.815 147.896 115.921 148.105 116.023 148.312C116.116 148.499 116.203 148.684 116.292 148.87C116.39 149.073 116.489 149.278 116.583 149.48C116.67 149.667 116.753 149.851 116.837 150.036C116.926 150.234 117.017 150.432 117.103 150.628C117.184 150.813 117.26 150.995 117.338 151.177C117.42 151.371 117.503 151.566 117.582 151.758C117.656 151.939 117.726 152.119 117.797 152.299C117.854 152.443 117.912 152.588 117.967 152.731L105.814 155.985L113.397 143.466C113.506 143.651 113.611 143.834 113.718 144.019ZM100.665 124.903C100.268 124.429 99.8669 123.954 99.4612 123.478C99.3215 123.315 99.1831 123.151 99.0424 122.987C98.5327 122.393 98.0169 121.798 97.4936 121.201C97.378 121.069 97.2599 120.937 97.1435 120.805C96.7106 120.314 96.273 119.821 95.8308 119.328C95.6708 119.149 95.5107 118.971 95.3493 118.792C94.8054 118.189 94.2573 117.586 93.7005 116.981C93.6288 116.903 93.5556 116.825 93.4838 116.747C93.0005 116.224 92.512 115.699 92.0193 115.174L111.046 88.3464C111.623 88.7075 112.197 89.0628 112.768 89.4119C112.856 89.4656 112.942 89.5175 113.03 89.5708C115.956 91.3554 118.789 92.9773 121.515 94.4334L100.973 125.27C100.872 125.148 100.767 125.025 100.665 124.903ZM74.515 139.856L100.663 125.736C100.672 125.746 100.681 125.757 100.69 125.768L74.5113 139.861L74.515 139.856ZM113.322 143.339L105.633 156.033L105.468 156.077L113.254 143.225C113.276 143.263 113.3 143.301 113.322 143.339ZM101.059 125.374L121.63 94.4946L121.672 94.5174L101.092 125.413L101.059 125.374ZM73.9965 140.139L72.517 140.935L73.9994 140.135L73.9965 140.139ZM113.495 142.513C113.226 142.066 112.949 141.617 112.667 141.165C112.581 141.029 112.497 140.893 112.411 140.757C112.065 140.209 111.712 139.659 111.347 139.104C111.288 139.014 111.226 138.923 111.166 138.833C110.849 138.353 110.523 137.87 110.192 137.384C110.089 137.233 109.986 137.082 109.881 136.93C109.49 136.364 109.094 135.795 108.685 135.221C108.665 135.192 108.644 135.164 108.624 135.136C108.232 134.587 107.83 134.034 107.422 133.48C107.303 133.318 107.184 133.157 107.064 132.996C106.687 132.487 106.304 131.977 105.913 131.464C105.851 131.382 105.791 131.301 105.728 131.219C105.285 130.639 104.831 130.055 104.372 129.469C104.243 129.306 104.113 129.141 103.983 128.977C103.606 128.5 103.223 128.022 102.835 127.542C102.726 127.406 102.618 127.271 102.508 127.135C102.071 126.597 101.628 126.058 101.179 125.517L121.787 94.5784C127.885 97.8197 133.435 100.22 138.252 101.711L113.514 142.545C113.508 142.534 113.501 142.523 113.495 142.513ZM122.117 94.0821L136.84 71.9792L138.378 101.16C133.618 99.6571 128.128 97.275 122.117 94.0821ZM122.003 94.0207L121.96 93.9979L136.825 71.6838L136.829 71.7632L122.003 94.0207ZM121.846 93.9366C119.701 92.7914 117.493 91.5478 115.225 90.1998C115.187 90.177 115.149 90.155 115.111 90.1321C114.574 89.8129 114.034 89.4859 113.491 89.1555C113.388 89.0925 113.286 89.0313 113.182 88.9677C112.566 88.5911 111.947 88.2083 111.324 87.8174C111.322 87.8158 111.319 87.8141 111.317 87.8129L122.915 46.9416C125.781 49.6478 128.535 52.3723 131.147 55.0871C131.152 55.0927 131.158 55.0983 131.163 55.1037C131.939 55.9103 132.702 56.7155 133.452 57.5193C133.458 57.5261 133.464 57.5328 133.471 57.5396C133.819 57.9132 134.164 58.2862 134.506 58.6588C134.537 58.6926 134.569 58.7263 134.6 58.7601C134.931 59.1211 135.259 59.4816 135.585 59.8415C135.624 59.8856 135.665 59.9296 135.704 59.9734C135.884 60.1726 136.061 60.3712 136.239 60.57L136.813 71.4678L121.846 93.9366ZM136.377 60.7238C136.381 60.7283 136.385 60.7327 136.388 60.7371L136.97 71.232L136.933 71.2873L136.377 60.7238ZM136.527 60.8917C136.569 60.9388 136.612 60.986 136.654 61.0332C136.698 61.0829 136.743 61.133 136.787 61.1826C137.087 61.5204 137.383 61.8576 137.678 62.1942C137.735 62.2596 137.794 62.3252 137.851 62.3906C138.139 62.7205 138.423 63.0495 138.706 63.3787C138.767 63.4492 138.829 63.5199 138.889 63.5905C139.171 63.919 139.448 64.2464 139.725 64.5741C139.784 64.6438 139.845 64.7142 139.903 64.784C140.159 65.0873 140.41 65.3896 140.661 65.6916L137.09 71.0523L136.527 60.8917ZM122.984 45.9667C122.983 45.9654 122.982 45.9644 122.981 45.9635C122.822 45.8137 122.663 45.6639 122.503 45.5143C121.985 45.0301 121.463 44.5465 120.939 44.0637C120.778 43.9162 120.617 43.7692 120.456 43.6223C120.022 43.2249 119.586 42.8281 119.147 42.4322C119.002 42.3005 118.857 42.1688 118.711 42.0373C118.172 41.5528 117.629 41.0697 117.084 40.5879C116.918 40.4406 116.75 40.2935 116.583 40.1463C116.25 39.8529 115.915 39.5601 115.58 39.2676L133.392 9.54496L122.984 45.9667ZM115.013 39.7784L88.9803 71.8717C88.7274 71.6699 88.4719 71.4712 88.22 71.2683C88.0985 71.1704 87.9766 71.0732 87.8552 70.975C86.8553 70.1677 85.8617 69.3541 84.8758 68.5343C84.7307 68.4136 84.5867 68.2924 84.4419 68.1717C83.99 67.794 83.5394 67.4155 83.0905 67.0358C82.8637 66.8439 82.6374 66.6514 82.4113 66.4587C82.0028 66.1111 81.5959 65.7622 81.1904 65.4125C81.012 65.2586 80.8322 65.1051 80.6543 64.9509C80.5101 64.8261 80.3682 64.7003 80.2245 64.5752L109.007 34.6997C111.041 36.3693 113.045 38.065 115.013 39.7784ZM58.6812 44.3337C58.7479 44.4082 58.8134 44.4824 58.8802 44.5567C59.3477 45.0757 59.8218 45.5959 60.3006 46.1169C60.4147 46.2408 60.5297 46.3648 60.6446 46.4891C61.0443 46.9221 61.4479 47.3554 61.8555 47.7891C61.9589 47.8993 62.0616 48.0095 62.1655 48.1195C62.6598 48.6434 63.1593 49.1678 63.664 49.6927C63.7563 49.7885 63.8495 49.8843 63.9419 49.9799C64.3719 50.4252 64.8055 50.8706 65.2424 51.3159C65.3657 51.4416 65.4887 51.5672 65.6126 51.6929C66.135 52.2228 66.6608 52.7526 67.1931 53.2824C67.2301 53.319 67.2674 53.3556 67.3042 53.3923C67.8026 53.8877 68.3062 54.3831 68.8128 54.8783C68.9409 55.0032 69.0691 55.1282 69.1976 55.2535C69.7245 55.7659 70.2543 56.2783 70.7899 56.7899C70.8071 56.8067 70.8243 56.8233 70.842 56.8403C71.4014 57.3746 71.9664 57.9082 72.5347 58.4413C72.6586 58.5575 72.7828 58.6735 72.9073 58.7896C73.4017 59.2516 73.8991 59.713 74.3997 60.1737C74.4827 60.2498 74.5649 60.3263 74.6481 60.4026C75.2251 60.9319 75.8062 61.4603 76.3912 61.9873C76.4978 62.0834 76.6052 62.1792 76.7119 62.275C77.212 62.7244 77.7148 63.1727 78.2205 63.6199C78.3372 63.7231 78.4535 63.8263 78.5704 63.9297C78.946 64.2609 79.3235 64.5911 79.702 64.9208L61.0765 86.6405C59.9097 85.7009 58.7359 84.7693 57.5554 83.8462C57.4524 83.7656 57.3492 83.6852 57.2462 83.605C56.0594 82.6791 54.8667 81.7623 53.6684 80.8552C53.575 80.7842 53.4817 80.7133 53.3883 80.6427C52.127 79.6902 50.8608 78.7479 49.5893 77.8185C49.5763 77.809 49.5634 77.7995 49.5506 77.7901C48.2626 76.8489 46.9697 75.9207 45.6735 75.0055C45.5969 74.9514 45.5203 74.898 45.4438 74.8442C44.223 73.9841 42.9991 73.1364 41.7734 72.3017C41.6496 72.2174 41.5261 72.1336 41.4024 72.0497C40.1937 71.2295 38.9832 70.4219 37.7717 69.6283C37.6673 69.5601 37.5629 69.4912 37.4588 69.4229C36.2375 68.6257 35.0152 67.8418 33.793 67.0734L57.6075 43.1276C57.9619 43.529 58.3198 43.931 58.6812 44.3337ZM60.8537 87.1319C61.0212 87.2669 61.1898 87.401 61.357 87.5363C61.5041 87.6554 61.6501 87.7754 61.7971 87.8945C62.213 88.2326 62.6292 88.5705 63.0435 88.9104C63.1874 89.0283 63.3301 89.1473 63.4735 89.2654C63.8888 89.6072 64.3041 89.9491 64.7171 90.2928C64.8666 90.4172 65.0148 90.5422 65.1641 90.6668C65.5695 91.0051 65.9747 91.3435 66.3779 91.6836C66.5313 91.8129 66.6833 91.9431 66.8365 92.0726C67.2346 92.4096 67.6328 92.7468 68.0287 93.0853C68.1785 93.2131 68.327 93.3419 68.4761 93.4701C68.8734 93.8107 69.2704 94.1517 69.6655 94.4939C69.8156 94.6237 69.9644 94.7545 70.114 94.8848C70.1484 94.9148 70.1827 94.9449 70.2171 94.9749L36.6971 131.207C34.012 129.017 31.3687 126.79 28.779 124.535L60.8537 87.1319ZM70.3324 95.0756C70.6512 95.3532 70.9704 95.6303 71.2872 95.9088C71.4373 96.0404 71.5862 96.173 71.7356 96.3051C72.1238 96.6474 72.5119 96.9896 72.8973 97.3329C73.0398 97.4599 73.1809 97.5869 73.3229 97.7141C73.7135 98.0632 74.1039 98.4122 74.4915 98.7621C74.6321 98.8891 74.7713 99.0164 74.9115 99.1434C75.2974 99.4931 75.6831 99.8428 76.0661 100.193C76.2152 100.33 76.3626 100.467 76.5112 100.603C76.8828 100.944 77.2543 101.286 77.6232 101.628C77.7792 101.773 77.9337 101.918 78.0892 102.063C78.4492 102.398 78.8093 102.733 79.1664 103.07C79.3205 103.214 79.4727 103.359 79.6261 103.505C79.9824 103.841 80.3389 104.177 80.6918 104.514C80.8433 104.659 80.9925 104.803 81.1432 104.948C81.4961 105.285 81.8486 105.623 82.1982 105.961C82.3522 106.11 82.5041 106.259 82.6574 106.408C83.0002 106.741 83.343 107.074 83.6827 107.407C83.84 107.561 83.995 107.715 84.1514 107.87C84.4854 108.199 84.8198 108.528 85.1507 108.857C85.3049 109.011 85.4568 109.164 85.6103 109.317C85.9406 109.648 86.2708 109.978 86.5979 110.308C86.751 110.463 86.9021 110.617 87.0544 110.772C87.3779 111.1 87.7011 111.428 88.0212 111.756C88.1752 111.914 88.3269 112.071 88.4798 112.229C88.7964 112.555 89.1131 112.881 89.4264 113.207C89.5762 113.362 89.7234 113.518 89.8725 113.673C90.1849 114 90.4973 114.326 90.8064 114.653C90.9561 114.811 91.1031 114.968 91.2519 115.126C91.3442 115.224 91.4357 115.322 91.5275 115.42L74.1687 139.896L59.2608 147.946C51.6334 142.843 44.0698 137.213 36.8088 131.298L70.3324 95.0756ZM59.4867 148.097L73.8274 140.377L65.5605 152.033C63.5346 150.762 61.5087 149.447 59.4867 148.097ZM113.591 142.669L138.38 101.75C138.419 101.762 138.457 101.773 138.495 101.785L113.66 142.782C113.637 142.745 113.614 142.707 113.591 142.669ZM138.51 101.203L136.96 71.7987L136.999 71.7412L138.634 101.24C138.592 101.227 138.553 101.216 138.51 101.203ZM136.949 71.5828L136.945 71.5032L136.982 71.4469L136.987 71.5261L136.949 71.5828ZM137.102 71.2671L140.747 65.7952C140.757 65.8077 140.768 65.8206 140.779 65.8333L137.106 71.3463L137.102 71.2671ZM33.3826 67.4458L30.4416 74.5718L33.3757 67.4413C33.378 67.4429 33.3804 67.4442 33.3826 67.4458ZM33.4937 67.5156C34.0543 67.8676 34.6149 68.2222 35.1756 68.5803C35.2723 68.6422 35.3691 68.7056 35.4661 68.7677C35.9609 69.0849 36.4555 69.4029 36.9497 69.7247C37.0583 69.7952 37.1665 69.8671 37.2748 69.9379C37.7581 70.2536 38.2415 70.5699 38.7245 70.8898C38.8226 70.9547 38.9203 71.0212 39.0184 71.0865C39.5108 71.4132 40.0026 71.7411 40.4941 72.0723C40.6323 72.1655 40.7704 72.2607 40.9087 72.3542C41.3598 72.6594 41.8109 72.9651 42.2617 73.2739C42.4137 73.3782 42.5655 73.4843 42.7175 73.5889C43.1544 73.8897 43.5915 74.1904 44.0274 74.4943C44.1845 74.6037 44.3408 74.7148 44.4977 74.8248C44.9277 75.1257 45.3577 75.4263 45.7867 75.7305C45.9527 75.8477 46.1181 75.967 46.2838 76.085C46.7049 76.3846 47.126 76.6838 47.5462 76.9862C47.6908 77.0901 47.8344 77.1955 47.9787 77.2999C48.4191 77.6177 48.8592 77.9357 49.2983 78.2567C49.4444 78.3635 49.59 78.4718 49.736 78.5788C50.1719 78.8984 50.6077 79.2183 51.0425 79.5409C51.1999 79.6576 51.3566 79.7759 51.5142 79.8932C51.9371 80.2081 52.36 80.523 52.7815 80.8403C52.9368 80.9573 53.0913 81.0755 53.2464 81.1927C53.6695 81.5129 54.0932 81.8331 54.5151 82.1554C54.6622 82.2679 54.8081 82.3813 54.9551 82.494C55.3834 82.8228 55.8121 83.1515 56.2389 83.4825C56.3841 83.595 56.5281 83.7084 56.6728 83.8211C57.101 84.1543 57.5292 84.4877 57.9559 84.8232C58.1006 84.9371 58.2444 85.052 58.3887 85.1659C58.8127 85.5004 59.2362 85.8353 59.6585 86.1718C59.8152 86.2971 59.9711 86.4233 60.1278 86.5486C60.3307 86.7113 60.5335 86.8745 60.7362 87.0374L28.6657 124.436C23.9599 120.335 19.4317 116.148 15.1564 111.948L33.4937 67.5156ZM118.116 151.439C118.114 151.434 118.112 151.429 118.11 151.424C117.906 150.936 117.686 150.441 117.459 149.942C117.401 149.815 117.342 149.687 117.282 149.56C117.08 149.123 116.869 148.683 116.649 148.237C116.614 148.166 116.58 148.095 116.544 148.023C116.291 147.515 116.025 147 115.75 146.482C115.683 146.356 115.613 146.228 115.545 146.101C115.312 145.668 115.072 145.231 114.824 144.791C114.762 144.681 114.702 144.572 114.64 144.462C114.347 143.949 114.046 143.431 113.735 142.909L138.623 101.824C140.046 102.254 141.406 102.606 142.694 102.873C144.088 103.172 145.4 103.374 146.627 103.481L118.424 152.199C118.323 151.946 118.223 151.694 118.116 151.439ZM146.937 102.946C145.563 102.853 144.061 102.625 142.449 102.272C141.279 102.008 140.049 101.675 138.766 101.28L137.118 71.5615L140.865 65.9367C140.876 65.9494 140.886 65.9622 140.897 65.9749C141.15 66.2809 141.398 66.5855 141.646 66.8902C141.719 66.9797 141.794 67.0696 141.866 67.1592C142.106 67.4548 142.341 67.7492 142.576 68.0435C142.654 68.1407 142.733 68.2385 142.81 68.3355C143.043 68.6283 143.271 68.9196 143.498 69.2108C143.574 69.3079 143.652 69.4056 143.727 69.5025C143.945 69.7824 144.158 70.0607 144.371 70.3393C144.455 70.4479 144.54 70.5572 144.622 70.6659C144.827 70.9344 145.026 71.2015 145.226 71.4687C145.313 71.5848 145.402 71.7017 145.488 71.8177C145.682 72.0781 145.871 72.3371 146.061 72.5961C146.149 72.7175 146.24 72.8394 146.328 72.9603C146.512 73.2139 146.691 73.4659 146.871 73.7181C146.96 73.8428 147.052 73.9681 147.139 74.0926C147.314 74.3392 147.484 74.5838 147.654 74.8289C147.744 74.9574 147.835 75.0868 147.923 75.2149C148.09 75.4574 148.253 75.6983 148.416 75.9392C148.495 76.0557 148.575 76.173 148.653 76.2893L152.494 93.3469L146.937 102.946ZM115.437 39.1435C115.356 39.0731 115.276 39.003 115.195 38.9328C115.065 38.8204 114.937 38.708 114.807 38.5958C114.249 38.113 113.687 37.6322 113.124 37.1528C112.953 37.0074 112.782 36.8628 112.611 36.7182C112.122 36.3048 111.632 35.8928 111.14 35.4822C111.054 35.4101 110.969 35.3373 110.882 35.2653C110.863 35.2494 110.843 35.2337 110.824 35.2177C110.396 34.8614 109.966 34.5062 109.534 34.1521L133.239 9.54655L115.437 39.1435ZM152.59 93.1813L148.855 76.5937C148.9 76.6606 148.943 76.7272 148.988 76.7939L152.691 93.0069L152.59 93.1813ZM94.5025 23.6152L66.6822 34.003L83.9962 16.5932C87.5084 18.796 91.0214 21.1479 94.5025 23.6152ZM77.4581 30.1177L66.4205 34.2661L66.4631 34.2228L77.4581 30.1177ZM94.7173 23.7686C99.5354 27.1916 104.291 30.8337 108.897 34.6093L80.1067 64.4724C79.7543 64.1653 79.4015 63.8582 79.0517 63.55C78.8354 63.3598 78.6203 63.1688 78.405 62.9781C78.0258 62.642 77.6481 62.3055 77.2721 61.9682C77.0719 61.7887 76.8711 61.6094 76.6717 61.4296C76.1476 60.9571 75.6264 60.4833 75.1084 60.0088C74.9183 59.8345 74.73 59.6601 74.5408 59.4856C74.1648 59.1389 73.7902 58.7918 73.4177 58.4444C73.215 58.2552 73.0119 58.066 72.8103 57.8767C72.297 57.3949 71.7861 56.9128 71.2799 56.4298C71.1421 56.2981 71.0058 56.166 70.8683 56.0342C70.4644 55.647 70.0629 55.2594 69.6638 54.8719C69.4719 54.6856 69.2807 54.4991 69.0902 54.313C68.6762 53.9079 68.2649 53.503 67.8565 53.0978C67.7382 52.9807 67.6187 52.8636 67.5012 52.7465C67.0112 52.2587 66.527 51.7708 66.0457 51.2831C65.8721 51.1072 65.6997 50.9315 65.5276 50.7557C65.1543 50.375 64.7835 49.9944 64.4157 49.614C64.2749 49.4685 64.1327 49.3226 63.9926 49.177C63.516 48.6817 63.0443 48.1862 62.5771 47.6915C62.4307 47.5366 62.2864 47.3818 62.141 47.227C61.7814 46.8438 61.4245 46.4613 61.0709 46.0789C60.9271 45.9231 60.7825 45.7674 60.6394 45.612C60.1805 45.1127 59.7262 44.6144 59.2781 44.117C59.172 43.9991 59.0678 43.8818 58.9623 43.7641C58.6464 43.4115 58.3343 43.0602 58.024 42.7087L66.2014 34.4863L94.7173 23.7686ZM57.5219 43.0303L33.6812 67.0029C33.6773 67.0003 33.6734 66.998 33.6694 66.9954L57.5134 43.0207C57.5163 43.0238 57.5191 43.0271 57.5219 43.0303ZM28.2653 64.332L-1.70627 93.7242C-1.71373 93.7154 -1.72141 93.7065 -1.72871 93.6975L28.2351 64.3142C28.2452 64.3201 28.2551 64.3261 28.2653 64.332ZM28.3807 64.3996C29.2263 64.9 30.0774 65.4098 30.9366 65.9337C30.9925 65.968 31.0473 66.0003 31.1034 66.0344C31.8188 66.4718 32.5397 66.9186 33.2642 67.3722L19.338 101.216L14.9898 111.783C8.85784 105.748 3.24894 99.6893 -1.62347 93.8236L28.3807 64.3996ZM136.313 59.5134L136.162 56.6434L136.321 59.5229C136.318 59.5198 136.316 59.5165 136.313 59.5134ZM136.175 59.3604C135.8 58.9463 135.423 58.5317 135.041 58.1167C134.934 58.0005 134.825 57.8843 134.718 57.7679C134.348 57.3679 133.975 56.9674 133.598 56.5664C133.437 56.3942 133.275 56.2219 133.112 56.0497C132.659 55.5702 132.203 55.0903 131.741 54.6101C131.612 54.4764 131.482 54.3427 131.352 54.2091C130.975 53.8184 130.595 53.4281 130.211 53.0371C130.048 52.87 129.884 52.7032 129.72 52.5362C129.243 52.0532 128.763 51.57 128.279 51.087C128.137 50.9465 127.995 50.8058 127.853 50.6651C127.461 50.2766 127.067 49.8886 126.67 49.5003C126.506 49.3391 126.341 49.1781 126.176 49.0171C125.68 48.534 125.18 48.0514 124.676 47.5693C124.521 47.4217 124.366 47.2744 124.211 47.127C123.858 46.7912 123.504 46.4557 123.148 46.1207L123.618 44.4659L133.487 9.69007L133.573 10.002L136.175 59.3604ZM28.1198 64.2465L-1.81151 93.598C-2.57303 92.6787 -3.31568 91.7644 -4.03961 90.8554L1.01749 51.5448C8.63682 53.9043 17.8711 58.2021 28.1198 64.2465ZM139.848 63.5394C139.703 63.3697 139.558 63.1996 139.412 63.0297C139.041 62.5986 138.667 62.1665 138.288 61.7332C138.169 61.5981 138.05 61.4625 137.931 61.327C137.563 60.9096 137.191 60.4912 136.815 60.0725C136.697 59.9398 136.579 59.8077 136.46 59.6749L133.753 10.866L140.663 64.502C140.394 64.1817 140.122 63.8609 139.848 63.5394ZM133.276 9.32147L109.425 34.0616C108.884 33.6177 108.34 33.1759 107.794 32.7355C107.697 32.657 107.6 32.579 107.502 32.5007C106.537 31.7235 105.566 30.9527 104.59 30.1885C104.492 30.1117 104.394 30.0347 104.295 29.958C103.256 29.1474 102.212 28.3437 101.162 27.5499C101.127 27.5231 101.091 27.4966 101.055 27.4699C100.024 26.6908 98.9884 25.9212 97.9489 25.1604C97.8487 25.0871 97.7487 25.0141 97.6486 24.9411C96.9599 24.4384 96.27 23.9389 95.5784 23.4451L133.18 9.31268L133.276 9.32147ZM0.89177 51.5045L-4.15232 90.7147C-4.16594 90.6979 -4.17968 90.6809 -4.19314 90.6639L0.777555 51.4713C0.816315 51.483 0.853168 51.4927 0.89177 51.5045ZM140.817 64.6854L137.117 35.9608L140.983 64.8826C140.929 64.817 140.872 64.751 140.817 64.6854ZM83.8835 16.5235L66.392 34.1112L66.3635 34.122L83.8727 16.5168C83.8763 16.5191 83.8799 16.5212 83.8835 16.5235ZM66.1733 34.3313L66.1291 34.3756L66.1006 34.3864L66.1449 34.3419L66.1733 34.3313ZM65.9103 34.5957L57.938 42.6119C57.9351 42.6089 57.9322 42.6055 57.9297 42.6024L65.8818 34.6064L65.9103 34.5957ZM54.4819 39.4911C54.9076 40.0004 55.3374 40.5106 55.776 41.023C55.7812 41.0291 55.7868 41.0354 55.7923 41.0416C56.2274 41.5501 56.6711 42.0605 57.1188 42.5716C57.2214 42.6889 57.3243 42.8061 57.4277 42.9236L33.5577 66.9246C32.8401 66.4747 32.1267 66.0329 31.4175 65.5988C30.826 65.2365 30.2401 64.8837 29.655 64.5326C29.5562 64.4732 29.4559 64.4116 29.3572 64.3523C29.164 64.2369 28.9717 64.1229 28.7794 64.0085L54.166 39.1125C54.2709 39.2387 54.3763 39.3649 54.4819 39.4911ZM0.651628 51.4341L-4.30594 90.5228C-10.2522 83.0223 -14.8858 75.9191 -17.7397 69.6875L-17.7784 65.3761L-1.03707 50.9469C-0.483391 51.0985 0.0791138 51.2604 0.651628 51.4341ZM148.39 74.526L142.867 49.9971L148.508 74.6962C148.469 74.6395 148.429 74.5827 148.39 74.526ZM147.739 73.5992C147.643 73.4638 147.545 73.3275 147.447 73.1915C147.172 72.8084 146.893 72.4238 146.609 72.0373C146.527 71.9261 146.448 71.8156 146.365 71.7042C146.024 71.2429 145.675 70.7792 145.321 70.3136C145.207 70.1645 145.092 70.0147 144.977 69.8648C144.677 69.474 144.373 69.0816 144.065 68.6877C143.98 68.5793 143.897 68.4716 143.811 68.3631C143.443 67.8964 143.067 67.4274 142.687 66.9574C142.557 66.7957 142.425 66.6338 142.293 66.4718C141.961 66.0643 141.625 65.6555 141.285 65.2456C141.235 65.1863 141.188 65.1277 141.139 65.0683L133.968 11.4293L134.411 13.0317L148.193 74.2447C148.043 74.0299 147.892 73.8151 147.739 73.5992ZM57.8435 42.5053C57.7186 42.3635 57.5936 42.2217 57.4694 42.0801C57.0319 41.5803 56.5979 41.0814 56.172 40.5846C56.1402 40.5475 56.1092 40.5104 56.0774 40.4734C55.6666 39.9931 55.2627 39.5146 54.8633 39.0371C54.8016 38.9636 54.741 38.8903 54.6796 38.8167L65.5906 34.716L57.8435 42.5053ZM54.0834 39.0128L28.6643 63.9408C28.6541 63.9349 28.644 63.9291 28.634 63.923L54.0621 38.9874C54.0692 38.9959 54.0765 39.0042 54.0834 39.0128ZM-17.9071 65.4871L-17.8723 69.3925C-17.9166 69.2941 -17.9615 69.1953 -18.0049 69.0975L-18.0439 65.6049L-17.9071 65.4871ZM153.562 82.8879C153.524 82.8162 153.484 82.7436 153.445 82.6716C153.24 82.2902 153.028 81.9055 152.81 81.5178C152.754 81.4188 152.699 81.3196 152.643 81.22C152.393 80.7823 152.136 80.3412 151.87 79.8961C151.814 79.802 151.756 79.7075 151.699 79.6133C151.469 79.2315 151.233 78.8474 150.991 78.4609C150.925 78.356 150.861 78.2518 150.795 78.1468C150.513 77.6999 150.223 77.2497 149.925 76.7964C149.849 76.6802 149.771 76.5631 149.694 76.4466C149.441 76.0657 149.184 75.6828 148.921 75.2976C148.849 75.193 148.78 75.0887 148.707 74.9838L135.25 16.0672L153.912 83.5585C153.797 83.3355 153.682 83.1129 153.562 82.8879ZM132.881 9.28491L95.3646 23.2933C95.0991 23.1043 94.8336 22.9161 94.5678 22.7283C94.5095 22.6872 94.4514 22.6457 94.3931 22.6046C93.3224 21.8497 92.2488 21.1061 91.1735 20.3744C91.0995 20.3241 91.026 20.2745 90.9518 20.2244C89.9236 19.5264 88.8934 18.8396 87.8627 18.1643C87.7687 18.1028 87.6749 18.0411 87.5808 17.9799C86.7149 17.4143 85.8481 16.8579 84.9813 16.3099L132.775 9.27514L132.881 9.28491ZM65.8096 34.4957L54.5923 38.7119C54.5803 38.6974 54.5684 38.6829 54.5564 38.6688L65.8549 34.4502L65.8096 34.4957ZM40.2916 16.8906L41.5905 15.7631L41.8101 15.7474L40.3456 17.0186C40.3273 16.9757 40.3095 16.9332 40.2916 16.8906ZM40.2398 16.7646C40.1193 16.4693 40.0002 16.175 39.8901 15.8852L41.3759 15.7785L40.2398 16.7646ZM40.4318 18.5196C40.4637 18.5893 40.4932 18.6579 40.5255 18.7279C40.7161 19.1415 40.9174 19.5603 41.1262 19.9824C41.1803 20.0918 41.2363 20.2018 41.2915 20.3114C41.4645 20.6555 41.6434 21.0022 41.828 21.3517C41.883 21.4557 41.9365 21.559 41.9925 21.6635C42.2235 22.0948 42.4628 22.5297 42.7113 22.9691C42.7654 23.0649 42.8222 23.162 42.8774 23.2585C43.0847 23.6211 43.2978 23.9863 43.5165 24.3539C43.5897 24.4769 43.6621 24.6 43.7367 24.7237C44.008 25.1737 44.2852 25.6267 44.5727 26.0839C44.6077 26.1395 44.6443 26.1958 44.6795 26.2514C44.9393 26.6622 45.2061 27.0759 45.4785 27.4918C45.5658 27.6249 45.6535 27.7583 45.7418 27.892C46.0205 28.3124 46.3042 28.7351 46.5953 29.1607C46.6316 29.2138 46.6665 29.2665 46.703 29.3198C47.0274 29.7921 47.3616 30.268 47.7011 30.7464C47.7951 30.8787 47.8908 31.0118 47.986 31.1447C48.2678 31.5378 48.5542 31.9328 48.8458 32.3296C48.9224 32.4335 48.9973 32.5369 49.0745 32.6411C49.4318 33.1244 49.7971 33.6101 50.1685 34.098C50.26 34.2179 50.3532 34.3382 50.4453 34.4586C50.7497 34.8551 51.0583 35.2531 51.3715 35.6528C51.4717 35.7808 51.571 35.9082 51.6722 36.0365C52.0638 36.5322 52.4608 37.0299 52.8657 37.5296C52.9354 37.6156 53.0071 37.7022 53.0773 37.7883C53.3745 38.154 53.675 38.5204 53.9793 38.8879L28.5187 63.8554C18.2634 57.7823 9.03702 53.4489 1.36378 51.0246L39.9843 17.5029C40.1273 17.8387 40.2762 18.1775 40.4318 18.5196ZM-19.0756 66.4942L-18.1716 65.7154L-18.1374 68.8028C-18.4759 68.027 -18.7866 67.265 -19.0668 66.5187C-19.0699 66.5104 -19.0724 66.5026 -19.0756 66.4942ZM28.9259 125.579C29.0732 125.707 29.2218 125.834 29.3696 125.961C29.9323 126.447 30.4973 126.931 31.0647 127.414C31.2746 127.593 31.4846 127.772 31.6953 127.95C32.3773 128.528 33.0616 129.104 33.7501 129.677C33.7715 129.695 33.7927 129.713 33.8141 129.731C33.8295 129.743 33.8451 129.756 33.8605 129.769C34.6449 130.421 35.4344 131.07 36.2265 131.716L-16.1277 188.306L28.3603 125.087C28.5489 125.251 28.7368 125.415 28.9259 125.579ZM65.0455 152.538C65.0699 152.554 65.0942 152.569 65.1185 152.584L35.9951 165.537L65.0455 152.538ZM84.813 16.2033C84.7634 16.1719 84.7139 16.1404 84.6643 16.1094L107.594 12.8502L84.813 16.2033ZM78.2514 13.1297C78.2984 13.1569 78.3454 13.1838 78.3926 13.2112C78.9545 13.5369 79.5193 13.8676 80.0885 14.2062C80.1393 14.2362 80.1903 14.2673 80.2409 14.2975C80.761 14.6075 81.2849 14.9238 81.8111 15.2442C81.9581 15.3337 82.1053 15.4237 82.2529 15.514C82.7527 15.8202 83.255 16.1311 83.7598 16.4467L66.0737 34.2301L54.4686 38.5633C54.126 38.1505 53.7869 37.7386 53.4529 37.3285C53.3803 37.2391 53.3061 37.1493 53.2334 37.0599C52.8309 36.5631 52.4361 36.0686 52.0467 35.5757C51.9433 35.445 51.8417 35.3145 51.7392 35.1838C51.4252 34.7835 51.1156 34.3846 50.8108 33.9872C50.7215 33.8711 50.6313 33.7545 50.543 33.6386C50.1699 33.1492 49.8038 32.6622 49.4452 32.1778C49.3691 32.0749 49.2953 31.973 49.2199 31.8704C48.9249 31.4696 48.6353 31.0706 48.3505 30.6734C48.2602 30.547 48.1691 30.4208 48.0797 30.2949C47.7374 29.8133 47.4008 29.3336 47.0739 28.8579C47.0395 28.8081 47.007 28.7589 46.9729 28.7093C46.6778 28.2778 46.39 27.8495 46.1078 27.4233C46.0241 27.297 45.9412 27.1711 45.859 27.0454C45.5769 26.6154 45.3005 26.1872 45.0321 25.7625C45.0053 25.7203 44.9774 25.6774 44.9508 25.6349C44.6606 25.1737 44.381 24.7172 44.1073 24.263C44.0361 24.1449 43.9666 24.0275 43.8967 23.9101C43.6725 23.5335 43.4544 23.1596 43.2423 22.7884C43.1918 22.7001 43.1395 22.6112 43.09 22.5234C42.8395 22.0807 42.5983 21.6423 42.3652 21.2077C42.3122 21.1083 42.2611 21.0102 42.209 20.9112C42.0212 20.5564 41.8397 20.2046 41.6642 19.8556C41.6113 19.7498 41.5569 19.6437 41.5049 19.5384C41.2949 19.1143 41.0929 18.694 40.9015 18.2787C40.8706 18.2117 40.8424 18.1462 40.812 18.0797C40.6682 17.7641 40.5327 17.4526 40.3998 17.1425L42.0247 15.732L56.2091 14.7129L78.2514 13.1297ZM39.8399 15.7588C39.839 15.7561 39.8377 15.7531 39.8365 15.7502C39.8206 15.708 39.8078 15.6681 39.7922 15.6262L41.7037 15.4942L41.539 15.6369L39.8399 15.7588ZM39.9303 17.3788L1.21873 50.9795C1.16855 50.9638 1.1187 50.9484 1.06872 50.9328L39.8758 17.2514C39.8933 17.2936 39.9124 17.3366 39.9303 17.3788ZM-1.35086 50.864C-1.29658 50.8786 -1.24308 50.8922 -1.1886 50.907L-17.7796 65.2068L-17.7813 65.0243L-1.35086 50.864ZM-17.9087 65.3179L-18.0456 65.4358L-18.0476 65.2537L-17.9102 65.1355L-17.9087 65.3179ZM-18.1736 65.5459L-19.122 66.3635C-19.1396 66.316 -19.1547 66.2703 -19.172 66.2228L-18.1757 65.364L-18.1736 65.5459ZM41.754 15.6215L41.9175 15.4794L42.1361 15.4644L41.9732 15.6058L41.754 15.6215ZM39.6784 16.769C39.7112 16.8507 39.7453 16.9327 39.779 17.0148C39.7842 17.0275 39.7896 17.0404 39.7951 17.0534C39.8048 17.0768 39.8153 17.1007 39.825 17.1246L0.923669 50.8877C0.448278 50.7408 -0.0206175 50.6018 -0.483779 50.4699L39.4077 16.0878C39.4955 16.3137 39.5845 16.54 39.6784 16.769ZM-17.6007 51.1043C-17.5434 51.0667 -17.4838 51.0309 -17.4254 50.9947C-17.2972 50.9151 -17.1624 50.8417 -17.0278 50.7683C-16.8789 50.6874 -16.7281 50.6082 -16.5718 50.5346C-16.4622 50.4831 -16.3488 50.4349 -16.2351 50.387C-16.0763 50.3197 -15.9161 50.2539 -15.7502 50.1938C-15.6049 50.1414 -15.4548 50.0935 -15.3041 50.0466C-15.168 50.0038 -15.0322 49.961 -14.8917 49.9226C-14.6624 49.8606 -14.4266 49.8048 -14.1851 49.7545C-14.1204 49.7408 -14.0573 49.7255 -13.992 49.7126C-10.7776 49.0934 -6.54418 49.4887 -1.50251 50.824L-8.46233 56.8223L-17.7827 64.8549L-17.9037 51.3253C-17.8029 51.2512 -17.7061 51.1738 -17.6007 51.1043ZM36.3381 131.807C36.7195 132.118 37.1011 132.428 37.4842 132.737C37.6007 132.832 37.718 132.925 37.8347 133.019C38.9739 133.937 40.1197 134.846 41.2719 135.748C41.4114 135.857 41.5506 135.966 41.6902 136.075C42.8493 136.979 44.0147 137.874 45.185 138.761C45.2953 138.844 45.4054 138.929 45.5161 139.012C46.7787 139.966 48.0468 140.909 49.3197 141.84C49.3326 141.849 49.3455 141.858 49.3585 141.868C50.6266 142.794 51.8995 143.708 53.1759 144.61C53.2868 144.688 53.3979 144.765 53.5088 144.843C54.7027 145.684 55.8991 146.513 57.0978 147.33C57.2335 147.422 57.3689 147.514 57.5043 147.606C57.8576 147.846 58.211 148.085 58.5646 148.322L-16.0236 188.602L-16.2797 188.67C-16.2813 188.669 -16.2829 188.668 -16.2844 188.666L36.3381 131.807ZM65.2502 152.668C65.2773 152.685 65.3041 152.702 65.3309 152.719C65.9456 153.104 66.5564 153.483 67.1653 153.856C67.4071 154.005 67.6468 154.151 67.8875 154.297C68.2346 154.509 68.5817 154.72 68.9265 154.928C69.2524 155.124 69.5767 155.318 69.9007 155.511C70.1218 155.642 70.3424 155.773 70.5627 155.903C70.9779 156.148 71.3918 156.392 71.8033 156.632C71.8055 156.633 71.8075 156.634 71.8094 156.635C75.4335 158.744 78.9249 160.633 82.2591 162.291L52.9896 170.126L-14.8285 188.282L65.2502 152.668ZM84.3133 162.482L104.721 157.06L98.0913 168.003C93.9354 166.726 89.3109 164.874 84.3133 162.482ZM84.4955 16.0024C84.4375 15.9661 84.3797 15.929 84.3219 15.8928C83.6386 15.4641 82.9604 15.0451 82.286 14.6335C81.9623 14.4358 81.6422 14.2457 81.3204 14.0519C80.9813 13.8476 80.6408 13.6408 80.3043 13.4412C80.0713 13.303 79.8405 13.1685 79.6088 13.0323L131.74 9.28732L84.4955 16.0024ZM78.0081 12.9893C78.0224 12.9976 78.0366 13.0059 78.0512 13.0142L42.1878 15.5904L42.3501 15.4495L74.3864 13.239L78.0081 12.9893ZM-18.189 51.533C-18.1395 51.4928 -18.0837 51.4583 -18.0327 51.4194L-17.9118 64.9659L-18.0496 65.0845L-18.1999 51.5423C-18.1961 51.5394 -18.1926 51.5362 -18.189 51.533ZM-3.78569 92.2987C-3.67688 92.4334 -3.56501 92.5686 -3.45531 92.7033C-3.07079 93.1755 -2.68165 93.6485 -2.28761 94.1231C-2.25926 94.1573 -2.23217 94.1911 -2.20367 94.2252L-16.0105 183.908L-4.16471 91.8273C-4.03807 91.9845 -3.9134 92.1413 -3.78569 92.2987ZM15.1551 112.913C15.3508 113.104 15.5468 113.296 15.7435 113.487C16.2925 114.021 16.8449 114.554 17.4013 115.087C17.4939 115.175 17.5846 115.264 17.6771 115.352C18.3096 115.956 18.9486 116.559 19.5906 117.162C19.7876 117.347 19.9852 117.531 20.1829 117.716C20.6986 118.197 21.2169 118.678 21.738 119.158C21.8991 119.306 22.0589 119.454 22.2204 119.602C22.872 120.2 23.528 120.796 24.1881 121.391C24.371 121.556 24.5552 121.721 24.7388 121.886C25.2633 122.356 25.7901 122.826 26.3194 123.295C26.5123 123.465 26.7047 123.636 26.8985 123.807C27.3416 124.198 27.7871 124.587 28.2333 124.976L-16.4468 188.533C-16.4477 188.533 -16.4491 188.532 -16.4498 188.531L14.8719 112.637C14.9658 112.729 15.0611 112.821 15.1551 112.913ZM98.2194 168.042L104.902 157.012L105.066 156.968L98.3359 168.078C98.2971 168.066 98.258 168.054 98.2194 168.042ZM154.025 101.635C153.938 101.69 153.855 101.749 153.764 101.801C153.661 101.86 153.551 101.912 153.443 101.966C152.93 102.226 152.367 102.443 151.742 102.603C151.548 102.653 151.346 102.695 151.143 102.735C151.084 102.747 151.028 102.761 150.968 102.772C150.802 102.802 150.629 102.826 150.456 102.851C150.335 102.867 150.215 102.885 150.09 102.899C149.966 102.913 149.839 102.924 149.712 102.935C149.501 102.952 149.289 102.968 149.07 102.977C149.019 102.98 148.969 102.982 148.918 102.984C148.568 102.995 148.206 102.994 147.835 102.985L152.752 94.4913L154.317 101.442C154.223 101.509 154.124 101.572 154.025 101.635ZM57.9779 3.59493L56.1586 3.4642L56.5369 3.13572C57.0107 3.28035 57.4904 3.43246 57.9779 3.59493ZM58.4641 3.75984C58.5524 3.78989 58.6396 3.81876 58.7282 3.84932C58.7778 3.86647 58.8275 3.88402 58.8773 3.90133L55.8909 3.69639L56.0202 3.5843L58.4641 3.75984ZM59.3311 4.06244C59.5067 4.12491 59.681 4.18604 59.858 4.25066C59.9872 4.29797 60.1186 4.34787 60.2487 4.39632C60.6801 4.55646 61.1165 4.72309 61.5572 4.89586C61.7925 4.98806 62.0282 5.08092 62.2662 5.17671C62.4719 5.25938 62.6783 5.34302 62.8858 5.4285C63.2306 5.57 63.578 5.71525 63.9282 5.8645C64.0774 5.92784 64.2266 5.99119 64.3767 6.05602C64.7883 6.23343 65.2034 6.4161 65.622 6.60356C65.7719 6.6707 65.923 6.73885 66.0737 6.80732C66.484 6.99308 66.8971 7.18308 67.3139 7.37807C67.3945 7.41585 67.4741 7.45185 67.5549 7.49013C68.0568 7.72634 68.5637 7.97036 69.0746 8.21958C69.1867 8.27426 69.2997 8.33025 69.4122 8.38559C69.86 8.60577 70.311 8.83056 70.7658 9.06097C70.8516 9.10441 70.9367 9.14699 71.0228 9.19093C71.5541 9.46124 72.09 9.73862 72.6304 10.0227C72.7216 10.0705 72.8137 10.1199 72.9053 10.1684C73.3738 10.4158 73.8461 10.6688 74.3211 10.9264C74.4281 10.9842 74.5344 11.0416 74.6418 11.1C75.1913 11.3997 75.7446 11.7053 76.3027 12.0182C76.3755 12.0592 76.4494 12.1014 76.5225 12.1427C76.947 12.3817 77.3756 12.6266 77.8048 12.8735L67.3046 13.5979L42.5127 15.3085L55.752 3.81719L59.3311 4.06244ZM42.2989 15.3232L42.0801 15.3384L55.384 3.79184L55.5695 3.80462L42.2989 15.3232ZM41.8661 15.3529L39.7472 15.4993C39.6461 15.2238 39.5465 14.9491 39.4562 14.6807C39.439 14.6293 39.4239 14.5798 39.4072 14.5289C39.303 14.214 39.2039 13.9026 39.1146 13.598C39.1105 13.5833 39.1066 13.5688 39.1023 13.5539C37.7959 9.063 38.1078 5.6861 40.0225 3.66785C40.0501 3.63899 40.0792 3.61151 40.1073 3.58312C40.2251 3.46432 40.3484 3.34977 40.4778 3.2406C40.5066 3.21635 40.5355 3.19181 40.5647 3.16788C40.7211 3.04129 40.8855 2.92202 41.0567 2.80933L55.2012 3.77935L41.8661 15.3529ZM-19.2997 52.6715C-19.1527 52.4786 -18.9943 52.2951 -18.8267 52.1193C-18.8006 52.0921 -18.7729 52.0663 -18.7465 52.0396C-18.6135 51.9049 -18.4729 51.7767 -18.3278 51.6524L-18.1774 65.195L-19.2186 66.092C-19.3165 65.8224 -19.4155 65.5514 -19.5047 65.2874C-19.542 65.1772 -19.5748 65.0702 -19.6106 64.9609C-19.7091 64.6599 -19.8039 64.361 -19.8911 64.0678C-19.9219 63.9633 -19.9507 63.8605 -19.9804 63.757C-20.0692 63.4456 -20.1529 63.1377 -20.2285 62.8354C-20.2455 62.7679 -20.2626 62.7003 -20.2788 62.6334C-21.3281 58.2998 -21.0044 54.926 -19.3138 52.6907C-19.3091 52.6843 -19.3046 52.6777 -19.2997 52.6715ZM-4.2773 91.6867L-7.50559 116.782L-4.31681 91.6374C-4.30357 91.6539 -4.29054 91.6702 -4.2773 91.6867ZM-2.09319 94.3596C-2.06269 94.3962 -2.03291 94.4326 -2.00226 94.469L-8.65676 136.995L-2.09319 94.3596ZM154.43 101.356L152.848 94.3258L152.951 94.1469L154.572 101.243C154.525 101.281 154.479 101.319 154.43 101.356ZM56.3907 3.09152L55.9767 3.45115L55.7917 3.43779L56.2422 3.04678C56.2916 3.0615 56.3413 3.07646 56.3907 3.09152ZM55.8382 3.57115L55.7085 3.68392L55.5227 3.67112L55.6531 3.55797L55.8382 3.57115ZM55.34 3.65873L41.2472 2.6922C41.3326 2.64008 41.4219 2.59145 41.5106 2.54236L55.4713 3.54501L55.34 3.65873ZM39.3048 15.8253C39.322 15.8699 39.3405 15.9151 39.3577 15.96L-0.632978 50.4274C-0.68587 50.4127 -0.739397 50.3971 -0.791941 50.3823L13.4328 38.1226L39.3048 15.8253ZM-1.89164 94.6003C-1.86591 94.6307 -1.83966 94.6613 -1.8141 94.6919C-1.34611 95.2512 -0.873197 95.8119 -0.392118 96.3744C-0.321862 96.457 -0.250973 96.5395 -0.180211 96.6219C0.293663 97.1745 0.774956 97.7288 1.26116 98.2839C1.43018 98.4773 1.60035 98.6707 1.77133 98.8645C2.1966 99.347 2.62642 99.8308 3.0608 100.315C3.18216 100.451 3.30208 100.586 3.42433 100.722C3.95848 101.315 4.49998 101.909 5.04659 102.504C5.21776 102.69 5.39056 102.876 5.56297 103.063C5.98891 103.523 6.41854 103.985 6.85192 104.447C7.01705 104.622 7.18081 104.798 7.34683 104.974C7.90897 105.57 8.47697 106.166 9.05093 106.762C9.20545 106.924 9.36235 107.084 9.51773 107.245C9.97573 107.719 10.4374 108.194 10.9026 108.668C11.0873 108.856 11.2716 109.044 11.4576 109.233C12.0519 109.836 12.6505 110.438 13.2555 111.041C13.3604 111.145 13.4667 111.25 13.5719 111.354C13.9484 111.728 14.3248 112.101 14.7053 112.475L-16.5049 188.323L-16.5142 188.046L-1.89164 94.6003ZM107.595 169.987L116.194 168.663C116.039 168.752 115.872 168.831 115.707 168.912L108.296 170.035C108.065 170.022 107.832 170.006 107.595 169.987ZM120.619 161.686C120.619 161.494 120.615 161.3 120.608 161.103C120.606 161.049 120.605 160.997 120.603 160.942C120.591 160.699 120.571 160.45 120.548 160.198C120.539 160.112 120.53 160.024 120.52 159.936C120.499 159.745 120.475 159.551 120.448 159.355C120.437 159.273 120.426 159.192 120.414 159.109C120.374 158.842 120.328 158.572 120.276 158.297C120.263 158.231 120.249 158.164 120.236 158.099C120.191 157.873 120.142 157.646 120.09 157.415C120.07 157.325 120.049 157.236 120.027 157.145C119.965 156.884 119.899 156.62 119.827 156.353C119.817 156.316 119.808 156.281 119.798 156.244C119.715 155.94 119.625 155.631 119.529 155.319C119.504 155.235 119.477 155.15 119.45 155.065C119.371 154.812 119.287 154.557 119.2 154.299C119.174 154.223 119.15 154.147 119.123 154.071C119.036 153.819 118.945 153.564 118.85 153.306L118.795 153.152L140.446 115.749L147.513 103.542C149.264 103.63 150.828 103.51 152.174 103.163C152.795 103.004 153.361 102.793 153.881 102.541L120.621 161.845C120.621 161.793 120.619 161.739 120.619 161.686ZM87.8569 12.3099L79.4105 12.9165C79.3981 12.9094 79.386 12.9022 79.3736 12.8951L80.6265 12.8086L87.8569 12.3099ZM38.3917 13.0619C38.3951 13.0748 38.3991 13.0878 38.4025 13.1006C38.4731 13.3533 38.5469 13.6084 38.6276 13.8682C38.6593 13.9712 38.6948 14.0763 38.728 14.1802C38.7878 14.3657 38.8458 14.5501 38.9108 14.7389C39.0161 15.0463 39.1269 15.3575 39.2456 15.6735C39.2486 15.6815 39.252 15.6894 39.255 15.6973L37.3587 17.3315L-0.941333 50.3401C-6.99302 48.6668 -11.9515 48.3018 -15.5267 49.3375L38.2239 5.09118C37.427 7.12732 37.4859 9.79677 38.3917 13.0619ZM-17.856 71.2078L-17.3401 129.015L-17.9845 70.9387C-17.941 71.0287 -17.9005 71.1174 -17.856 71.2078ZM120.597 162.459C120.604 162.346 120.611 162.235 120.615 162.12L154.092 102.429C154.165 102.391 154.24 102.354 154.311 102.313C154.33 102.302 154.351 102.293 154.37 102.282L120.595 162.51C120.596 162.493 120.596 162.476 120.597 162.459ZM131.572 9.16385L114.061 10.372L79.1746 12.779C79.1205 12.7476 79.0669 12.7161 79.013 12.6848C78.8008 12.5614 78.5874 12.4352 78.3765 12.3137C77.8608 12.0162 77.3495 11.7267 76.8397 11.4395C76.7308 11.3782 76.6212 11.3156 76.5131 11.2549C75.9155 10.9204 75.3233 10.5943 74.7342 10.2742C74.7309 10.2724 74.7271 10.2703 74.7236 10.2683C70.2099 7.81573 65.9582 5.79737 62.0535 4.24914L125.418 8.59444L131.572 9.16385ZM61.6545 4.09178C61.5485 4.05056 61.4411 4.00685 61.3357 3.9661L93.3951 6.26829L61.6545 4.09178ZM-19.2101 68.2348C-19.1819 68.302 -19.1488 68.3717 -19.1202 68.4392C-18.945 68.8517 -18.7623 69.2682 -18.5709 69.6889C-18.5329 69.772 -18.4976 69.8542 -18.4592 69.9376C-18.3486 70.177 -18.2321 70.4193 -18.1168 70.661L-16.9606 174.825L-16.9927 173.87L-19.2101 68.2348ZM120.573 162.814L141.67 125.194L120.558 162.964C120.563 162.914 120.569 162.865 120.573 162.814ZM60.9222 3.80639C60.34 3.58535 59.7665 3.3757 59.201 3.17661L117.504 7.86215L117.864 7.89549L60.9222 3.80639ZM-19.3467 67.9008L-17.9071 136.487L-19.5277 67.4516C-19.4681 67.601 -19.4085 67.7502 -19.3467 67.9008ZM59.502 169.074L83.2323 162.769C88.1421 165.166 92.6995 167.053 96.8283 168.402L-11.1333 187.979L-12.3027 188.15L59.502 169.074ZM58.7003 3.00609C58.4853 2.93236 58.2697 2.85751 58.0574 2.78703L100.543 6.36865L58.7003 3.00609ZM97.0857 168.487C97.1935 168.521 97.3045 168.56 97.4115 168.594L33.8538 179.952L97.0857 168.487ZM57.5265 2.6123C57.0652 2.46389 56.6072 2.3192 56.1587 2.18661L93.9687 5.68468L57.5265 2.6123ZM97.6834 168.677C100.06 169.421 102.29 169.984 104.353 170.354L9.25514 184.994L-6.63144 187.32L97.6834 168.677ZM-20.6976 64.1075C-20.6009 64.4341 -20.4968 64.7653 -20.3861 65.1006C-20.3556 65.1932 -20.3252 65.2857 -20.2936 65.3792C-20.1566 65.784 -20.0132 66.1929 -19.8567 66.6101C-19.7962 66.7714 -19.7288 66.9362 -19.6655 67.0993L-17.539 157.688L-19.3769 103.247L-20.6976 64.1075ZM104.767 170.422C104.925 170.449 105.083 170.474 105.24 170.499L40.4319 180.326L104.767 170.422ZM105.661 170.566C106.051 170.622 106.434 170.671 106.811 170.713L45.5447 179.682L105.661 170.566Z" fill="#7C876E"/>
</svg>
