<svg width="301" height="295" viewBox="0 0 301 295" fill="none" xmlns="http://www.w3.org/2000/svg">
<path d="M20.0918 275.309C-21.3633 234.68 3.40487 144.297 75.3077 73.8258C147.211 3.35494 239.43 -20.9199 280.885 19.7096C322.341 60.3391 297.572 150.722 225.669 221.193C153.77 291.66 61.5469 315.939 20.0918 275.309ZM278.078 22.4614C238.171 -16.6508 148.47 7.63148 78.1228 76.5776C7.77563 145.524 -16.9999 233.438 22.907 272.55C62.814 311.662 152.51 287.383 222.861 218.434C293.212 149.484 317.985 61.5736 278.078 22.4614Z" fill="#979F8F"/>
<path d="M20.0918 275.309C-2.86055 252.814 36.4332 179.055 109.554 107.39C182.676 35.7255 257.933 -2.78564 280.885 19.7096C303.838 42.2048 264.54 115.959 191.419 187.624C118.301 259.286 43.0441 297.804 20.0918 275.309ZM278.078 22.4614C257.412 2.20722 181.528 42.3607 112.369 110.142C43.2106 177.924 2.24132 252.296 22.907 272.55C43.569 292.801 119.452 252.647 188.611 184.865C257.77 117.084 298.74 42.7118 278.078 22.4614Z" fill="#979F8F"/>
<path d="M20.0918 275.309C19.3158 274.549 19.3158 273.314 20.0918 272.554L278.074 19.7096C278.85 18.9491 280.109 18.9491 280.885 19.7096C281.661 20.4701 281.661 21.7045 280.885 22.465L22.9032 275.309C22.1272 276.07 20.8677 276.07 20.0918 275.309Z" fill="#979F8F"/>
<path d="M75.3093 221.191C3.40854 150.723 -21.3572 60.3403 20.0991 19.7096C47.0331 -6.68808 97.2007 -6.56023 151.038 20.0383C152.012 20.5159 152.406 21.6879 151.919 22.6578C151.424 23.6131 150.232 24.0025 149.246 23.5212C97.0019 -2.29485 48.5924 -2.69829 22.9142 22.4686C-16.994 61.5819 7.77933 149.495 78.1245 218.44C148.47 287.384 238.17 311.664 278.078 272.55C303.756 247.383 303.341 199.942 277.004 148.735C276.509 147.772 276.902 146.6 277.885 146.115C278.87 145.634 280.059 146.012 280.557 146.978C307.693 199.747 307.823 248.915 280.893 275.309C239.429 315.933 147.21 291.66 75.3093 221.191Z" fill="#979F8F"/>
</svg>
