<svg width="344" height="273" viewBox="0 0 344 273" fill="none" xmlns="http://www.w3.org/2000/svg">
<path d="M296.603 273C279.139 273 263.301 253.091 255.067 221.534C246.844 253.091 231.006 273 213.536 273C196.066 273 180.229 253.091 172 221.534C163.771 253.091 147.934 273 130.469 273C112.999 273 97.1618 253.091 88.9331 221.534C80.7045 253.091 64.8666 273 47.3966 273C20.818 273 0 192.491 0 136.5C0 43.8592 20.8235 0 47.3966 0C64.8666 0 80.6989 19.9094 88.9331 51.4663C97.1618 19.9094 112.999 0 130.469 0C147.934 0 163.771 19.9094 172 51.4663C180.229 19.9094 196.066 0 213.536 0C231.006 0 246.844 19.9094 255.067 51.4663C263.301 19.9094 279.139 0 296.603 0C323.182 0 344 43.8592 344 136.5C344 192.496 323.176 273 296.603 273ZM255.067 210.339C256.063 210.339 256.915 211.015 257.104 211.952C264.137 246.612 279.637 269.007 296.603 269.007C320.454 269.007 339.85 189.356 339.85 136.5C339.85 47 320.448 3.99252 296.603 3.99252C279.642 3.99252 264.137 26.3879 257.104 61.0484C256.915 61.9853 256.058 62.6613 255.067 62.6613C254.071 62.6613 253.219 61.9853 253.031 61.0484C246.003 26.3879 230.508 3.99252 213.536 3.99252C196.57 3.99252 181.064 26.3879 174.036 61.0484C173.66 62.9275 170.34 62.9275 169.964 61.0484C162.941 26.3879 147.441 3.99252 130.469 3.99252C113.503 3.99252 97.9973 26.3879 90.9695 61.0484C90.5932 62.9275 87.2728 62.9275 86.8965 61.0484C79.8686 26.3879 64.3686 3.99252 47.3966 3.99252C23.5461 3.99252 4.15031 46.9947 4.15031 136.5C4.15031 189.361 23.5516 269.007 47.3966 269.007C64.3631 269.007 79.8686 246.612 86.8965 211.952C87.2728 210.078 90.5932 210.078 90.9695 211.952C97.9973 246.612 113.497 269.007 130.469 269.007C147.436 269.007 162.936 246.612 169.964 211.952C170.34 210.078 173.66 210.078 174.036 211.952C181.064 246.612 196.564 269.007 213.536 269.007C230.503 269.007 246.003 246.612 253.031 211.952C253.219 211.015 254.071 210.339 255.067 210.339Z" fill="#978163"/>
</svg>
