<svg width="299" height="306" viewBox="0 0 299 306" fill="none" xmlns="http://www.w3.org/2000/svg">
<path d="M149.672 104.559C66.1197 104.559 0.671875 81.5935 0.671875 52.2821C0.671875 22.9656 66.1197 0 149.672 0C233.224 0 298.672 22.9656 298.672 52.2821C298.672 81.5935 233.224 104.559 149.672 104.559ZM149.672 3.84126C70.7417 3.84126 4.05711 26.0233 4.05711 52.2821C4.05711 78.5358 70.7372 100.718 149.672 100.718C228.607 100.718 295.287 78.5358 295.287 52.2821C295.287 26.0233 228.607 3.84126 149.672 3.84126Z" fill="#A59791"/>
<path d="M149.672 154.921C66.1197 154.921 0.671875 131.955 0.671875 102.638C0.671875 93.02 7.80778 83.719 21.3081 75.7445C22.1206 75.258 23.1544 75.6165 23.5922 76.5589C24.0255 77.5013 23.6959 78.6588 22.8699 79.1505C10.5611 86.4181 4.05711 94.5411 4.05711 102.638C4.05711 128.897 70.7372 151.079 149.672 151.079C228.607 151.079 295.287 128.897 295.287 102.638C295.287 94.5462 288.787 86.4284 276.487 79.1607C275.657 78.669 275.332 77.5115 275.765 76.5691C276.203 75.6268 277.237 75.2682 278.049 75.7548C291.54 83.7292 298.672 93.0251 298.672 102.638C298.672 131.955 233.224 154.921 149.672 154.921Z" fill="#A59791"/>
<path d="M149.672 205.282C66.1197 205.282 0.671875 182.316 0.671875 153C0.671875 123.683 66.1197 100.718 149.672 100.718C233.224 100.718 298.672 123.683 298.672 153C298.672 182.316 233.224 205.282 149.672 205.282ZM149.672 104.559C70.7417 104.559 4.05711 126.741 4.05711 153C4.05711 179.259 70.7372 201.441 149.672 201.441C228.607 201.441 295.287 179.259 295.287 153C295.287 126.741 228.607 104.559 149.672 104.559Z" fill="#A59791"/>
<path d="M149.672 255.638C66.1197 255.638 0.671875 232.673 0.671875 203.356C0.671875 174.04 66.1197 151.079 149.672 151.079C233.224 151.079 298.672 174.04 298.672 203.356C298.672 232.673 233.224 255.638 149.672 255.638ZM149.672 154.921C70.7417 154.921 4.05711 177.103 4.05711 203.361C4.05711 229.615 70.7372 251.802 149.672 251.802C228.607 251.802 295.287 229.62 295.287 203.361C295.287 177.103 228.607 154.921 149.672 154.921Z" fill="#A59791"/>
<path d="M149.672 306C66.1197 306 0.671875 283.034 0.671875 253.718C0.671875 244.099 7.80778 234.798 21.3081 226.824C22.1206 226.337 23.1544 226.701 23.5922 227.638C24.0255 228.581 23.6959 229.738 22.8699 230.23C10.5611 237.497 4.05711 245.62 4.05711 253.718C4.05711 279.972 70.7372 302.159 149.672 302.159C228.607 302.159 295.287 279.977 295.287 253.718C295.287 245.626 288.787 237.503 276.487 230.235C275.657 229.743 275.332 228.586 275.765 227.643C276.203 226.701 277.237 226.348 278.049 226.829C291.54 234.803 298.672 244.099 298.672 253.718C298.672 283.034 233.224 306 149.672 306Z" fill="#A59791"/>
</svg>
