<svg width="334" height="241" viewBox="0 0 334 241" fill="none" xmlns="http://www.w3.org/2000/svg">
<path opacity="0.5" d="M284.257 265.411C284.276 265.4 284.295 265.39 284.314 265.379C287.788 263.319 290.145 259.712 291.333 254.599L343.513 30.0681L343.571 29.8215L343.583 29.6349C343.555 29.3461 343.321 29.0207 343.183 28.874C343.132 28.8189 343.082 28.7858 343.033 28.7474L343.024 28.6621L342.904 28.6606C342.841 28.629 342.778 28.601 342.712 28.5923L342.684 28.5885L113.687 0.640389C113.359 0.600561 113.035 0.568451 112.714 0.541031C112.632 0.534368 112.551 0.528512 112.47 0.522564C112.027 0.489017 111.594 0.470284 111.167 0.461699C111.107 0.460423 111.045 0.453609 110.985 0.453048C110.945 0.452617 110.908 0.456251 110.868 0.456177C110.365 0.452053 109.873 0.465424 109.392 0.495559C109.321 0.500152 109.251 0.506626 109.18 0.512185C108.159 0.588408 107.186 0.742141 106.266 0.975314C106.231 0.984073 106.196 0.991623 106.161 1.00063C105.713 1.11751 105.279 1.25531 104.856 1.40967C104.801 1.42937 104.746 1.44974 104.692 1.47015C104.275 1.62811 103.869 1.80205 103.476 1.99723C103.438 2.01628 103.4 2.03734 103.361 2.057C102.962 2.25986 102.574 2.47846 102.201 2.71972C102.196 2.72239 102.191 2.72534 102.187 2.728C101.823 2.96394 101.474 3.22317 101.135 3.49547C101.081 3.53856 101.027 3.58073 100.974 3.6249C100.711 3.84273 100.454 4.06768 100.208 4.30768C100.161 4.35326 100.119 4.40466 100.073 4.45095C100.04 4.48331 100.004 4.51017 99.9723 4.54264L5.72239 100.946C3.9711 102.599 2.70475 104.886 1.92163 107.786C1.91165 107.821 1.9024 107.857 1.89267 107.893C1.80174 108.237 1.71612 108.587 1.63846 108.948C1.61679 109.05 1.59706 109.154 1.57579 109.257C1.51326 109.57 1.45174 109.884 1.39897 110.209C1.36725 110.4 1.3416 110.599 1.31385 110.794C1.27721 111.05 1.23831 111.303 1.2073 111.567C1.156 112.007 1.11396 112.457 1.07915 112.917C1.07655 112.952 1.07239 112.984 1.06979 113.018C1.03137 113.547 1.00507 114.091 0.988741 114.646C0.986733 114.711 0.987586 114.779 0.985829 114.844C0.973972 115.32 0.969255 115.804 0.973253 116.299C0.973598 116.34 0.972033 116.378 0.972377 116.419L2.54135 267.121L2.54153 267.131L2.54359 267.179L2.58823 267.391L2.79206 267.581L2.80042 267.588L2.93253 267.638L3.10833 267.714L3.11793 267.707L3.79187 267.958L143.842 320.719C150.405 323.192 155.716 323.532 159.689 321.756C159.712 321.745 159.738 321.738 159.762 321.728L283.004 266.064C283.045 266.046 283.082 266.021 283.122 266.002C283.512 265.822 283.891 265.626 284.257 265.411ZM110.281 1.96126C110.678 1.94951 111.078 1.94327 111.49 1.95454C111.678 1.95996 111.871 1.97178 112.062 1.98174C112.512 2.00599 112.969 2.04008 113.437 2.09179C113.584 2.1077 113.732 2.12302 113.881 2.14169C114.317 2.19725 114.757 2.26082 115.205 2.33863C115.251 2.34632 115.297 2.35418 115.343 2.36223C116.699 2.60468 118.117 2.95989 119.581 3.40509L108.335 2.11801C108.789 2.05409 109.252 2.00381 109.731 1.97579C109.911 1.96529 110.098 1.96687 110.281 1.96126ZM156.804 321.118C156.433 321.191 156.052 321.246 155.663 321.289C155.591 321.297 155.52 321.307 155.447 321.314C155.033 321.353 154.608 321.376 154.175 321.383C154.019 321.384 153.858 321.376 153.701 321.374C153.454 321.371 153.206 321.363 152.954 321.35C152.671 321.334 152.386 321.313 152.096 321.284C152.012 321.275 151.928 321.265 151.845 321.256C149.583 321.004 147.081 320.37 144.34 319.349C140.745 318.009 136.826 316.022 132.645 313.444L133.672 312.947L156.964 321.085C156.949 321.088 156.936 321.093 156.923 321.096C156.883 321.104 156.843 321.111 156.804 321.118ZM2.44708 114.923C2.44961 114.839 2.45159 114.755 2.45427 114.672C2.46983 114.209 2.49353 113.756 2.52462 113.313C2.52832 113.263 2.53078 113.213 2.53473 113.164C2.6099 112.164 2.72358 111.214 2.8786 110.317C2.8816 110.3 2.88579 110.284 2.8889 110.266C2.95765 109.872 3.03588 109.489 3.12028 109.115C3.1682 108.905 3.22201 108.703 3.27481 108.499C3.3182 108.33 3.36137 108.159 3.40813 107.993C3.48033 107.741 3.55777 107.497 3.63762 107.255C3.67072 107.155 3.70349 107.053 3.7381 106.955C3.83374 106.683 3.93373 106.417 4.03963 106.158C4.06017 106.107 4.08141 106.057 4.10221 106.007C4.75415 104.46 5.59373 103.154 6.62402 102.1C7.40212 101.305 8.28971 100.66 9.28087 100.161C9.36907 100.117 9.46228 100.081 9.55198 100.039C9.55066 100.039 9.55295 100.038 9.55198 100.039L9.03538 113.055L2.55804 119.484C2.54471 119.286 2.52392 119.082 2.51295 118.887C2.50886 118.816 2.50278 118.741 2.49894 118.67C2.46094 117.951 2.43996 117.253 2.43389 116.576C2.43257 116.456 2.43218 116.339 2.43162 116.22C2.43059 115.78 2.43523 115.347 2.44708 114.923ZM103.769 3.55896C103.844 3.51897 103.924 3.4863 104 3.44774L98.4417 9.11671C98.4904 9.02378 98.5386 8.93087 98.5883 8.83936C98.6747 8.68045 98.7601 8.51964 98.8509 8.3662C98.9112 8.26459 98.9764 8.16853 99.0382 8.06908L103.028 3.99951C103.11 3.94843 103.188 3.89137 103.27 3.84198C103.434 3.74429 103.6 3.64924 103.769 3.55896ZM339.659 42.4665L290.521 230.574C290.477 230.349 290.427 230.12 290.38 229.894C290.218 229.099 290.046 228.296 289.863 227.484C289.808 227.241 289.756 227 289.699 226.755C289.467 225.752 289.22 224.735 288.957 223.707C288.898 223.477 288.835 223.244 288.775 223.013C288.555 222.168 288.324 221.315 288.084 220.453C288.001 220.156 287.919 219.859 287.833 219.559C287.531 218.499 287.218 217.43 286.887 216.347C286.842 216.201 286.794 216.052 286.749 215.906C286.452 214.943 286.142 213.971 285.822 212.992C285.714 212.66 285.605 212.328 285.494 211.994C285.17 211.019 284.837 210.035 284.491 209.043C284.435 208.881 284.382 208.722 284.325 208.56C283.93 207.435 283.519 206.298 283.097 205.155C282.97 204.809 282.84 204.462 282.71 204.115C282.368 203.2 282.018 202.28 281.66 201.353C281.547 201.062 281.438 200.774 281.324 200.482C280.871 199.324 280.405 198.157 279.927 196.982C279.792 196.65 279.653 196.316 279.516 195.983C279.136 195.059 278.748 194.13 278.353 193.195C278.202 192.838 278.053 192.482 277.899 192.124C277.625 191.483 277.346 190.838 277.065 190.193L342.006 32.4743L339.659 42.4665ZM102.029 4.69116L99.795 6.97051C99.8118 6.94801 99.8284 6.92524 99.8451 6.90335C99.9579 6.75687 100.07 6.60875 100.188 6.46821C100.309 6.32432 100.435 6.18836 100.56 6.05127C100.687 5.91292 100.813 5.77359 100.945 5.64204C101.065 5.52229 101.194 5.41475 101.318 5.30037C101.549 5.08843 101.785 4.88319 102.029 4.69116ZM105.117 2.9376C105.417 2.82133 105.729 2.72321 106.042 2.62721L122.787 4.50555C127.047 6.13067 131.69 8.50923 136.65 11.597L119.874 27.5968L96.0659 27.4833C96.058 27.389 96.0503 27.2952 96.0426 27.2019C96.0156 26.8588 95.9869 26.5136 95.9653 26.1774C95.945 25.8628 95.9316 25.5566 95.9163 25.2476C95.9003 24.9224 95.8825 24.5959 95.8719 24.2776C95.861 23.9665 95.8572 23.6633 95.8518 23.3585C95.8463 23.0558 95.8392 22.7518 95.8389 22.4557C95.8381 22.146 95.8446 21.845 95.8498 21.5424C95.8543 21.2631 95.857 20.9811 95.8665 20.7075C95.8767 20.4029 95.8941 20.1077 95.91 19.8104C95.9244 19.5504 95.9363 19.2876 95.9546 19.0334C95.9763 18.7352 96.0054 18.4454 96.0328 18.1544C96.0558 17.9145 96.0766 17.6711 96.1035 17.436C96.1369 17.1445 96.1778 16.8623 96.2173 16.5788C96.2487 16.356 96.278 16.1309 96.3131 15.9135C96.3587 15.6317 96.4113 15.3585 96.4632 15.085C96.5028 14.8778 96.5402 14.6681 96.5837 14.4656C96.6411 14.1962 96.7054 13.9359 96.7699 13.6749C96.8177 13.4801 96.8631 13.2825 96.9147 13.0925C96.9842 12.8371 97.0602 12.5911 97.1359 12.3447C97.1921 12.161 97.2467 11.9753 97.3068 11.7964C97.3873 11.5568 97.4746 11.326 97.5617 11.095C97.6275 10.9212 97.6907 10.7454 97.7598 10.5762C97.851 10.3541 97.9489 10.1408 98.0462 9.9273C98.0689 9.87662 98.0926 9.82666 98.1155 9.77695L104.606 3.15727C104.776 3.0831 104.943 3.00497 105.117 2.9376ZM340.182 29.7227L195.375 63.5402C194.291 62.2951 193.204 61.0589 192.114 59.8318C191.962 59.6606 191.811 59.4883 191.658 59.3177C190.029 57.4892 188.392 55.6826 186.749 53.8985L228.744 47.2815L340.182 29.7227ZM7.16651 141.671C7.08231 141.402 6.99498 141.13 6.91299 140.863C6.77492 140.413 6.64397 139.968 6.51196 139.522C6.43266 139.255 6.3501 138.986 6.27303 138.721C6.14618 138.283 6.02712 137.852 5.90597 137.42C5.83087 137.151 5.75236 136.879 5.67912 136.612C5.56501 136.195 5.45837 135.783 5.35032 135.371C5.27783 135.094 5.20203 134.815 5.13201 134.54C5.02966 134.138 4.93455 133.742 4.83776 133.345C4.77011 133.067 4.69919 132.787 4.63426 132.512C4.5412 132.118 4.45575 131.73 4.36875 131.341C4.30766 131.069 4.2432 130.795 4.1852 130.525C4.10222 130.141 4.02726 129.764 3.94998 129.386C3.89503 129.116 3.83717 128.844 3.78518 128.577C3.7135 128.21 3.64939 127.849 3.58341 127.487C3.53386 127.216 3.48112 126.942 3.43491 126.672C3.37356 126.316 3.31943 125.966 3.26343 125.615C3.22116 125.349 3.17539 125.079 3.13646 124.815C3.08483 124.47 3.04077 124.13 2.99485 123.79C2.95922 123.527 2.92088 123.261 2.88848 123.001C2.84736 122.669 2.81415 122.343 2.77848 122.016C2.75333 121.786 2.72574 121.554 2.70332 121.326L8.95304 115.124L7.81269 143.692C7.74224 143.476 7.66877 143.258 7.59943 143.044C7.45066 142.583 7.30886 142.127 7.16651 141.671ZM180.63 49.1987C181.303 49.9016 181.976 50.6063 182.651 51.3236C183.476 52.199 184.304 53.0867 185.134 53.9831L164.914 70.6539L113.146 82.7438C113.078 82.5948 113.008 82.4445 112.94 82.2959C112.772 81.9247 112.608 81.5562 112.442 81.1863C112.169 80.5792 111.895 79.972 111.628 79.3681C111.463 78.9947 111.302 78.6234 111.139 78.251C110.879 77.6571 110.618 77.0626 110.363 76.4721C110.2 76.0918 110.041 75.7146 109.879 75.3358C109.634 74.7582 109.387 74.1805 109.146 73.6066C108.986 73.2224 108.83 72.8421 108.672 72.4597C108.437 71.8934 108.202 71.3271 107.974 70.7644C107.819 70.3841 107.67 70.0069 107.518 69.6283C107.294 69.0711 107.07 68.5129 106.852 67.9593C106.701 67.5762 106.556 67.1967 106.408 66.8154C106.196 66.2713 105.984 65.7266 105.779 65.1864C105.634 64.8042 105.493 64.4255 105.351 64.0454C105.151 63.5125 104.95 62.9788 104.757 62.4501C104.615 62.0638 104.478 61.6815 104.34 61.2977C104.154 60.7813 103.966 60.2644 103.786 59.7522C103.649 59.3636 103.517 58.9796 103.384 58.5938C103.209 58.0901 103.034 57.5865 102.865 57.0873C102.735 56.7037 102.612 56.3241 102.485 55.9433C102.321 55.4483 102.156 54.9528 101.997 54.4623C101.874 54.0808 101.756 53.7035 101.637 53.3248C101.484 52.8419 101.33 52.3579 101.183 51.8795C101.067 51.4995 100.955 51.1245 100.843 50.7477C100.702 50.2771 100.56 49.8057 100.424 49.3398C100.314 48.9626 100.21 48.5901 100.104 48.216C100.042 47.9936 99.9799 47.7723 99.9183 47.5512L119.437 28.9368L159.701 29.0522C166.212 34.7461 173.005 41.2572 179.986 48.5221C180.2 48.7452 180.416 48.9741 180.63 49.1987ZM106.33 176.011C106.201 175.839 106.073 175.668 105.944 175.496C104.602 173.708 103.248 171.931 101.883 170.165C101.781 170.034 101.681 169.903 101.579 169.772C98.6734 166.024 95.7167 162.33 92.7187 158.709C92.6014 158.567 92.4836 158.426 92.366 158.284C90.9707 156.603 89.5662 154.938 88.1542 153.29C87.9995 153.109 87.8448 152.929 87.69 152.749C86.2792 151.107 84.8604 149.484 83.435 147.88C83.3097 147.739 83.1846 147.597 83.0592 147.456C81.5569 145.771 80.0482 144.106 78.5327 142.465L123.381 105.491C123.537 105.785 123.697 106.081 123.856 106.376C124.483 107.544 125.117 108.715 125.76 109.889C125.852 110.056 125.941 110.223 126.033 110.391C126.755 111.704 127.489 113.022 128.23 114.341C128.445 114.724 128.662 115.107 128.878 115.491C129.494 116.579 130.115 117.67 130.743 118.762C130.907 119.047 131.069 119.331 131.234 119.617C131.997 120.938 132.771 122.261 133.552 123.586C133.763 123.944 133.976 124.302 134.188 124.659C134.824 125.732 135.466 126.806 136.113 127.88C136.318 128.221 136.522 128.561 136.728 128.902C137.537 130.237 138.353 131.573 139.179 132.91C139.361 133.204 139.545 133.499 139.728 133.794C140.415 134.901 141.107 136.009 141.805 137.117C142.035 137.481 142.264 137.845 142.495 138.209C143.349 139.559 144.21 140.908 145.081 142.257C145.199 142.441 145.32 142.624 145.438 142.807C146.212 144.004 146.993 145.2 147.78 146.395C148.023 146.764 148.266 147.133 148.51 147.502C149.057 148.33 149.608 149.158 150.162 149.985L109.03 179.651C108.137 178.433 107.235 177.221 106.33 176.011ZM77.697 143.121L67.4577 160.094L77.6715 143.093C77.68 143.102 77.6883 143.111 77.697 143.121ZM38.9766 207.752L77.1674 144.442L77.8572 143.298C79.2877 144.849 80.713 146.418 82.1314 148.01C82.2604 148.154 82.3886 148.3 82.5176 148.445C83.9388 150.045 85.353 151.664 86.76 153.3C86.9274 153.495 87.0951 153.69 87.2624 153.886C88.6573 155.514 90.0446 157.159 91.4228 158.819C91.5645 158.99 91.707 159.16 91.8484 159.331C93.3129 161.101 94.768 162.886 96.2117 164.688C96.2748 164.767 96.3379 164.846 96.4013 164.925C97.8212 166.7 99.23 168.49 100.628 170.291C100.793 170.506 100.958 170.72 101.124 170.934C102.42 172.611 103.705 174.299 104.98 175.996C105.173 176.253 105.367 176.512 105.56 176.77C106.432 177.936 107.291 179.111 108.152 180.285L48.8084 223.085C45.3975 217.985 42.1122 212.862 38.9766 207.752ZM120.088 195.384C120.001 195.254 119.913 195.125 119.825 194.996C119.121 193.952 118.412 192.911 117.697 191.87C117.519 191.611 117.342 191.352 117.163 191.092C115.017 187.978 112.827 184.879 110.597 181.803C110.503 181.673 110.408 181.544 110.314 181.414C109.94 180.899 109.566 180.384 109.19 179.87L150.313 150.21C150.591 150.627 150.869 151.044 151.149 151.46C151.179 151.505 151.209 151.551 151.239 151.595C152.157 152.957 153.085 154.317 154.017 155.675C154.258 156.027 154.501 156.379 154.743 156.73C155.56 157.915 156.382 159.097 157.209 160.277C157.312 160.425 157.413 160.573 157.517 160.72C157.54 160.753 157.564 160.785 157.587 160.818C159.208 163.126 160.849 165.424 162.509 167.713C162.568 167.794 162.628 167.876 162.687 167.958L120.807 196.457C120.567 196.099 120.328 195.741 120.088 195.384ZM123.895 104.472C123.711 104.126 123.524 103.778 123.341 103.432C123.16 103.088 122.982 102.745 122.801 102.4C122.443 101.718 122.084 101.036 121.732 100.356C121.551 100.006 121.373 99.6575 121.193 99.3076C120.847 98.6339 120.5 97.9595 120.159 97.2881C119.98 96.9368 119.805 96.5871 119.629 96.2365C119.295 95.5735 118.96 94.9109 118.632 94.2511C118.452 93.8886 118.275 93.5281 118.097 93.1663C117.778 92.519 117.457 91.871 117.144 91.2267C116.966 90.8618 116.793 90.4995 116.618 90.1362C116.309 89.4981 116.001 88.8601 115.699 88.2254C115.523 87.8563 115.352 87.4895 115.177 87.1211C114.883 86.4977 114.588 85.8736 114.299 85.2531C114.124 84.8754 113.953 84.501 113.78 84.1246C113.643 83.8284 113.508 83.5324 113.372 83.2371L164.106 71.3202L123.895 104.472ZM99.4222 45.7296C99.3038 45.2821 99.1839 44.8341 99.0709 44.3913C98.9752 44.018 98.8857 43.6499 98.7948 43.2797C98.688 42.848 98.5802 42.4149 98.4792 41.9877C98.3911 41.6154 98.3093 41.2484 98.2253 40.8797C98.1306 40.463 98.0345 40.045 97.9453 39.6331C97.8651 39.2644 97.7914 38.9013 97.7159 38.5362C97.6322 38.1305 97.5468 37.724 97.4685 37.323C97.3976 36.9607 97.3331 36.6037 97.2667 36.2456C97.1937 35.8522 97.1195 35.457 97.0523 35.068C96.9899 34.7087 96.934 34.3556 96.8762 34.0005C96.8146 33.6209 96.7519 33.2399 96.6954 32.8647C96.6425 32.5121 96.5961 32.1657 96.5482 31.8171C96.497 31.4478 96.4448 31.0771 96.3994 30.7122C96.3564 30.3676 96.3194 30.0284 96.2813 29.6878C96.2506 29.4147 96.2198 29.1408 96.1923 28.8701L118.472 28.934L99.7138 46.8228C99.6135 46.456 99.519 46.0936 99.4222 45.7296ZM112.886 84.4469C113.345 85.4401 113.811 86.4371 114.284 87.4384C114.447 87.7832 114.608 88.1265 114.772 88.4722C115.369 89.7229 115.975 90.979 116.593 92.2416C116.73 92.5205 116.87 92.8014 117.008 93.0809C117.521 94.1214 118.041 95.1652 118.569 96.2127C118.759 96.5924 118.95 96.972 119.143 97.3527C119.794 98.6347 120.452 99.92 121.123 101.212C121.21 101.378 121.299 101.545 121.386 101.711C121.97 102.83 122.562 103.952 123.161 105.077L78.2202 142.129C77.4004 141.244 76.5839 140.371 75.77 139.51C75.645 139.378 75.5207 139.249 75.3956 139.117C71.2205 134.713 67.1282 130.629 63.1426 126.878L112.528 83.6762C112.645 83.9319 112.768 84.1909 112.886 84.4469ZM164.506 70.9905L113.275 83.0239C113.264 83.0017 113.254 82.9791 113.244 82.9567L164.515 70.9831L164.506 70.9905ZM99.784 47.0736L118.804 28.9352L119.105 28.9358L99.8478 47.3006C99.8269 47.2251 99.8047 47.1488 99.784 47.0736ZM112.43 83.458L62.9753 126.72L62.9132 126.662L112.391 83.3761L112.43 83.458ZM165.523 70.7473L168.421 70.0707L165.516 70.7528L165.523 70.7473ZM99.1062 48.4071C99.3599 49.2947 99.624 50.1905 99.8981 51.0941C99.9805 51.3662 100.062 51.637 100.146 51.9103C100.483 53.0055 100.833 54.11 101.2 55.2273C101.26 55.4085 101.323 55.5928 101.383 55.7743C101.704 56.742 102.036 57.7185 102.378 58.7021C102.485 59.0081 102.591 59.3142 102.699 59.6219C103.105 60.7713 103.52 61.9275 103.953 63.0974C103.974 63.1551 103.997 63.2133 104.018 63.271C104.434 64.3902 104.865 65.5213 105.306 66.658C105.434 66.9888 105.563 67.3197 105.694 67.6516C106.103 68.6955 106.521 69.7452 106.951 70.8028C107.02 70.971 107.086 71.1372 107.154 71.3057C107.644 72.5033 108.149 73.7111 108.664 74.9253C108.808 75.2646 108.955 75.6054 109.1 75.9462C109.524 76.9362 109.957 77.9314 110.398 78.9316C110.522 79.2143 110.643 79.4948 110.769 79.7781C111.267 80.8993 111.773 82.0262 112.292 83.1594L62.7454 126.505C53.8225 118.142 45.4464 111.47 37.9017 106.692L99.0875 48.343C99.0938 48.3642 99.0999 48.3859 99.1062 48.4071ZM61.9507 127.2L26.5537 158.166L37.431 107.574C44.8732 112.347 53.1538 118.96 61.9507 127.2ZM62.1177 127.358L62.1798 127.416L26.4435 158.678L26.473 158.541L62.1177 127.358ZM62.3468 127.574C65.4841 130.525 68.6826 133.672 71.9351 137.026C71.9899 137.083 72.0442 137.138 72.0991 137.195C72.868 137.989 73.6408 138.798 74.4149 139.614C74.5621 139.769 74.7085 139.921 74.8565 140.078C75.7347 141.007 76.6162 141.948 77.5005 142.904C77.5036 142.908 77.507 142.912 77.5102 142.915L38.7667 207.409C35.1204 201.457 31.674 195.525 28.4662 189.676C28.4598 189.664 28.4528 189.651 28.4461 189.64C27.4938 187.902 26.5626 186.173 25.6529 184.452C25.6454 184.437 25.6374 184.423 25.6299 184.408C25.2073 183.608 24.7908 182.811 24.3778 182.016C24.3405 181.944 24.302 181.871 24.2647 181.799C23.8655 181.029 23.472 180.261 23.0817 179.495C23.0341 179.401 22.9852 179.307 22.9381 179.214C22.7228 178.79 22.5133 178.369 22.3006 177.947L26.3629 159.053L62.3468 127.574ZM22.1364 177.62C22.1318 177.611 22.1269 177.601 22.1225 177.592L25.9856 159.383L26.074 159.306L22.1364 177.62ZM21.9572 177.264C21.9073 177.164 21.856 177.063 21.8061 176.963C21.7533 176.858 21.6993 176.751 21.6468 176.646C21.2905 175.93 20.9403 175.216 20.5923 174.504C20.5246 174.366 20.4551 174.227 20.388 174.089C20.0481 173.391 19.7149 172.697 19.3835 172.004C19.3123 171.855 19.2393 171.706 19.1687 171.557C18.8389 170.865 18.5161 170.177 18.195 169.489C18.1263 169.342 18.0552 169.194 17.9871 169.047C17.6909 168.411 17.4013 167.778 17.1125 167.145L25.6974 159.635L21.9572 177.264ZM38.1975 209.044C38.1989 209.046 38.2003 209.049 38.2018 209.051C38.4051 209.381 38.6066 209.71 38.8108 210.04C39.4724 211.107 40.1401 212.175 40.8138 213.243C41.0195 213.57 41.227 213.896 41.4338 214.221C41.9921 215.102 42.5541 215.982 43.1206 216.861C43.3085 217.154 43.4955 217.446 43.6842 217.739C44.3812 218.816 45.0844 219.893 45.793 220.969C46.0096 221.298 46.2277 221.627 46.4455 221.956C46.8794 222.612 47.3155 223.267 47.7539 223.922L3.54869 266.483L38.1975 209.044ZM48.9591 223.311L108.312 180.503C108.651 180.965 108.996 181.423 109.333 181.886C109.495 182.11 109.658 182.332 109.821 182.556C111.156 184.399 112.478 186.25 113.784 188.107C113.976 188.381 114.166 188.655 114.357 188.928C114.955 189.783 115.55 190.638 116.142 191.495C116.44 191.928 116.738 192.362 117.036 192.796C117.573 193.579 118.107 194.364 118.638 195.149C118.872 195.495 119.108 195.841 119.341 196.186C119.53 196.467 119.714 196.747 119.902 197.028L56.8747 234.772C54.1704 230.977 51.5303 227.151 48.9591 223.311ZM147.357 241.599C147.278 241.441 147.2 241.283 147.12 241.126C146.561 240.022 145.992 238.913 145.415 237.801C145.277 237.537 145.138 237.271 144.999 237.006C144.516 236.081 144.027 235.153 143.531 234.223C143.405 233.987 143.281 233.751 143.154 233.515C142.551 232.391 141.94 231.263 141.321 230.132C141.207 229.926 141.092 229.719 140.978 229.512C140.45 228.552 139.915 227.59 139.374 226.627C139.221 226.355 139.069 226.083 138.915 225.811C138.268 224.664 137.614 223.515 136.95 222.363C136.903 222.283 136.856 222.203 136.811 222.123C136.188 221.046 135.556 219.966 134.92 218.885C134.759 218.612 134.597 218.339 134.436 218.066C133.772 216.946 133.104 215.825 132.425 214.702C132.403 214.666 132.382 214.629 132.359 214.592C131.65 213.42 130.932 212.246 130.207 211.072C130.049 210.816 129.89 210.56 129.731 210.304C129.1 209.286 128.463 208.267 127.821 207.247C127.714 207.079 127.609 206.91 127.502 206.741C126.761 205.569 126.012 204.397 125.256 203.226C125.119 203.012 124.979 202.799 124.841 202.585C124.194 201.586 123.542 200.587 122.885 199.588C122.733 199.358 122.582 199.127 122.43 198.897C121.942 198.157 121.449 197.418 120.955 196.679L162.845 168.174C164.405 170.32 165.98 172.455 167.571 174.58C167.709 174.765 167.849 174.95 167.987 175.135C169.588 177.267 171.202 179.387 172.83 181.492C172.957 181.656 173.084 181.821 173.211 181.984C174.926 184.196 176.654 186.393 178.397 188.57C178.415 188.593 178.433 188.615 178.45 188.637C180.216 190.842 181.997 193.027 183.789 195.191C183.895 195.319 184.001 195.446 184.107 195.573C185.795 197.609 187.495 199.624 189.204 201.618C189.376 201.82 189.549 202.02 189.721 202.221C191.408 204.182 193.103 206.123 194.807 208.04C194.953 208.205 195.1 208.371 195.246 208.536C196.965 210.464 198.691 212.37 200.425 214.249L148.634 244.157C148.214 243.307 147.789 242.454 147.357 241.599ZM163.454 167.437C163.23 167.129 163.004 166.821 162.78 166.513C162.584 166.241 162.39 165.968 162.194 165.697C161.64 164.926 161.085 164.156 160.534 163.383C160.342 163.115 160.154 162.846 159.963 162.577C159.411 161.801 158.86 161.024 158.313 160.246C158.115 159.964 157.919 159.681 157.722 159.399C157.185 158.634 156.65 157.867 156.118 157.099C155.915 156.808 155.716 156.515 155.514 156.222C154.989 155.462 154.465 154.701 153.945 153.939C153.748 153.652 153.554 153.363 153.358 153.075C152.837 152.308 152.316 151.542 151.799 150.774C151.602 150.483 151.409 150.19 151.213 149.898C151.168 149.831 151.124 149.764 151.079 149.697L225.146 103.279C228.722 108.265 232.21 113.296 235.593 118.348L163.454 167.437ZM150.928 149.471C150.512 148.849 150.094 148.228 149.682 147.605C149.486 147.31 149.293 147.015 149.099 146.72C148.594 145.955 148.089 145.19 147.589 144.425C147.404 144.142 147.222 143.86 147.038 143.577C146.532 142.799 146.026 142.022 145.525 141.244C145.344 140.962 145.165 140.68 144.984 140.398C144.486 139.622 143.989 138.846 143.496 138.07C143.304 137.767 143.116 137.465 142.925 137.163C142.448 136.408 141.971 135.652 141.499 134.897C141.299 134.577 141.102 134.257 140.903 133.937C140.443 133.197 139.983 132.458 139.528 131.718C139.332 131.399 139.139 131.08 138.944 130.761C138.49 130.022 138.037 129.281 137.589 128.542C137.397 128.225 137.209 127.909 137.018 127.593C136.571 126.852 136.125 126.112 135.684 125.372C135.49 125.046 135.299 124.721 135.106 124.396C134.674 123.668 134.242 122.94 133.816 122.213C133.618 121.877 133.425 121.542 133.229 121.206C132.81 120.488 132.391 119.771 131.978 119.054C131.785 118.721 131.597 118.389 131.405 118.055C130.993 117.338 130.582 116.621 130.175 115.905C129.985 115.57 129.799 115.236 129.61 114.9C129.209 114.19 128.808 113.48 128.413 112.772C128.222 112.431 128.036 112.091 127.848 111.751C127.457 111.047 127.067 110.343 126.682 109.641C126.498 109.306 126.319 108.972 126.136 108.637C125.753 107.934 125.37 107.231 124.993 106.53C124.81 106.191 124.632 105.853 124.451 105.515C124.338 105.305 124.227 105.095 124.115 104.886L165.116 71.083L194.325 64.2221C205.001 76.4761 215.324 89.6 224.997 103.072L150.928 149.471ZM194.009 63.8593L165.922 70.4183L185.449 54.3206C188.323 57.4305 191.178 60.616 194.009 63.8593ZM99.0145 48.0951L37.7011 106.565C37.6408 106.528 37.5808 106.49 37.5212 106.453L98.9493 47.8698C98.9701 47.9444 98.9931 48.0205 99.0145 48.0951ZM37.2253 107.44L26.2647 158.419L26.1726 158.5L37.0308 107.319C37.0964 107.361 37.1595 107.398 37.2253 107.44ZM26.184 158.794L26.1547 158.931L26.0645 159.01L26.0937 158.873L26.184 158.794ZM25.7765 159.262L17.0131 166.928C17.0011 166.902 16.9885 166.875 16.9762 166.849L25.8056 159.125L25.7765 159.262ZM201.299 213.802L209.624 202.983L201.308 213.813C201.305 213.81 201.302 213.806 201.299 213.802ZM201.141 213.632C200.346 212.77 199.552 211.905 198.759 211.033C198.622 210.883 198.486 210.729 198.349 210.578C197.65 209.807 196.952 209.035 196.256 208.256C196.103 208.085 195.952 207.912 195.799 207.741C195.119 206.978 194.439 206.213 193.762 205.443C193.624 205.286 193.488 205.128 193.35 204.971C192.66 204.184 191.971 203.396 191.284 202.602C191.091 202.379 190.899 202.153 190.706 201.929C190.076 201.198 189.447 200.467 188.819 199.73C188.608 199.482 188.397 199.23 188.186 198.981C187.578 198.264 186.97 197.548 186.366 196.827C186.148 196.567 185.932 196.305 185.715 196.045C185.119 195.331 184.523 194.618 183.931 193.9C183.701 193.622 183.474 193.342 183.245 193.064C182.664 192.356 182.083 191.65 181.504 190.939C181.305 190.694 181.109 190.448 180.91 190.202C180.305 189.455 179.699 188.708 179.098 187.956C178.897 187.706 178.698 187.453 178.499 187.203C177.901 186.455 177.304 185.706 176.71 184.954C176.496 184.681 176.282 184.407 176.067 184.133C175.49 183.399 174.913 182.665 174.339 181.928C174.128 181.656 173.919 181.382 173.708 181.11C173.133 180.367 172.557 179.624 171.985 178.877C171.786 178.617 171.589 178.355 171.39 178.095C170.81 177.335 170.229 176.574 169.653 175.811C169.456 175.551 169.263 175.291 169.068 175.031C168.49 174.264 167.912 173.495 167.338 172.724C167.144 172.463 166.951 172.2 166.757 171.938C166.187 171.17 165.618 170.402 165.052 169.631C164.842 169.345 164.634 169.057 164.424 168.77C164.153 168.398 163.882 168.025 163.611 167.653L235.74 118.57C241.886 127.758 247.688 137.011 253.052 146.17L201.141 213.632ZM95.3383 31.0104C95.3398 31.0201 95.3407 31.029 95.3418 31.0389C95.4653 31.9666 95.6116 32.9148 95.7693 33.873C95.8093 34.1167 95.8514 34.3623 95.8939 34.608C96.0384 35.4484 96.1946 36.2987 96.364 37.1616C96.3914 37.3004 96.4158 37.4371 96.444 37.5769C96.6418 38.5625 96.8589 39.565 97.0888 40.5781C97.1452 40.8252 97.2045 41.0757 97.2628 41.3247C97.4605 42.173 97.6692 43.0302 97.8888 43.8968C97.9434 44.1132 97.9958 44.3271 98.0517 44.5446C98.3137 45.5577 98.5891 46.5823 98.8797 47.6185L37.3203 106.326C35.0867 104.933 32.9249 103.701 30.8479 102.649C28.6023 101.492 26.4536 100.541 24.4053 99.7896L95.1646 29.5682C95.2195 30.0464 95.2738 30.5239 95.3383 31.0104ZM23.6283 100.561C25.934 101.355 28.3958 102.44 30.9877 103.789C32.8658 104.783 34.8144 105.921 36.8238 107.191L25.8849 158.751L16.8771 166.632C16.8648 166.605 16.8523 166.578 16.84 166.552C16.5494 165.912 16.2656 165.276 15.983 164.641C15.8993 164.454 15.8137 164.266 15.7313 164.079C15.4585 163.463 15.1929 162.851 14.9275 162.239C14.8396 162.037 14.7493 161.833 14.6623 161.631C14.4006 161.023 14.1459 160.42 13.8915 159.817C13.8063 159.615 13.7188 159.412 13.6348 159.212C13.3922 158.633 13.1568 158.058 12.9216 157.484C12.8295 157.259 12.7347 157.033 12.6438 156.809C12.4187 156.256 12.201 155.707 11.9827 155.157C11.8878 154.918 11.7898 154.678 11.6964 154.439C11.4855 153.905 11.2823 153.374 11.0783 152.844C10.9829 152.595 10.8841 152.345 10.7901 152.098C10.5928 151.579 10.4026 151.065 10.2121 150.551C10.1174 150.297 10.0196 150.04 9.92728 149.787C9.74307 149.284 9.5659 148.788 9.38812 148.29C9.29463 148.029 9.19847 147.765 9.10695 147.505C8.93318 147.014 8.76723 146.527 8.59988 146.039C8.51888 145.804 8.4353 145.566 8.35602 145.331L9.68661 114.396L23.6283 100.561ZM47.9402 224.2C48.0456 224.358 48.1512 224.515 48.2569 224.673C48.4258 224.924 48.5934 225.176 48.7633 225.428C49.494 226.512 50.2314 227.593 50.973 228.674C51.1977 229.001 51.4234 229.328 51.6489 229.654C52.2922 230.587 52.939 231.518 53.5904 232.447C53.7045 232.611 53.8164 232.775 53.9309 232.938C53.9563 232.974 53.9826 233.01 54.008 233.046C54.5757 233.853 55.146 234.659 55.7194 235.464L3.81054 266.551L47.9402 224.2ZM9.44576 114.635L8.15197 144.717C8.10694 144.582 8.06297 144.448 8.01819 144.314L9.19269 114.886L9.44576 114.635ZM76.5369 260.433L128.899 255.554L91.2454 277.299C86.2614 271.908 81.3452 266.262 76.5369 260.433ZM108.681 257.207L129.468 255.225L129.375 255.28L108.681 257.207ZM76.2407 260.072C69.5893 251.99 63.146 243.563 57.0211 234.978L120.056 197.258C120.516 197.946 120.977 198.634 121.432 199.323C121.714 199.748 121.993 200.174 122.273 200.6C122.765 201.35 123.255 202.1 123.742 202.851C124.001 203.25 124.261 203.649 124.519 204.049C125.196 205.099 125.867 206.15 126.533 207.201C126.777 207.587 127.019 207.972 127.261 208.358C127.743 209.125 128.223 209.892 128.699 210.658C128.958 211.075 129.218 211.493 129.475 211.909C130.129 212.971 130.779 214.031 131.421 215.091C131.595 215.38 131.767 215.669 131.941 215.958C132.452 216.807 132.959 217.655 133.462 218.502C133.704 218.909 133.944 219.317 134.184 219.723C134.704 220.607 135.22 221.489 135.73 222.371C135.878 222.626 136.028 222.881 136.175 223.136C136.787 224.197 137.389 225.255 137.986 226.311C138.201 226.692 138.414 227.072 138.627 227.452C139.089 228.276 139.547 229.098 139.999 229.919C140.173 230.233 140.348 230.548 140.52 230.862C141.106 231.929 141.682 232.994 142.252 234.056C142.431 234.389 142.606 234.72 142.783 235.052C143.22 235.873 143.653 236.692 144.08 237.51C144.254 237.842 144.429 238.175 144.602 238.507C145.155 239.573 145.701 240.635 146.237 241.693C146.363 241.944 146.487 242.192 146.613 242.442C146.99 243.191 147.361 243.936 147.728 244.681L129.945 254.95L76.2407 260.072ZM148.736 244.363L200.583 214.421C200.589 214.428 200.595 214.433 200.6 214.44L148.746 244.384C148.742 244.377 148.739 244.37 148.736 244.363ZM208.605 221.494L273.441 185.125C273.449 185.144 273.458 185.163 273.467 185.181L208.648 221.538C208.633 221.523 208.619 221.508 208.605 221.494ZM208.439 221.325C207.225 220.078 206.006 218.812 204.78 217.519C204.7 217.435 204.622 217.354 204.542 217.27C203.521 216.191 202.496 215.094 201.467 213.983L240.937 162.578L253.26 146.529C260.949 159.683 267.732 172.635 273.345 184.917L208.439 221.325ZM21.6849 179.719L20.6153 184.694L21.6753 179.699C21.6788 179.705 21.6819 179.712 21.6849 179.719ZM21.8498 180.044C22.2986 180.925 22.7523 181.809 23.2131 182.695C23.3419 182.943 23.4745 183.192 23.6041 183.441C24.051 184.295 24.5032 185.153 24.9609 186.012C25.1575 186.382 25.3545 186.751 25.5533 187.121C26.1054 188.15 26.6635 189.182 27.2308 190.216C27.3886 190.504 27.5498 190.793 27.7089 191.081C28.1733 191.924 28.6426 192.767 29.1168 193.613C29.3192 193.974 29.5212 194.335 29.7254 194.697C30.3163 195.743 30.9133 196.791 31.518 197.841C31.6941 198.146 31.8731 198.453 32.0507 198.759C32.5401 199.605 33.0345 200.45 33.5327 201.297C33.7396 201.649 33.9456 202.001 34.1541 202.352C34.7789 203.408 35.4102 204.464 36.0485 205.522C36.2437 205.845 36.4411 206.169 36.6379 206.493C37.0851 207.23 37.535 207.967 37.9887 208.705L36.42 211.316L3.4539 266.191L3.45123 265.618L21.8498 180.044ZM208.814 221.707L273.562 185.39C274.438 187.314 275.285 189.22 276.101 191.109L249.262 255.963C237.33 248.403 223.535 236.783 208.814 221.707ZM17.5055 171.2C17.6744 171.558 17.8445 171.916 18.0158 172.274C18.4494 173.182 18.8891 174.094 19.3368 175.01C19.4771 175.296 19.6183 175.583 19.7593 175.87C20.1949 176.754 20.6372 177.641 21.0849 178.53C21.2266 178.812 21.3666 179.092 21.5091 179.375L3.54315 264.058L16.5585 169.178C16.8705 169.85 17.1855 170.524 17.5055 171.2ZM3.64338 266.919L55.8649 235.67C56.5845 236.679 57.3098 237.686 58.0383 238.691C58.1679 238.87 58.2986 239.049 58.4285 239.228C59.7187 241.003 61.0219 242.77 62.3371 244.528C62.4693 244.705 62.6011 244.882 62.7337 245.058C64.1347 246.925 65.5476 248.782 66.9745 250.625C67.0226 250.687 67.0715 250.749 67.1199 250.811C68.5222 252.62 69.9364 254.415 71.3611 256.197C71.4983 256.368 71.6355 256.539 71.7728 256.711C72.7174 257.889 73.6655 259.062 74.6191 260.226L3.80396 266.978L3.64338 266.919ZM249.458 256.09L276.229 191.402C276.244 191.437 276.26 191.472 276.275 191.507L249.638 256.2C249.577 256.162 249.518 256.128 249.458 256.09ZM16.3797 168.793L9.40965 219.606L16.1868 168.379C16.2502 168.517 16.3157 168.655 16.3797 168.793ZM91.4058 277.471L129.445 255.503L129.499 255.498L91.421 277.487C91.4161 277.481 91.4108 277.476 91.4058 277.471ZM129.921 255.228L130.017 255.173L130.071 255.168L129.974 255.224L129.921 255.228ZM130.493 254.898L147.831 244.886C147.834 244.892 147.838 244.899 147.841 244.906L130.547 254.893L130.493 254.898ZM152.294 251.82C151.802 250.752 151.303 249.682 150.791 248.603C150.785 248.59 150.778 248.576 150.772 248.563C150.263 247.493 149.741 246.415 149.212 245.334C149.091 245.086 148.97 244.838 148.847 244.589L200.758 214.612C201.777 215.713 202.792 216.799 203.803 217.869C204.646 218.762 205.485 219.636 206.322 220.507C206.464 220.655 206.606 220.806 206.748 220.953C207.024 221.24 207.3 221.524 207.576 221.809L152.658 252.613C152.538 252.349 152.416 252.085 152.294 251.82ZM249.836 256.322L276.403 191.801C283.095 207.374 287.728 221.66 289.721 233.633L287.792 241.021L252.497 257.936C251.62 257.421 250.734 256.884 249.836 256.322ZM7.99074 148.467L6.0773 192.951L7.86654 148.121C7.90722 148.236 7.94946 148.352 7.99074 148.467ZM8.67389 150.353C8.77574 150.629 8.88043 150.907 8.9845 151.185C9.27623 151.966 9.57546 152.753 9.882 153.545C9.97034 153.773 10.0556 153.999 10.1451 154.228C10.5149 155.174 10.8967 156.128 11.2868 157.088C11.4117 157.395 11.539 157.705 11.6657 158.014C11.9976 158.821 12.336 159.632 12.6813 160.449C12.7765 160.673 12.8684 160.896 12.9645 161.121C13.3779 162.089 13.8025 163.065 14.2345 164.044C14.3828 164.381 14.5329 164.718 14.6835 165.056C15.0624 165.907 15.4472 166.761 15.8398 167.619C15.8965 167.743 15.9501 167.865 16.0071 167.99L3.43709 262.996L3.42161 260.052L8.19668 149.039C8.35411 149.476 8.51201 149.913 8.67389 150.353ZM147.943 245.112C148.091 245.412 148.239 245.712 148.386 246.012C148.902 247.069 149.413 248.122 149.911 249.169C149.948 249.247 149.984 249.325 150.021 249.403C150.501 250.414 150.97 251.419 151.432 252.42C151.503 252.574 151.573 252.727 151.644 252.881L131.095 254.841L147.943 245.112ZM152.754 252.822L207.742 221.978C207.756 221.992 207.771 222.007 207.785 222.022L152.778 252.875C152.77 252.858 152.761 252.84 152.754 252.822ZM288.063 240.891L289.812 234.199C289.842 234.388 289.873 234.577 289.902 234.765L288.352 240.753L288.063 240.891ZM3.01944 131.78C3.0516 131.92 3.08645 132.062 3.11911 132.203C3.29323 132.95 3.47718 133.706 3.67064 134.47C3.72046 134.665 3.76836 134.86 3.81919 135.056C4.04313 135.92 4.27801 136.793 4.52634 137.677C4.57889 137.863 4.63497 138.052 4.68838 138.239C4.90467 138.998 5.13064 139.764 5.36497 140.537C5.42885 140.747 5.49019 140.954 5.55494 141.165C5.83059 142.059 6.11822 142.963 6.4165 143.875C6.49309 144.109 6.57303 144.346 6.65073 144.581C6.90596 145.349 7.16883 146.122 7.43951 146.902C7.5134 147.114 7.58433 147.325 7.65933 147.537L3.39197 254.475L2.73204 130.471C2.82519 130.906 2.91911 131.34 3.01944 131.78ZM4.30148 267.164L74.9143 260.584C75.2805 261.03 75.6473 261.475 76.0148 261.919C76.0953 262.016 76.1755 262.114 76.256 262.211C77.7368 263.997 79.2278 265.765 80.7271 267.514C80.8303 267.634 80.9331 267.753 81.0367 267.873C82.4712 269.542 83.9142 271.193 85.3635 272.824C85.4956 272.973 85.6274 273.121 85.7599 273.27C86.9784 274.637 88.2023 275.99 89.4304 277.327L4.47896 267.23L4.30148 267.164ZM130.619 255.116L151.744 253.101C151.758 253.131 151.772 253.162 151.786 253.191L130.52 255.173L130.619 255.116ZM166.089 297.02L163.347 298.346L162.964 298.271L166.056 296.776C166.067 296.858 166.078 296.939 166.089 297.02ZM166.119 297.26C166.188 297.82 166.256 298.378 166.31 298.924L163.721 298.419L166.119 297.26ZM166.603 294.171C166.581 294.037 166.562 293.906 166.539 293.771C166.405 292.976 166.255 292.167 166.093 291.349C166.051 291.137 166.007 290.923 165.963 290.71C165.826 290.042 165.681 289.366 165.527 288.684C165.482 288.48 165.438 288.279 165.391 288.074C165.195 287.23 164.988 286.376 164.766 285.51C164.718 285.321 164.666 285.129 164.616 284.938C164.43 284.223 164.234 283.5 164.031 282.77C163.963 282.526 163.896 282.282 163.826 282.036C163.57 281.141 163.306 280.239 163.026 279.324C162.992 279.213 162.956 279.1 162.921 278.988C162.667 278.166 162.403 277.335 162.129 276.498C162.042 276.23 161.954 275.962 161.865 275.692C161.583 274.845 161.294 273.991 160.993 273.129C160.956 273.021 160.92 272.915 160.883 272.807C160.547 271.849 160.196 270.881 159.837 269.906C159.737 269.637 159.635 269.365 159.534 269.094C159.235 268.291 158.928 267.483 158.613 266.67C158.53 266.457 158.45 266.246 158.366 266.032C157.979 265.04 157.58 264.041 157.171 263.035C157.07 262.788 156.966 262.539 156.864 262.291C156.528 261.472 156.184 260.649 155.834 259.821C155.722 259.556 155.611 259.292 155.497 259.026C155.058 257.997 154.609 256.963 154.148 255.921C154.069 255.742 153.987 255.561 153.907 255.381C153.568 254.618 153.224 253.853 152.874 253.084L207.951 222.191C222.67 237.319 236.435 248.996 248.429 256.692L166.897 296.116C166.808 295.476 166.711 294.828 166.603 294.171ZM290.527 239.71L288.621 240.623L289.992 235.33C290.211 236.812 290.39 238.259 290.523 239.664C290.525 239.68 290.525 239.694 290.527 239.71ZM235.825 116.496C235.632 116.209 235.437 115.923 235.243 115.637C234.506 114.547 233.765 113.457 233.018 112.369C232.742 111.966 232.466 111.564 232.188 111.161C231.29 109.859 230.387 108.557 229.475 107.258C229.447 107.218 229.419 107.177 229.391 107.137C229.37 107.108 229.349 107.08 229.329 107.051C228.29 105.572 227.241 104.098 226.186 102.627L341.87 30.1292L236.564 117.599C236.317 117.232 236.072 116.863 235.825 116.496ZM186.563 53.6956C186.528 53.6579 186.494 53.6199 186.459 53.5828L242.236 44.9232L186.563 53.6956ZM89.6686 277.588C89.739 277.664 89.809 277.741 89.8795 277.817L49.1765 272.775L89.6686 277.588ZM99.462 285.879C99.3943 285.81 99.3264 285.743 99.2583 285.674C98.4486 284.857 97.6363 284.03 96.82 283.188C96.7471 283.113 96.6744 283.036 96.6018 282.961C95.8562 282.191 95.1072 281.408 94.3561 280.616C94.1463 280.395 93.9363 280.173 93.7258 279.951C93.0132 279.196 92.2985 278.432 91.5816 277.659L130.044 255.447L151.887 253.412C152.282 254.276 152.671 255.137 153.052 255.993C153.134 256.179 153.22 256.367 153.303 256.554C153.761 257.589 154.207 258.617 154.644 259.64C154.76 259.911 154.874 260.181 154.988 260.452C155.34 261.282 155.684 262.107 156.021 262.927C156.12 263.167 156.22 263.408 156.318 263.647C156.729 264.656 157.129 265.658 157.518 266.652C157.601 266.863 157.68 267.072 157.761 267.282C158.08 268.104 158.39 268.92 158.693 269.731C158.789 269.988 158.886 270.246 158.981 270.503C159.343 271.485 159.696 272.46 160.035 273.425C160.07 273.526 160.103 273.625 160.139 273.726C160.443 274.6 160.737 275.465 161.022 276.324C161.107 276.579 161.19 276.832 161.273 277.085C161.556 277.951 161.83 278.811 162.092 279.661C162.118 279.745 162.146 279.832 162.172 279.917C162.455 280.839 162.721 281.749 162.979 282.652C163.046 282.887 163.11 283.12 163.176 283.353C163.384 284.1 163.584 284.84 163.775 285.573C163.82 285.747 163.869 285.923 163.913 286.097C164.136 286.969 164.345 287.83 164.542 288.681C164.587 288.875 164.629 289.067 164.672 289.26C164.829 289.954 164.976 290.639 165.115 291.317C165.156 291.522 165.2 291.728 165.24 291.933C165.403 292.755 165.554 293.567 165.689 294.365C165.711 294.494 165.728 294.619 165.75 294.747C165.849 295.353 165.937 295.948 166.02 296.539L162.59 298.198L137.873 293.375L99.462 285.879ZM166.337 299.164C166.337 299.169 166.338 299.175 166.339 299.18C166.346 299.26 166.35 299.334 166.357 299.413L163.029 298.754L163.376 298.586L166.337 299.164ZM166.932 296.353L248.656 256.836C248.734 256.886 248.812 256.936 248.891 256.986L166.966 296.596C166.956 296.516 166.943 296.433 166.932 296.353ZM252.995 258.223C252.909 258.173 252.824 258.125 252.737 258.075L287.716 241.311L287.634 241.624L252.995 258.223ZM287.988 241.181L288.276 241.042L288.196 241.355L287.906 241.493L287.988 241.181ZM288.546 240.914L290.546 239.955C290.554 240.044 290.559 240.129 290.566 240.219L288.466 241.225L288.546 240.914ZM163.002 298.512L162.656 298.68L162.276 298.604L162.62 298.438L163.002 298.512ZM167.081 297.512C167.062 297.357 167.042 297.201 167.022 297.045C167.019 297.021 167.016 296.996 167.013 296.972C167.007 296.927 167 296.881 166.995 296.836L249.118 257.13C249.862 257.601 250.6 258.056 251.33 258.495L167.228 298.801C167.183 298.375 167.135 297.947 167.081 297.512ZM280.882 265.334C280.767 265.372 280.649 265.405 280.532 265.44C280.276 265.517 280.012 265.58 279.748 265.643C279.456 265.712 279.161 265.778 278.86 265.831C278.649 265.869 278.433 265.899 278.216 265.928C277.914 265.969 277.609 266.008 277.298 266.034C277.025 266.056 276.746 266.068 276.467 266.079C276.215 266.089 275.963 266.099 275.705 266.1C275.284 266.1 274.855 266.086 274.419 266.06C274.302 266.054 274.187 266.051 274.07 266.042C268.289 265.613 261.235 262.978 253.235 258.362L267.909 251.33L287.558 241.914L281.503 265.096C281.296 265.176 281.095 265.264 280.882 265.334ZM226.037 102.42C225.529 101.712 225.021 101.004 224.509 100.299C224.354 100.083 224.196 99.8695 224.04 99.6544C222.518 97.5594 220.98 95.4741 219.428 93.3997C219.24 93.1483 219.053 92.8978 218.864 92.6473C217.301 90.5654 215.724 88.4955 214.134 86.4387C213.984 86.2444 213.835 86.0494 213.684 85.8557C211.967 83.6412 210.236 81.4414 208.491 79.2617C208.474 79.2395 208.456 79.2178 208.438 79.1955C206.699 77.0247 204.946 74.8742 203.182 72.7422C203.029 72.5567 202.875 72.3731 202.721 72.1882C201.07 70.1986 199.408 68.2283 197.737 66.2774C197.548 66.0568 197.359 65.837 197.17 65.6167C196.677 65.0436 196.184 64.4708 195.689 63.9014L341.829 29.575L342.299 29.5762C342.301 29.5797 342.303 29.5822 342.305 29.5856L226.037 102.42ZM186.273 53.379C186.234 53.3378 186.196 53.2955 186.158 53.2543C185.286 52.3111 184.417 51.3817 183.549 50.4609C183.205 50.0947 182.863 49.7351 182.519 49.3731C182.024 48.8507 181.528 48.3295 181.035 47.8146C180.569 47.3284 180.104 46.8468 179.64 46.3668C179.322 46.0396 179.006 45.7143 178.69 45.3897C178.093 44.7785 177.499 44.1704 176.906 43.5705C176.903 43.5675 176.9 43.5647 176.897 43.5617C171.679 38.2789 166.585 33.4352 161.653 29.0579L215.311 29.2117L339.639 29.5687L186.273 53.379ZM158.23 27.7801L120.838 27.6018L137.235 11.9652C143.747 16.0709 150.795 21.3782 158.23 27.7801ZM90.1185 278.078C90.2008 278.167 90.2824 278.257 90.3644 278.346C91.334 279.395 92.2994 280.425 93.2616 281.441C93.7235 281.928 94.1826 282.401 94.6429 282.882C95.1279 283.388 95.6143 283.899 96.0971 284.396C96.4314 284.74 96.7637 285.077 97.0967 285.417L6.25432 267.688L90.1185 278.078ZM99.8129 286.231C99.7923 286.21 99.7719 286.189 99.7508 286.168L162.246 298.365L161.903 298.531L106.119 287.481L99.8129 286.231ZM282.086 264.873C281.983 264.919 281.872 264.952 281.767 264.995L287.83 241.784L288.121 241.645L282.109 264.862C282.102 264.866 282.094 264.87 282.086 264.873ZM276.335 188.524C276.212 188.244 276.083 187.961 275.958 187.68C275.519 186.695 275.073 185.706 274.619 184.713C274.586 184.641 274.556 184.571 274.523 184.499L339.634 37.5922L276.765 189.506C276.621 189.178 276.481 188.853 276.335 188.524ZM253.501 144.52C253.255 144.103 253.009 143.685 252.761 143.267C252.07 142.1 251.372 140.934 250.668 139.765C250.55 139.571 250.436 139.378 250.319 139.184C249.517 137.859 248.704 136.532 247.886 135.205C247.635 134.798 247.382 134.391 247.13 133.984C246.471 132.923 245.808 131.861 245.139 130.799C244.932 130.471 244.728 130.144 244.52 129.816C243.683 128.493 242.838 127.17 241.985 125.847C241.749 125.48 241.51 125.114 241.272 124.747C240.593 123.7 239.91 122.654 239.223 121.608C238.972 121.226 238.722 120.845 238.47 120.464C237.893 119.591 237.312 118.719 236.729 117.848L342.521 29.8879C342.522 29.889 342.524 29.8916 342.525 29.8931L253.857 145.123C253.739 144.923 253.619 144.721 253.501 144.52ZM137.034 11.8387L120.506 27.5999L120.205 27.5986L136.851 11.7235C136.912 11.7614 136.973 11.8005 137.034 11.8387ZM10.9049 99.5207C11.0794 99.466 11.2491 99.4049 11.4289 99.3577C11.6318 99.3044 11.8447 99.267 12.0537 99.2232C13.051 99.0166 14.1134 98.9072 15.2562 98.922C15.6109 98.9265 15.9754 98.9482 16.3415 98.9735C16.447 98.9805 16.5503 98.9834 16.6565 98.9921C16.9555 99.017 17.2619 99.0565 17.5684 99.0943C17.7834 99.1216 17.9976 99.1469 18.2167 99.1815C18.4351 99.2144 18.658 99.2553 18.8796 99.295C19.2486 99.3626 19.619 99.4335 19.9977 99.5193C20.0844 99.5385 20.1721 99.5588 20.259 99.5789C20.8636 99.7213 21.4821 99.8902 22.1114 100.078L9.77576 112.321L10.3179 99.715C10.5095 99.6434 10.7075 99.5825 10.9049 99.5207ZM129.703 311.56L132.752 312.626L131.953 313.012C131.211 312.546 130.461 312.064 129.703 311.56ZM128.948 311.054C128.811 310.961 128.675 310.872 128.538 310.778C128.461 310.726 128.384 310.673 128.307 310.62L133.317 312.353L133.044 312.485L128.948 311.054ZM127.606 310.135C127.335 309.947 127.065 309.762 126.793 309.569C126.594 309.429 126.392 309.283 126.192 309.14C125.529 308.666 124.86 308.179 124.187 307.68C123.827 307.414 123.467 307.146 123.105 306.872C122.792 306.635 122.477 306.397 122.162 306.155C121.639 305.753 121.112 305.344 120.582 304.927C120.357 304.75 120.131 304.572 119.904 304.392C119.283 303.898 118.658 303.394 118.029 302.88C117.804 302.695 117.577 302.509 117.351 302.322C116.736 301.815 116.118 301.299 115.496 300.773C115.375 300.671 115.256 300.572 115.136 300.469C114.387 299.833 113.633 299.182 112.875 298.519C112.709 298.374 112.542 298.226 112.375 298.079C111.712 297.495 111.045 296.902 110.374 296.298C110.248 296.184 110.122 296.072 109.995 295.957C109.212 295.249 108.424 294.527 107.632 293.791C107.498 293.667 107.364 293.54 107.23 293.415C106.543 292.775 105.853 292.124 105.16 291.464C105.004 291.315 104.849 291.168 104.693 291.019C103.892 290.252 103.088 289.474 102.279 288.68C102.173 288.577 102.066 288.47 101.96 288.366C101.345 287.761 100.726 287.144 100.107 286.523L118.391 290.145L161.56 298.696L133.611 312.211L127.606 310.135ZM161.932 298.77L162.313 298.846L134.228 312.425L133.917 312.317L161.932 298.77ZM162.686 298.92L166.375 299.65C166.421 300.168 166.464 300.684 166.494 301.184C166.5 301.28 166.502 301.372 166.507 301.466C166.54 302.053 166.565 302.631 166.577 303.193C166.577 303.22 166.577 303.247 166.577 303.274C166.732 311.555 164.636 317.183 160.428 319.747C160.368 319.783 160.305 319.817 160.244 319.852C159.988 320.001 159.724 320.14 159.452 320.266C159.392 320.294 159.331 320.323 159.27 320.35C158.944 320.494 158.608 320.622 158.263 320.736L134.534 312.53L162.686 298.92ZM284.512 263.442C284.171 263.703 283.816 263.943 283.448 264.166C283.391 264.201 283.331 264.232 283.274 264.265C282.984 264.434 282.685 264.588 282.379 264.733L288.39 241.515L290.585 240.464C290.628 240.97 290.672 241.479 290.702 241.971C290.715 242.177 290.721 242.375 290.732 242.579C290.761 243.139 290.784 243.693 290.798 244.235C290.802 244.428 290.804 244.617 290.807 244.808C290.814 245.381 290.815 245.946 290.804 246.498C290.802 246.621 290.8 246.745 290.797 246.866C290.584 254.76 288.469 260.377 284.545 263.415C284.534 263.424 284.523 263.433 284.512 263.442ZM276.892 189.798L294.026 148.396L276.937 189.901C276.922 189.866 276.907 189.832 276.892 189.798ZM274.396 184.218C274.361 184.142 274.327 184.066 274.291 183.989L305.35 114.379L274.396 184.218ZM10.0834 99.81L9.53502 112.559L9.27516 112.817L9.78912 99.9365C9.88707 99.8939 9.98367 99.8501 10.0834 99.81ZM132.183 313.156L133.057 312.733L133.367 312.841L132.416 313.301C132.338 313.253 132.26 313.204 132.183 313.156ZM133.349 312.592L133.623 312.459L133.935 312.567L133.66 312.7L133.349 312.592ZM134.241 312.672L157.883 320.848C157.713 320.897 157.538 320.939 157.364 320.982L133.964 312.806L134.241 312.672ZM167.282 299.298C167.274 299.214 167.263 299.128 167.254 299.043L251.566 258.637C251.649 258.687 251.733 258.738 251.816 258.788L221.827 273.16L167.282 299.298ZM274.163 183.714C274.133 183.65 274.103 183.585 274.073 183.521C273.532 182.348 272.983 181.171 272.421 179.987C272.339 179.813 272.256 179.639 272.173 179.466C271.619 178.302 271.053 177.132 270.479 175.958C270.28 175.549 270.078 175.14 269.876 174.729C269.372 173.707 268.861 172.682 268.343 171.653C268.198 171.364 268.056 171.078 267.91 170.789C267.271 169.529 266.621 168.262 265.962 166.992C265.755 166.595 265.546 166.196 265.338 165.798C264.823 164.813 264.302 163.826 263.775 162.836C263.574 162.459 263.375 162.083 263.173 161.706C262.488 160.427 261.793 159.145 261.088 157.859C260.899 157.512 260.705 157.165 260.514 156.818C259.95 155.796 259.381 154.771 258.805 153.745C258.576 153.338 258.348 152.931 258.118 152.523C257.381 151.217 256.637 149.91 255.881 148.6C255.751 148.373 255.617 148.145 255.485 147.918C255.015 147.105 254.544 146.293 254.067 145.478L342.523 30.2735L342.411 30.7524L274.163 183.714ZM121.907 4.17559L106.596 2.45814C106.903 2.37842 107.225 2.32008 107.544 2.25849L120.733 3.76823C121.121 3.89716 121.512 4.03288 121.907 4.17559ZM95.8028 12.3353C95.7141 12.663 95.6306 12.9975 95.5527 13.3384C95.5313 13.4313 95.5073 13.5205 95.487 13.6143C95.3946 14.0358 95.313 14.4705 95.2366 14.9118C95.2105 15.0636 95.1868 15.2181 95.1622 15.3721C95.1092 15.7088 95.0607 16.051 95.0165 16.3987C94.9977 16.5442 94.9779 16.6883 94.9611 16.8358C94.9065 17.3104 94.8591 17.7937 94.8211 18.2881C94.8121 18.4056 94.8062 18.5268 94.7979 18.6453C94.7702 19.0508 94.7477 19.4627 94.7306 19.8811C94.724 20.0438 94.7178 20.2066 94.7127 20.3714C94.6982 20.8461 94.6898 21.3277 94.6891 21.8189C94.689 21.8858 94.6868 21.9504 94.6869 22.0176C94.6884 22.5751 94.7002 23.146 94.7188 23.724C94.7235 23.8793 94.7306 24.0371 94.7369 24.1939C94.7553 24.6627 94.7796 25.1378 94.8092 25.6195C94.8181 25.7616 94.8253 25.9016 94.8354 26.0446C94.8673 26.516 94.9051 26.994 94.9478 27.4777L94.9715 27.7667L40.6497 81.6799L22.9199 99.2755C19.9668 98.3143 17.2387 97.7961 14.7771 97.7647C13.6418 97.7505 12.5766 97.8483 11.5713 98.0392L95.8742 12.0628C95.8491 12.152 95.8272 12.245 95.8028 12.3353ZM82.6636 282.834L97.3821 285.706C97.4 285.724 97.4174 285.742 97.4353 285.76L95.2535 285.328L82.6636 282.834ZM167.564 304.444C167.564 304.42 167.563 304.396 167.564 304.373C167.56 303.908 167.552 303.438 167.534 302.957C167.528 302.766 167.516 302.57 167.507 302.377C167.491 302.032 167.477 301.69 167.453 301.337C167.415 300.763 167.37 300.18 167.313 299.585C167.312 299.57 167.31 299.555 167.308 299.54L171.306 297.624L252.052 258.929C261.622 264.59 269.929 267.51 276.519 267.394L164.162 318.146C166.466 315.035 167.601 310.445 167.564 304.444ZM290.624 231.088L316.499 132.039L290.719 231.608C290.686 231.434 290.658 231.264 290.624 231.088ZM96.1982 11.0249C96.135 11.2145 96.0705 11.4015 96.0112 11.5958L11.1593 98.1321C11.0164 98.1641 10.8717 98.1925 10.7312 98.2287C10.6931 98.2384 10.6527 98.2443 10.6148 98.2544L96.2254 10.9386C96.2158 10.9667 96.2078 10.9967 96.1982 11.0249ZM6.48366 267.977L36.9749 274.017L97.7217 286.051C97.7995 286.129 97.8767 286.208 97.9543 286.286C98.2598 286.596 98.5662 286.91 98.8705 287.215C99.6142 287.963 100.354 288.694 101.093 289.421C101.25 289.576 101.409 289.734 101.566 289.888C102.432 290.736 103.294 291.568 104.152 292.387C104.157 292.392 104.163 292.397 104.168 292.402C110.748 298.684 117.081 304.102 123.039 308.556L16.74 271.799L6.48366 267.977ZM123.648 309.009C123.81 309.129 123.974 309.253 124.135 309.372L70.4005 290.597L123.648 309.009ZM291.562 236.797C291.545 236.669 291.521 236.535 291.503 236.406C291.395 235.62 291.275 234.823 291.143 234.016C291.116 233.856 291.094 233.699 291.067 233.539C290.989 233.078 290.902 232.61 290.817 232.144L337.054 53.5576L336.667 55.2051L291.562 236.797ZM96.4047 10.4281L42.9291 64.9687L96.499 10.18C96.4678 10.2628 96.4351 10.3443 96.4047 10.4281ZM124.768 309.836C125.661 310.484 126.544 311.107 127.419 311.709L29.9284 276.714L29.3289 276.49L124.768 309.836ZM291.641 237.431L320.927 119.528L291.743 238.283C291.71 238 291.677 237.717 291.641 237.431ZM203.692 27.9969L160.211 27.7895C152.928 21.4194 146.011 16.0849 139.578 11.8682L333.182 28.3758L335.26 28.6246L203.692 27.9969ZM128.196 312.233C128.529 312.458 128.863 312.686 129.193 312.905L58.2295 287.118L128.196 312.233ZM139.177 11.6038C139.009 11.4945 138.837 11.3778 138.67 11.2699L252.569 21.2728L139.177 11.6038ZM130.02 313.449C130.739 313.916 131.455 314.376 132.161 314.81L69.1499 291.329L130.02 313.449ZM138.244 11.0015C134.526 8.62988 130.975 6.63488 127.619 5.04739L296.95 24.0406L325.182 27.4186L138.244 11.0015ZM292.195 244.54C292.181 243.937 292.156 243.323 292.122 242.699C292.113 242.527 292.103 242.354 292.093 242.18C292.046 241.424 291.99 240.659 291.916 239.874C291.887 239.57 291.848 239.257 291.815 238.949L330.111 83.1177L308.054 177.026L292.195 244.54ZM126.943 4.74053C126.685 4.62153 126.427 4.50441 126.171 4.39021L241.498 17.5895L126.943 4.74053ZM125.481 4.07992C124.841 3.80331 124.209 3.54217 123.584 3.29647L232.46 16.3239L125.481 4.07992Z" fill="#7C876E"/>
</svg>
