<svg width="315" height="238" viewBox="0 0 315 238" fill="none" xmlns="http://www.w3.org/2000/svg">
<path opacity="0.5" d="M22.85 -52.5603C22.8294 -52.5505 22.8084 -52.5415 22.7881 -52.5319C19.0012 -50.7184 16.2282 -47.2007 14.5266 -42.0155L-60.1875 185.684L-60.2702 185.934L-60.2991 186.126C-60.2974 186.427 -60.0847 186.786 -59.9555 186.951C-59.9072 187.012 -59.8589 187.051 -59.8113 187.096L-59.8103 187.185L-59.6858 187.197C-59.6236 187.236 -59.5615 187.271 -59.494 187.286L-59.4649 187.292L175.091 237.325C175.428 237.396 175.76 237.459 176.089 237.517C176.173 237.532 176.257 237.545 176.341 237.559C176.796 237.634 177.243 237.694 177.684 237.742C177.746 237.749 177.81 237.762 177.871 237.768C177.913 237.772 177.952 237.772 177.994 237.775C178.514 237.826 179.024 237.857 179.525 237.87C179.599 237.872 179.672 237.872 179.746 237.873C180.811 237.888 181.832 237.818 182.807 237.662C182.843 237.656 182.881 237.651 182.918 237.645C183.392 237.565 183.854 237.463 184.307 237.342C184.366 237.326 184.424 237.31 184.482 237.294C184.929 237.169 185.365 237.026 185.79 236.86C185.831 236.844 185.872 236.826 185.914 236.809C186.346 236.636 186.768 236.445 187.177 236.23C187.182 236.227 187.187 236.225 187.192 236.222C187.591 236.012 187.976 235.775 188.352 235.525C188.412 235.485 188.472 235.446 188.531 235.405C188.823 235.204 189.11 234.995 189.387 234.769C189.44 234.726 189.488 234.677 189.54 234.633C189.577 234.602 189.617 234.578 189.652 234.547L296.129 143.401C298.095 141.85 299.617 139.599 300.695 136.669C300.708 136.633 300.721 136.596 300.735 136.56C300.861 136.213 300.981 135.857 301.095 135.491C301.127 135.387 301.157 135.281 301.189 135.176C301.282 134.858 301.375 134.538 301.459 134.207C301.51 134.012 301.555 133.809 301.601 133.609C301.663 133.347 301.726 133.089 301.783 132.819C301.876 132.368 301.961 131.905 302.04 131.432C302.046 131.397 302.053 131.364 302.059 131.328C302.147 130.784 302.225 130.224 302.293 129.65C302.301 129.583 302.306 129.513 302.314 129.446C302.37 128.954 302.42 128.453 302.461 127.94C302.464 127.898 302.47 127.859 302.473 127.816L314.729 -28.3833L314.73 -28.393L314.732 -28.4437L314.705 -28.6667L314.512 -28.8825L314.504 -28.891L314.371 -28.9542L314.196 -29.0497L314.186 -29.0426L313.511 -29.3647L173.347 -96.8992C166.778 -100.065 161.309 -100.906 157.032 -99.4325C157.007 -99.4236 156.979 -99.419 156.954 -99.4101L24.2077 -53.1207C24.1637 -53.1058 24.1234 -53.0834 24.0799 -53.0677C23.6591 -52.9171 23.2487 -52.7485 22.85 -52.5603ZM178.74 236.271C178.328 236.246 177.913 236.216 177.487 236.166C177.293 236.143 177.095 236.113 176.898 236.086C176.433 236.019 175.963 235.942 175.484 235.845C175.333 235.815 175.181 235.785 175.028 235.752C174.582 235.655 174.133 235.548 173.676 235.427C173.629 235.414 173.582 235.402 173.535 235.389C172.153 235.013 170.718 234.515 169.243 233.919L180.77 236.288C180.293 236.312 179.809 236.321 179.311 236.306C179.123 236.301 178.93 236.282 178.74 236.271ZM159.961 -98.5063C160.352 -98.5478 160.751 -98.5701 161.158 -98.5784C161.233 -98.58 161.308 -98.5839 161.384 -98.5843C161.817 -98.587 162.258 -98.5716 162.708 -98.5381C162.869 -98.5255 163.035 -98.5026 163.198 -98.4854C163.452 -98.4594 163.709 -98.4288 163.969 -98.3921C164.26 -98.3491 164.554 -98.301 164.851 -98.2442C164.937 -98.228 165.023 -98.2096 165.109 -98.1924C167.427 -97.7231 169.96 -96.8367 172.704 -95.5269C176.304 -93.8083 180.179 -91.3896 184.271 -88.3346L183.162 -87.9149L159.792 -98.4872C159.808 -98.4892 159.821 -98.4928 159.836 -98.4943C159.877 -98.4988 159.919 -98.5024 159.961 -98.5063ZM300.808 129.229C300.798 129.316 300.788 129.403 300.778 129.489C300.719 129.967 300.652 130.434 300.58 130.889C300.571 130.94 300.564 130.992 300.555 131.043C300.385 132.072 300.18 133.045 299.937 133.959C299.932 133.977 299.927 133.993 299.922 134.011C299.814 134.413 299.698 134.802 299.576 135.181C299.507 135.394 299.433 135.599 299.359 135.805C299.299 135.977 299.238 136.15 299.175 136.317C299.077 136.571 298.974 136.817 298.869 137.06C298.825 137.161 298.782 137.263 298.737 137.361C298.613 137.634 298.485 137.901 298.352 138.159C298.326 138.21 298.299 138.259 298.273 138.31C297.455 139.852 296.466 141.126 295.302 142.123C294.423 142.875 293.444 143.461 292.372 143.886C292.277 143.923 292.177 143.952 292.08 143.988C292.081 143.988 292.079 143.988 292.08 143.988L293.814 130.556L301.113 124.496C301.109 124.702 301.112 124.916 301.105 125.118C301.103 125.193 301.102 125.27 301.1 125.344C301.073 126.092 301.03 126.817 300.974 127.519C300.964 127.643 300.954 127.765 300.944 127.887C300.904 128.343 300.859 128.791 300.808 129.229ZM185.63 235.216C185.549 235.251 185.463 235.277 185.38 235.31L191.659 229.952C191.6 230.043 191.541 230.135 191.481 230.225C191.377 230.382 191.274 230.541 191.166 230.691C191.094 230.791 191.018 230.884 190.944 230.982L186.438 234.828C186.348 234.874 186.263 234.925 186.173 234.969C185.994 235.055 185.814 235.138 185.63 235.216ZM-55.0546 173.2L13.155 -17.0623C13.1802 -16.8256 13.2107 -16.5835 13.2379 -16.3453C13.3327 -15.5073 13.4371 -14.6599 13.5519 -13.802C13.5866 -13.5451 13.6182 -13.291 13.6545 -13.0324C13.8026 -11.9719 13.9645 -10.8967 14.1418 -9.80741C14.1817 -9.5645 14.2256 -9.3171 14.2664 -9.07261C14.417 -8.17718 14.577 -7.27207 14.7462 -6.35802C14.8048 -6.04254 14.8625 -5.72772 14.9233 -5.40932C15.1385 -4.28367 15.3644 -3.14763 15.6076 -1.99518C15.6404 -1.84 15.6766 -1.68166 15.7103 -1.52592C15.9292 -0.502093 16.1605 0.532975 16.401 1.57686C16.4824 1.93004 16.565 2.28427 16.6488 2.63975C16.8946 3.68006 17.1491 4.72924 17.4154 5.78866C17.4591 5.96171 17.4992 6.13119 17.5434 6.30441C17.8483 7.50522 18.1698 8.72047 18.501 9.94329C18.6012 10.3124 18.7039 10.6843 18.8062 11.0553C19.0759 12.0341 19.3537 13.0198 19.6392 14.0125C19.729 14.3237 19.816 14.6327 19.9073 14.9456C20.2693 16.1863 20.6442 17.4374 21.0309 18.698C21.1402 19.0539 21.2533 19.4129 21.3643 19.77C21.6729 20.7625 21.9889 21.7605 22.3119 22.7642C22.4353 23.1482 22.5576 23.5304 22.6833 23.9157C22.9081 24.6047 23.1381 25.2978 23.3699 25.9916L-58.4051 183.331L-55.0546 173.2ZM187.536 234.204L190.06 232.049C190.04 232.071 190.021 232.093 190.002 232.114C189.871 232.256 189.741 232.399 189.606 232.533C189.468 232.671 189.325 232.8 189.182 232.931C189.038 233.062 188.896 233.195 188.747 233.319C188.611 233.432 188.468 233.532 188.329 233.639C188.07 233.837 187.807 234.028 187.536 234.204ZM184.177 235.735C183.856 235.828 183.524 235.901 183.191 235.972L166.024 232.484C161.762 230.409 157.174 227.518 152.321 223.864L171.168 208.841L195.811 211.152C195.81 211.25 195.809 211.348 195.809 211.445C195.805 211.803 195.803 212.163 195.794 212.513C195.786 212.841 195.772 213.159 195.76 213.481C195.746 213.819 195.735 214.158 195.716 214.489C195.699 214.812 195.675 215.127 195.652 215.443C195.63 215.757 195.609 216.072 195.583 216.379C195.555 216.699 195.52 217.011 195.487 217.323C195.457 217.612 195.428 217.904 195.393 218.186C195.354 218.501 195.309 218.805 195.265 219.111C195.226 219.379 195.19 219.65 195.147 219.912C195.098 220.219 195.041 220.516 194.986 220.815C194.94 221.061 194.896 221.311 194.846 221.552C194.785 221.851 194.716 222.14 194.649 222.429C194.596 222.657 194.545 222.888 194.489 223.11C194.416 223.397 194.336 223.675 194.257 223.954C194.197 224.165 194.139 224.378 194.075 224.584C193.991 224.858 193.901 225.121 193.81 225.386C193.742 225.583 193.677 225.783 193.606 225.975C193.511 226.233 193.409 226.481 193.308 226.729C193.233 226.914 193.159 227.102 193.081 227.281C192.975 227.522 192.864 227.753 192.752 227.984C192.668 228.158 192.586 228.334 192.499 228.503C192.384 228.725 192.263 228.937 192.143 229.149C192.115 229.199 192.086 229.249 192.057 229.298L184.726 235.555C184.544 235.616 184.363 235.682 184.177 235.735ZM-56.7692 186.348L96.2958 164.667C97.3028 166.056 98.3146 167.436 99.3302 168.808C99.4722 168.999 99.6132 169.191 99.7553 169.382C101.274 171.425 102.803 173.447 104.34 175.446L60.2432 178.43L-56.7692 186.348ZM298.385 101.097C298.447 101.383 298.513 101.672 298.573 101.957C298.674 102.436 298.769 102.908 298.865 103.382C298.922 103.665 298.983 103.952 299.038 104.234C299.129 104.699 299.213 105.156 299.298 105.615C299.351 105.9 299.408 106.189 299.459 106.472C299.539 106.915 299.611 107.351 299.685 107.787C299.735 108.081 299.787 108.377 299.835 108.668C299.904 109.094 299.966 109.512 300.029 109.933C300.074 110.227 300.121 110.523 300.163 110.815C300.223 111.231 300.276 111.64 300.33 112.051C300.369 112.338 300.41 112.628 300.445 112.913C300.496 113.318 300.539 113.715 300.584 114.114C300.616 114.398 300.651 114.685 300.68 114.967C300.721 115.353 300.754 115.733 300.789 116.114C300.815 116.4 300.844 116.689 300.867 116.972C300.898 117.346 300.922 117.713 300.948 118.082C300.967 118.362 300.989 118.645 301.005 118.922C301.027 119.285 301.041 119.64 301.058 119.997C301.07 120.273 301.085 120.551 301.095 120.824C301.107 121.171 301.111 121.511 301.118 121.854C301.123 122.094 301.13 122.337 301.133 122.575L294.09 128.422L297.902 98.9444C297.955 99.1739 298.011 99.4065 298.063 99.635C298.174 100.126 298.279 100.611 298.385 101.097ZM110.243 180.876C109.611 180.086 108.979 179.295 108.346 178.49C107.572 177.507 106.797 176.512 106.019 175.507L128.494 160.106L183.214 152.355C183.27 152.516 183.329 152.678 183.385 152.838C183.526 153.238 183.661 153.635 183.8 154.033C184.026 154.687 184.253 155.341 184.474 155.991C184.611 156.393 184.743 156.792 184.878 157.192C185.093 157.831 185.308 158.471 185.517 159.106C185.651 159.515 185.781 159.92 185.914 160.327C186.115 160.948 186.318 161.569 186.514 162.185C186.645 162.598 186.771 163.006 186.899 163.417C187.09 164.025 187.281 164.633 187.466 165.236C187.591 165.645 187.711 166.049 187.833 166.455C188.014 167.053 188.195 167.651 188.369 168.245C188.49 168.655 188.606 169.062 188.724 169.47C188.893 170.053 189.062 170.637 189.225 171.215C189.341 171.624 189.451 172.029 189.563 172.436C189.721 173.006 189.88 173.577 190.032 174.143C190.143 174.556 190.249 174.964 190.357 175.374C190.502 175.926 190.649 176.479 190.789 177.026C190.895 177.441 190.996 177.85 191.098 178.262C191.233 178.8 191.368 179.337 191.497 179.87C191.596 180.279 191.689 180.684 191.785 181.09C191.909 181.617 192.035 182.146 192.153 182.668C192.246 183.075 192.333 183.476 192.422 183.879C192.536 184.393 192.651 184.909 192.758 185.418C192.844 185.822 192.925 186.22 193.007 186.621C193.11 187.121 193.213 187.623 193.311 188.117C193.39 188.518 193.463 188.913 193.538 189.311C193.583 189.547 193.626 189.782 193.67 190.016L171.743 207.494L130.06 203.666C123.842 197.17 117.407 189.802 110.848 181.636C110.646 181.385 110.444 181.128 110.243 180.876ZM198.862 56.403C198.98 56.5928 199.097 56.7826 199.215 56.9721C200.44 58.9468 201.678 60.912 202.929 62.8665C203.022 63.0115 203.114 63.1568 203.207 63.3014C205.871 67.4507 208.592 71.5475 211.363 75.574C211.472 75.7317 211.581 75.8883 211.689 76.0458C212.979 77.9151 214.28 79.7686 215.591 81.6058C215.734 81.8071 215.878 82.0078 216.022 82.2085C217.331 84.0381 218.651 85.8495 219.979 87.6422C220.096 87.7998 220.213 87.9585 220.329 88.1155C221.73 89.9992 223.139 91.8624 224.557 93.7007L174.711 127.857C174.575 127.538 174.437 127.217 174.3 126.898C173.758 125.63 173.21 124.359 172.652 123.084C172.572 122.902 172.495 122.721 172.415 122.539C171.789 121.113 171.15 119.681 170.505 118.247C170.317 117.83 170.128 117.413 169.939 116.996C169.402 115.812 168.858 114.626 168.309 113.437C168.165 113.127 168.024 112.818 167.88 112.506C167.211 111.068 166.532 109.627 165.845 108.183C165.66 107.793 165.472 107.403 165.285 107.013C164.726 105.844 164.16 104.673 163.589 103.501C163.407 103.129 163.228 102.757 163.045 102.386C162.331 100.929 161.608 99.47 160.877 98.0099C160.716 97.6881 160.551 97.3655 160.389 97.0433C159.78 95.8335 159.165 94.6228 158.545 93.4113C158.34 93.0131 158.137 92.6151 157.931 92.2165C157.171 90.7407 156.404 89.2638 155.626 87.7867C155.521 87.5859 155.413 87.3851 155.307 87.184C154.615 85.8738 153.917 84.5636 153.212 83.2535C152.995 82.8488 152.777 82.4443 152.559 82.0402C152.068 81.1319 151.573 80.2244 151.077 79.3168L196.402 52.3851C197.214 53.7286 198.036 55.0672 198.862 56.403ZM225.483 93.099L237.649 76.4661L225.507 93.1303C225.499 93.1202 225.491 93.1095 225.483 93.099ZM271.531 29.7384L226.153 91.7795L225.333 92.9007C223.995 91.1627 222.663 89.4064 221.341 87.6281C221.221 87.4662 221.102 87.3033 220.981 87.1415C219.657 85.3539 218.342 83.5472 217.035 81.7234C216.88 81.5063 216.724 81.2884 216.569 81.0706C215.275 79.2564 213.99 77.425 212.715 75.5786C212.584 75.3889 212.453 75.1996 212.322 75.0097C210.968 73.0422 209.626 71.0596 208.297 69.0607C208.239 68.9731 208.181 68.8852 208.122 68.7978C206.816 66.8291 205.522 64.8456 204.24 62.8512C204.088 62.6143 203.938 62.3768 203.786 62.1397C202.598 60.2841 201.423 58.4179 200.259 56.5437C200.083 56.2591 199.906 55.9736 199.73 55.6886C198.934 54.4009 198.153 53.105 197.369 51.8102L262.763 12.9552C265.825 18.5506 268.755 24.1583 271.531 29.7384ZM186.4 35.0753C186.478 35.2174 186.558 35.3595 186.636 35.5013C187.269 36.6465 187.908 37.7907 188.552 38.9338C188.712 39.2189 188.872 39.5035 189.034 39.7885C190.969 43.2107 192.951 46.6215 194.977 50.0126C195.063 50.1556 195.149 50.2981 195.234 50.4411C195.574 51.0091 195.914 51.5772 196.256 52.1434L150.941 79.0692C150.691 78.6121 150.442 78.1546 150.19 77.6978C150.163 77.6485 150.136 77.599 150.109 77.5497C149.284 76.0548 148.449 74.5613 147.608 73.0692C147.391 72.6824 147.172 72.2962 146.954 71.9099C146.217 70.6081 145.475 69.3083 144.727 68.0099C144.634 67.8476 144.543 67.6851 144.449 67.523C144.428 67.4868 144.406 67.4511 144.385 67.415C142.919 64.876 141.431 62.3446 139.924 59.822C139.87 59.732 139.816 59.6417 139.762 59.5517L185.754 33.8982C185.969 34.2907 186.184 34.6829 186.4 35.0753ZM174.084 128.865C174.243 129.241 174.404 129.618 174.562 129.993C174.718 130.366 174.871 130.738 175.027 131.111C175.334 131.851 175.643 132.59 175.945 133.327C176.1 133.706 176.252 134.083 176.406 134.462C176.703 135.192 177 135.922 177.291 136.649C177.444 137.029 177.593 137.407 177.743 137.786C178.028 138.504 178.313 139.22 178.593 139.934C178.746 140.326 178.895 140.716 179.046 141.107C179.318 141.806 179.59 142.507 179.855 143.203C180.005 143.597 180.151 143.988 180.3 144.381C180.56 145.07 180.821 145.759 181.075 146.444C181.224 146.842 181.367 147.238 181.513 147.635C181.761 148.308 182.009 148.981 182.25 149.651C182.397 150.058 182.54 150.461 182.685 150.867C182.799 151.186 182.912 151.505 183.025 151.824L129.392 159.491L174.084 128.865ZM194.016 191.948C194.097 192.422 194.18 192.897 194.256 193.366C194.321 193.762 194.38 194.151 194.44 194.543C194.51 195 194.582 195.458 194.648 195.91C194.704 196.303 194.755 196.691 194.808 197.081C194.868 197.521 194.929 197.962 194.983 198.397C195.033 198.786 195.075 199.169 195.12 199.554C195.169 199.982 195.22 200.411 195.264 200.833C195.304 201.215 195.338 201.591 195.374 201.967C195.414 202.382 195.454 202.798 195.488 203.207C195.519 203.585 195.545 203.955 195.572 204.328C195.601 204.727 195.63 205.127 195.654 205.521C195.677 205.891 195.693 206.254 195.71 206.619C195.729 207.007 195.749 207.395 195.763 207.777C195.775 208.138 195.782 208.493 195.791 208.849C195.797 209.135 195.804 209.421 195.807 209.704L172.743 207.586L193.814 190.789C193.884 191.178 193.949 191.562 194.016 191.948ZM183.64 150.616C183.256 149.545 182.865 148.47 182.468 147.389C182.331 147.017 182.196 146.647 182.057 146.274C181.555 144.924 181.043 143.567 180.519 142.203C180.403 141.901 180.283 141.597 180.166 141.295C179.731 140.171 179.289 139.042 178.839 137.909C178.676 137.498 178.514 137.087 178.349 136.675C177.793 135.288 177.231 133.896 176.654 132.497C176.579 132.317 176.503 132.136 176.428 131.956C175.927 130.743 175.417 129.527 174.9 128.306L224.85 94.0782C225.617 95.0696 226.382 96.049 227.146 97.0154C227.263 97.1638 227.38 97.3088 227.497 97.4566C231.415 102.402 235.276 107.008 239.058 111.259L183.939 151.447C183.842 151.171 183.739 150.892 183.64 150.616ZM128.947 159.795L183.106 152.053C183.115 152.077 183.124 152.102 183.132 152.126L128.937 159.802L128.947 159.795ZM193.765 190.523L172.399 207.554L172.087 207.526L193.72 190.282C193.734 190.362 193.75 190.443 193.765 190.523ZM184.021 151.682L239.217 111.438L239.276 111.504L184.053 151.77L184.021 151.682ZM127.871 159.954L124.808 160.387L127.879 159.949L127.871 159.954ZM194.589 189.205C194.409 188.262 194.218 187.31 194.017 186.349C193.957 186.06 193.898 185.772 193.835 185.481C193.587 184.316 193.326 183.14 193.049 181.949C193.004 181.756 192.956 181.56 192.91 181.366C192.667 180.334 192.413 179.293 192.149 178.243C192.068 177.916 191.986 177.589 191.901 177.261C191.588 176.033 191.265 174.798 190.924 173.546C190.907 173.484 190.889 173.422 190.872 173.36C190.545 172.163 190.202 170.952 189.85 169.734C189.748 169.38 189.645 169.026 189.54 168.67C189.213 167.551 188.876 166.426 188.529 165.291C188.473 165.11 188.42 164.932 188.365 164.751C187.968 163.466 187.556 162.169 187.135 160.864C187.017 160.5 186.896 160.133 186.777 159.767C186.429 158.703 186.073 157.632 185.708 156.556C185.606 156.252 185.506 155.95 185.402 155.645C184.989 154.438 184.569 153.225 184.137 152.004L239.435 111.683C247.904 121.164 255.964 128.844 263.336 134.487L194.603 189.273C194.598 189.25 194.594 189.227 194.589 189.205ZM240.322 111.036L279.828 82.2296L263.905 133.617C256.638 127.989 248.672 120.379 240.322 111.036ZM240.163 110.857L240.105 110.79L279.99 81.7095L279.946 81.8494L240.163 110.857ZM239.946 110.612C236.969 107.267 233.947 103.713 230.888 99.9407C230.836 99.877 230.785 99.815 230.734 99.7509C230.011 98.8582 229.285 97.949 228.558 97.033C228.42 96.8584 228.283 96.6876 228.144 96.5118C227.32 95.469 226.494 94.4134 225.666 93.3413C225.663 93.3372 225.66 93.3327 225.657 93.3292L271.717 30.1129C274.945 36.6126 277.967 43.0725 280.75 49.425C280.756 49.4381 280.762 49.4513 280.768 49.4642C281.594 51.3512 282.399 53.2279 283.182 55.0938C283.188 55.1095 283.195 55.1252 283.202 55.1409C283.566 56.0081 283.924 56.872 284.278 57.7336C284.31 57.8117 284.343 57.8902 284.375 57.9683C284.718 58.8027 285.054 59.6344 285.388 60.4635C285.429 60.5648 285.471 60.6668 285.511 60.7674C285.695 61.2261 285.873 61.6815 286.054 62.1385L280.108 81.3292L239.946 110.612ZM286.194 62.4918C286.198 62.5021 286.202 62.5122 286.206 62.5221L280.529 81.0217L280.43 81.0938L286.194 62.4918ZM286.347 62.8774C286.389 62.9856 286.433 63.0944 286.476 63.2025C286.521 63.3167 286.567 63.4321 286.611 63.5458C286.915 64.3202 287.211 65.0913 287.506 65.8605C287.564 66.0099 287.623 66.1606 287.679 66.3098C287.967 67.0631 288.248 67.8123 288.528 68.561C288.588 68.7215 288.65 68.8832 288.709 69.0435C288.987 69.7905 289.258 70.5328 289.527 71.2748C289.584 71.433 289.644 71.5932 289.701 71.7512C289.949 72.4377 290.191 73.1199 290.432 73.8011L280.85 80.7877L286.347 62.8774ZM272.457 28.4728C272.456 28.4698 272.455 28.4674 272.453 28.465C272.273 28.1048 272.095 27.7451 271.914 27.3849C271.327 26.2184 270.734 25.0511 270.135 23.8829C269.952 23.5259 269.767 23.1695 269.583 22.8132C269.086 21.8503 268.585 20.8871 268.079 19.9239C267.912 19.6037 267.745 19.284 267.576 18.9638C266.954 17.7838 266.325 16.604 265.69 15.4247C265.496 15.0641 265.301 14.7034 265.105 14.3425C264.716 13.6235 264.325 12.9047 263.932 12.1857L313.627 -27.8154L272.457 28.4728ZM262.627 12.7073L197.223 51.5694C196.915 51.0599 196.6 50.5539 196.294 50.0429C196.146 49.7966 195.998 49.551 195.85 49.304C194.637 47.2729 193.439 45.2348 192.258 43.1909C192.084 42.8899 191.913 42.5889 191.739 42.2882C191.199 41.3481 190.662 40.4073 190.128 39.4655C189.859 38.9896 189.59 38.5131 189.322 38.0363C188.838 37.1756 188.357 36.3139 187.88 35.4516C187.669 35.072 187.457 34.6925 187.247 34.3129C187.078 34.0054 186.913 33.6978 186.744 33.3902L255.486 0.109941C257.937 4.28928 260.318 8.49431 262.627 12.7073ZM162.419 -15.2927C162.487 -15.1216 162.552 -14.9518 162.621 -14.7809C163.098 -13.5867 163.585 -12.3861 164.081 -11.1814C164.199 -10.8946 164.319 -10.6072 164.438 -10.3194C164.853 -9.31691 165.274 -8.31131 165.702 -7.30265C165.81 -7.04641 165.918 -6.79071 166.027 -6.53453C166.547 -5.31487 167.076 -4.09085 167.614 -2.86288C167.712 -2.63861 167.812 -2.41373 167.911 -2.18968C168.37 -1.14669 168.836 -0.101352 169.307 0.946192C169.44 1.24188 169.572 1.53712 169.706 1.83313C170.271 3.08102 170.842 4.3311 171.424 5.58527C171.465 5.67197 171.506 5.75889 171.546 5.84582C172.092 7.01896 172.646 8.19526 173.206 9.37322C173.348 9.6706 173.49 9.96821 173.632 10.2664C174.216 11.4871 174.805 12.7095 175.404 13.9343C175.423 13.9743 175.442 14.014 175.462 14.0546C176.088 15.3337 176.724 16.6152 177.367 17.898C177.506 18.1776 177.647 18.457 177.788 18.7369C178.348 19.8497 178.914 20.9635 179.485 22.078C179.58 22.2624 179.673 22.4468 179.768 22.6316C180.428 23.9134 181.095 25.1961 181.77 26.479C181.893 26.7128 182.018 26.9467 182.141 27.1802C182.719 28.2748 183.302 29.3694 183.891 30.4639C184.027 30.7165 184.162 30.9689 184.298 31.2219C184.736 32.0332 185.178 32.8439 185.622 33.6545L139.618 59.3137C138.201 56.9476 136.766 54.591 135.315 52.2447C135.188 52.0399 135.061 51.8354 134.934 51.6311C133.474 49.276 131.997 46.9328 130.505 44.6029C130.389 44.4208 130.273 44.239 130.156 44.0576C128.584 41.6091 126.997 39.1751 125.392 36.76C125.376 36.7353 125.359 36.7106 125.343 36.6863C123.718 34.2403 122.075 31.8138 120.419 29.4075C120.321 29.2652 120.223 29.1242 120.125 28.9826C118.564 26.7195 116.989 24.4759 115.404 22.2534C115.243 22.029 115.083 21.8056 114.923 21.5819C113.358 19.3954 111.781 17.2296 110.193 15.0873C110.056 14.903 109.92 14.7175 109.784 14.5334C108.182 12.3785 106.569 10.2462 104.947 8.14057L161.332 -18.06C161.689 -17.1408 162.051 -16.2185 162.419 -15.2927ZM138.92 60.0206C139.123 60.3605 139.329 60.6994 139.532 61.0397C139.71 61.3391 139.886 61.6393 140.064 61.9387C140.567 62.7874 141.071 63.6361 141.57 64.4871C141.744 64.7824 141.914 65.0789 142.087 65.3742C142.587 66.229 143.086 67.0841 143.581 67.9408C143.76 68.2508 143.937 68.5612 144.115 68.8714C144.6 69.7139 145.084 70.5566 145.564 71.4008C145.747 71.7218 145.927 72.0435 146.109 72.3647C146.582 73.2004 147.055 74.0364 147.523 74.8732C147.701 75.1894 147.875 75.5063 148.051 75.8228C148.521 76.6642 148.989 77.506 149.454 78.3487C149.631 78.6684 149.804 78.9892 149.98 79.3096C150.02 79.3832 150.06 79.4571 150.101 79.5308L69.127 120.775C65.883 115.283 62.7354 109.752 59.6974 104.208L138.92 60.0206ZM150.235 79.7781C150.61 80.4606 150.984 81.1426 151.354 81.8254C151.53 82.1484 151.703 82.4721 151.877 82.7954C152.329 83.634 152.782 84.4723 153.229 85.3107C153.394 85.6207 153.557 85.93 153.721 86.24C154.174 87.0918 154.626 87.9433 155.073 88.7946C155.235 89.1034 155.394 89.412 155.555 89.7206C155.999 90.5705 156.443 91.4202 156.881 92.2689C157.052 92.6 157.22 92.9302 157.389 93.2607C157.814 94.0865 158.238 94.9129 158.658 95.7387C158.835 96.0884 159.009 96.4378 159.186 96.787C159.594 97.5955 160.002 98.404 160.405 99.212C160.579 99.56 160.75 99.9079 160.923 100.256C161.324 101.064 161.725 101.872 162.121 102.679C162.29 103.025 162.456 103.369 162.624 103.715C163.019 104.523 163.413 105.331 163.801 106.137C163.973 106.492 164.14 106.847 164.31 107.201C164.69 107.995 165.071 108.788 165.445 109.58C165.619 109.947 165.788 110.312 165.96 110.678C166.328 111.459 166.695 112.241 167.057 113.021C167.226 113.384 167.391 113.745 167.558 114.108C167.919 114.888 168.279 115.669 168.634 116.448C168.8 116.812 168.962 117.176 169.127 117.54C169.477 118.313 169.826 119.085 170.17 119.855C170.336 120.225 170.498 120.594 170.661 120.964C171.001 121.728 171.34 122.493 171.674 123.256C171.834 123.62 171.989 123.982 172.147 124.346C172.479 125.109 172.811 125.872 173.137 126.633C173.295 127.001 173.448 127.367 173.605 127.735C173.702 127.962 173.798 128.19 173.894 128.417L128.323 159.643L97.4451 164.058C87.5191 150.385 78.0385 135.844 69.2621 121.003L150.235 79.7781ZM97.7393 164.463L127.427 160.257L105.725 175.128C103.035 171.643 100.372 168.082 97.7393 164.463ZM194.656 189.536L263.532 134.637C263.591 134.681 263.65 134.725 263.708 134.77L194.702 189.775C194.688 189.696 194.671 189.615 194.656 189.536ZM264.105 133.775L280.151 81.9944L280.254 81.9194L264.296 133.918C264.232 133.868 264.17 133.824 264.105 133.775ZM280.269 81.6142L280.312 81.4741L280.413 81.4006L280.37 81.5403L280.269 81.6142ZM280.734 81.1663L290.515 74.035C290.525 74.0633 290.535 74.0925 290.546 74.1212L280.691 81.306L280.734 81.1663ZM104.001 8.52247L94.3835 18.9595L103.992 8.5104C103.995 8.5145 103.998 8.51837 104.001 8.52247ZM104.149 8.71393C104.893 9.67888 105.636 10.6484 106.376 11.6239C106.504 11.7925 106.631 11.9637 106.759 12.1326C107.411 12.9956 108.063 13.8599 108.712 14.7305C108.855 14.9213 108.996 15.1145 109.138 15.3058C109.772 16.1587 110.405 17.0131 111.036 17.8731C111.164 18.0478 111.29 18.2249 111.418 18.4001C112.061 19.278 112.702 20.1576 113.34 21.0427C113.519 21.2915 113.697 21.544 113.876 21.7934C114.461 22.6081 115.046 23.4232 115.628 24.2437C115.824 24.5207 116.019 24.8006 116.215 25.0782C116.778 25.876 117.342 26.6737 117.901 27.4762C118.103 27.7653 118.302 28.0566 118.503 28.3465C119.054 29.1401 119.606 29.9333 120.153 30.7319C120.365 31.04 120.575 31.3515 120.786 31.6607C121.323 32.4465 121.859 33.2314 122.393 34.0213C122.576 34.2929 122.757 34.5665 122.94 34.8385C123.498 35.668 124.056 36.4976 124.61 37.3316C124.795 37.6091 124.977 37.8889 125.161 38.1666C125.711 38.9965 126.26 39.8264 126.806 40.6606C127.003 40.9625 127.199 41.2665 127.396 41.5695C127.926 42.3828 128.456 43.1959 128.982 44.0125C129.176 44.3134 129.368 44.6161 129.561 44.9173C130.088 45.7397 130.616 46.5626 131.139 47.3881C131.322 47.6761 131.502 47.9649 131.684 48.2531C132.214 49.0939 132.746 49.9345 133.272 50.7782C133.451 51.0649 133.628 51.3525 133.806 51.6393C134.334 52.4876 134.861 53.3362 135.384 54.1873C135.562 54.4762 135.737 54.7663 135.914 55.055C136.433 55.9027 136.952 56.7509 137.467 57.6011C137.658 57.9173 137.847 58.2345 138.038 58.5507C138.284 58.961 138.531 59.3721 138.777 59.7826L59.5648 103.965C54.0471 93.8847 48.8911 83.7688 44.1807 73.7902L104.149 8.71393ZM196.889 207.566C196.888 207.556 196.888 207.547 196.888 207.536C196.845 206.564 196.781 205.569 196.706 204.562C196.687 204.306 196.666 204.048 196.645 203.79C196.573 202.906 196.489 202.011 196.393 201.102C196.378 200.956 196.365 200.812 196.349 200.665C196.235 199.626 196.102 198.568 195.957 197.498C195.922 197.236 195.883 196.972 195.846 196.708C195.719 195.812 195.582 194.905 195.435 193.987C195.398 193.758 195.364 193.532 195.326 193.301C195.148 192.228 194.957 191.142 194.751 190.042L263.905 134.919C266.089 136.568 268.214 138.042 270.268 139.323C272.487 140.728 274.624 141.911 276.676 142.878L196.936 209.076C196.923 208.575 196.911 208.076 196.889 207.566ZM277.552 142.151C275.237 141.116 272.788 139.765 270.228 138.13C268.375 136.928 266.462 135.569 264.498 134.07L280.575 81.6853L290.628 74.3545C290.639 74.3832 290.649 74.4123 290.659 74.441C290.901 75.1305 291.137 75.815 291.371 76.4991C291.44 76.7003 291.511 76.903 291.58 77.1039C291.805 77.7672 292.024 78.4255 292.242 79.0834C292.315 79.3007 292.39 79.5202 292.461 79.737C292.676 80.3907 292.884 81.0391 293.092 81.6869C293.162 81.9031 293.234 82.1214 293.302 82.3368C293.5 82.9589 293.691 83.5754 293.882 84.1923C293.956 84.4329 294.034 84.6759 294.107 84.9162C294.289 85.5102 294.464 86.0988 294.64 86.6877C294.716 86.9437 294.795 87.2022 294.87 87.4574C295.039 88.0307 295.201 88.5984 295.363 89.1665C295.439 89.4327 295.518 89.701 295.593 89.9658C295.749 90.521 295.899 91.0705 296.049 91.6207C296.123 91.8928 296.201 92.1674 296.273 92.4383C296.418 92.9754 296.556 93.5062 296.694 94.0379C296.767 94.3169 296.842 94.5986 296.913 94.8761C297.047 95.4015 297.174 95.9209 297.303 96.441C297.365 96.6926 297.43 96.9465 297.49 97.1969L293.263 129.108L277.552 142.151ZM263.764 11.8806C263.67 11.7076 263.575 11.5351 263.48 11.3623C263.328 11.0859 263.178 10.8099 263.025 10.5335C262.368 9.34399 261.704 8.15582 261.036 6.96881C260.833 6.60896 260.63 6.25014 260.426 5.89136C259.846 4.86634 259.262 3.84268 258.673 2.82001C258.57 2.64041 258.469 2.46046 258.366 2.28108C258.343 2.24135 258.319 2.20173 258.296 2.162C257.782 1.27359 257.266 0.386344 256.746 -0.500053L313.362 -27.9099L263.764 11.8806ZM293.534 128.883L297.645 97.8512C297.679 97.9951 297.712 98.138 297.746 98.2816L293.82 128.646L293.534 128.883ZM237.489 -28.2731L182.818 -28.0436L223.812 -47.0927C228.476 -41.0513 233.047 -34.7517 237.489 -28.2731ZM203.906 -27.8935L182.198 -27.7557L182.299 -27.8033L203.906 -27.8935ZM237.763 -27.8714C243.906 -18.8906 249.802 -9.57086 255.354 -0.116287L186.606 33.1376C186.193 32.3827 185.779 31.6276 185.371 30.8725C185.119 30.4061 184.869 29.9393 184.618 29.4729C184.177 28.6507 183.739 27.829 183.304 27.0068C183.073 26.5694 182.84 26.1317 182.61 25.6943C182.005 24.5443 181.407 23.3939 180.814 22.2444C180.597 21.8224 180.383 21.4011 180.167 20.9792C179.738 20.141 179.312 19.3028 178.89 18.4656C178.66 18.0097 178.43 17.5535 178.202 17.0981C177.622 15.9391 177.047 14.781 176.48 13.6244C176.326 13.3091 176.174 12.994 176.021 12.6788C175.57 11.7528 175.123 10.8276 174.68 9.90416C174.467 9.46003 174.256 9.01622 174.045 8.57338C173.588 7.61009 173.135 6.64876 172.688 5.68874C172.558 5.41119 172.426 5.13282 172.298 4.8556C171.762 3.70102 171.236 2.55 170.715 1.40103C170.528 0.986534 170.342 0.573306 170.156 0.16009C169.754 -0.735284 169.356 -1.62884 168.962 -2.52009C168.812 -2.86111 168.659 -3.20371 168.51 -3.5444C168.002 -4.70353 167.503 -5.85979 167.01 -7.01173C166.856 -7.37269 166.706 -7.73195 166.553 -8.09179C166.176 -8.98279 165.803 -9.87079 165.436 -10.7565C165.286 -11.1171 165.136 -11.4781 164.987 -11.8378C164.513 -12.9924 164.045 -14.1424 163.588 -15.2871C163.48 -15.5582 163.374 -15.8272 163.267 -16.0978C162.946 -16.9079 162.631 -17.7136 162.318 -18.5183L181.68 -27.5149L237.763 -27.8714ZM161.246 -18.2825L104.799 7.94759C104.794 7.94057 104.789 7.93412 104.784 7.9271L161.238 -18.3044C161.241 -18.2973 161.243 -18.2898 161.246 -18.2825ZM97.1442 -0.114725L26.6557 31.5735C26.6484 31.5535 26.6408 31.5332 26.6339 31.513L97.1033 -0.164737C97.1172 -0.14807 97.1304 -0.131392 97.1442 -0.114725ZM97.3004 0.0755245C98.4426 1.47842 99.5883 2.90098 100.739 4.35304C100.814 4.44784 100.888 4.53866 100.963 4.63324C101.92 5.84439 102.881 7.07517 103.843 8.32001L58.2371 57.9155L43.9978 73.3997C37.2481 59.0703 31.4171 45.0329 26.7354 31.7979L97.3004 0.0755245ZM286.855 60.3604L288.421 55.3063L286.863 60.382C286.86 60.3749 286.858 60.3674 286.855 60.3604ZM286.714 60.0083C286.331 59.0543 285.942 58.0977 285.547 57.1376C285.436 56.8689 285.322 56.5987 285.211 56.3294C284.827 55.403 284.437 54.4736 284.042 53.5413C283.873 53.1409 283.703 52.7401 283.531 52.3389C283.054 51.2223 282.571 50.1027 282.079 48.9791C281.942 48.6663 281.802 48.3523 281.664 48.0392C281.26 47.1239 280.852 46.2075 280.439 45.288C280.263 44.8952 280.087 44.5031 279.909 44.1098C279.393 42.9719 278.871 41.8317 278.342 40.6887C278.188 40.3561 278.031 40.0221 277.875 39.6887C277.446 38.7683 277.012 37.8469 276.574 36.9238C276.392 36.5405 276.211 36.1577 276.028 35.7743C275.478 34.6237 274.922 33.4717 274.358 32.318C274.186 31.9649 274.011 31.6115 273.837 31.2582C273.442 30.4536 273.044 29.6487 272.642 28.8433L274.507 26.2837L313.698 -27.5044L313.648 -26.9108L286.714 60.0083ZM96.9473 -0.355056L26.5542 31.2885C25.8241 29.2155 25.1235 27.1632 24.4517 25.1321L58.2182 -39.5533C69.8775 -30.6259 83.0922 -17.322 96.9473 -0.355056ZM290.398 69.566C290.256 69.1806 290.113 68.7942 289.969 68.4076C289.603 67.4269 289.232 66.4424 288.853 65.4524C288.734 65.1434 288.614 64.8333 288.495 64.5232C288.125 63.568 287.749 62.6084 287.367 61.646C287.246 61.3413 287.127 61.0381 287.005 60.7327L313.409 -25.3035L291.193 71.7475C290.932 71.0229 290.667 70.296 290.398 69.566ZM313.569 -28.2752L256.615 -0.726217C255.962 -1.83767 255.304 -2.94717 254.642 -4.05519C254.525 -4.25264 254.406 -4.44939 254.288 -4.64661C253.115 -6.6037 251.928 -8.55359 250.728 -10.4954C250.608 -10.6906 250.488 -10.886 250.367 -11.081C249.088 -13.143 247.796 -15.1963 246.488 -17.2357C246.444 -17.3047 246.399 -17.3732 246.354 -17.442C245.069 -19.4445 243.77 -21.4334 242.459 -23.4095C242.332 -23.5999 242.206 -23.7897 242.08 -23.9795C241.21 -25.2864 240.336 -26.5885 239.456 -27.8819L313.408 -28.3517L313.569 -28.2752ZM58.0267 -39.703L24.3466 24.8173C24.3338 24.7796 24.3209 24.7415 24.3084 24.7036L57.8506 -39.8331C57.9101 -39.7882 57.9676 -39.7481 58.0267 -39.703ZM291.342 72.1627L303.24 20.1871L291.504 72.6091C291.451 72.4608 291.396 72.3111 291.342 72.1627ZM223.661 -47.2851L182.248 -28.0413L182.192 -28.041L223.647 -47.3034C223.652 -47.2972 223.657 -47.2913 223.661 -47.2851ZM181.73 -27.8005L181.625 -27.752L181.569 -27.7516L181.674 -27.8003L181.73 -27.8005ZM181.107 -27.5112L162.231 -18.7402C162.228 -18.7473 162.225 -18.755 162.223 -18.7619L181.051 -27.5108L181.107 -27.5112ZM158.248 -26.3319C158.659 -25.181 159.077 -24.026 159.508 -22.8617C159.513 -22.8477 159.519 -22.8333 159.525 -22.8192C159.953 -21.6637 160.394 -20.4995 160.842 -19.3315C160.944 -19.0635 161.047 -18.7957 161.151 -18.5267L104.636 7.73367C103.682 6.49966 102.731 5.28225 101.783 4.08074C100.992 3.07833 100.204 2.09582 99.4171 1.11678C99.2842 0.951205 99.1501 0.780898 99.0174 0.615713C98.7572 0.293378 98.4976 -0.025999 98.2382 -0.34614L157.944 -27.1869C158.045 -26.9021 158.146 -26.6171 158.248 -26.3319ZM57.6568 -39.9776L24.2034 24.388C18.7076 7.64533 15.2266 -7.57527 14.2647 -20.157L16.9429 -27.6292L55.0499 -41.8944C55.9098 -41.2799 56.7784 -40.6422 57.6568 -39.9776ZM298.157 93.9831L304.236 48.095L298.254 94.3527C298.222 94.2298 298.189 94.1062 298.157 93.9831ZM297.623 91.9678C297.543 91.6726 297.461 91.3746 297.378 91.0775C297.148 90.241 296.911 89.399 296.666 88.5504C296.596 88.3063 296.528 88.0646 296.457 87.8195C296.161 86.8055 295.854 85.7823 295.538 84.7524C295.437 84.4226 295.334 84.0906 295.231 83.7587C294.962 82.8925 294.686 82.0209 294.404 81.1439C294.326 80.9025 294.251 80.6637 294.172 80.4218C293.833 79.3812 293.483 78.3319 293.126 77.2782C293.004 76.9157 292.879 76.5521 292.755 76.1883C292.441 75.2729 292.121 74.353 291.793 73.428C291.746 73.2943 291.702 73.1629 291.654 73.0288L313.421 -24.1938L313.166 -21.1439L297.997 93.3719C297.874 92.9052 297.751 92.4383 297.623 91.9678ZM162.136 -18.9845C162.011 -19.3091 161.885 -19.6336 161.76 -19.9573C161.323 -21.0993 160.891 -22.2373 160.472 -23.3668C160.44 -23.451 160.41 -23.5349 160.379 -23.6191C159.975 -24.7103 159.582 -25.7941 159.196 -26.8731C159.136 -27.0395 159.078 -27.2047 159.019 -27.3709L180.478 -27.507L162.136 -18.9845ZM157.865 -27.4117L98.0826 -0.536427C98.0688 -0.553095 98.055 -0.569475 98.0416 -0.58637L157.844 -27.4692C157.851 -27.4501 157.858 -27.4311 157.865 -27.4117ZM16.6501 -27.5194L14.2234 -20.7511C14.2095 -20.9491 14.1949 -21.1484 14.1822 -21.3451L16.3387 -27.403L16.6501 -27.5194ZM301.768 111.721C301.748 111.573 301.725 111.422 301.704 111.273C301.592 110.484 301.471 109.684 301.341 108.876C301.308 108.669 301.276 108.463 301.242 108.254C301.089 107.34 300.926 106.414 300.751 105.476C300.714 105.278 300.673 105.077 300.635 104.878C300.481 104.072 300.317 103.258 300.146 102.437C300.099 102.214 300.055 101.993 300.007 101.769C299.804 100.818 299.589 99.8551 299.364 98.8829C299.307 98.6336 299.246 98.3814 299.187 98.131C298.993 97.3123 298.792 96.487 298.584 95.6544C298.527 95.4282 298.473 95.2035 298.415 94.9763L312.683 -15.3659L301.945 113.102C301.889 112.644 301.831 112.186 301.768 111.721ZM312.91 -28.5898L239.183 -28.2803C238.845 -28.7758 238.506 -29.27 238.167 -29.7636C238.092 -29.8716 238.018 -29.9805 237.944 -30.0885C236.575 -32.0744 235.194 -34.0423 233.802 -35.991C233.707 -36.125 233.611 -36.2575 233.515 -36.3913C232.183 -38.2518 230.841 -40.0942 229.49 -41.917C229.367 -42.083 229.244 -42.2493 229.121 -42.415C227.985 -43.9433 226.842 -45.4565 225.694 -46.9549L312.732 -28.6745L312.91 -28.5898ZM180.997 -27.748L158.935 -27.6076C158.924 -27.6403 158.912 -27.6728 158.901 -27.7048L181.104 -27.7979L180.997 -27.748ZM148.127 -74.4077L151.088 -75.5283L151.478 -75.4157L148.138 -74.1523C148.134 -74.238 148.13 -74.3228 148.127 -74.4077ZM148.117 -74.6585C148.097 -75.2453 148.079 -75.8296 148.073 -76.4001L150.708 -75.6383L148.117 -74.6585ZM147.332 -71.5045C147.342 -71.3639 147.35 -71.2265 147.361 -71.0851C147.427 -70.2492 147.508 -69.3977 147.6 -68.5355C147.624 -68.3122 147.65 -68.0864 147.676 -67.862C147.756 -67.1575 147.844 -66.4446 147.94 -65.7234C147.969 -65.5088 147.996 -65.2961 148.026 -65.0801C148.15 -64.1879 148.287 -63.2841 148.436 -62.367C148.468 -62.167 148.505 -61.9631 148.539 -61.7614C148.666 -61.003 148.801 -60.2363 148.945 -59.4622C148.993 -59.2031 149.04 -58.9444 149.09 -58.6831C149.272 -57.733 149.463 -56.7741 149.668 -55.8012C149.693 -55.683 149.721 -55.5624 149.746 -55.4438C149.933 -54.5689 150.131 -53.6843 150.336 -52.7924C150.402 -52.5069 150.469 -52.2206 150.536 -51.9334C150.75 -51.0298 150.971 -50.1189 151.203 -49.1985C151.232 -49.0836 151.258 -48.9703 151.288 -48.855C151.547 -47.8326 151.821 -46.7978 152.103 -45.7552C152.181 -45.4668 152.262 -45.176 152.342 -44.8858C152.578 -44.0273 152.822 -43.1625 153.073 -42.2915C153.139 -42.0632 153.202 -41.8369 153.269 -41.6076C153.579 -40.5453 153.9 -39.4738 154.231 -38.3945C154.313 -38.1291 154.398 -37.8618 154.48 -37.5953C154.753 -36.7167 155.033 -35.8325 155.319 -34.9427C155.411 -34.6577 155.501 -34.3744 155.595 -34.0883C155.955 -32.9828 156.324 -31.8703 156.706 -30.7493C156.771 -30.5564 156.84 -30.3611 156.906 -30.1676C157.187 -29.3467 157.472 -28.5224 157.764 -27.6938L97.8855 -0.776689C84.0373 -17.7974 70.8588 -31.1577 59.1476 -40.2314L147.206 -73.5458C147.239 -72.8747 147.281 -72.1947 147.332 -71.5045ZM13.9903 -26.5238L16.0477 -27.2935L14.1409 -21.9385C14.0501 -23.4942 13.9987 -25.0082 13.9898 -26.4758C13.9899 -26.4921 13.9905 -26.5071 13.9903 -26.5238ZM59.2864 106.105C59.4596 106.42 59.6355 106.733 59.8096 107.048C60.4724 108.245 61.14 109.441 61.8124 110.637C62.0614 111.079 62.3105 111.521 62.5607 111.964C63.371 113.396 64.1862 114.827 65.0105 116.255C65.0361 116.3 65.0614 116.344 65.0871 116.389C65.1055 116.421 65.1246 116.452 65.1429 116.484C66.0823 118.111 67.0333 119.734 67.99 121.354L-58.4804 185.772L58.623 104.894C58.8444 105.298 59.064 105.702 59.2864 106.105ZM104.514 175.673C104.546 175.715 104.578 175.758 104.611 175.799L46.0553 179.629L104.514 175.673ZM225.471 -47.2463C225.405 -47.332 225.34 -47.4179 225.274 -47.5031L266.958 -38.5329L225.471 -47.2463ZM216.094 -56.7338C216.157 -56.6568 216.222 -56.5804 216.286 -56.5031C217.049 -55.5827 217.814 -54.6517 218.582 -53.7044C218.65 -53.6203 218.718 -53.534 218.787 -53.4496C219.488 -52.583 220.191 -51.703 220.896 -50.8144C221.093 -50.5662 221.29 -50.3171 221.488 -50.0671C222.156 -49.2199 222.826 -48.363 223.497 -47.4964L181.622 -28.0387L158.816 -27.9429C158.487 -28.8743 158.164 -29.8016 157.848 -30.7228C157.779 -30.9234 157.708 -31.1258 157.64 -31.3264C157.261 -32.4409 156.894 -33.5465 156.535 -34.6459C156.44 -34.9376 156.347 -35.2277 156.253 -35.5187C155.966 -36.41 155.685 -37.2963 155.411 -38.1769C155.331 -38.4343 155.25 -38.6931 155.171 -38.9497C154.838 -40.0325 154.516 -41.1069 154.205 -42.1719C154.139 -42.3982 154.076 -42.6212 154.011 -42.8465C153.757 -43.7267 153.511 -44.6003 153.272 -45.4678C153.196 -45.7435 153.119 -46.0196 153.045 -46.294C152.76 -47.3439 152.484 -48.3868 152.222 -49.4167C152.195 -49.5246 152.17 -49.6304 152.142 -49.7378C151.907 -50.6711 151.683 -51.5942 151.467 -52.5101C151.403 -52.7815 151.34 -53.0518 151.278 -53.3212C151.064 -54.2438 150.859 -55.1594 150.666 -56.0638C150.647 -56.1539 150.626 -56.2457 150.607 -56.336C150.399 -57.3175 150.207 -58.2842 150.024 -59.243C149.976 -59.4923 149.93 -59.7394 149.884 -59.9866C149.737 -60.7801 149.598 -61.5648 149.468 -62.341C149.437 -62.5256 149.404 -62.7125 149.374 -62.8958C149.223 -63.8199 149.086 -64.7308 148.96 -65.63C148.931 -65.8355 148.906 -66.0375 148.879 -66.2417C148.78 -66.9742 148.691 -67.6973 148.61 -68.4121C148.586 -68.6285 148.559 -68.8463 148.537 -69.0614C148.444 -69.9278 148.363 -70.7824 148.296 -71.6217C148.286 -71.757 148.279 -71.8882 148.268 -72.0224C148.221 -72.659 148.185 -73.2835 148.153 -73.9037L151.858 -75.3056L177.009 -68.0342L216.094 -56.7338ZM148.067 -76.6504C148.067 -76.6557 148.067 -76.6618 148.067 -76.6675C148.066 -76.7505 148.069 -76.8277 148.069 -76.9099L151.455 -75.9209L151.08 -75.7791L148.067 -76.6504ZM147.192 -73.7946L58.9258 -40.4017C58.8491 -40.4607 58.7728 -40.5192 58.6964 -40.5778L147.179 -74.0493C147.182 -73.9652 147.188 -73.8789 147.192 -73.7946ZM54.5606 -42.2374C54.6451 -42.1776 54.7288 -42.12 54.8135 -42.0598L17.0487 -27.9223L17.162 -28.2387L54.5606 -42.2374ZM16.755 -27.8127L16.4434 -27.6962L16.5559 -28.0121L16.8685 -28.1288L16.755 -27.8127ZM16.1522 -27.5876L13.9934 -26.7791C13.9932 -26.8724 13.9961 -26.9609 13.9966 -27.054L16.2645 -27.903L16.1522 -27.5876ZM151.461 -75.6688L151.834 -75.8102L152.221 -75.6969L151.849 -75.5564L151.461 -75.6688ZM147.145 -75.0083C147.149 -74.8464 147.156 -74.6829 147.162 -74.5196C147.163 -74.4944 147.164 -74.4687 147.165 -74.4427C147.167 -74.396 147.17 -74.3481 147.172 -74.3007L58.4746 -40.7481C57.7469 -41.3046 57.0254 -41.8433 56.3094 -42.3661L147.111 -76.3574C147.119 -75.9113 147.128 -75.4636 147.145 -75.0083ZM26.3376 -52.1693C26.4604 -52.1978 26.586 -52.2216 26.7101 -52.2471C26.9822 -52.303 27.2618 -52.3438 27.5409 -52.3849C27.8497 -52.4299 28.1607 -52.4706 28.4775 -52.4982C28.6998 -52.5175 28.9263 -52.5284 29.1532 -52.5387C29.4703 -52.554 29.7889 -52.5656 30.1137 -52.5638C30.3982 -52.5618 30.6879 -52.549 30.9782 -52.5341C31.2405 -52.5214 31.5022 -52.5088 31.7694 -52.4857C32.2051 -52.4467 32.6478 -52.393 33.097 -52.3261C33.2175 -52.3086 33.3363 -52.2948 33.4573 -52.2755C39.4042 -51.2984 46.4653 -47.9199 54.3241 -42.4031L38.4823 -36.4731L17.2674 -28.5324L25.6734 -51.9805C25.8947 -52.0443 26.1112 -52.1163 26.3376 -52.1693ZM68.1252 121.582C68.5858 122.362 69.0472 123.142 69.5121 123.92C69.6534 124.157 69.7965 124.393 69.9381 124.63C71.3221 126.94 72.7219 129.241 74.1382 131.532C74.3096 131.809 74.4808 132.086 74.6527 132.363C76.0793 134.663 77.5222 136.951 78.9794 139.228C79.1167 139.443 79.2532 139.658 79.3912 139.873C80.9652 142.324 82.5549 144.761 84.1611 147.179C84.1775 147.204 84.1939 147.228 84.2103 147.253C85.8108 149.661 87.428 152.049 89.0587 154.419C89.2004 154.625 89.3431 154.83 89.4849 155.035C91.0119 157.248 92.5509 159.441 94.1016 161.615C94.2771 161.861 94.4524 162.106 94.6277 162.352C95.0854 162.99 95.5434 163.629 96.0031 164.264L-58.489 186.349L-58.9752 186.305C-58.9768 186.301 -58.9789 186.298 -58.9806 186.295L68.1252 121.582ZM104.785 176.028C104.821 176.074 104.856 176.121 104.892 176.167C105.708 177.224 106.522 178.267 107.336 179.3C107.659 179.711 107.981 180.115 108.303 180.521C108.768 181.108 109.233 181.694 109.696 182.272C110.134 182.818 110.571 183.36 111.008 183.9C111.306 184.268 111.604 184.634 111.902 184.999C112.463 185.687 113.023 186.371 113.581 187.047C113.584 187.051 113.587 187.054 113.589 187.057C118.506 193.008 123.335 198.493 128.039 203.48L72.4892 198.379L-56.2209 186.558L104.785 176.028ZM131.466 205.119L170.17 208.747L151.75 223.429C145.384 218.578 138.576 212.433 131.466 205.119ZM225.05 -47.7954C224.973 -47.8951 224.897 -47.996 224.82 -48.0954C223.913 -49.2709 223.008 -50.4267 222.105 -51.567C221.672 -52.1146 221.24 -52.6468 220.808 -53.1864C220.352 -53.7553 219.896 -54.3294 219.441 -54.8885C219.127 -55.2755 218.814 -55.6549 218.5 -56.0377L310.936 -29.3127L225.05 -47.7954ZM215.763 -57.1312C215.782 -57.1077 215.801 -57.0842 215.821 -57.0606L152.23 -75.4463L152.6 -75.5865L209.348 -59.0059L215.763 -57.1312ZM25.0482 -51.8033C25.1593 -51.8412 25.2777 -51.8654 25.3906 -51.9002L16.9738 -28.4227L16.6602 -28.3057L25.0235 -51.7942C25.0319 -51.7969 25.04 -51.8002 25.0482 -51.8033ZM23.9713 27.7871C24.0736 28.0889 24.1807 28.3938 24.2844 28.6963C24.648 29.7568 25.019 30.8217 25.3974 31.8924C25.4246 31.9695 25.4499 32.0452 25.4775 32.1221L-55.4777 178.25L23.6167 26.7314C23.7354 27.0835 23.8509 27.4338 23.9713 27.7871ZM43.5636 75.4574C43.7799 75.9122 43.9966 76.3677 44.2145 76.8235C44.823 78.095 45.4379 79.3674 46.0596 80.6427C46.1632 80.8541 46.2637 81.0646 46.3673 81.276C47.0752 82.7224 47.7949 84.171 48.5203 85.6205C48.7429 86.0652 48.9669 86.5096 49.1908 86.9547C49.7751 88.1143 50.3642 89.2749 50.9588 90.4359C51.1426 90.7945 51.3242 91.1526 51.5091 91.5111C52.2541 92.9581 53.0076 94.406 53.769 95.854C53.9798 96.2557 54.1933 96.6572 54.4056 97.0586C55.012 98.2054 55.6229 99.3521 56.2387 100.499C56.4632 100.917 56.6866 101.335 56.9128 101.753C57.4295 102.71 57.9511 103.666 58.4742 104.622L-59.1765 185.962C-59.1778 185.96 -59.1794 185.958 -59.1803 185.956L43.2503 74.7999C43.3539 75.0186 43.4598 75.2384 43.5636 75.4574ZM151.947 223.579L170.513 208.78L170.825 208.809L152.125 223.715C152.066 223.67 152.006 223.624 151.947 223.579ZM290.631 144.399C290.445 144.44 290.264 144.488 290.074 144.52C289.859 144.557 289.635 144.576 289.414 144.602C288.362 144.724 287.252 144.739 286.07 144.619C285.703 144.581 285.328 144.525 284.951 144.465C284.843 144.448 284.736 144.436 284.627 144.417C284.319 144.364 284.006 144.295 283.692 144.227C283.472 144.179 283.252 144.133 283.029 144.077C282.805 144.023 282.578 143.96 282.353 143.899C281.977 143.795 281.6 143.687 281.215 143.563C281.127 143.536 281.038 143.507 280.95 143.478C280.337 143.275 279.712 143.043 279.078 142.791L292.979 131.249L291.257 144.252C291.052 144.309 290.841 144.354 290.631 144.399ZM187.144 -86.1132L184.085 -87.4975L184.947 -87.824C185.674 -87.2725 186.406 -86.7043 187.144 -86.1132ZM187.879 -85.5188C188.012 -85.4106 188.145 -85.3052 188.278 -85.1961C188.353 -85.1348 188.428 -85.0729 188.503 -85.0113L183.474 -87.2668L183.769 -87.3781L187.879 -85.5188ZM189.184 -84.444C189.447 -84.2243 189.71 -84.0077 189.974 -83.7833C190.167 -83.6194 190.363 -83.4495 190.556 -83.2829C191.2 -82.7317 191.847 -82.1659 192.499 -81.5869C192.846 -81.2778 193.194 -80.9673 193.545 -80.6502C193.847 -80.3765 194.151 -80.1006 194.455 -79.8208C194.96 -79.3568 195.468 -78.8847 195.978 -78.4039C196.195 -78.1995 196.412 -77.9951 196.63 -77.7874C197.228 -77.219 197.829 -76.6391 198.433 -76.0487C198.649 -75.8373 198.867 -75.6234 199.083 -75.4091C199.674 -74.827 200.267 -74.2357 200.862 -73.6335C200.977 -73.5169 201.092 -73.4041 201.207 -73.2865C201.924 -72.5589 202.644 -71.8146 203.368 -71.0587C203.527 -70.8929 203.686 -70.7243 203.845 -70.557C204.479 -69.8916 205.115 -69.2161 205.754 -68.5285C205.874 -68.3988 205.994 -68.271 206.115 -68.1404C206.86 -67.3351 207.61 -66.5147 208.362 -65.6799C208.489 -65.5393 208.617 -65.3953 208.744 -65.2532C209.396 -64.5275 210.051 -63.7897 210.707 -63.0422C210.855 -62.8743 211.002 -62.7075 211.151 -62.5382C211.909 -61.6706 212.67 -60.7904 213.435 -59.8945C213.535 -59.7774 213.635 -59.6574 213.736 -59.5395C214.317 -58.8564 214.901 -58.1603 215.485 -57.4607L196.886 -62.8952L152.971 -75.7265L183.158 -87.1466L189.184 -84.444ZM152.592 -75.8372L152.205 -75.9503L182.538 -87.4247L182.85 -87.2845L152.592 -75.8372ZM151.825 -76.0614L148.072 -77.1579C148.073 -77.6981 148.076 -78.236 148.091 -78.7571C148.094 -78.8568 148.099 -78.952 148.103 -79.0506C148.123 -79.6608 148.15 -80.2619 148.19 -80.845C148.192 -80.873 148.195 -80.9005 148.197 -80.9289C148.8 -89.5184 151.489 -95.1531 156.081 -97.4202C156.147 -97.4526 156.215 -97.4815 156.282 -97.5126C156.561 -97.6428 156.847 -97.7622 157.14 -97.8684C157.205 -97.8919 157.271 -97.9159 157.336 -97.9386C157.687 -98.0577 158.047 -98.1591 158.414 -98.2448L182.23 -87.5627L151.825 -76.0614ZM22.4046 -50.544C22.7815 -50.7836 23.172 -50.9996 23.5733 -51.1967C23.6357 -51.227 23.7001 -51.254 23.7625 -51.2832C24.0781 -51.4313 24.4026 -51.5631 24.7325 -51.6854L16.3691 -28.1962L13.9994 -27.3095C14.002 -27.8376 14.0034 -28.3688 14.0175 -28.8816C14.0232 -29.0957 14.0347 -29.3015 14.0424 -29.5131C14.064 -30.0957 14.0905 -30.6723 14.1266 -31.2344C14.1398 -31.4345 14.1556 -31.6304 14.1702 -31.8282C14.215 -32.4226 14.2665 -33.0079 14.3284 -33.5781C14.3421 -33.7055 14.3557 -33.8332 14.3702 -33.9591C15.3171 -42.1131 18.0244 -47.735 22.3681 -50.5198C22.3803 -50.5278 22.3923 -50.5364 22.4046 -50.544ZM23.5118 26.4168L1.95591 67.7111L23.4749 26.3065C23.4873 26.3435 23.4994 26.3799 23.5118 26.4168ZM25.5827 32.4247C25.6121 32.5074 25.6404 32.5892 25.6701 32.6716L-12.9028 101.893L25.5827 32.4247ZM291.509 144.176L293.251 131.024L293.544 130.781L291.825 144.072C291.72 144.107 291.616 144.143 291.509 144.176ZM184.723 -87.9934L183.779 -87.6359L183.468 -87.7767L184.495 -88.1652C184.571 -88.1084 184.647 -88.0509 184.723 -87.9934ZM183.463 -87.5167L183.167 -87.4045L182.854 -87.5449L183.152 -87.6574L183.463 -87.5167ZM182.547 -87.6827L158.818 -98.3258C158.999 -98.3614 159.184 -98.3886 159.368 -98.4169L182.846 -87.7955L182.547 -87.6827ZM147.1 -76.8763C147.102 -76.7884 147.105 -76.6984 147.106 -76.6099L56.0787 -42.5344C55.9967 -42.5936 55.9142 -42.6546 55.8328 -42.7136L88.211 -54.8336L147.1 -76.8763ZM25.7776 32.9687C25.8027 33.0377 25.8286 33.1072 25.8532 33.1764C26.3055 34.4405 26.7654 35.7103 27.2382 36.9882C27.307 37.1756 27.3769 37.3634 27.4467 37.5507C27.9134 38.807 28.3919 40.0709 28.8783 41.3395C29.0471 41.7812 29.2179 42.2236 29.3899 42.6671C29.8172 43.7715 30.2517 44.8809 30.6936 45.9941C30.8168 46.3059 30.9379 46.6156 31.0626 46.9281C31.6079 48.2922 32.1647 49.6638 32.7302 51.0394C32.9074 51.47 33.0873 51.9018 33.2665 52.3333C33.7088 53.4007 34.1571 54.4713 34.6118 55.5447C34.7852 55.9534 34.9561 56.3613 35.1309 56.7707C35.7226 58.1579 36.3241 59.5494 36.9357 60.9455C37.1001 61.3222 37.2687 61.6998 37.4347 62.0766C37.924 63.1872 38.4195 64.3004 38.9211 65.416C39.1201 65.8591 39.3187 66.3014 39.5199 66.7455C40.1628 68.1649 40.8131 69.5871 41.4744 71.0138C41.5891 71.2607 41.7064 71.5086 41.8217 71.7557C42.2341 72.6411 42.6465 73.5258 43.0659 74.4134L-59.1432 185.562L-58.9826 185.077L25.7776 32.9687ZM166.905 232.907L182.602 236.096C182.276 236.15 181.937 236.181 181.601 236.215L168.083 233.437C167.693 233.268 167.301 233.091 166.905 232.907ZM194.688 226.862C194.81 226.531 194.927 226.192 195.039 225.846C195.07 225.752 195.103 225.662 195.133 225.567C195.267 225.139 195.392 224.696 195.511 224.246C195.552 224.091 195.591 223.933 195.631 223.776C195.717 223.432 195.798 223.083 195.876 222.727C195.909 222.578 195.943 222.43 195.974 222.279C196.074 221.793 196.168 221.296 196.253 220.788C196.273 220.667 196.29 220.542 196.31 220.42C196.376 220.003 196.437 219.578 196.493 219.147C196.515 218.979 196.536 218.811 196.557 218.641C196.615 218.151 196.669 217.653 196.715 217.144C196.721 217.075 196.729 217.008 196.735 216.938C196.785 216.361 196.825 215.769 196.859 215.168C196.869 215.007 196.876 214.843 196.884 214.68C196.908 214.193 196.926 213.699 196.94 213.197C196.944 213.049 196.949 212.904 196.952 212.755C196.963 212.264 196.967 211.765 196.968 211.26L196.97 210.959L258.187 160.134L278.167 143.547C281.136 144.814 283.914 145.602 286.46 145.861C287.634 145.98 288.746 145.977 289.805 145.872L194.589 227.137C194.623 227.047 194.654 226.953 194.688 226.862ZM233.208 -52.0337L218.231 -56.3639C218.215 -56.3841 218.198 -56.4042 218.181 -56.4243L220.401 -55.776L233.208 -52.0337ZM147.283 -82.2312C147.28 -82.2069 147.279 -82.1818 147.277 -82.1574C147.238 -81.676 147.203 -81.1885 147.177 -80.6883C147.166 -80.4901 147.16 -80.286 147.152 -80.0853C147.137 -79.7269 147.119 -79.3714 147.111 -79.0038C147.098 -78.4058 147.091 -77.7976 147.095 -77.1763C147.095 -77.1606 147.096 -77.1448 147.096 -77.1291L142.78 -75.5137L55.6017 -42.8817C46.2134 -49.6255 37.8804 -53.4134 31.0451 -53.9006L152.068 -96.1068C149.395 -93.097 147.797 -88.4483 147.283 -82.2312ZM13.0957 -17.6049L-22.8214 82.5797L13.045 -18.1515C13.0629 -17.9683 13.0764 -17.7894 13.0957 -17.6049ZM194.158 228.182C194.241 227.992 194.325 227.804 194.404 227.608L290.24 145.814C290.391 145.794 290.543 145.778 290.692 145.753C290.733 145.747 290.775 145.744 290.815 145.737L194.121 228.269C194.134 228.241 194.145 228.211 194.158 228.182ZM310.725 -29.6327L279.708 -38.6957L217.912 -56.7516C217.838 -56.8404 217.766 -56.9289 217.692 -57.0173C217.405 -57.3656 217.116 -57.7194 216.829 -58.0635C216.128 -58.9059 215.429 -59.7315 214.731 -60.5522C214.582 -60.7274 214.433 -60.9054 214.285 -61.079C213.465 -62.0374 212.65 -62.9779 211.836 -63.9058C211.832 -63.9111 211.826 -63.9171 211.822 -63.9227C205.586 -71.0335 199.527 -77.2273 193.768 -82.388L300.457 -34.5351L310.725 -29.6327ZM193.179 -82.9139C193.022 -83.0526 192.864 -83.1965 192.708 -83.334L246.622 -58.9435L193.179 -82.9139ZM12.6496 -23.6026C12.6555 -23.4686 12.6684 -23.3271 12.6747 -23.1923C12.7147 -22.3683 12.7652 -21.5325 12.8278 -20.6838C12.8406 -20.516 12.8493 -20.3516 12.8625 -20.183C12.9011 -19.6992 12.948 -19.2065 12.9933 -18.7155L-51.3354 161.955L-50.7827 160.285L12.6496 -23.6026ZM193.889 228.781L254.287 177.229L193.768 229.03C193.808 228.947 193.85 228.865 193.889 228.781ZM192.095 -83.8732C191.23 -84.6257 190.373 -85.353 189.523 -86.057L287.253 -40.8391L287.853 -40.5525L192.095 -83.8732ZM12.6264 -24.2666L-28.559 95.127L12.5997 -25.1578C12.6076 -24.8618 12.6154 -24.5661 12.6264 -24.2666ZM84.4091 200.707L129.416 204.926C136.37 212.194 143.042 218.355 149.315 223.314L-49.6449 188.388L-51.7739 187.939L84.4091 200.707ZM188.767 -86.6704C188.442 -86.9347 188.118 -87.2013 187.796 -87.4582L258.905 -54.219L188.767 -86.6704ZM149.705 223.624C149.869 223.753 150.037 223.89 150.2 224.017L33.1771 203.168L149.705 223.624ZM186.99 -88.098C186.288 -88.6481 185.589 -89.1897 184.898 -89.7043L247.984 -59.5864L186.99 -88.098ZM150.617 224.334C154.247 227.132 157.741 229.525 161.07 231.478L-12.5253 196.214L-41.4488 190.116L150.617 224.334ZM12.7081 -31.6793C12.6673 -31.0536 12.6362 -30.4152 12.6139 -29.7656C12.6076 -29.5863 12.6013 -29.407 12.5963 -29.2253C12.5751 -28.4389 12.5625 -27.6412 12.5672 -26.821C12.569 -26.5037 12.5804 -26.1762 12.586 -25.8542L-41.4228 131.984L-9.93255 36.7722L12.7081 -31.6793ZM161.742 231.858C161.998 232.005 162.255 232.15 162.509 232.292L44.3023 208.002L161.742 231.858ZM163.195 232.677C163.832 233.022 164.463 233.351 165.087 233.663L53.5443 210.145L163.195 232.677Z" fill="#7C876E"/>
</svg>
