<svg width="267" height="246" viewBox="0 0 267 246" fill="none" xmlns="http://www.w3.org/2000/svg">
<g style="mix-blend-mode:multiply" opacity="0.35">
<path d="M133.035 3.96576C60.9653 3.96576 2.33081 57.339 2.33081 122.947C2.33081 188.556 60.9653 241.929 133.035 241.929C205.105 241.929 263.739 188.551 263.739 122.947C263.739 57.339 205.105 3.96576 133.035 3.96576ZM133.035 244.647C59.7413 244.647 0.113281 190.493 0.113281 122.947C0.113281 55.4015 59.7413 0.447266 133.035 0.447266C206.329 0.447266 265.956 55.4015 265.956 122.947C265.956 190.498 206.329 244.647 133.035 244.647Z" fill="black" fill-opacity="0.45"/>
<path d="M133.035 69.5944C57.9939 69.5944 0.552631 112.939 2.33081 156.167C2.33081 202.597 57.9968 241.933 133.035 241.933C208.073 241.933 263.739 202.597 263.739 156.167C263.164 111.738 208.076 69.5944 133.035 69.5944ZM133.035 244.647C66.3613 244.647 0.113281 206.781 0.113281 156.162C0.113281 105.538 62.4899 66.8718 133.035 66.8718C200.609 65.3002 265.956 105.538 265.956 156.162C265.956 206.786 199.709 244.647 133.035 244.647Z" fill="black" fill-opacity="0.45"/>
<path d="M133.035 136.824C55.0253 136.824 2.33081 162.125 2.33081 189.381C2.33081 216.633 55.0253 241.933 133.035 241.933C211.045 241.933 263.739 216.633 263.739 189.381C263.739 162.125 211.045 136.824 133.035 136.824ZM133.035 244.647C72.9814 244.647 0.113281 223.07 0.113281 189.376C0.113281 155.679 72.9844 133.301 133.035 133.301C193.086 133.301 265.956 155.679 265.956 189.376C265.956 223.074 193.089 244.647 133.035 244.647Z" fill="black" fill-opacity="0.45"/>
<path d="M133.035 203.249C52.0538 203.249 2.33081 214.513 2.33081 222.591C2.33081 230.67 52.0538 241.929 133.035 241.929C214.016 241.929 263.739 230.67 263.739 222.591C263.739 214.513 214.016 203.249 133.035 203.249ZM133.035 244.647C79.6044 244.647 0.113281 239.358 0.113281 222.591C0.113281 205.82 79.6044 199.73 133.035 199.73C186.466 199.73 265.956 205.82 265.956 222.591C265.956 239.363 186.466 244.647 133.035 244.647Z" fill="black" fill-opacity="0.45"/>
<path d="M264.848 244.647H1.22204C0.610007 244.647 0.113281 244.659 0.113281 243.688C0.113281 242.717 0.610007 241.929 1.22204 241.929H264.848C265.46 241.929 265.956 242.717 265.956 243.688C265.956 244.659 265.46 244.647 264.848 244.647Z" fill="black" fill-opacity="0.45"/>
</g>
</svg>
