<svg width="267" height="251" viewBox="0 0 267 251" fill="none" xmlns="http://www.w3.org/2000/svg">
<g style="mix-blend-mode:multiply" opacity="0.35">
<path d="M134 246.86C206.112 246.86 264.781 192.437 264.781 125.539C264.781 58.6411 206.112 4.21854 134 4.21854C61.8876 4.21854 3.21881 58.6458 3.21881 125.539C3.21881 192.437 61.8876 246.86 134 246.86ZM134 1.44727C207.337 1.44727 267 56.6654 267 125.539C267 194.413 207.337 250.447 134 250.447C60.6628 250.447 1 194.413 1 125.539C1 56.6607 60.6628 1.44727 134 1.44727Z" fill="black" fill-opacity="0.45"/>
<path d="M134 179.941C209.085 179.941 266.56 135.744 264.781 91.6667C264.781 44.3238 209.082 4.21373 134 4.21373C58.9173 4.21373 3.21881 44.3238 3.21881 91.6667C3.79428 136.969 58.9144 179.941 134 179.941ZM134 1.44727C200.713 1.44727 267 40.0569 267 91.6715C267 143.291 204.587 182.717 134 182.717C66.3855 184.319 1 143.291 1 91.6715C1 40.0521 67.2868 1.44727 134 1.44727Z" fill="black" fill-opacity="0.45"/>
<path d="M134 111.389C212.056 111.389 264.781 85.5916 264.781 57.7991C264.781 30.0114 212.056 4.21373 134 4.21373C55.9441 4.21373 3.21881 30.0114 3.21881 57.7991C3.21881 85.5916 55.9441 111.389 134 111.389ZM134 1.44727C194.089 1.44727 267 23.4484 267 57.8039C267 92.1642 194.086 114.982 134 114.982C73.9137 114.982 1 92.1642 1 57.8039C1 23.4436 73.9108 1.44727 134 1.44727Z" fill="black" fill-opacity="0.45"/>
<path d="M134 43.6589C215.029 43.6589 264.781 32.1736 264.781 23.9363C264.781 15.6991 215.029 4.21854 134 4.21854C52.9709 4.21854 3.21881 15.6991 3.21881 23.9363C3.21881 32.1736 52.9709 43.6589 134 43.6589ZM134 1.44727C187.462 1.44727 267 6.8399 267 23.9363C267 41.0375 187.462 47.2466 134 47.2466C80.5377 47.2466 1 41.0375 1 23.9363C1 6.83511 80.5377 1.44727 134 1.44727Z" fill="black" fill-opacity="0.45"/>
<path d="M2.10941 1.44727H265.891C266.503 1.44727 267 1.43451 267 2.42471C267 3.4149 266.503 4.21854 265.891 4.21854H2.10941C1.49701 4.21854 1 3.4149 1 2.42471C1 1.43451 1.49701 1.44727 2.10941 1.44727Z" fill="black" fill-opacity="0.45"/>
</g>
</svg>
