<svg width="268" height="242" viewBox="0 0 268 242" fill="none" xmlns="http://www.w3.org/2000/svg">
<g style="mix-blend-mode:multiply" opacity="0.35">
<path d="M38.5758 226.095C8.36874 194.418 26.4166 123.95 78.81 69.0064C131.203 14.063 198.401 -4.8632 228.608 26.814C258.815 58.4913 240.767 128.959 188.374 183.902C135.983 238.843 68.7829 257.772 38.5758 226.095ZM226.562 28.9595C197.483 -1.53474 132.121 17.3972 80.8612 71.1519C29.6014 124.907 11.5482 193.45 40.6272 223.944C69.7062 254.438 135.065 235.509 186.328 181.751C237.59 127.994 255.641 59.4538 226.562 28.9595Z" fill="black" fill-opacity="0.45"/>
<path d="M38.5758 226.095C21.8512 208.557 50.4833 151.05 103.764 95.1754C157.046 39.301 211.883 9.27541 228.608 26.814C245.333 44.3527 216.698 101.856 163.416 157.731C110.138 213.602 55.3004 243.634 38.5758 226.095ZM226.562 28.9595C211.504 13.1682 156.21 44.4743 105.816 97.3209C55.4218 150.167 25.5687 208.153 40.6272 223.944C55.6829 239.732 110.977 208.426 161.37 155.58C211.764 102.733 241.618 44.748 226.562 28.9595Z" fill="black" fill-opacity="0.45"/>
<path d="M38.5758 226.095C38.0104 225.502 38.0104 224.54 38.5758 223.947L226.559 26.8141C227.125 26.2211 228.043 26.2211 228.608 26.814C229.173 27.407 229.173 28.3694 228.608 28.9624L40.6244 226.095C40.059 226.688 39.1412 226.688 38.5758 226.095Z" fill="black" fill-opacity="0.45"/>
<path d="M78.8111 183.902C26.4192 128.96 8.37319 58.4922 38.5811 26.814C58.2071 6.23283 94.7627 6.33251 133.992 27.0704C134.702 27.4427 134.989 28.3565 134.634 29.1127C134.273 29.8574 133.405 30.161 132.686 29.7858C94.6178 9.65806 59.3433 9.34351 40.6324 28.9651C11.5526 59.4603 29.6041 128.003 80.8624 181.756C132.121 235.509 197.482 254.439 226.562 223.944C245.273 204.322 244.97 167.334 225.779 127.41C225.419 126.659 225.706 125.746 226.421 125.368C227.14 124.992 228.006 125.287 228.369 126.041C248.142 167.182 248.237 205.517 228.613 226.095C198.4 257.768 131.203 238.843 78.8111 183.902Z" fill="black" fill-opacity="0.45"/>
</g>
</svg>
