<svg width="268" height="246" viewBox="0 0 268 246" fill="none" xmlns="http://www.w3.org/2000/svg">
<g style="mix-blend-mode:multiply" opacity="0.35">
<path d="M134 84.1629C67.2704 84.1629 15 65.7754 15 42.3071C15 18.8348 67.2704 0.447266 134 0.447266C200.73 0.447266 253 18.8348 253 42.3071C253 65.7754 200.73 84.1629 134 84.1629ZM134 3.52278C70.9618 3.52278 17.7036 21.2829 17.7036 42.3071C17.7036 63.3273 70.9582 81.0874 134 81.0874C197.042 81.0874 250.296 63.3273 250.296 42.3071C250.296 21.2829 197.042 3.52278 134 3.52278Z" fill="black" fill-opacity="0.45"/>
<path d="M134 124.485C67.2704 124.485 15 106.097 15 82.6251C15 74.924 20.6991 67.4772 31.4813 61.0924C32.1302 60.7028 32.9558 60.9899 33.3055 61.7444C33.6516 62.499 33.3883 63.4257 32.7286 63.8194C22.8981 69.6382 17.7036 76.1419 17.7036 82.6251C17.7036 103.649 70.9582 121.409 134 121.409C197.042 121.409 250.296 103.649 250.296 82.6251C250.296 76.146 245.105 69.6464 235.282 63.8276C234.619 63.4339 234.359 62.5072 234.705 61.7526C235.055 60.9981 235.881 60.711 236.53 61.1006C247.304 67.4854 253 74.9281 253 82.6251C253 106.097 200.73 124.485 134 124.485Z" fill="black" fill-opacity="0.45"/>
<path d="M134 164.807C67.2704 164.807 15 146.42 15 122.947C15 99.4749 67.2704 81.0874 134 81.0874C200.73 81.0874 253 99.4749 253 122.947C253 146.42 200.73 164.807 134 164.807ZM134 84.1629C70.9618 84.1629 17.7036 101.923 17.7036 122.947C17.7036 143.971 70.9582 161.732 134 161.732C197.042 161.732 250.296 143.971 250.296 122.947C250.296 101.923 197.042 84.1629 134 84.1629Z" fill="black" fill-opacity="0.45"/>
<path d="M134 205.125C67.2704 205.125 15 186.738 15 163.265C15 139.793 67.2704 121.409 134 121.409C200.73 121.409 253 139.793 253 163.265C253 186.738 200.73 205.125 134 205.125ZM134 124.485C70.9618 124.485 17.7036 142.245 17.7036 163.269C17.7036 184.289 70.9582 202.054 134 202.054C197.042 202.054 250.296 184.294 250.296 163.269C250.296 142.245 197.042 124.485 134 124.485Z" fill="black" fill-opacity="0.45"/>
<path d="M134 245.447C67.2704 245.447 15 227.06 15 203.587C15 195.886 20.6991 188.439 31.4813 182.055C32.1302 181.665 32.9558 181.956 33.3055 182.707C33.6516 183.461 33.3883 184.388 32.7286 184.782C22.8981 190.6 17.7036 197.104 17.7036 203.587C17.7036 224.608 70.9582 242.372 134 242.372C197.042 242.372 250.296 224.612 250.296 203.587C250.296 197.108 245.105 190.605 235.282 184.786C234.619 184.392 234.359 183.465 234.705 182.711C235.055 181.956 235.881 181.673 236.53 182.059C247.304 188.444 253 195.886 253 203.587C253 227.06 200.73 245.447 134 245.447Z" fill="black" fill-opacity="0.45"/>
</g>
</svg>
