<svg width="81" height="81" viewBox="0 0 81 81" fill="none" xmlns="http://www.w3.org/2000/svg">
<g clip-path="url(#clip0_8564_69978)">
<mask id="path-1-inside-1_8564_69978" fill="white">
<path d="M63.8047 18.4473C73.0254 18.4473 80.5009 28.4137 80.501 40.708C80.501 53.0023 73.0254 62.9688 63.8047 62.9688C59.0034 62.9686 54.6765 60.2657 51.6309 55.9395C48.5851 60.2656 44.2584 62.9688 39.457 62.9688C35.1803 62.9686 31.2801 60.8239 28.3262 57.2979C25.3722 60.8238 21.4721 62.9688 17.1953 62.9688C7.97471 62.9685 0.5 53.0022 0.5 40.708C0.500052 28.4139 7.97475 18.4475 17.1953 18.4473C21.4718 18.4473 25.3723 20.5917 28.3262 24.1172C31.28 20.5916 35.1806 18.4474 39.457 18.4473C44.2581 18.4473 48.5851 21.1499 51.6309 25.4756C54.6765 21.1498 59.0037 18.4474 63.8047 18.4473Z"/>
</mask>
<path d="M63.8047 18.4473V17.4473H63.8047L63.8047 18.4473ZM80.501 40.708H81.501V40.708L80.501 40.708ZM63.8047 62.9688L63.8047 63.9688H63.8047V62.9688ZM51.6309 55.9395L52.4486 55.3638L51.6309 54.2023L50.8132 55.3638L51.6309 55.9395ZM39.457 62.9688L39.457 63.9688H39.457V62.9688ZM28.3262 57.2979L29.0927 56.6557L28.3262 55.7407L27.5596 56.6557L28.3262 57.2979ZM17.1953 62.9688L17.1953 63.9688H17.1953V62.9688ZM0.5 40.708L-0.5 40.708V40.708H0.5ZM17.1953 18.4473V17.4473H17.1953L17.1953 18.4473ZM28.3262 24.1172L27.5597 24.7594L28.3262 25.6743L29.0927 24.7594L28.3262 24.1172ZM39.457 18.4473V17.4473H39.457L39.457 18.4473ZM51.6309 25.4756L50.8132 26.0513L51.6309 27.2126L52.4485 26.0513L51.6309 25.4756ZM63.8047 18.4473V19.4473C68.0297 19.4473 71.9312 21.7283 74.8106 25.5673C77.6902 29.4066 79.501 34.7563 79.501 40.708L80.501 40.708L81.501 40.708C81.5009 34.3654 79.5739 28.5848 76.4106 24.3673C73.247 20.1494 68.8004 17.4473 63.8047 17.4473V18.4473ZM80.501 40.708H79.501C79.501 46.6597 77.6903 52.0095 74.8106 55.8487C71.9312 59.6877 68.0298 61.9688 63.8047 61.9688V62.9688V63.9688C68.8004 63.9688 73.247 61.2666 76.4106 57.0488C79.5739 52.8313 81.501 47.0506 81.501 40.708H80.501ZM63.8047 62.9688L63.8047 61.9688C59.4059 61.9686 55.3562 59.494 52.4486 55.3638L51.6309 55.9395L50.8132 56.5151C53.9969 61.0374 58.6009 63.9686 63.8047 63.9688L63.8047 62.9688ZM51.6309 55.9395L50.8132 55.3638C47.9054 59.4939 43.8559 61.9688 39.457 61.9688V62.9688V63.9688C44.6609 63.9688 49.2648 61.0373 52.4485 56.5151L51.6309 55.9395ZM39.457 62.9688L39.4571 61.9688C35.5362 61.9686 31.8989 60.0053 29.0927 56.6557L28.3262 57.2979L27.5596 57.94C30.6613 61.6425 34.8244 63.9686 39.457 63.9688L39.457 62.9688ZM28.3262 57.2979L27.5596 56.6557C24.7534 60.0053 21.1161 61.9688 17.1953 61.9688V62.9688V63.9688C21.828 63.9688 25.991 61.6423 29.0927 57.94L28.3262 57.2979ZM17.1953 62.9688L17.1953 61.9688C12.9704 61.9686 9.06912 59.6876 6.18994 55.8486C3.31052 52.0093 1.5 46.6597 1.5 40.708H0.5H-0.5C-0.5 47.0505 1.42684 52.8311 4.58993 57.0486C7.75325 61.2664 12.1997 63.9686 17.1953 63.9688L17.1953 62.9688ZM0.5 40.708L1.5 40.708C1.50003 34.7564 3.31055 29.4067 6.18997 25.5674C9.06915 21.7285 12.9704 19.4474 17.1953 19.4473L17.1953 18.4473L17.1953 17.4473C12.1997 17.4474 7.75327 20.1496 4.58996 24.3674C1.42687 28.5849 -0.499973 34.3655 -0.5 40.708L0.5 40.708ZM17.1953 18.4473V19.4473C21.116 19.4473 24.7536 21.4103 27.5597 24.7594L28.3262 24.1172L29.0927 23.475C25.991 19.773 21.8276 17.4473 17.1953 17.4473V18.4473ZM28.3262 24.1172L29.0927 24.7594C31.8987 21.4102 35.5364 19.4474 39.4571 19.4473L39.457 18.4473L39.457 17.4473C34.8248 17.4474 30.6613 19.7729 27.5596 23.475L28.3262 24.1172ZM39.457 18.4473V19.4473C43.8556 19.4473 47.9055 21.9217 50.8132 26.0513L51.6309 25.4756L52.4485 24.8999C49.2648 20.3782 44.6605 17.4473 39.457 17.4473V18.4473ZM51.6309 25.4756L52.4485 26.0513C55.3561 21.9216 59.4061 19.4474 63.8047 19.4473L63.8047 18.4473L63.8047 17.4473C58.6013 17.4474 53.9969 20.378 50.8132 24.8999L51.6309 25.4756Z" fill="black" mask="url(#path-1-inside-1_8564_69978)"/>
</g>
<defs>
<clipPath id="clip0_8564_69978">
<rect width="80" height="80" fill="white" transform="translate(0.5 0.447266)"/>
</clipPath>
</defs>
</svg>
