<svg width="81" height="81" viewBox="0 0 81 81" fill="none" xmlns="http://www.w3.org/2000/svg">
<path d="M38.9316 5.10352C39.2256 4.05748 40.6716 4.02481 41.0371 5.00586L41.0684 5.10352L48.1523 30.334C48.3389 30.9983 48.8369 31.5266 49.4824 31.7539L49.6133 31.7949L74.8438 38.8789C75.8898 39.1728 75.9225 40.6189 74.9414 40.9844L74.8438 41.0156L49.6133 48.0996C48.9489 48.2861 48.4206 48.7842 48.1934 49.4297L48.1523 49.5605L41.0684 74.791C40.7744 75.8371 39.3284 75.8697 38.9629 74.8887L38.9316 74.791L31.8477 49.5605C31.6611 48.8962 31.1631 48.3679 30.5176 48.1406L30.3867 48.0996L5.15625 41.0156C4.11021 40.7217 4.07755 39.2757 5.05859 38.9102L5.15625 38.8789L30.3867 31.7949C31.0511 31.6084 31.5794 31.1103 31.8066 30.4648L31.8477 30.334L38.9316 5.10352Z" stroke="black"/>
</svg>
