<svg width="124" height="132" viewBox="0 0 124 132" fill="none" xmlns="http://www.w3.org/2000/svg">
<path d="M46.2354 4.18183C55.9896 -1.39395 68.0075 -1.39393 77.7617 4.18183L107.977 21.4533C117.731 27.029 123.74 37.3331 123.74 48.4846V83.0275C123.74 94.1791 117.731 104.484 107.977 110.06L77.7617 127.331C68.0075 132.907 55.9896 132.907 46.2354 127.331L16.0205 110.06C6.26641 104.484 0.257812 94.179 0.257813 83.0275V48.4846C0.257948 37.3333 6.26657 27.0291 16.0205 21.4533L46.2354 4.18183ZM44.4307 42.1642C25.5794 42.1642 10.2969 57.4467 10.2969 76.298C10.2971 95.1492 25.5795 110.431 44.4307 110.431C63.2818 110.431 78.5633 95.1492 78.5635 76.298C78.5635 57.4468 63.2819 42.1643 44.4307 42.1642Z" fill="#3E4F4C"/>
</svg>
