<svg width="86" height="86" viewBox="0 0 86 86" fill="none" xmlns="http://www.w3.org/2000/svg">
<path d="M19.2741 19.5541C26.2146 12.6139 37.4671 12.6144 44.4075 19.5548L79.4452 54.5924C86.3855 61.5328 86.3861 72.7854 79.4459 79.7258C72.5054 86.6662 61.2523 86.6662 54.3118 79.7258L19.2741 44.6881C12.3337 37.7477 12.3337 26.4945 19.2741 19.5541Z" stroke="black"/>
<path d="M79.4368 19.5541C72.4963 12.6139 61.2438 12.6144 54.3034 19.5548L19.2657 54.5924C12.3254 61.5328 12.3249 72.7854 19.2651 79.7258C26.2055 86.6662 37.4587 86.6662 44.3991 79.7258L79.4368 44.6881C86.3772 37.7477 86.3772 26.4945 79.4368 19.5541Z" stroke="black"/>
</svg>
